<svg width="663" height="449" viewBox="0 0 663 449" fill="none" xmlns="http://www.w3.org/2000/svg"><style>@keyframes bar{0%,90%,to{transform:translateY(65px)}10%,80%{transform:translateY(0)}}@keyframes light{0%,10%,80%,to{opacity:0}15%,75%{opacity:1}}@keyframes emblems{0%,15%,20%,25%,80%,to{opacity:0}17%,22%,27%,32%,70%{opacity:1}}</style><g id="chip"><rect id="Rectangle 1436" width="377.052" height="377.052" rx="11.637" transform="matrix(.86603 .5 -.86603 .5 331.278 71.565)" fill="#000"/><g id="Group 1388" stroke="#000" stroke-width="1.164"><g id="Group 1382"><path id="Rectangle 1430" d="M367.985 336.608l22.173-12.801 11.936 7.315c5.872 3.6 10.081 7.994 12.24 12.779l11.186 24.796c1.686 3.737 8.042 6.109 14.635 5.461l14.023 1.324v15.853l-22.172 12.801-10.186-6.228c-9.727-5.851-16.611-13.079-19.958-20.956l-4.233-9.961c-4.887-11.501-15.14-22.009-29.644-30.383z" fill="#55A398" stroke-linecap="round" stroke-linejoin="round"/><path id="Rectangle 1429" d="M376.536 325.999l22.172-12.801c13.704 8.398 23.527 18.653 28.564 29.819l3.395 7.524c4.192 9.294 12.254 17.856 23.483 24.941l-22.184 12.777c-10.772-6.48-18.396-14.485-22.103-23.208l-3.683-8.669c-4.888-11.501-15.14-22.01-29.644-30.383z" fill="#BDDCD8" stroke-linecap="round" stroke-linejoin="round"/><path id="Vector 334" d="M431.843 388.259v15.42"/></g><g id="Group 1384"><path id="Rectangle 1430_2" d="M471.599 276.65l22.172-12.801 11.936 7.315c5.872 3.599 10.082 7.994 12.24 12.779l11.187 24.796c1.685 3.737 8.041 6.108 14.634 5.461l14.023 1.324v15.853l-22.172 12.801-10.186-6.228c-9.727-5.851-16.611-13.079-19.958-20.956l-4.233-9.961c-4.887-11.501-15.14-22.009-29.643-30.383z" fill="#55A398" stroke-linecap="round" stroke-linejoin="round"/><path id="Rectangle 1429_2" d="M480.149 266.04l22.173-12.801c13.703 8.399 23.526 18.654 28.564 29.82l3.394 7.524c4.193 9.294 12.254 17.855 23.483 24.941l-22.183 12.777c-10.773-6.48-18.397-14.485-22.103-23.208l-3.684-8.669c-4.887-11.502-15.14-22.01-29.644-30.384z" fill="#BDDCD8" stroke-linecap="round" stroke-linejoin="round"/><path id="Vector 334_2" d="M535.456 328.301v15.419"/></g><g id="Group 1383"><path id="Rectangle 1430_3" d="M419.793 306.339l22.172-12.801 11.936 7.315c5.873 3.6 10.082 7.994 12.241 12.779l11.186 24.796c1.686 3.737 8.041 6.108 14.634 5.461l14.024 1.324v15.853l-22.173 12.801-10.186-6.228c-9.727-5.851-16.611-13.079-19.958-20.956l-4.233-9.961c-4.887-11.501-15.139-22.009-29.643-30.383z" fill="#55A398" stroke-linecap="round" stroke-linejoin="round"/><path id="Rectangle 1429_3" d="M428.344 295.73l22.172-12.802c13.704 8.399 23.527 18.654 28.564 29.82l3.394 7.524c4.193 9.294 12.254 17.856 23.484 24.941l-22.184 12.777c-10.773-6.48-18.396-14.485-22.103-23.208l-3.684-8.669c-4.887-11.501-15.139-22.01-29.643-30.383z" fill="#BDDCD8" stroke-linecap="round" stroke-linejoin="round"/><path id="Vector 334_3" d="M483.65 357.99v15.42"/></g><g id="Group 1385"><path id="Rectangle 1430_4" d="M523.405 246.382l22.173-12.801 11.935 7.315c5.873 3.599 10.082 7.994 12.241 12.779l11.186 24.796c1.686 3.737 8.042 6.108 14.635 5.461l14.023 1.324v15.853l-22.172 12.801-10.186-6.228c-9.727-5.851-16.611-13.079-19.959-20.956l-4.232-9.961c-4.888-11.501-15.14-22.009-29.644-30.383z" fill="#55A398" stroke-linecap="round" stroke-linejoin="round"/><path id="Rectangle 1429_4" d="M531.956 235.772l22.172-12.801c13.704 8.399 23.527 18.654 28.564 29.82l3.395 7.524c4.192 9.294 12.254 17.855 23.483 24.94l-22.184 12.778c-10.772-6.48-18.396-14.485-22.103-23.208l-3.683-8.669c-4.888-11.502-15.14-22.01-29.644-30.384z" fill="#BDDCD8" stroke-linecap="round" stroke-linejoin="round"/><path id="Vector 334_4" d="M587.263 298.033v15.419"/></g><g id="Group 1359"><path id="Rectangle 1430_5" d="M323.166 356.854l15.034-2.779 11.936 7.315c5.872 3.6 10.082 7.994 12.241 12.779l11.186 24.796c1.685 3.737 8.041 6.109 14.634 5.461l14.023 1.324v15.853l-22.172 12.801-10.186-6.228c-9.727-5.851-16.611-13.079-19.958-20.956l-4.233-9.961c-4.042-9.512-11.754-18.345-22.505-25.853v-14.552z" fill="#55A398" stroke-linecap="round" stroke-linejoin="round"/><path id="Rectangle 1429_5" d="M324.579 356.267l22.172-12.801c13.704 8.399 23.527 18.653 28.564 29.819l3.395 7.524c4.192 9.294 12.254 17.856 23.483 24.941l-22.184 12.777c-10.772-6.48-18.396-14.485-22.103-23.208l-3.683-8.669c-4.888-11.501-15.14-22.009-29.644-30.383z" fill="#BDDCD8" stroke-linecap="round" stroke-linejoin="round"/><path id="Vector 334_5" d="M379.886 418.527v15.42"/></g><g id="Group 1387"><path id="Rectangle 1430_6" d="M575.795 216.113l22.172-12.801 11.936 7.315c5.873 3.599 10.082 7.994 12.241 12.779l11.186 24.796c1.686 3.737 8.041 6.108 14.634 5.461l14.024 1.324v15.853l-22.173 12.801-10.186-6.228c-9.727-5.851-16.611-13.079-19.958-20.956l-4.233-9.961c-4.887-11.501-15.139-22.009-29.643-30.383z" fill="#55A398" stroke-linecap="round" stroke-linejoin="round"/><path id="Rectangle 1429_6" d="M584.346 205.504l22.172-12.802c13.704 8.399 23.527 18.654 28.564 29.82l3.394 7.524c4.193 9.294 12.254 17.856 23.484 24.941l-22.184 12.777c-10.773-6.48-18.396-14.485-22.103-23.208l-3.684-8.669c-4.887-11.501-15.139-22.01-29.643-30.383z" fill="#BDDCD8" stroke-linecap="round" stroke-linejoin="round"/><path id="Vector 334_6" d="M639.652 267.764v15.419"/></g></g><g id="Group 1389" stroke="#000" stroke-width="1.164"><g id="Group 1382_2"><path id="Rectangle 1430_7" d="M294.685 336.608l-22.173-12.801-11.936 7.315c-5.872 3.6-10.082 7.994-12.24 12.779l-11.186 24.796c-1.686 3.737-8.042 6.109-14.635 5.461l-14.023 1.324v15.853l22.172 12.801 10.186-6.228c9.727-5.851 16.611-13.079 19.958-20.956l4.233-9.961c4.887-11.501 15.14-22.009 29.644-30.383z" fill="#55A398" stroke-linecap="round" stroke-linejoin="round"/><path id="Rectangle 1429_7" d="M286.133 325.999l-22.172-12.801c-13.704 8.398-23.527 18.653-28.564 29.819l-3.394 7.524c-4.193 9.294-12.254 17.856-23.484 24.941l22.184 12.777c10.773-6.48 18.396-14.485 22.103-23.208l3.684-8.669c4.887-11.501 15.139-22.01 29.643-30.383z" fill="#BDDCD8" stroke-linecap="round" stroke-linejoin="round"/><path id="Vector 334_7" d="M230.827 388.259v15.42"/></g><g id="Group 1384_2"><path id="Rectangle 1430_8" d="M191.07 276.65l-22.172-12.801-11.936 7.315c-5.872 3.599-10.082 7.994-12.24 12.779l-11.187 24.796c-1.685 3.737-8.041 6.108-14.634 5.461l-14.023 1.324v15.853l22.172 12.801 10.186-6.228c9.727-5.851 16.611-13.079 19.958-20.956l4.233-9.961c4.887-11.501 15.139-22.009 29.643-30.383z" fill="#55A398" stroke-linecap="round" stroke-linejoin="round"/><path id="Rectangle 1429_8" d="M182.519 266.04l-22.172-12.801c-13.704 8.399-23.527 18.654-28.564 29.82l-3.394 7.524c-4.193 9.294-12.255 17.855-23.484 24.941l22.184 12.777c10.772-6.48 18.396-14.485 22.103-23.208l3.684-8.669c4.887-11.502 15.139-22.01 29.643-30.384z" fill="#BDDCD8" stroke-linecap="round" stroke-linejoin="round"/><path id="Vector 334_8" d="M127.213 328.301v15.419"/></g><g id="Group 1383_2"><path id="Rectangle 1430_9" d="M242.877 306.339l-22.172-12.801-11.936 7.315c-5.872 3.6-10.082 7.994-12.24 12.779l-11.187 24.796c-1.685 3.737-8.041 6.108-14.634 5.461l-14.023 1.324v15.853l22.172 12.801 10.186-6.228c9.727-5.851 16.611-13.079 19.958-20.956l4.233-9.961c4.887-11.501 15.14-22.009 29.643-30.383z" fill="#55A398" stroke-linecap="round" stroke-linejoin="round"/><path id="Rectangle 1429_9" d="M234.326 295.73l-22.172-12.802c-13.704 8.399-23.527 18.654-28.564 29.82l-3.394 7.524c-4.193 9.294-12.254 17.856-23.484 24.941l22.184 12.777c10.773-6.48 18.396-14.485 22.103-23.208l3.684-8.669c4.887-11.501 15.139-22.01 29.643-30.383z" fill="#BDDCD8" stroke-linecap="round" stroke-linejoin="round"/><path id="Vector 334_9" d="M179.02 357.99v15.42"/></g><g id="Group 1385_2"><path id="Rectangle 1430_10" d="M139.265 246.382l-22.172-12.801-11.936 7.315c-5.873 3.599-10.082 7.994-12.24 12.779L81.73 278.471c-1.686 3.737-8.041 6.108-14.634 5.461l-14.024 1.324v15.853l22.173 12.801 10.186-6.228c9.727-5.851 16.611-13.079 19.958-20.956l4.233-9.961c4.887-11.501 15.139-22.009 29.643-30.383z" fill="#55A398" stroke-linecap="round" stroke-linejoin="round"/><path id="Rectangle 1429_10" d="M130.714 235.772l-22.172-12.801c-13.704 8.399-23.527 18.654-28.564 29.82l-3.395 7.524c-4.192 9.294-12.254 17.855-23.483 24.94l22.184 12.778c10.772-6.48 18.396-14.485 22.103-23.208l3.683-8.669c4.888-11.502 15.14-22.01 29.644-30.384z" fill="#BDDCD8" stroke-linecap="round" stroke-linejoin="round"/><path id="Vector 334_10" d="M75.408 298.033v15.419"/></g><g id="Group 1359_2"><path id="Rectangle 1430_11" d="M339.505 356.854l-15.034-2.779-11.936 7.315c-5.873 3.6-10.082 7.994-12.241 12.779l-11.186 24.796c-1.686 3.737-8.041 6.109-14.634 5.461l-14.024 1.324v15.853l22.173 12.801 10.186-6.228c9.727-5.851 16.611-13.079 19.958-20.956l4.233-9.961c4.042-9.512 11.754-18.345 22.505-25.853v-14.552z" fill="#55A398" stroke-linecap="round" stroke-linejoin="round"/><path id="Rectangle 1429_11" d="M338.092 356.267l-22.172-12.801c-13.704 8.399-23.527 18.653-28.564 29.819l-3.395 7.524c-4.192 9.294-12.254 17.856-23.483 24.941l22.184 12.777c10.772-6.48 18.396-14.485 22.103-23.208l3.683-8.669c4.888-11.501 15.14-22.009 29.644-30.383z" fill="#BDDCD8" stroke-linecap="round" stroke-linejoin="round"/><path id="Vector 334_11" d="M282.785 418.527v15.42"/></g><g id="Group 1387_2"><path id="Rectangle 1430_12" d="M86.877 216.113l-22.172-12.801-11.936 7.315c-5.873 3.599-10.082 7.994-12.24 12.779l-11.187 24.796c-1.686 3.737-8.041 6.108-14.634 5.461L.684 254.987v15.853l22.173 12.801 10.185-6.228c9.728-5.851 16.612-13.079 19.959-20.956l4.233-9.961c4.887-11.501 15.14-22.009 29.643-30.383z" fill="#55A398" stroke-linecap="round" stroke-linejoin="round"/><path id="Rectangle 1429_12" d="M78.326 205.504l-22.173-12.802c-13.703 8.399-23.526 18.654-28.563 29.82l-3.395 7.524c-4.192 9.294-12.254 17.856-23.483 24.941l22.183 12.777c10.773-6.48 18.397-14.485 22.104-23.208l3.683-8.669c4.887-11.501 15.14-22.01 29.644-30.383z" fill="#BDDCD8" stroke-linecap="round" stroke-linejoin="round"/><path id="Vector 334_12" d="M23.02 267.764v15.419"/></g></g><rect id="Rectangle 1421" width="377.052" height="377.052" rx="11.637" transform="matrix(.86603 .5 -.86603 .5 331.313 5.847)" fill="#BDDCD8" stroke="#000" stroke-width="1.164" stroke-linecap="round" stroke-linejoin="round"/><path id="Rectangle 1406" transform="matrix(.86603 -.5 .86603 .5 30.369 188.569)" stroke="#000" stroke-width="1.164" stroke-linecap="round" stroke-linejoin="round" d="M0 0h39.452v95.922H0z"/><path id="Rectangle 1444" transform="matrix(.86603 -.5 .86603 .5 56.563 173.419)" stroke="#000" stroke-width="1.164" stroke-linecap="round" stroke-linejoin="round" d="M0 0h9.163v95.922H0z"/><path id="Rectangle 1443" transform="matrix(.86603 -.5 .86603 .5 94.1 225.362)" fill="#FFE598" stroke="#000" stroke-width="1.164" stroke-linecap="round" stroke-linejoin="round" d="M0 0h39.452v22.331H0z"/><path id="Rectangle 1442" transform="matrix(.86603 -.5 .86603 .5 137.502 126.246)" fill="#FFE598" stroke="#000" stroke-width="1.164" stroke-linecap="round" stroke-linejoin="round" d="M0 0h6.162v95.974H0z"/><path id="Rectangle 1438" transform="matrix(.86603 .5 -.86603 .5 322.5 22.947)" stroke="#000" stroke-width="1.164" stroke-linecap="round" stroke-linejoin="round" d="M0 0h343.146v86.613H0z"/><path id="Rectangle 1440" transform="matrix(.86603 .5 -.86603 .5 426.385 82.922)" stroke="#000" stroke-width="1.164" stroke-linecap="round" stroke-linejoin="round" d="M0 0h223.191v86.613H0z"/><path id="Rectangle 1441" transform="matrix(.86603 .5 -.86603 .5 529.989 142.74)" stroke="#000" stroke-width="1.164" stroke-linecap="round" stroke-linejoin="round" d="M0 0h103.56v86.613H0z"/><path id="Rectangle 1439" transform="matrix(.86603 .5 -.86603 .5 330.478 18.339)" stroke="#000" stroke-width="1.164" stroke-linecap="round" stroke-linejoin="round" d="M0 0h343.146v95.826H0z"/><g id="Group 1375" stroke="#000" stroke-width="1.164" stroke-linecap="round" stroke-linejoin="round"><circle id="Ellipse 142" r="17.326" transform="matrix(.86603 -.5 .86603 .5 496.949 250.092)" fill="#FFE598"/><circle id="Ellipse 143" r="7.072" transform="matrix(.86603 -.5 .86603 .5 496.949 250.093)" fill="#FAC864"/></g><rect id="Rectangle 1432" width="377.052" height="377.052" rx="11.637" transform="matrix(.86603 .5 -.86603 .5 331.278 .03)" stroke="#000" stroke-width="1.164" stroke-linecap="round" stroke-linejoin="round"/><path id="Rectangle 1430_13" d="M473.255 273.608l-4.743 2.738-279.217-161.205" stroke="#000" stroke-width="1.164" stroke-linecap="round" stroke-linejoin="round"/><path id="Rectangle 1435" d="M473.255 273.608L194.039 112.402l-4.744 2.739" stroke="#000" stroke-width="1.164" stroke-linecap="round" stroke-linejoin="round" stroke-dasharray="5.82 5.82"/><path d="M468.512 212.162l4.743-2.739v64.085l-4.766 2.909-279.194-161.178V50.956l279.217 161.206z" fill="#FFE598" fill-opacity=".3" style="animation:10s ease-in-out 0ms infinite forwards light"/><path d="M194.039 47.72l279.216 161.206-4.743 2.738L189.295 50.459l4.744-2.739z" fill="#55A398" stroke="#000" stroke-width="1.164" stroke-linecap="round" stroke-linejoin="round" style="animation:10s ease-in-out 0ms infinite forwards bar"/><g id="Group 1357"><path id="Rectangle 1426" transform="matrix(.86603 .5 -.86603 .5 255.052 180.54)" stroke="#000" stroke-width="1.164" stroke-linecap="round" stroke-linejoin="round" d="M0 0h223.868v136.776H0z"/><g id="Group 1355"><g id="Group 1354" stroke="#000" stroke-width="1.164"><path id="Rectangle 1422" d="M437.92 263.034l.003 29.324-106.747 61.63-183.001-105.562-.002-29.323 289.747 43.931z" fill="#FAC864" stroke-linecap="round" stroke-linejoin="round"/><path id="Vector 333" d="M331.174 324.711v29.094"/></g></g><path id="Rectangle 1424" transform="matrix(.86603 .5 -.86603 .5 255.03 157.39)" fill="#FFE598" stroke="#000" stroke-width="1.164" stroke-linecap="round" stroke-linejoin="round" d="M0 0h211.189v123.26H0z"/><path id="Rectangle 1425" transform="matrix(.86603 .5 -.86603 .5 255.663 169.16)" stroke="#000" stroke-width="1.164" stroke-linecap="round" stroke-linejoin="round" d="M0 0h187.65v100.455H0z"/></g><g style="animation:10s ease-in-out 0ms infinite forwards emblems;transform-origin:201px 547px" fill="#FFE598" fill-opacity=".4" stroke="#000" stroke-width="1.043" stroke-linecap="round" stroke-linejoin="round"><path id="Vector" d="M422.318 199.145l13.464 2.403 13.707 13.284v14.417c.082 3.344-2.74 10.007-13.707 10.459-10.967-13.116-13.545-22.896-13.464-26.147v-14.416z"/><path id="Vector_2" d="M207.706 76.937l13.464 2.403 13.708 13.284v14.416c.081 3.345-2.74 10.008-13.708 10.46-10.967-13.116-13.545-22.896-13.464-26.147V76.937z"/><path id="Vector_3" d="M313.522 136.552l13.464 2.402 13.707 13.285v14.416c.082 3.345-2.74 10.008-13.707 10.46-10.967-13.116-13.546-22.897-13.464-26.147v-14.416z"/></g><path id="TOITVM" d="M259.7 211.568l-6.734-3.888-18.314 10.573-4.529-2.615 18.314-10.573-6.643-3.835 3.668-2.119 17.907 10.338-3.669 2.119zm12.41 16.196a22.987 22.987 0 01-6.839 2.623c-2.396.5-4.751.593-7.066.279-2.305-.308-4.378-.994-6.22-2.057-1.822-1.052-3.01-2.243-3.563-3.574-.554-1.331-.413-2.69.422-4.079.846-1.395 2.32-2.705 4.424-3.932l1.087-.627a22.952 22.952 0 016.87-2.624c2.435-.5 4.801-.593 7.096-.279 2.315.314 4.388 1 6.22 2.057 1.832 1.058 3.015 2.252 3.548 3.583.554 1.331.393 2.696-.483 4.097-.856 1.4-2.36 2.722-4.514 3.966l-.982.567zm-3.593-3.226c2.305-1.33 3.644-2.58 4.016-3.748.372-1.168-.206-2.194-1.736-3.077-1.52-.877-3.287-1.212-5.3-1.002-2.003.203-4.152.961-6.447 2.275l-1.071.619c-2.245 1.295-3.574 2.539-3.986 3.73-.413 1.192.156 2.235 1.706 3.13 1.52.877 3.281 1.208 5.284.993 2.013-.22 4.167-.987 6.462-2.301l1.072-.619zm1.208 13.965l-4.53-2.615 21.983-12.692 4.529 2.615-21.982 12.692zm38.62 1.15l-6.733-3.887-18.314 10.573-4.53-2.615 18.314-10.573-6.643-3.836 3.669-2.118 17.906 10.338-3.669 2.118zm-1.902 13.755l21.515-6.668 5.042 2.911-29.637 8.273-4.726-2.729 14.359-17.093 5.027 2.902-11.58 12.404zm34.559.863l-10.297 12.465 21.56-5.962 5.949 3.435-21.983 12.691-4.544-2.624 6.009-3.469 10.825-5.727-22.315 6.032-3.11-1.795 10.448-12.866-9.904 6.241-6.009 3.469-4.53-2.615 21.983-12.692 5.918 3.417z" fill="#000"/><g id="Group 1369"><path id="Rectangle 1402" d="M477.589 191.57v-21.823l129.074 3.714v21.421l-61.669 35.604-67.405-38.916z" fill="#FAC864" stroke="#000" stroke-width="1.164" stroke-linecap="round" stroke-linejoin="round"/><path id="Rectangle 1408" d="M477.592 181.741l67.405 38.916 61.669-35.604" stroke="#000" stroke-width="1.164" stroke-linecap="round" stroke-linejoin="round"/><path id="Rectangle 1406_2" transform="matrix(.86603 -.5 .86603 .5 477.592 169.413)" fill="#FFE598" stroke="#000" stroke-width="1.164" stroke-linecap="round" stroke-linejoin="round" d="M0 0h71.209v77.833H0z"/><path id="Rectangle 1407" transform="matrix(.86603 -.5 .86603 .5 490.015 169.732)" fill="#FFE598" stroke="#000" stroke-width="1.164" stroke-linecap="round" stroke-linejoin="round" d="M0 0h57.501v62.849H0z"/><path id="CO- sensing" d="M534.878 169.361c.692.483 1.007.991.945 1.524-.066.53-.507 1.031-1.325 1.503a5.2 5.2 0 01-1.915.64 6.472 6.472 0 01-2.161-.088 7.303 7.303 0 01-2.107-.791l-.669-.386c-.676-.39-1.152-.804-1.428-1.239-.276-.436-.33-.863-.162-1.282.17-.421.549-.801 1.137-1.14a5.383 5.383 0 012.555-.73c.912-.031 1.8.158 2.663.565l-1.24.716c-.575-.263-1.097-.39-1.566-.38-.469.005-.937.143-1.403.412-.542.312-.76.668-.655 1.066.105.394.537.813 1.295 1.259l.635.366c.775.448 1.503.709 2.186.785.686.074 1.296-.044 1.831-.353.489-.282.747-.558.773-.827.026-.269-.184-.57-.63-.904l1.241-.716zm5.774-4.562c.703.406 1.198.832 1.487 1.279.285.446.345.881.177 1.308-.167.422-.545.803-1.132 1.142a5.345 5.345 0 01-1.979.654 6.812 6.812 0 01-2.27-.094 7.455 7.455 0 01-2.19-.832l-.404-.234c-.699-.403-1.193-.83-1.482-1.281-.285-.453-.344-.891-.177-1.314.167-.426.543-.808 1.127-1.145a5.3 5.3 0 011.974-.651 6.582 6.582 0 012.26.094 7.516 7.516 0 012.21.844l.399.23zm-1.619.503c-.795-.458-1.554-.722-2.28-.793-.722-.072-1.359.052-1.91.37-.538.311-.748.676-.63 1.097.118.417.56.85 1.324 1.299l.414.239c.787.454 1.549.718 2.284.79.738.07 1.38-.052 1.925-.367.551-.318.765-.684.64-1.097-.122-.415-.586-.855-1.393-1.322l-.374-.216zm5.897-2.012l-2.584 1.492-.965-.557 2.584-1.492.965.557zm-8.892 20.424c-.213-.123-.464-.166-.753-.128-.285.036-.674.147-1.166.333a8.966 8.966 0 01-1.344.401c-.887.178-1.604.108-2.152-.208-.459-.265-.65-.599-.571-1 .079-.402.417-.775 1.014-1.12a4.53 4.53 0 012.014-.617c.709-.046 1.314.077 1.816.367l-1.196.69c-.23-.132-.505-.193-.827-.182-.325.01-.628.096-.911.259-.262.152-.417.311-.462.477-.043.165.037.306.241.424.184.106.403.144.659.114.256-.031.672-.151 1.246-.361.571-.213 1.062-.354 1.472-.424.41-.074.779-.09 1.108-.048.331.04.64.142.925.307.479.276.67.616.571 1.017-.102.4-.474.786-1.117 1.157a4.786 4.786 0 01-1.403.537 4.617 4.617 0 01-1.448.086c-.466-.05-.858-.166-1.176-.35l1.161-.671c.299.154.624.218.975.194a2.36 2.36 0 001.009-.322c.315-.182.496-.354.542-.517.043-.165-.033-.303-.227-.415zm6.115-1.745c-.758.438-1.612.656-2.56.654a5.197 5.197 0 01-2.614-.697l-.148-.085c-.532-.307-.904-.639-1.117-.998-.214-.362-.252-.717-.114-1.065.138-.349.435-.655.891-.918a4.254 4.254 0 012.373-.569c.86.038 1.713.301 2.56.79l.483.279-3.481 2.009c.476.233.97.35 1.482.35.515-.002.968-.116 1.359-.341.548-.317.773-.702.674-1.157l1.26-.017c.105.307.068.615-.113.924-.18.305-.492.585-.935.841zm-4.707-2.552c-.328.189-.479.409-.452.659.029.248.221.507.576.776l2.279-1.316-.089-.051c-.426-.216-.835-.329-1.226-.338a2.01 2.01 0 00-1.088.27zm3.461-2.993l.65.335c-.082-.502.197-.938.837-1.307 1.109-.641 2.309-.6 3.599.122l3.52 2.032-1.197.691-3.451-1.993c-.338-.195-.661-.296-.969-.304-.309-.011-.629.079-.96.27-.483.279-.624.612-.424 1.001l3.791 2.188-1.196.691-5.327-3.075 1.127-.651zm11.367-2.084c-.213-.123-.464-.166-.753-.128-.285.036-.674.147-1.167.333-.492.186-.94.319-1.344.401-.886.178-1.603.109-2.151-.208-.459-.265-.65-.599-.571-1 .079-.402.417-.775 1.014-1.12a4.543 4.543 0 012.014-.617c.709-.045 1.314.077 1.816.367l-1.196.69a1.516 1.516 0 00-.827-.181 1.899 1.899 0 00-.911.258c-.262.152-.417.311-.463.478-.042.165.038.306.242.423.183.106.403.144.659.114.256-.03.671-.151 1.246-.361a8.542 8.542 0 011.472-.424c.41-.073.779-.09 1.107-.048.332.04.64.142.926.307.479.277.669.616.571 1.018-.102.399-.474.785-1.117 1.156a4.811 4.811 0 01-1.404.538 4.608 4.608 0 01-1.447.085c-.466-.049-.858-.166-1.176-.35l1.161-.671c.299.154.624.218.975.194a2.373 2.373 0 001.009-.321c.315-.182.496-.355.542-.518.043-.165-.033-.303-.227-.415zm4.943-1.182l-1.196.691-5.327-3.076 1.196-.69 5.327 3.075zm-7.98-3.141c-.184-.106-.279-.227-.286-.364-.003-.138.104-.27.32-.395.217-.125.445-.186.685-.184.239.001.451.055.635.162.18.104.272.225.275.363 0 .137-.108.268-.324.393a1.344 1.344 0 01-.68.187 1.273 1.273 0 01-.625-.162zm5.071-1.33l.649.335c-.082-.502.197-.938.837-1.307 1.11-.64 2.309-.6 3.599.122l3.52 2.032-1.196.691-3.451-1.992c-.338-.196-.662-.297-.97-.304-.309-.012-.629.078-.96.27-.483.278-.624.612-.424 1l3.791 2.189-1.196.69-5.327-3.075 1.128-.651zm6.916-.964c-.827-.477-1.293-.97-1.398-1.477-.105-.512.164-.954.808-1.325.607-.351 1.296-.504 2.067-.46l-.482-.342 1.078-.622 5.164 2.982c.699.403 1.032.848.999 1.333-.029.483-.413.938-1.152 1.364-.39.225-.855.399-1.393.52a4.794 4.794 0 01-1.482.122l-.152-.742c.804.04 1.475-.095 2.013-.406.397-.229.603-.473.616-.73.016-.256-.184-.505-.601-.745l-.359-.208c.039.421-.228.797-.803 1.129-.623.36-1.381.511-2.274.454-.89-.058-1.772-.341-2.649-.847zm1.295-.628c.535.309 1.065.49 1.59.543.525.049.981-.038 1.369-.261.482-.279.633-.605.453-.978l-2.344-1.353c-.63-.102-1.186-.014-1.669.264-.393.228-.544.495-.452.802.095.305.446.633 1.053.983z" fill="#000"/></g><g id="Group 1371"><path id="Rectangle 1402_2" d="M373.392 131.615v-21.822l129.073 3.713v21.421l-61.668 35.604-67.405-38.916z" fill="#FAC864" stroke="#000" stroke-width="1.164" stroke-linecap="round" stroke-linejoin="round"/><path id="Rectangle 1406_3" transform="matrix(.86603 -.5 .86603 .5 373.395 109.458)" fill="#FFE598" stroke="#000" stroke-width="1.164" stroke-linecap="round" stroke-linejoin="round" d="M0 0h71.209v77.833H0z"/><path id="Rectangle 1407_2" transform="matrix(.86603 -.5 .86603 .5 386.027 109.112)" fill="#FFE598" stroke="#000" stroke-width="1.164" stroke-linecap="round" stroke-linejoin="round" d="M0 0h57.501v62.849H0z"/><path id="NOx- sensing" d="M430.706 112.301l-1.245.719-8.281-1.092 5.086 2.937-1.246.719-7.167-4.139 1.245-.719 8.31 1.097-5.105-2.947 1.236-.714 7.167 4.139zm3.796-6.114c.702.406 1.198.832 1.487 1.279.285.445.344.881.177 1.308-.167.422-.545.803-1.132 1.142a5.363 5.363 0 01-1.979.654 6.812 6.812 0 01-2.27-.094 7.474 7.474 0 01-2.191-.833l-.403-.233c-.699-.403-1.193-.831-1.482-1.282-.286-.453-.345-.89-.177-1.313.167-.426.543-.808 1.127-1.145a5.3 5.3 0 011.974-.651 6.557 6.557 0 012.26.094 7.516 7.516 0 012.21.844l.399.23zm-1.62.503c-.794-.458-1.554-.723-2.279-.793-.722-.072-1.359.051-1.91.37-.538.31-.748.676-.63 1.097.118.417.559.85 1.324 1.299l.414.238c.787.455 1.549.719 2.284.791.738.07 1.38-.052 1.925-.367.551-.318.764-.684.64-1.097-.122-.415-.586-.856-1.394-1.322l-.374-.216zm4.48-2.359l-.738-1.597 1.329-.768.994 2.456 4.387.588-1.32.762-2.884-.438.763 1.663-1.33.768-1.019-2.533-4.248-.577 1.319-.762 2.747.438zm6.489-2.581l-2.585 1.493-.965-.558 2.585-1.492.965.557zm-11.713 22.053c-.213-.123-.464-.166-.753-.128-.286.036-.675.147-1.167.333a8.77 8.77 0 01-1.344.4c-.886.178-1.603.109-2.151-.207-.46-.265-.65-.599-.571-1.001.079-.401.417-.775 1.014-1.119a4.53 4.53 0 012.013-.617c.709-.046 1.315.077 1.817.366l-1.196.691c-.23-.133-.506-.193-.827-.182-.325.01-.629.096-.911.259-.263.151-.417.311-.463.477-.043.165.038.306.241.424.184.106.404.144.66.114.256-.031.671-.151 1.246-.361.571-.213 1.061-.354 1.471-.424a3.66 3.66 0 011.108-.048c.332.04.64.142.926.307.479.276.669.616.571 1.017-.102.4-.475.786-1.118 1.157a4.765 4.765 0 01-1.403.537 4.611 4.611 0 01-1.447.086c-.466-.05-.858-.166-1.177-.35l1.162-.671c.299.154.624.218.975.193a2.346 2.346 0 001.009-.321c.315-.182.496-.354.542-.517.042-.165-.033-.303-.227-.415zm6.114-1.745c-.758.438-1.611.655-2.56.654a5.202 5.202 0 01-2.614-.697l-.147-.085c-.532-.307-.904-.64-1.118-.998-.213-.362-.251-.717-.113-1.066.138-.348.435-.654.891-.918a4.257 4.257 0 012.373-.568c.86.038 1.713.301 2.56.79l.482.279-3.48 2.009c.476.233.97.35 1.482.35.515-.002.968-.116 1.358-.341.548-.317.773-.702.675-1.157l1.26-.017c.105.307.067.615-.113.924-.181.305-.493.585-.936.841zm-4.706-2.553c-.328.19-.479.41-.453.66.03.248.222.507.576.776l2.279-1.316-.088-.051c-.427-.216-.835-.329-1.226-.339a2.025 2.025 0 00-1.088.27zm3.461-2.992l.65.335c-.082-.502.197-.938.837-1.308 1.109-.64 2.308-.599 3.598.123l3.52 2.032-1.196.691-3.451-1.993c-.338-.195-.661-.296-.97-.304-.308-.011-.628.079-.96.27-.482.279-.623.612-.423 1.001l3.79 2.188-1.196.691-5.326-3.076 1.127-.65zm11.367-2.084c-.213-.123-.464-.166-.753-.128-.286.036-.675.147-1.167.333-.492.186-.94.319-1.344.401-.886.178-1.603.109-2.151-.208-.46-.265-.65-.599-.571-1 .078-.402.416-.775 1.014-1.12a4.543 4.543 0 012.013-.617c.709-.045 1.315.077 1.817.367l-1.196.69a1.527 1.527 0 00-.827-.182c-.325.01-.629.096-.911.259-.263.152-.417.311-.463.478-.043.164.038.306.241.423.184.106.404.144.66.114.256-.031.671-.151 1.245-.361.572-.212 1.062-.354 1.472-.424a3.66 3.66 0 011.108-.048c.332.04.64.142.926.307.479.277.669.616.571 1.017-.102.4-.475.786-1.118 1.157a4.765 4.765 0 01-1.403.537 4.582 4.582 0 01-1.447.086c-.466-.05-.858-.166-1.177-.35l1.162-.671c.299.154.624.218.975.194a2.36 2.36 0 001.009-.322c.315-.181.496-.354.541-.517.043-.165-.032-.303-.226-.415zm4.943-1.182l-1.197.69-5.326-3.075 1.196-.691 5.327 3.076zm-7.98-3.141c-.184-.106-.279-.227-.286-.364-.003-.138.103-.27.32-.395.217-.125.445-.186.684-.185.24.002.452.056.635.162.181.105.273.226.276.364 0 .137-.108.267-.325.392a1.329 1.329 0 01-.679.188 1.27 1.27 0 01-.625-.162zm5.07-1.33l.65.335c-.082-.502.197-.938.837-1.307 1.109-.641 2.309-.6 3.599.122l3.519 2.032-1.196.691-3.451-1.992c-.338-.196-.661-.297-.97-.305-.308-.011-.628.079-.96.27-.482.279-.623.612-.423 1.001l3.791 2.188-1.197.691-5.326-3.075 1.127-.651zm6.917-.964c-.827-.477-1.293-.97-1.398-1.478-.105-.511.164-.953.807-1.324.607-.351 1.297-.504 2.068-.461l-.483-.341 1.078-.622 5.165 2.981c.699.404 1.032.848.999 1.333-.03.484-.413.938-1.152 1.365-.39.225-.855.399-1.393.52a4.799 4.799 0 01-1.482.122l-.153-.742c.805.04 1.476-.095 2.014-.406.397-.229.602-.473.615-.731.017-.255-.183-.504-.6-.744l-.36-.208c.04.421-.228.797-.802 1.129-.624.36-1.382.511-2.275.454-.889-.058-1.772-.341-2.648-.847zm1.295-.628c.535.309 1.065.49 1.59.543.525.049.981-.038 1.368-.261.483-.279.634-.605.453-.978l-2.343-1.353c-.63-.102-1.186-.014-1.669.264-.394.228-.545.495-.453.802.095.305.446.633 1.054.983z" fill="#000"/></g><path id="Rectangle 1402_3" d="M269.881 71.76l.001-21.823 129.073 3.714v21.42l-61.669 35.605-67.405-38.917z" fill="#FAC864" stroke="#000" stroke-width="1.164" stroke-linecap="round" stroke-linejoin="round"/><path id="Rectangle 1408_2" d="M269.883 61.93l67.405 38.917 61.669-35.605" stroke="#000" stroke-width="1.164" stroke-linecap="round" stroke-linejoin="round"/><path id="Rectangle 1406_4" transform="matrix(.86603 -.5 .86603 .5 269.883 49.605)" fill="#FFE598" stroke="#000" stroke-width="1.164" stroke-linecap="round" stroke-linejoin="round" d="M0 0h71.209v77.833H0z"/><path id="Air-plastic- sensing" d="M310.007 60.226l-2.776 1.603 1.088 1.3-1.295.747-4.46-5.702 1.117-.645 9.881 2.572-1.3.75-2.255-.625zm-3.431.822l2.077-1.2-4.012-1.117 1.935 2.317zm8.96-2.086l-1.197.69-5.326-3.075 1.196-.69 5.327 3.075zm-7.98-3.141c-.184-.106-.279-.227-.286-.364-.003-.138.103-.27.32-.395.217-.125.445-.187.684-.185.24.002.452.056.635.162.181.105.273.226.276.364 0 .136-.108.267-.325.392a1.34 1.34 0 01-.679.188 1.266 1.266 0 01-.625-.162zm7.842-1.668c-.184.075-.36.162-.527.258-.548.317-.707.651-.478 1.003l3.643 2.104-1.196.69-5.326-3.075 1.142-.66.625.328c-.174-.434-.005-.8.507-1.095.171-.098.335-.167.492-.204l1.118.65zm4.746-.813l-2.585 1.492-.965-.557 2.585-1.492.965.557zm5.607-3.289c.824.476 1.294.964 1.413 1.464.115.498-.143.93-.773 1.293-.584.337-1.244.496-1.979.478l2.525 1.458-1.196.69-7.375-4.257 1.103-.637.591.284c-.076-.449.189-.848.792-1.196.65-.376 1.402-.53 2.255-.46.853.064 1.71.344 2.57.84l.074.043zm-1.295.628c-.532-.307-1.06-.489-1.585-.546-.522-.058-.98.026-1.374.253-.489.283-.638.602-.448.958l2.363 1.365c.63.113 1.192.028 1.684-.256.381-.22.525-.48.433-.779-.092-.303-.449-.635-1.073-.995zm6.193-.443l-1.196.69-7.562-4.365 1.196-.69 7.562 4.365zm4.49-2.592a3.49 3.49 0 01-.635-.208c.016.45-.251.833-.803 1.151a3.694 3.694 0 01-1.767.492c-.643.019-1.19-.101-1.639-.36-.568-.329-.793-.701-.675-1.118.118-.42.57-.857 1.354-1.31l.734-.424-.35-.201a1.803 1.803 0 00-1.846.014c-.273.157-.427.326-.463.506-.039.178.046.327.256.449l-1.196.69c-.292-.168-.468-.382-.527-.64-.062-.259 0-.526.187-.8.191-.277.491-.534.901-.77a4.283 4.283 0 011.964-.59 3.453 3.453 0 011.891.433l2.402 1.387c.479.276.929.458 1.349.546l.084.048-1.221.705zm-2.176.261c.236-.136.4-.297.492-.483a.563.563 0 00.01-.54l-1.004-.58-.645.373c-.443.255-.699.492-.768.71-.069.218.038.408.32.571.23.133.489.195.778.188.288-.011.561-.091.817-.239zm5.986-4.133c-.213-.123-.464-.165-.753-.127-.286.036-.674.146-1.167.332-.492.186-.94.32-1.344.4-.886.179-1.603.11-2.151-.207-.46-.265-.65-.598-.571-1 .079-.402.417-.775 1.014-1.12a4.543 4.543 0 012.013-.617c.709-.045 1.315.077 1.817.367l-1.196.69c-.23-.132-.506-.193-.827-.181-.325.01-.629.095-.911.258-.263.152-.417.311-.463.478-.042.165.038.306.241.423.184.106.404.144.66.114.256-.03.671-.15 1.246-.36.571-.213 1.061-.354 1.472-.424.41-.074.779-.09 1.107-.049.332.04.64.142.926.307.479.277.669.616.571 1.018-.102.4-.474.785-1.118 1.157a4.768 4.768 0 01-1.403.537 4.601 4.601 0 01-1.447.085c-.466-.05-.858-.166-1.177-.35l1.162-.67c.299.153.624.218.975.193a2.36 2.36 0 001.009-.321c.315-.182.496-.355.542-.517.042-.165-.033-.304-.227-.416zm-1.452-5.136l1.295.748.94-.543.886.512-.94.543 2.973 1.716c.204.118.391.18.561.188.171.004.36-.054.567-.173.137-.08.261-.17.369-.27l.925.534c-.197.2-.421.374-.674.52-.919.53-1.886.503-2.9-.082l-3.017-1.743-.877.506-.886-.511.876-.506-1.294-.748 1.196-.69zm9.752 2.016l-1.196.69-5.327-3.075 1.197-.69 5.326 3.075zm-7.98-3.141c-.184-.106-.279-.227-.285-.364-.004-.138.103-.27.32-.395.216-.125.444-.187.684-.185.24.002.451.056.635.162.181.105.272.226.276.364 0 .137-.109.267-.325.392a1.34 1.34 0 01-.68.188 1.272 1.272 0 01-.625-.162zm10.619.628c.299-.172.459-.366.482-.58.023-.214-.087-.398-.329-.554l1.127-.65c.318.198.525.437.62.715.092.277.056.56-.108.847-.164.288-.438.543-.822.765-.745.43-1.577.632-2.496.605-.919-.026-1.804-.285-2.654-.776l-.123-.07c-.81-.469-1.242-.968-1.294-1.498-.056-.533.29-1.015 1.038-1.447a4.305 4.305 0 012.102-.572c.768-.018 1.463.14 2.083.475l-1.128.651a2.243 2.243 0 00-1.068-.253 2.021 2.021 0 00-1.039.259c-.387.223-.544.477-.472.762.069.282.387.589.955.92l.192.111c.578.334 1.113.523 1.605.569a2.22 2.22 0 001.329-.279zm3.702-4.11l-2.584 1.492-.965-.557 2.584-1.492.965.557zm-25.261 29.875c-.213-.123-.464-.166-.753-.128-.285.036-.674.147-1.166.332-.493.186-.941.32-1.344.401-.887.178-1.604.11-2.152-.207-.459-.266-.65-.6-.571-1 .079-.402.417-.776 1.014-1.12a4.543 4.543 0 012.014-.617c.709-.046 1.314.076 1.816.366l-1.196.69c-.23-.132-.505-.192-.827-.181-.325.01-.628.096-.911.259-.262.151-.417.31-.462.477-.043.165.037.306.241.424.184.106.403.144.659.113.256-.03.672-.15 1.246-.36.571-.213 1.062-.354 1.472-.424a3.67 3.67 0 011.108-.048c.331.04.64.142.925.306.479.277.67.616.571 1.018-.102.4-.474.785-1.117 1.157a4.79 4.79 0 01-1.403.537 4.605 4.605 0 01-1.448.085c-.466-.049-.858-.165-1.176-.35l1.161-.67c.299.153.624.218.975.193a2.354 2.354 0 001.009-.32c.315-.183.496-.355.542-.518.043-.165-.033-.303-.227-.415zm6.115-1.745c-.758.437-1.612.655-2.56.653a5.197 5.197 0 01-2.614-.696l-.148-.085c-.532-.307-.904-.64-1.117-.998-.214-.362-.251-.717-.114-1.066.138-.348.435-.654.891-.918a4.257 4.257 0 012.373-.568c.86.038 1.713.301 2.56.79l.483.278-3.481 2.01c.476.233.97.35 1.482.35.515-.002.968-.116 1.359-.341.548-.317.773-.703.674-1.157l1.26-.017c.105.307.068.614-.113.923-.18.305-.492.586-.935.842zm-4.707-2.553c-.328.19-.479.41-.452.66.029.248.221.507.576.776l2.279-1.316-.089-.051c-.426-.216-.835-.33-1.226-.339a2.02 2.02 0 00-1.088.27zm3.461-2.993l.65.336c-.082-.502.197-.938.837-1.308 1.109-.64 2.309-.6 3.599.123l3.52 2.032-1.197.69-3.451-1.992c-.338-.195-.661-.297-.969-.304-.309-.011-.629.079-.96.27-.483.278-.624.612-.424 1l3.791 2.189-1.196.69-5.327-3.075 1.127-.65zm11.367-2.083c-.213-.123-.464-.166-.753-.128-.285.036-.674.147-1.167.333-.492.185-.94.319-1.344.4-.886.178-1.603.11-2.151-.207-.459-.265-.65-.599-.571-1 .079-.402.417-.776 1.014-1.12a4.543 4.543 0 012.014-.617c.709-.046 1.314.076 1.816.366l-1.196.691c-.23-.133-.505-.193-.827-.182-.325.01-.629.096-.911.259-.262.151-.417.31-.463.477-.042.165.038.306.242.424.183.106.403.144.659.114.256-.03.672-.151 1.246-.361.571-.213 1.062-.354 1.472-.424.41-.074.779-.09 1.107-.048.332.04.64.142.926.307.479.276.67.616.571 1.017-.102.4-.474.786-1.117 1.157a4.784 4.784 0 01-1.404.537 4.597 4.597 0 01-1.447.086c-.466-.05-.858-.166-1.176-.35l1.161-.67c.299.153.624.217.975.192a2.36 2.36 0 001.009-.32c.315-.183.496-.355.542-.518.043-.165-.033-.303-.227-.415zm4.943-1.182l-1.196.69-5.327-3.075 1.196-.69 5.327 3.075zm-7.98-3.141c-.184-.106-.279-.227-.286-.364-.003-.138.104-.27.32-.395a1.33 1.33 0 01.685-.185c.239.002.451.056.635.162.18.105.272.226.275.364 0 .136-.108.267-.324.392a1.343 1.343 0 01-.68.188 1.269 1.269 0 01-.625-.162zm5.071-1.33l.649.335c-.082-.502.197-.938.837-1.307 1.11-.64 2.309-.6 3.599.122l3.52 2.032-1.196.69-3.451-1.992c-.338-.195-.662-.296-.97-.304-.309-.011-.629.079-.96.27-.483.279-.624.612-.424 1l3.791 2.19-1.196.69-5.327-3.075 1.128-.651zm6.916-.964c-.827-.477-1.293-.97-1.398-1.478-.105-.511.164-.953.808-1.324.607-.35 1.296-.504 2.067-.46l-.482-.342 1.078-.622 5.164 2.981c.699.404 1.032.848.999 1.333-.029.483-.413.938-1.152 1.365-.39.225-.854.398-1.393.52a4.791 4.791 0 01-1.482.122l-.152-.742c.804.04 1.475-.096 2.013-.406.397-.23.603-.473.616-.73.016-.257-.184-.505-.601-.745l-.359-.208c.039.42-.228.797-.803 1.128-.623.36-1.381.512-2.274.455-.89-.059-1.772-.34-2.649-.847zm1.295-.628c.535.309 1.065.49 1.59.543.525.05.981-.038 1.369-.262.482-.278.633-.604.453-.977l-2.344-1.353c-.63-.102-1.186-.014-1.669.264-.393.227-.544.495-.452.802.095.305.446.633 1.053.983z" fill="#000"/><path id="Vector 335" d="M440.748 148.465v21.537" stroke="#000" stroke-width="1.164"/><g id="Group 1380" stroke="#000"><path id="Rectangle 1413" transform="matrix(.86603 -.5 .86603 .5 77.118 162.993)" stroke-width="1.164" stroke-linecap="round" stroke-linejoin="round" d="M0 0h54.965v94.788H0z"/><path id="Rectangle 1411" d="M92.497 162.571v-21.823l98.976 20.525v22.003l-31.571 18.211-67.405-38.916z" fill="#505050" stroke-width="1.164" stroke-linecap="round" stroke-linejoin="round"/><path id="Vector 336" d="M160.04 179.316v21.828" stroke-width="1.164"/><path id="Rectangle 1410" transform="matrix(.86603 -.5 .86603 .5 92.5 140.413)" fill="#B3B3B3" stroke-width="1.164" stroke-linecap="round" stroke-linejoin="round" d="M0 0h36.398v77.833H0z"/><path id="Rectangle 1412" transform="matrix(.86603 -.5 .86603 .5 115.379 153.624)" fill="#B3B3B3" stroke-width="1.164" stroke-linecap="round" stroke-linejoin="round" d="M0 0h36.398v24.995H0z"/><g id="Group 1376" stroke-width=".727" stroke-linecap="round" stroke-linejoin="round"><path id="Ellipse 129" d="M116.911 141.01c2.033 1.174 5.33 1.174 7.364 0 1.017-.587 1.525-1.357 1.525-2.126V94.541h-10.415l.001 44.343c0 .769.508 1.539 1.525 2.126z" fill="#FAC864"/><circle id="Ellipse 130" r="4.283" transform="matrix(.86603 -.5 .86603 .5 120.6 94.538)" fill="#FFE598"/></g><g id="Group 1377" stroke-width=".727" stroke-linecap="round" stroke-linejoin="round"><path id="Ellipse 129_2" d="M137.866 152.07c2.033 1.174 5.331 1.174 7.364 0 1.017-.587 1.525-1.357 1.525-2.126v-44.343H136.34l.001 44.343c0 .769.508 1.539 1.525 2.126z" fill="#FAC864"/><circle id="Ellipse 130_2" r="4.283" transform="matrix(.86603 -.5 .86603 .5 141.555 105.598)" fill="#FFE598"/></g><g id="Group 1378" stroke-width=".727" stroke-linecap="round" stroke-linejoin="round"><path id="Ellipse 129_3" d="M161.149 167.202c2.034 1.174 5.331 1.174 7.364 0 1.017-.587 1.526-1.357 1.526-2.126l-.001-44.343h-10.414v44.343c0 .769.508 1.539 1.525 2.126z" fill="#FAC864"/><circle id="Ellipse 130_3" r="4.283" transform="matrix(.86603 -.5 .86603 .5 164.838 120.73)" fill="#FFE598"/></g></g></g></svg>