<svg width="171" height="44" viewBox="0 0 171 44" fill="none" xmlns="http://www.w3.org/2000/svg"><path fill-rule="evenodd" clip-rule="evenodd" d="M101.509 13.3v13.196h4.79l.001-1.102.001-1.101.172.218c.095.12.342.386.548.592.207.206.568.506.803.666.235.16.602.377.815.48.213.103.547.246.743.318.195.072.537.173.759.224.221.05.67.106.996.123a8.74 8.74 0 001.162-.026c.313-.031.782-.1 1.043-.155.261-.053.666-.163.901-.243.235-.08.651-.253.924-.386s.707-.385.965-.56c.258-.175.682-.529.944-.785.261-.256.644-.695.851-.974.23-.313.5-.764.7-1.171.179-.364.39-.866.47-1.114.08-.248.188-.626.24-.84.052-.212.131-.637.177-.943.058-.387.083-.853.084-1.526 0-.532-.027-1.175-.06-1.428a15.27 15.27 0 00-.179-1.01 13.277 13.277 0 00-.307-1.114 12.35 12.35 0 00-.469-1.15 11.079 11.079 0 00-.611-1.09 9.925 9.925 0 00-.639-.857 9.636 9.636 0 00-.656-.67 9.064 9.064 0 00-.801-.625c-.25-.17-.66-.409-.912-.53a7.28 7.28 0 00-.873-.34 9.15 9.15 0 00-.867-.2c-.292-.05-.735-.077-1.257-.076-.478 0-1.015.033-1.318.078-.281.042-.644.11-.806.152-.162.042-.466.132-.675.2-.208.07-.56.22-.782.336a5.832 5.832 0 00-.794.526 5.107 5.107 0 00-.64.627l-.25.312-.012-5.613-.012-5.614H101.509V13.3zM23.821 1.155c-.143.01-.548.05-.9.092-.353.042-.907.13-1.232.198-.325.066-.848.197-1.162.29-.314.094-.816.269-1.116.39-.3.12-.816.358-1.145.529-.33.17-.853.482-1.162.692-.31.21-.712.505-.895.654a14.235 14.235 0 00-1.67 1.698 15.34 15.34 0 00-.653.92c-.191.293-.456.74-.587.993-.132.254-.334.69-.448.969-.114.28-.285.747-.38 1.04-.095.293-.225.762-.29 1.041-.063.28-.162.814-.218 1.187-.077.51-.108.989-.126 1.937-.019.966-.006 1.433.053 2.01.043.412.13 1.012.193 1.333.063.321.19.85.282 1.175.092.325.264.835.384 1.133.12.298.346.8.503 1.114.158.316.442.81.632 1.101.19.29.481.698.648.906.166.208.43.518.586.69.157.172.52.518.807.77.287.251.81.652 1.162.89.352.24.96.595 1.351.79.392.196.979.453 1.305.573.326.12.902.295 1.28.39.378.097.933.217 1.233.268.3.052.85.12 1.221.152.41.035 1.082.048 1.708.033.81-.02 1.18-.052 1.72-.149.378-.068.95-.2 1.271-.295.322-.095.824-.268 1.117-.385.293-.117.712-.305.93-.417.22-.113.57-.313.78-.445.208-.133.562-.387.785-.564.222-.177.589-.51.814-.74.226-.23.55-.6.724-.822.172-.223.313-.43.313-.46 0-.03-.99-.81-2.201-1.732-1.211-.923-2.22-1.677-2.241-1.677-.022 0-.124.12-.227.267-.102.147-.33.417-.504.6a6.919 6.919 0 01-.693.619 6.81 6.81 0 01-.756.486c-.21.111-.571.267-.804.345a6.977 6.977 0 01-.87.22 7.723 7.723 0 01-1.118.077c-.402 0-.85-.032-1.118-.078a7.394 7.394 0 01-.874-.22 7.37 7.37 0 01-.841-.354 8.268 8.268 0 01-.735-.43 8.521 8.521 0 01-.677-.53 7.239 7.239 0 01-.67-.694 9.936 9.936 0 01-.584-.805 9.566 9.566 0 01-.5-.92 11.58 11.58 0 01-.378-.928 9.782 9.782 0 01-.265-1.024 11.937 11.937 0 01-.162-1.265 10.55 10.55 0 01-.001-1.285c.023-.337.076-.81.117-1.05.04-.242.128-.63.194-.864.066-.233.204-.639.307-.901.103-.263.285-.655.404-.872.12-.217.338-.567.486-.78a8.08 8.08 0 01.672-.802c.222-.23.564-.538.76-.685.195-.147.504-.354.687-.46a7.001 7.001 0 011.494-.643c.196-.054.57-.131.83-.171.26-.04.717-.073 1.014-.073.296 0 .762.033 1.034.074.272.042.678.13.902.196.225.066.566.195.76.286.192.091.504.27.692.397.187.126.533.42.768.651l.428.422 2.048-1.704c1.127-.936 2.05-1.732 2.05-1.768.002-.036-.29-.365-.65-.73-.505-.516-.784-.754-1.244-1.065a12.21 12.21 0 00-1.162-.683 11.757 11.757 0 00-1.067-.458 15.03 15.03 0 00-.94-.294c-.242-.064-.69-.16-.995-.213a16.51 16.51 0 00-1.124-.145 14.247 14.247 0 00-1.186-.042c-.34.005-.734.016-.878.024zm70.326.045a3.55 3.55 0 00-.543.167 3.487 3.487 0 00-.518.313c-.162.118-.405.34-.54.494a3.418 3.418 0 00-.427.667 3.63 3.63 0 00-.234.644 4.78 4.78 0 00-.052.728c0 .27.032.596.074.76a3.9 3.9 0 00.183.531c.06.133.21.378.332.543.123.166.345.4.493.522.149.122.398.285.555.364.156.079.412.177.569.22.172.045.48.075.782.075.3 0 .61-.03.777-.076a3.94 3.94 0 00.593-.232c.222-.11.434-.278.72-.568.31-.314.45-.498.582-.775.097-.2.207-.516.245-.702.038-.187.07-.505.07-.707.001-.207-.039-.527-.09-.734a3.8 3.8 0 00-.22-.625 3.948 3.948 0 00-.34-.533 3.53 3.53 0 00-.489-.498 3.62 3.62 0 00-.581-.368 3.462 3.462 0 00-.63-.216 3.611 3.611 0 00-.66-.067 3.837 3.837 0 00-.651.073zm30.418-.007a3.609 3.609 0 00-.607.216 3.61 3.61 0 00-.579.366 3.7 3.7 0 00-.478.474c-.111.14-.256.361-.322.494a5.203 5.203 0 00-.212.508 3.133 3.133 0 00-.117.752 3.2 3.2 0 00.051.848c.041.2.153.526.248.726.134.28.268.458.582.775.285.288.502.46.718.567.171.085.437.19.593.231.172.047.478.077.781.077.297 0 .612-.03.782-.076.157-.041.413-.14.57-.217a3.33 3.33 0 00.538-.357c.14-.118.347-.33.461-.471.113-.141.27-.39.348-.552.078-.162.175-.424.216-.582.042-.167.073-.491.073-.775 0-.277-.031-.613-.072-.777a4.137 4.137 0 00-.234-.628 3.327 3.327 0 00-.428-.639 3.793 3.793 0 00-.586-.517 3.54 3.54 0 00-.698-.347 2.648 2.648 0 00-.852-.148 3.129 3.129 0 00-.776.052zm41.09 1.916c-.339.018-.885.08-1.214.137a7.29 7.29 0 00-.925.22 8.08 8.08 0 00-.564.225c-.131.06-.387.212-.569.338a4.483 4.483 0 00-.618.537c-.158.17-.416.472-.573.672-.158.2-.444.625-.635.944-.192.32-.493.89-.67 1.267a21.61 21.61 0 00-.832 2.07c-.043.134-.047.128-.134-.17-.049-.17-.181-.554-.292-.853a12.494 12.494 0 00-.37-.88 9.547 9.547 0 00-.389-.693 4.942 4.942 0 00-.56-.696c-.274-.277-.446-.398-.91-.64a11.383 11.383 0 00-1.042-.472 24.873 24.873 0 00-1.394-.44 32.383 32.383 0 00-1.976-.48 30.366 30.366 0 00-1.11-.216c-.042 0-.048.075-.025.278.017.153.086.551.153.884.066.333.184.845.26 1.138.077.293.185.674.24.847a11.235 11.235 0 00.756 1.792c.137.253.341.583.453.734.112.15.306.365.43.477.125.112.365.286.535.387.169.1.543.26.83.355a9.21 9.21 0 001.114.273c.349.06.95.113 1.462.131l.868.031-.029.973c-.015.535-.049 1.594-.075 2.353-.025.76-.078 2.001-.118 2.76-.039.76-.114 1.98-.165 2.712-.052.732-.148 1.887-.213 2.567-.065.679-.162 1.583-.215 2.01a50.558 50.558 0 01-.477 3.123 30.776 30.776 0 01-.311 1.428c-.094.373-.244.896-.334 1.162-.09.266-.259.671-.374.9-.115.228-.268.471-.339.54-.129.125-.144.128-1.577.226-.795.055-1.927.123-2.514.15-.586.027-2.059.07-3.272.097-1.213.026-6.986.047-12.829.047-5.844 0-15.597-.02-21.675-.046a108427.287 108427.287 0 00-48.4-.194c-6.56-.026-19.793-.07-29.406-.1l-17.477-.055-4.67 1.866a630.658 630.658 0 01-4.674 1.857 16.785 16.785 0 00-.28-.362 5.01 5.01 0 00-.627-.64 5.818 5.818 0 00-.653-.46 5.708 5.708 0 00-.691-.318 5.73 5.73 0 00-.822-.221 4.03 4.03 0 00-.982-.05c-.3.015-.724.072-.943.127a5.069 5.069 0 00-.788.287c-.215.102-.527.28-.693.395a5.574 5.574 0 00-.661.575 5.645 5.645 0 00-.587.72 5.49 5.49 0 00-.382.727 6.901 6.901 0 00-.243.711c-.073.277-.09.5-.087 1.211.003.807.013.904.133 1.304.072.238.224.62.34.848.115.229.347.59.514.804.168.214.473.525.677.692.205.167.586.412.847.544.26.133.624.287.806.342.249.076.516.107 1.064.126.484.017.846.005 1.065-.035a5.4 5.4 0 00.662-.175c.18-.063.488-.202.682-.31.194-.106.474-.289.622-.405.148-.117.411-.365.584-.552.173-.187.422-.52.554-.739.133-.22.305-.58.383-.8.078-.221.178-.594.221-.83.058-.31.073-.593.058-1.036l-.021-.61 4.524-1.803 4.525-1.804 14.948.053a163950.314 163950.314 0 0153.081.196c6.834.026 14.817.059 17.738.074 2.922.015 12.035.049 20.252.076 10.069.032 16.502.032 19.73-.001 2.635-.027 5.356-.071 6.047-.099.691-.027 1.63-.07 2.087-.097.456-.027 1.31-.083 1.897-.124.587-.042 1.185-.109 1.328-.15.144-.04.356-.129.471-.197.116-.069.305-.214.421-.323.116-.108.301-.328.413-.489.111-.16.3-.492.42-.737.121-.246.315-.731.431-1.08.117-.347.3-.985.406-1.417.106-.432.266-1.189.354-1.681a59.43 59.43 0 00.281-1.744c.067-.466.174-1.315.239-1.888s.171-1.662.236-2.421c.065-.76.151-1.893.191-2.518.041-.626.105-1.792.143-2.591.038-.799.094-2.324.124-3.39.031-1.065.06-1.942.065-1.948a8.32 8.32 0 01.622.11c.337.068.927.165 1.311.218.383.053 1.047.116 1.474.141.442.026.898.028 1.058.004a5.91 5.91 0 00.517-.102c.131-.034.439-.146.686-.248.247-.102.577-.272.735-.377.158-.105.407-.317.553-.471.147-.154.364-.428.483-.607.119-.18.551-1.02.961-1.865.588-1.212.873-1.737 1.349-2.481.332-.52.756-1.204.943-1.521.186-.317.332-.584.323-.593a5.468 5.468 0 00-.487-.115c-.259-.054-.727-.14-1.04-.19a21.756 21.756 0 00-2.561-.257c-.313-.01-.847-.004-1.186.014zM43.931 9.093c-.143.01-.474.041-.735.07a11.062 11.062 0 00-1.943.42c-.208.066-.6.217-.87.336-.271.118-.686.326-.923.462a10 10 0 00-.904.612c-.26.2-.662.558-.892.794-.23.237-.557.62-.726.85-.169.232-.433.65-.587.93-.154.28-.357.694-.45.92a9.48 9.48 0 00-.293.847c-.068.24-.166.687-.219.993-.052.306-.107.895-.123 1.307-.017.463-.005.974.03 1.332.032.32.098.778.146 1.018a11 11 0 00.239.92c.083.266.251.701.374.968.124.266.316.636.428.823.113.186.32.496.462.688.142.192.406.512.588.711a9.157 9.157 0 001.537 1.3c.182.12.545.327.806.46.26.133.683.322.937.419.255.097.703.24.996.316.293.077.768.176 1.055.22.287.043.842.092 1.233.108.413.016.98.004 1.352-.029.352-.031.907-.112 1.233-.178a12.14 12.14 0 001.22-.335c.345-.117.862-.333 1.15-.479.286-.146.676-.368.866-.493.19-.125.473-.328.63-.45a9.4 9.4 0 001.304-1.29c.149-.186.389-.524.533-.75.144-.227.357-.608.475-.848.117-.24.288-.643.38-.896.093-.253.222-.71.288-1.017.066-.306.143-.768.17-1.027a13.2 13.2 0 00.05-1.127c0-.362-.022-.87-.05-1.128a11.436 11.436 0 00-.147-.93c-.053-.253-.161-.657-.24-.896-.078-.24-.247-.664-.375-.943a9.929 9.929 0 00-.582-1.041 11.07 11.07 0 00-.704-.95 8.868 8.868 0 00-.8-.795c-.245-.21-.637-.51-.872-.668a10.201 10.201 0 00-.957-.55 11.107 11.107 0 00-1.162-.473 11.637 11.637 0 00-1.13-.313 13.45 13.45 0 00-.9-.147 15.566 15.566 0 00-1.898-.07zm22.22 0c-.104.01-.36.042-.569.07a5.704 5.704 0 00-.86.215c-.265.09-.673.262-.907.381-.233.12-.596.35-.806.512-.21.161-.494.419-.632.572-.137.153-.353.44-.479.636l-.229.357V9.499h-4.932v16.997H61.906v-4.623c0-3.062.018-4.79.053-5.12.03-.274.104-.68.166-.9.063-.221.18-.537.262-.7.081-.165.274-.434.429-.598.154-.165.407-.368.56-.452.155-.083.383-.186.508-.227.129-.042.49-.086.832-.101.39-.018.709-.006.901.032.163.033.409.115.546.184.139.07.372.255.528.42.153.164.347.436.431.607.085.17.204.513.266.762.077.31.128.71.16 1.263.027.445.049 2.754.05 5.131v4.322H72.773l-.02-5.484c-.017-4.713-.03-5.573-.097-6.114a24.791 24.791 0 00-.152-1.04c-.04-.227-.117-.576-.17-.775a8.269 8.269 0 00-.264-.775 7.623 7.623 0 00-.386-.795 5.345 5.345 0 00-1.338-1.458 6.54 6.54 0 00-.718-.408 5.857 5.857 0 00-.752-.288 8.005 8.005 0 00-.83-.171 12.153 12.153 0 00-1.895-.095zm15.817.02c-.273.021-.7.075-.948.119-.248.043-.616.122-.818.174a9.163 9.163 0 00-.712.221 7.56 7.56 0 00-1.591.839c-.19.137-.504.413-.698.613-.194.2-.47.544-.615.765a6.407 6.407 0 00-.403.72c-.077.175-.182.47-.233.657-.05.187-.118.553-.15.812-.037.293-.048.72-.03 1.128.02.46.063.798.144 1.122.064.255.174.582.245.726.071.144.22.393.332.553a5.24 5.24 0 001.067 1.074c.117.081.413.25.659.376.245.126.693.312.996.415.302.103 1.21.342 2.017.533.806.19 1.65.412 1.873.493.224.08.492.19.597.243.104.053.26.165.347.249.088.083.2.233.25.331a1.038 1.038 0 010 .852c-.049.098-.129.215-.177.258a1.748 1.748 0 01-.29.183c-.11.057-.388.15-.616.208-.33.083-.558.105-1.103.105-.55 0-.774-.022-1.115-.108a4.657 4.657 0 01-.806-.299 5.273 5.273 0 01-.688-.43 7.057 7.057 0 01-.657-.605c-.192-.202-.363-.367-.38-.367-.017 0-.724.786-1.572 1.747-.847.96-1.547 1.764-1.554 1.784-.007.02.153.183.356.363.203.179.507.42.677.535.17.116.507.311.75.435.242.124.667.301.944.394.277.093.815.232 1.195.31.38.078.895.17 1.142.204.261.035.92.06 1.565.059.783-.002 1.291-.027 1.708-.086.326-.046.803-.127 1.061-.18.258-.054.674-.165.925-.247.251-.082.65-.24.885-.353.235-.112.556-.287.711-.388.156-.102.44-.317.632-.479a5.91 5.91 0 00.675-.707c.18-.227.423-.61.54-.85.117-.239.257-.62.313-.847.072-.295.107-.632.125-1.194.016-.494.005-.932-.03-1.186a5.815 5.815 0 00-.193-.818 4.511 4.511 0 00-.3-.702 4.717 4.717 0 00-1.471-1.513 7.17 7.17 0 00-.713-.4 9.156 9.156 0 00-.818-.333c-.236-.08-1.088-.302-1.893-.491-.805-.19-1.646-.406-1.87-.48a9.362 9.362 0 01-.619-.232 1.82 1.82 0 01-.374-.232 1.13 1.13 0 01-.248-.334 1.09 1.09 0 01-.088-.356c0-.088.022-.255.051-.372.03-.117.127-.302.219-.41.091-.11.244-.24.34-.29.095-.049.33-.138.52-.197.306-.095.423-.106.949-.085.486.02.672.049.98.155.208.072.516.209.683.304.168.096.483.348.7.562l.397.387 1.244-1.25 1.6-1.61.355-.357-.26-.245a9.919 9.919 0 00-.621-.52 6.58 6.58 0 00-.783-.498 7.883 7.883 0 00-.778-.351 11.506 11.506 0 00-.925-.272 14.791 14.791 0 00-1.21-.235 14.434 14.434 0 00-1.28-.116 12.173 12.173 0 00-1.139.016zm57.294.003c-.3.022-.791.083-1.091.136-.3.053-.735.153-.967.222-.232.07-.627.204-.878.3-.25.095-.625.26-.832.366-.207.106-.545.3-.75.43-.205.13-.506.34-.667.466-.161.127-.45.382-.642.568-.191.186-.482.502-.646.702-.163.2-.417.553-.564.783-.146.23-.371.633-.5.896-.128.263-.31.705-.405.983a11.34 11.34 0 00-.293 1.09c-.102.493-.125.753-.146 1.673-.019.85-.007 1.212.052 1.647.042.306.131.774.198 1.04.066.267.196.681.288.92.093.24.276.644.407.897.131.253.369.656.528.895.16.24.526.683.813.986.287.304.727.71.978.903.251.193.672.476.936.628.264.153.742.386 1.062.519.32.133.859.314 1.199.404.34.089.863.2 1.162.248.396.062.827.086 1.588.087.769 0 1.186-.022 1.588-.086.3-.047.77-.142 1.044-.21s.701-.199.948-.29c.248-.091.675-.276.949-.41a9.783 9.783 0 001.02-.599c.287-.196.703-.52.924-.718.222-.199.553-.54.736-.758.182-.218.456-.585.609-.816.152-.231.394-.658.537-.948.144-.29.343-.781.444-1.09.101-.309.226-.78.279-1.046.052-.266.119-.789.149-1.162.029-.372.039-.928.022-1.234a11.137 11.137 0 00-.311-2.082c-.055-.2-.183-.582-.286-.848a9.839 9.839 0 00-.439-.953c-.14-.257-.38-.648-.534-.868a9.915 9.915 0 00-1.466-1.593 10.175 10.175 0 00-.736-.544c-.221-.147-.604-.37-.85-.496s-.64-.304-.874-.395c-.234-.091-.662-.23-.951-.308a13.21 13.21 0 00-.956-.216 13.87 13.87 0 00-1.115-.122 14.287 14.287 0 00-.85-.042c-.091.004-.411.024-.711.045zm-47.05 8.882v8.498h5.17V9.499H92.213v8.499zm30.45 0v8.498H127.831V9.499H122.662v8.499zm-77.16-4.161c.219.042.535.132.703.2.169.07.435.202.592.296.158.095.439.327.625.518.192.196.434.511.56.729.12.211.282.581.358.823.076.242.164.634.195.872a6.619 6.619 0 01-.097 1.997 5.093 5.093 0 01-.256.756 5.484 5.484 0 01-.353.643 4.37 4.37 0 01-.527.606 3.74 3.74 0 01-.716.52c-.21.11-.588.258-.842.326-.398.108-.561.125-1.196.127-.531 0-.841-.022-1.115-.084a5.068 5.068 0 01-.72-.23 4.189 4.189 0 01-.666-.377 4.238 4.238 0 01-.572-.51 4.393 4.393 0 01-.436-.598 5.047 5.047 0 01-.31-.656 6.327 6.327 0 01-.198-.678c-.05-.225-.078-.597-.08-1.071-.004-.534.017-.835.08-1.138a5.64 5.64 0 01.21-.726c.067-.173.203-.451.301-.617.099-.166.27-.413.383-.55.112-.135.332-.345.49-.465.156-.12.402-.28.545-.353.144-.074.368-.172.499-.217.13-.046.376-.112.545-.147.17-.035.6-.065.955-.068.409-.003.793.024 1.044.072zm66.226.089c.234.072.567.207.741.3.174.094.427.266.561.383.134.117.348.337.474.488.127.151.317.44.422.644a5 5 0 01.313.793c.066.234.144.666.173.961.038.391.038.67 0 1.028-.029.27-.085.633-.126.806a5.214 5.214 0 01-.304.8 4.727 4.727 0 01-.497.813 3.883 3.883 0 01-.561.55c-.161.12-.389.27-.507.33-.117.061-.384.166-.593.233a5.617 5.617 0 01-.853.18 5.468 5.468 0 01-.94.027 6.033 6.033 0 01-.912-.148 4.658 4.658 0 01-.839-.324 3.379 3.379 0 01-.737-.543 4.815 4.815 0 01-.568-.676 4.624 4.624 0 01-.377-.763 5.918 5.918 0 01-.232-.874c-.058-.338-.071-.629-.053-1.154.017-.492.054-.819.125-1.09a5.35 5.35 0 01.266-.746c.092-.198.26-.492.373-.654.113-.162.314-.397.445-.522.131-.126.361-.309.512-.407.15-.098.403-.232.561-.298.159-.067.47-.161.692-.21.327-.074.555-.088 1.209-.074.711.014.857.032 1.232.147zm29.737 0c.234.072.572.21.751.305.179.096.485.328.681.514.196.187.442.47.547.627.106.159.255.43.332.605.078.174.182.48.232.678.05.2.111.588.137.864a5.471 5.471 0 01-.165 1.93c-.065.23-.191.563-.279.742a5.102 5.102 0 01-.386.632 3.896 3.896 0 01-.503.541c-.152.13-.41.31-.573.403a4.38 4.38 0 01-.679.29c-.21.067-.604.148-.875.18a5.324 5.324 0 01-.919.026 6.832 6.832 0 01-.743-.101 5.12 5.12 0 01-.633-.19 4.005 4.005 0 01-.637-.333 4.105 4.105 0 01-.574-.474 4.71 4.71 0 01-.442-.546 4.821 4.821 0 01-.324-.585 6.014 6.014 0 01-.242-.71c-.096-.358-.108-.516-.107-1.326.001-.793.016-.974.105-1.308a6.32 6.32 0 01.347-.893c.21-.433.303-.564.653-.92.225-.228.531-.488.681-.577.15-.09.45-.226.666-.302a5.38 5.38 0 01.653-.185c.142-.026.621-.04 1.065-.032.715.012.854.029 1.231.145zM5.791 35.774c.19.065.458.19.593.279a3.3 3.3 0 01.453.374c.115.118.281.325.37.461.089.136.212.396.275.578.062.182.126.484.143.673a2.36 2.36 0 01-.043.705c-.041.2-.153.527-.248.726a2.43 2.43 0 01-.515.708c-.22.223-.447.397-.645.495a3.701 3.701 0 01-.587.225 3.04 3.04 0 01-.633.074c-.193 0-.48-.035-.639-.077a3.178 3.178 0 01-.528-.2 3.21 3.21 0 01-.48-.32 3.607 3.607 0 01-.416-.418 3.138 3.138 0 01-.318-.51 3.68 3.68 0 01-.212-.58 2.983 2.983 0 01-.071-.605c0-.175.033-.456.072-.627.04-.17.15-.464.248-.653a2.97 2.97 0 01.485-.66c.215-.22.421-.372.678-.501a3.31 3.31 0 01.711-.251c.195-.038.475-.055.65-.04.17.014.466.08.657.144z" fill="#000"/></svg>