<svg width="416" height="299" viewBox="0 0 416 299" fill="none" xmlns="http://www.w3.org/2000/svg"><path d="M181.074 256.625c.606.35 1.399.525 2.192.526.797.001 1.594-.174 2.202-.526.607-.35.91-.809.91-1.268v-36.711h-6.214v36.711c0 .459.304.918.91 1.268z" fill="#FAC864" stroke="#000" stroke-width=".566" stroke-linecap="round" stroke-linejoin="round"/><path d="M185.487 217.369c1.223.705 1.223 1.849 0 2.555-1.222.706-3.203.706-4.426 0-1.222-.706-1.222-1.85 0-2.555 1.223-.706 3.204-.706 4.426 0z" fill="#FFE598" stroke="#000" stroke-width=".566" stroke-linecap="round" stroke-linejoin="round"/><path d="M272.438 203.999c1.213.7 3.18.7 4.393 0 .607-.351.91-.81.91-1.269v-36.71h-6.214l.001 36.71c0 .459.303.918.91 1.269z" fill="#FAC864" stroke="#000" stroke-width=".566" stroke-linecap="round" stroke-linejoin="round"/><path d="M276.853 164.742c1.222.705 1.222 1.849 0 2.555-1.223.706-3.204.706-4.427 0-1.222-.706-1.222-1.85 0-2.555 1.223-.706 3.204-.706 4.427 0z" fill="#FFE598" stroke="#000" stroke-width=".566" stroke-linecap="round" stroke-linejoin="round"/><path d="M241.959 221.48c1.213.701 3.181.701 4.394 0 .607-.35.91-.809.91-1.268v-36.711h-6.214v36.711c0 .459.303.918.91 1.268z" fill="#FAC864" stroke="#000" stroke-width=".566" stroke-linecap="round" stroke-linejoin="round"/><path d="M246.374 182.224c1.222.705 1.222 1.849 0 2.555-1.222.706-3.204.706-4.426 0s-1.222-1.85 0-2.555c1.222-.706 3.204-.706 4.426 0z" fill="#FFE598" stroke="#000" stroke-width=".566" stroke-linecap="round" stroke-linejoin="round"/><path d="M333.324 168.854c1.214.7 3.181.7 4.394 0 .607-.351.91-.81.91-1.269v-36.71h-6.214v36.71c0 .459.304.918.91 1.269z" fill="#FAC864" stroke="#000" stroke-width=".566" stroke-linecap="round" stroke-linejoin="round"/><path d="M337.739 129.597c1.223.705 1.223 1.849 0 2.555-1.222.706-3.204.706-4.426 0s-1.222-1.85 0-2.555c1.222-.706 3.204-.706 4.426 0z" fill="#FFE598" stroke="#000" stroke-width=".566" stroke-linecap="round" stroke-linejoin="round"/><path d="M211.523 239.144c1.214.7 3.181.7 4.394 0 .607-.351.91-.81.91-1.269v-36.71h-6.214v36.71c0 .459.304.918.91 1.269z" fill="#FAC864" stroke="#000" stroke-width=".566" stroke-linecap="round" stroke-linejoin="round"/><path d="M215.939 199.887c1.222.705 1.222 1.849 0 2.555-1.223.706-3.204.706-4.427 0-1.222-.706-1.222-1.85 0-2.555 1.223-.706 3.204-.706 4.427 0z" fill="#FFE598" stroke="#000" stroke-width=".566" stroke-linecap="round" stroke-linejoin="round"/><path d="M302.891 186.517c1.213.7 3.18.7 4.394 0 .606-.351.91-.81.91-1.269l-.001-36.71h-6.214l.001 36.71c0 .459.303.918.91 1.269z" fill="#FAC864" stroke="#000" stroke-width=".566" stroke-linecap="round" stroke-linejoin="round"/><path d="M307.306 147.26c1.222.705 1.222 1.85 0 2.555-1.222.706-3.204.706-4.426 0-1.223-.705-1.223-1.85 0-2.555 1.222-.706 3.204-.706 4.426 0z" fill="#FFE598" stroke="#000" stroke-width=".566" stroke-linecap="round" stroke-linejoin="round"/><path d="M193.048 224.899l-.001-8.869-30.865 3.009v8.943l12.831 7.402 18.035-10.485z" fill="#505050" stroke="#000" stroke-width=".906" stroke-linecap="round" stroke-linejoin="round"/><path d="M174.955 226.374v8.871" stroke="#000" stroke-width=".906"/><path transform="matrix(-.86603 -.5 -.86603 .5 193 215.993)" fill="#B3B3B3" stroke="#000" stroke-width=".906" stroke-linecap="round" stroke-linejoin="round" d="M0 0h14.793v20.771H0z"/><path d="M77.768 196.344c1.213.701 3.18.701 4.394 0 .606-.35.91-.809.91-1.268v-36.711h-6.215v36.711c0 .459.304.918.91 1.268z" fill="#FAC864" stroke="#000" stroke-width=".566" stroke-linecap="round" stroke-linejoin="round"/><path d="M82.183 157.087c1.222.706 1.222 1.85 0 2.556-1.223.706-3.204.706-4.427 0-1.222-.706-1.222-1.85 0-2.556 1.223-.705 3.204-.705 4.427 0z" fill="#FFE598" stroke="#000" stroke-width=".566" stroke-linecap="round" stroke-linejoin="round"/><path d="M223.934 207.009v-8.869l-30.866 3.01v8.942l12.832 7.402 18.034-10.485z" fill="#505050" stroke="#000" stroke-width=".906" stroke-linecap="round" stroke-linejoin="round"/><path d="M205.842 208.484v8.872" stroke="#000" stroke-width=".906"/><path transform="matrix(-.86603 -.5 -.86603 .5 223.887 198.104)" fill="#B3B3B3" stroke="#000" stroke-width=".906" stroke-linecap="round" stroke-linejoin="round" d="M0 0h14.793v20.771H0z"/><path d="M254.801 189.12v-8.87l-30.865 3.01v8.943l12.831 7.401 18.034-10.484z" fill="#505050" stroke="#000" stroke-width=".906" stroke-linecap="round" stroke-linejoin="round"/><path d="M236.711 190.594v8.872" stroke="#000" stroke-width=".906"/><path transform="matrix(-.86603 -.5 -.86603 .5 254.754 180.214)" fill="#B3B3B3" stroke="#000" stroke-width=".906" stroke-linecap="round" stroke-linejoin="round" d="M0 0h14.793v20.771H0z"/><path d="M285.665 169.781l-.001-8.869-30.865 3.009v8.943l12.831 7.401 18.035-10.484z" fill="#505050" stroke="#000" stroke-width=".906" stroke-linecap="round" stroke-linejoin="round"/><path d="M267.572 171.255v8.872" stroke="#000" stroke-width=".906"/><path transform="matrix(-.86603 -.5 -.86603 .5 285.617 160.875)" fill="#B3B3B3" stroke="#000" stroke-width=".906" stroke-linecap="round" stroke-linejoin="round" d="M0 0h14.793v20.771H0z"/><path d="M316.553 151.891v-8.869l-30.865 3.01v8.942l12.831 7.402 18.034-10.485z" fill="#505050" stroke="#000" stroke-width=".906" stroke-linecap="round" stroke-linejoin="round"/><path d="M298.461 153.366v8.872" stroke="#000" stroke-width=".906"/><path transform="matrix(-.86603 -.5 -.86603 .5 316.506 142.985)" fill="#B3B3B3" stroke="#000" stroke-width=".906" stroke-linecap="round" stroke-linejoin="round" d="M0 0h14.793v20.771H0z"/><path d="M347.35 134.002v-8.869l-30.866 3.009v8.943l12.832 7.402 18.034-10.485z" fill="#505050" stroke="#000" stroke-width=".906" stroke-linecap="round" stroke-linejoin="round"/><path d="M329.258 135.477v8.871" stroke="#000" stroke-width=".906"/><path transform="matrix(-.86603 -.5 -.86603 .5 347.303 125.096)" fill="#B3B3B3" stroke="#000" stroke-width=".906" stroke-linecap="round" stroke-linejoin="round" d="M0 0h14.793v20.771H0z"/><path d="M173.477 228.12l182.801-105.54c1.703-.983 2.532-2.279 2.489-3.567v-11.639l-301.53 46.784v11.866c.045 1.221.875 2.433 2.488 3.365l101.726 58.731c3.321 1.917 8.705 1.917 12.026 0z" fill="#5E6FDB" stroke="#000" stroke-width=".906" stroke-linecap="round" stroke-linejoin="round"/><rect width="131.35" height="224.967" rx="9.059" transform="matrix(.86603 .5 -.86603 .5 248.539 41.431)" fill="#B0B8ED" stroke="#000" stroke-width=".906" stroke-linecap="round" stroke-linejoin="round"/><path transform="matrix(.86603 -.5 .86603 .5 210.398 95.946)" stroke="#000" stroke-width=".906" stroke-linecap="round" stroke-linejoin="round" d="M0 0h73.416v56.555H0z"/><path transform="matrix(.86603 -.5 .86603 .5 210.398 95.946)" stroke="#000" stroke-width=".906" stroke-linecap="round" stroke-linejoin="round" d="M0 0h73.416v56.555H0z"/><path transform="matrix(.86603 -.5 .86603 .5 224.273 95.263)" fill="#E5E5E5" stroke="#000" stroke-width=".906" stroke-linecap="round" stroke-linejoin="round" d="M0 0h60.652v3.854H0z"/><path transform="matrix(.86603 -.5 .86603 .5 237.59 102.871)" fill="#E5E5E5" stroke="#000" stroke-width=".906" stroke-linecap="round" stroke-linejoin="round" d="M0 0h60.652v3.854H0z"/><path transform="matrix(.86603 -.5 .86603 .5 250.859 110.48)" fill="#E5E5E5" stroke="#000" stroke-width=".906" stroke-linecap="round" stroke-linejoin="round" d="M0 0h60.652v3.854H0z"/><path transform="matrix(.86603 -.5 .86603 .5 230.887 99.067)" fill="#E5E5E5" stroke="#000" stroke-width=".906" stroke-linecap="round" stroke-linejoin="round" d="M0 0h60.652v3.854H0z"/><path transform="matrix(.86603 -.5 .86603 .5 244.201 106.676)" fill="#E5E5E5" stroke="#000" stroke-width=".906" stroke-linecap="round" stroke-linejoin="round" d="M0 0h60.652v3.854H0z"/><path transform="matrix(.86603 -.5 .86603 .5 257.518 114.284)" fill="#E5E5E5" stroke="#000" stroke-width=".906" stroke-linecap="round" stroke-linejoin="round" d="M0 0h60.652v3.854H0z"/><path d="M271.752 112.377l47.133-27.212v-7.729l-87.968 3.692V88.8l40.835 23.576z" fill="#C4C4C4"/><path d="M271.752 112.377l47.133-27.212v-7.729l-87.968 3.692V88.8l40.835 23.576zm0 0v-7.676" stroke="#000" stroke-width=".906" stroke-linecap="round" stroke-linejoin="round"/><path transform="matrix(.86603 -.5 .86603 .5 230.916 81.098)" fill="#E5E5E5" stroke="#000" stroke-width=".906" stroke-linecap="round" stroke-linejoin="round" d="M0 0h54.425v47.152H0z"/><path transform="matrix(.86603 -.5 .86603 .5 158.238 142.734)" fill="#E5E5E5" stroke="#000" stroke-width=".906" stroke-linecap="round" stroke-linejoin="round" d="M0 0h25.184v24.681H0z"/><path d="M179.832 152.709l17.65-10.19v-2.174h-35.301v2.174l17.651 10.19z" fill="#464646"/><path d="M179.832 152.709l17.65-10.19v-2.174h-35.301v2.174l17.651 10.19zm0 0v-2.151" stroke="#000" stroke-width=".906" stroke-linecap="round" stroke-linejoin="round"/><path transform="matrix(.86603 -.5 .86603 .5 162.182 140.345)" fill="#464646" stroke="#000" stroke-width=".906" stroke-linecap="round" stroke-linejoin="round" d="M0 0h20.381v20.381H0z"/><rect width="15.123" height="18.096" rx="7.561" transform="matrix(.86603 .5 -.86603 .5 336.756 106.727)" fill="#5E6FDB" stroke="#000" stroke-width=".906" stroke-linecap="round" stroke-linejoin="round"/><rect width="15.123" height="16.986" rx="7.561" transform="matrix(.86603 .5 -.86603 .5 306.01 124.478)" fill="#5E6FDB" stroke="#000" stroke-width=".906" stroke-linecap="round" stroke-linejoin="round"/><rect width="15.123" height="17.141" rx="7.561" transform="matrix(.86603 .5 -.86603 .5 275.951 141.833)" fill="#5E6FDB" stroke="#000" stroke-width=".906" stroke-linecap="round" stroke-linejoin="round"/><rect width="15.123" height="17.143" rx="7.561" transform="matrix(.86603 .5 -.86603 .5 245.367 159.489)" fill="#5E6FDB" stroke="#000" stroke-width=".906" stroke-linecap="round" stroke-linejoin="round"/><rect width="15.123" height="17.471" rx="7.561" transform="matrix(.86603 .5 -.86603 .5 214.557 177.277)" fill="#5E6FDB" stroke="#000" stroke-width=".906" stroke-linecap="round" stroke-linejoin="round"/><rect width="15.123" height="16.606" rx="7.561" transform="matrix(.86603 .5 -.86603 .5 183.5 195.208)" fill="#5E6FDB" stroke="#000" stroke-width=".906" stroke-linecap="round" stroke-linejoin="round"/><path d="M179.592 204.93c2.037 1.175 5.339 1.175 7.375 0 1.27-.733 1.748-1.75 1.435-2.697l-3.53-7.676h-3.171l-3.544 7.676c-.313.947.166 1.964 1.435 2.697z" fill="#D9D9D9" stroke="#000" stroke-width=".906" stroke-linecap="round" stroke-linejoin="round"/><circle r="1.324" transform="matrix(.86603 -.5 .86603 .5 183.278 194.567)" fill="#D9D9D9" stroke="#000" stroke-width=".906" stroke-linecap="round" stroke-linejoin="round"/><path d="M210.041 187.085c2.037 1.176 5.339 1.176 7.376 0 1.269-.733 1.747-1.749 1.434-2.696l-3.53-7.677h-3.17l-3.545 7.677c-.312.947.166 1.963 1.435 2.696z" fill="#D9D9D9" stroke="#000" stroke-width=".906" stroke-linecap="round" stroke-linejoin="round"/><circle r="1.324" transform="matrix(.86603 -.5 .86603 .5 213.728 176.723)" fill="#D9D9D9" stroke="#000" stroke-width=".906" stroke-linecap="round" stroke-linejoin="round"/><path d="M240.475 169.241c2.036 1.176 5.339 1.176 7.375 0 1.27-.733 1.748-1.749 1.435-2.696l-3.531-7.677h-3.17l-3.544 7.677c-.313.947.165 1.963 1.435 2.696z" fill="#D9D9D9" stroke="#000" stroke-width=".906" stroke-linecap="round" stroke-linejoin="round"/><circle r="1.324" transform="matrix(.86603 -.5 .86603 .5 244.163 158.879)" fill="#D9D9D9" stroke="#000" stroke-width=".906" stroke-linecap="round" stroke-linejoin="round"/><path d="M270.955 151.578c2.037 1.176 5.339 1.176 7.376 0 1.269-.733 1.747-1.75 1.434-2.696l-3.53-7.677h-3.17l-3.544 7.677c-.313.946.165 1.963 1.434 2.696z" fill="#D9D9D9" stroke="#000" stroke-width=".906" stroke-linecap="round" stroke-linejoin="round"/><circle r="1.324" transform="matrix(.86603 -.5 .86603 .5 274.644 141.216)" fill="#D9D9D9" stroke="#000" stroke-width=".906" stroke-linecap="round" stroke-linejoin="round"/><path d="M301.391 133.915c2.036 1.176 5.339 1.176 7.375 0 1.27-.733 1.748-1.75 1.435-2.696l-3.531-7.677h-3.17l-3.544 7.677c-.313.946.165 1.963 1.435 2.696z" fill="#D9D9D9" stroke="#000" stroke-width=".906" stroke-linecap="round" stroke-linejoin="round"/><circle r="1.324" transform="matrix(.86603 -.5 .86603 .5 305.079 123.553)" fill="#D9D9D9" stroke="#000" stroke-width=".906" stroke-linecap="round" stroke-linejoin="round"/><path d="M331.826 116.795c2.037 1.176 5.339 1.176 7.376 0 1.269-.733 1.747-1.749 1.434-2.696l-3.53-7.677h-3.17l-3.544 7.677c-.313.947.165 1.963 1.434 2.696z" fill="#D9D9D9" stroke="#000" stroke-width=".906" stroke-linecap="round" stroke-linejoin="round"/><circle r="1.324" transform="matrix(.86603 -.5 .86603 .5 335.515 106.433)" fill="#D9D9D9" stroke="#000" stroke-width=".906" stroke-linecap="round" stroke-linejoin="round"/><rect width="15.123" height="18.096" rx="7.561" transform="matrix(.86603 .5 -.86603 .5 236.248 48.348)" fill="#5E6FDB" stroke="#000" stroke-width=".906" stroke-linecap="round" stroke-linejoin="round"/><rect width="15.123" height="16.986" rx="7.561" transform="matrix(.86603 .5 -.86603 .5 205.502 66.099)" fill="#5E6FDB" stroke="#000" stroke-width=".906" stroke-linecap="round" stroke-linejoin="round"/><rect width="15.123" height="17.141" rx="7.561" transform="matrix(.86603 .5 -.86603 .5 175.443 83.453)" fill="#5E6FDB" stroke="#000" stroke-width=".906" stroke-linecap="round" stroke-linejoin="round"/><rect width="15.123" height="17.143" rx="7.561" transform="matrix(.86603 .5 -.86603 .5 144.859 101.11)" fill="#5E6FDB" stroke="#000" stroke-width=".906" stroke-linecap="round" stroke-linejoin="round"/><rect width="15.123" height="17.471" rx="7.561" transform="matrix(.86603 .5 -.86603 .5 114.049 118.898)" fill="#5E6FDB" stroke="#000" stroke-width=".906" stroke-linecap="round" stroke-linejoin="round"/><rect width="15.123" height="16.606" rx="7.561" transform="matrix(.86603 .5 -.86603 .5 82.992 136.829)" fill="#5E6FDB" stroke="#000" stroke-width=".906" stroke-linecap="round" stroke-linejoin="round"/><path d="M79.084 146.551c2.037 1.176 5.339 1.176 7.376 0 1.269-.733 1.747-1.75 1.434-2.697l-3.53-7.676h-3.17l-3.544 7.676c-.313.947.165 1.964 1.434 2.697z" fill="#D9D9D9" stroke="#000" stroke-width=".906" stroke-linecap="round" stroke-linejoin="round"/><circle r="1.324" transform="matrix(.86603 -.5 .86603 .5 82.77 136.188)" fill="#D9D9D9" stroke="#000" stroke-width=".906" stroke-linecap="round" stroke-linejoin="round"/><path d="M109.533 128.706c2.037 1.176 5.339 1.176 7.376 0 1.269-.732 1.747-1.749 1.435-2.696l-3.531-7.677h-3.17l-3.544 7.677c-.313.947.165 1.964 1.434 2.696z" fill="#D9D9D9" stroke="#000" stroke-width=".906" stroke-linecap="round" stroke-linejoin="round"/><circle r="1.324" transform="matrix(.86603 -.5 .86603 .5 113.22 118.344)" fill="#D9D9D9" stroke="#000" stroke-width=".906" stroke-linecap="round" stroke-linejoin="round"/><path d="M139.969 110.862c2.037 1.176 5.339 1.176 7.375 0 1.27-.733 1.748-1.749 1.435-2.696l-3.53-7.677h-3.171l-3.544 7.677c-.313.947.166 1.963 1.435 2.696z" fill="#D9D9D9" stroke="#000" stroke-width=".906" stroke-linecap="round" stroke-linejoin="round"/><circle r="1.324" transform="matrix(.86603 -.5 .86603 .5 143.655 100.5)" fill="#D9D9D9" stroke="#000" stroke-width=".906" stroke-linecap="round" stroke-linejoin="round"/><path d="M170.447 93.2c2.037 1.175 5.339 1.175 7.376 0 1.269-.734 1.747-1.75 1.435-2.697l-3.531-7.677h-3.17l-3.544 7.677c-.313.947.165 1.963 1.434 2.696z" fill="#D9D9D9" stroke="#000" stroke-width=".906" stroke-linecap="round" stroke-linejoin="round"/><circle r="1.324" transform="matrix(.86603 -.5 .86603 .5 174.134 82.837)" fill="#D9D9D9" stroke="#000" stroke-width=".906" stroke-linecap="round" stroke-linejoin="round"/><path d="M200.883 75.536c2.037 1.176 5.339 1.176 7.375 0 1.27-.733 1.748-1.75 1.435-2.696l-3.53-7.677h-3.171l-3.544 7.677c-.313.946.166 1.963 1.435 2.696z" fill="#D9D9D9" stroke="#000" stroke-width=".906" stroke-linecap="round" stroke-linejoin="round"/><circle r="1.324" transform="matrix(.86603 -.5 .86603 .5 204.569 65.174)" fill="#D9D9D9" stroke="#000" stroke-width=".906" stroke-linecap="round" stroke-linejoin="round"/><path d="M231.319 58.416c2.036 1.176 5.338 1.176 7.375 0 1.269-.732 1.748-1.75 1.435-2.696l-3.531-7.676h-3.17l-3.544 7.676c-.313.947.165 1.964 1.435 2.696z" fill="#D9D9D9" stroke="#000" stroke-width=".906" stroke-linecap="round" stroke-linejoin="round"/><circle r="1.324" transform="matrix(.86603 -.5 .86603 .5 235.007 48.054)" fill="#D9D9D9" stroke="#000" stroke-width=".906" stroke-linecap="round" stroke-linejoin="round"/><path d="M110.907 154.21v-5.647l-19.65 1.916v5.693l8.17 4.712 11.48-6.674z" fill="#C4C4C4" stroke="#000" stroke-width=".906" stroke-linecap="round" stroke-linejoin="round"/><path d="M99.389 155.148v5.648" stroke="#000" stroke-width=".906"/><path transform="matrix(-.86603 -.5 -.86603 .5 110.877 148.54)" fill="#D9D9D9" stroke="#000" stroke-width=".906" stroke-linecap="round" stroke-linejoin="round" d="M0 0h9.417v13.223H0z"/><path d="M98.997 150.649c.575.332 1.328.499 2.082.499.757.001 1.515-.165 2.093-.499.576-.333.864-.769.864-1.205l-.001-1.749h-5.904l.001 1.749c0 .436.288.872.865 1.205z" fill="#000" stroke="#000" stroke-width=".566" stroke-linecap="round" stroke-linejoin="round"/><path d="M103.19 146.481c1.161.67 1.161 1.758 0 2.428-1.161.671-3.044.671-4.206 0-1.161-.67-1.161-1.758 0-2.428 1.162-.671 3.045-.671 4.206 0z" fill="#505050" stroke="#000" stroke-width=".566" stroke-linecap="round" stroke-linejoin="round"/><path d="M172.005 189.853v-5.646l-19.65 1.916v5.693l8.169 4.712 11.481-6.675z" fill="#C4C4C4" stroke="#000" stroke-width=".906" stroke-linecap="round" stroke-linejoin="round"/><path d="M160.486 190.792v5.648" stroke="#000" stroke-width=".906"/><path transform="matrix(-.86603 -.5 -.86603 .5 171.975 184.184)" fill="#D9D9D9" stroke="#000" stroke-width=".906" stroke-linecap="round" stroke-linejoin="round" d="M0 0h9.417v13.223H0z"/><path d="M160.092 186.293c.576.332 1.329.498 2.083.499.757.001 1.515-.166 2.092-.499.577-.333.865-.769.865-1.205l-.001-1.75h-5.904l.001 1.75c0 .436.288.872.864 1.205z" fill="#000" stroke="#000" stroke-width=".566" stroke-linecap="round" stroke-linejoin="round"/><path d="M164.286 182.124c1.161.671 1.161 1.758 0 2.429-1.162.67-3.045.67-4.206 0-1.161-.671-1.161-1.758 0-2.429 1.161-.67 3.044-.67 4.206 0z" fill="#505050" stroke="#000" stroke-width=".566" stroke-linecap="round" stroke-linejoin="round"/><path d="M124.222 194.254l44.037-25.425v-11.358l-71.721 9.42v11.38l27.684 15.983z" fill="#C4C4C4"/><path d="M124.222 194.254l44.037-25.425v-11.358l-71.721 9.42v11.38l27.684 15.983zm0 0v-11.557" stroke="#000" stroke-width=".906" stroke-linecap="round" stroke-linejoin="round"/><path d="M96.537 178.287l27.684 15.983v-11.421l-27.684-15.942v11.38z" fill="#505050" stroke="#000" stroke-width=".906" stroke-linecap="round" stroke-linejoin="round"/><path d="M98.867 177.268l25.327 14.623v-10.449L98.867 168.02v9.248z" fill="#000" stroke="#000" stroke-width=".906" stroke-linecap="round" stroke-linejoin="round"/><path transform="matrix(.86603 .5 -.86603 .5 140.574 141.477)" fill="#E5E5E5" stroke="#000" stroke-width=".906" stroke-linecap="round" stroke-linejoin="round" d="M0 0h31.967v50.85H0z"/><rect width="2.675" height="10.613" rx="1.337" transform="matrix(-.86603 -.5 -.86603 .5 121.918 162.107)" fill="#505050" stroke="#000" stroke-width=".906" stroke-linecap="round" stroke-linejoin="round"/><rect width="2.675" height="10.613" rx="1.337" transform="matrix(-.86603 -.5 -.86603 .5 134.012 168.976)" fill="#505050" stroke="#000" stroke-width=".906" stroke-linecap="round" stroke-linejoin="round"/><path transform="matrix(.86603 -.5 .86603 .5 203.719 109.943)" fill="#E5E5E5" stroke="#000" stroke-width=".906" stroke-linecap="round" stroke-linejoin="round" d="M0 0h5.099v35.909H0z"/><path transform="matrix(.86603 -.5 .86603 .5 194.18 115.452)" fill="#E5E5E5" stroke="#000" stroke-width=".906" stroke-linecap="round" stroke-linejoin="round" d="M0 0h5.796v35.909H0z"/><path transform="matrix(.86603 -.5 .86603 .5 184.021 121.315)" fill="#E5E5E5" stroke="#000" stroke-width=".906" stroke-linecap="round" stroke-linejoin="round" d="M0 0h5.88v35.909H0z"/><path transform="matrix(.86603 -.5 .86603 .5 178.623 121.465)" stroke="#000" stroke-width=".906" stroke-linecap="round" stroke-linejoin="round" d="M0 0h34.146v42.305H0z"/><path transform="matrix(.86603 -.5 .86603 .5 131.096 130.873)" stroke="#000" stroke-width=".906" stroke-linecap="round" stroke-linejoin="round" d="M0 0h70.994v78.369H0z"/><circle r="2.139" transform="matrix(.86603 .5 -.86603 .5 271.502 98.371)" fill="#7C7C7C" stroke="#000" stroke-width=".906" stroke-linecap="round" stroke-linejoin="round"/><path d="M207.664 134.88l23.922-13.812v-6.358l-39.954 4.575v6.338l16.032 9.257z" fill="#464646"/><path d="M207.664 134.88l23.922-13.812v-6.358l-39.954 4.575v6.338l16.032 9.257zm0 0v-6.243" stroke="#000" stroke-width=".906" stroke-linecap="round" stroke-linejoin="round"/><path transform="matrix(.86603 -.5 .86603 .5 191.633 119.279)" fill="#464646" stroke="#000" stroke-width=".906" stroke-linecap="round" stroke-linejoin="round" d="M0 0h27.623v18.512H0z"/></svg>