<svg width="404" height="283" viewBox="0 0 404 283" fill="none" xmlns="http://www.w3.org/2000/svg"><path d="M237.252 281.177c-.79.456-1.824.684-2.859.685-1.04.001-2.08-.227-2.873-.685-.792-.457-1.188-1.056-1.188-1.655l.001-47.894h8.106v47.894c0 .599-.396 1.198-1.187 1.655z" fill="#FAC864" stroke="#000" stroke-width=".566" stroke-linecap="round" stroke-linejoin="round"/><path d="M231.492 229.961c-1.594.921-1.594 2.414 0 3.334 1.595.921 4.18.921 5.775 0 1.595-.92 1.595-2.413 0-3.334-1.595-.92-4.18-.92-5.775 0z" fill="#FFE598" stroke="#000" stroke-width=".566" stroke-linecap="round" stroke-linejoin="round"/><path d="M118.053 212.518c-1.583.914-4.15.914-5.733 0-.791-.457-1.187-1.056-1.187-1.655V162.97h8.107v47.893c0 .599-.396 1.198-1.187 1.655z" fill="#FAC864" stroke="#000" stroke-width=".566" stroke-linecap="round" stroke-linejoin="round"/><path d="M112.293 161.303c-1.594.92-1.594 2.413 0 3.334 1.595.92 4.18.92 5.775 0 1.594-.921 1.594-2.414 0-3.334-1.595-.921-4.18-.921-5.775 0z" fill="#FFE598" stroke="#000" stroke-width=".566" stroke-linecap="round" stroke-linejoin="round"/><path d="M157.818 235.326c-1.583.914-4.149.914-5.732 0-.791-.457-1.187-1.056-1.187-1.655v-47.894h8.107v47.894c0 .599-.396 1.198-1.188 1.655z" fill="#FAC864" stroke="#000" stroke-width=".566" stroke-linecap="round" stroke-linejoin="round"/><path d="M152.059 184.11c-1.595.921-1.595 2.414 0 3.334 1.594.921 4.18.921 5.774 0 1.595-.92 1.595-2.413 0-3.334-1.594-.92-4.18-.92-5.774 0z" fill="#FFE598" stroke="#000" stroke-width=".566" stroke-linecap="round" stroke-linejoin="round"/><path d="M38.617 166.667c-1.583.914-4.15.914-5.732 0-.792-.457-1.187-1.056-1.187-1.655v-47.893h8.107v47.893c0 .599-.396 1.198-1.188 1.655z" fill="#FAC864" stroke="#000" stroke-width=".566" stroke-linecap="round" stroke-linejoin="round"/><path d="M32.858 115.452c-1.595.92-1.595 2.413 0 3.334 1.594.92 4.18.92 5.774 0 1.595-.921 1.595-2.414 0-3.334-1.594-.921-4.18-.921-5.774 0z" fill="#FFE598" stroke="#000" stroke-width=".566" stroke-linecap="round" stroke-linejoin="round"/><path d="M197.523 258.369c-1.582.914-4.149.914-5.732 0-.791-.457-1.187-1.056-1.187-1.655v-47.893h8.107v47.893c0 .599-.396 1.198-1.188 1.655z" fill="#FAC864" stroke="#000" stroke-width=".566" stroke-linecap="round" stroke-linejoin="round"/><path d="M191.764 207.154c-1.595.921-1.595 2.413 0 3.334 1.594.92 4.18.92 5.774 0 1.595-.921 1.595-2.413 0-3.334-1.594-.921-4.18-.921-5.774 0z" fill="#FFE598" stroke="#000" stroke-width=".566" stroke-linecap="round" stroke-linejoin="round"/><path d="M78.324 189.711c-1.583.914-4.15.914-5.732 0-.792-.457-1.187-1.056-1.187-1.655v-47.893h8.107v47.893c0 .599-.396 1.198-1.188 1.655z" fill="#FAC864" stroke="#000" stroke-width=".566" stroke-linecap="round" stroke-linejoin="round"/><path d="M72.565 138.496c-1.595.92-1.595 2.413 0 3.334 1.594.92 4.18.92 5.774 0 1.595-.921 1.595-2.414 0-3.334-1.594-.921-4.18-.921-5.774 0z" fill="#FFE598" stroke="#000" stroke-width=".566" stroke-linecap="round" stroke-linejoin="round"/><path d="M221.63 239.786v-11.571l40.268 3.926v11.667l-16.74 9.656-23.528-13.678z" fill="#505050" stroke="#000" stroke-width=".906" stroke-linecap="round" stroke-linejoin="round"/><path d="M245.232 241.71v11.574" stroke="#000" stroke-width=".906"/><path transform="matrix(.86603 -.5 .86603 .5 221.691 228.167)" fill="#B3B3B3" stroke="#000" stroke-width=".906" stroke-linecap="round" stroke-linejoin="round" d="M0 0h19.299v27.099H0z"/><path d="M372.031 202.533c-1.583.914-4.149.914-5.732 0-.792-.457-1.187-1.056-1.187-1.655v-47.894h8.107l-.001 47.894c0 .599-.395 1.198-1.187 1.655z" fill="#FAC864" stroke="#000" stroke-width=".566" stroke-linecap="round" stroke-linejoin="round"/><path d="M366.27 151.317c-1.595.921-1.595 2.414 0 3.334 1.594.921 4.18.921 5.774 0 1.595-.92 1.595-2.413 0-3.334-1.594-.92-4.18-.92-5.774 0z" fill="#FFE598" stroke="#000" stroke-width=".566" stroke-linecap="round" stroke-linejoin="round"/><path d="M181.333 216.447v-11.572l40.269 3.927v11.667l-16.741 9.656-23.528-13.678z" fill="#505050" stroke="#000" stroke-width=".906" stroke-linecap="round" stroke-linejoin="round"/><path d="M204.936 218.371v11.574" stroke="#000" stroke-width=".906"/><path transform="matrix(.86603 -.5 .86603 .5 181.395 204.828)" fill="#B3B3B3" stroke="#000" stroke-width=".906" stroke-linecap="round" stroke-linejoin="round" d="M0 0h19.299v27.099H0z"/><path d="M141.064 193.107v-11.571l40.268 3.926v11.667l-16.74 9.657-23.528-13.679z" fill="#505050" stroke="#000" stroke-width=".906" stroke-linecap="round" stroke-linejoin="round"/><path d="M164.666 195.031v11.575" stroke="#000" stroke-width=".906"/><path transform="matrix(.86603 -.5 .86603 .5 141.125 181.489)" fill="#B3B3B3" stroke="#000" stroke-width=".906" stroke-linecap="round" stroke-linejoin="round" d="M0 0h19.299v27.099H0z"/><path d="M100.798 167.877v-11.571l40.268 3.926v11.667l-16.74 9.657-23.528-13.679z" fill="#505050" stroke="#000" stroke-width=".906" stroke-linecap="round" stroke-linejoin="round"/><path d="M124.4 169.801v11.575" stroke="#000" stroke-width=".906"/><path transform="matrix(.86603 -.5 .86603 .5 100.859 156.259)" fill="#B3B3B3" stroke="#000" stroke-width=".906" stroke-linecap="round" stroke-linejoin="round" d="M0 0h19.299v27.099H0z"/><path d="M60.503 144.538v-11.571l40.268 3.926v11.667l-16.74 9.656-23.528-13.678z" fill="#505050" stroke="#000" stroke-width=".906" stroke-linecap="round" stroke-linejoin="round"/><path d="M84.103 146.462v11.574" stroke="#000" stroke-width=".906"/><path transform="matrix(.86603 -.5 .86603 .5 60.563 132.919)" fill="#B3B3B3" stroke="#000" stroke-width=".906" stroke-linecap="round" stroke-linejoin="round" d="M0 0h19.299v27.099H0z"/><path d="M20.321 121.199v-11.571l40.269 3.926v11.667l-16.74 9.656-23.529-13.678z" fill="#505050" stroke="#000" stroke-width=".906" stroke-linecap="round" stroke-linejoin="round"/><path d="M43.924 123.123v11.574" stroke="#000" stroke-width=".906"/><path transform="matrix(.86603 -.5 .86603 .5 20.383 109.581)" fill="#B3B3B3" stroke="#000" stroke-width=".906" stroke-linecap="round" stroke-linejoin="round" d="M0 0h19.299v27.099H0z"/><path d="M247.162 243.988L8.674 106.297c-2.22-1.282-3.303-2.972-3.247-4.653V86.459l393.385 61.036v15.481c-.059 1.592-1.142 3.174-3.246 4.39l-132.714 76.622c-4.333 2.502-11.358 2.502-15.69 0z" fill="#55A398" stroke="#000" stroke-width=".906" stroke-linecap="round" stroke-linejoin="round"/><rect width="171.362" height="293.499" rx="9.059" transform="matrix(-.86603 .5 .86603 .5 149.234 .429)" fill="#BDDCD8" stroke="#000" stroke-width=".906" stroke-linecap="round" stroke-linejoin="round"/><path transform="matrix(-.86603 -.5 -.86603 .5 198.994 71.55)" stroke="#000" stroke-width=".906" stroke-linecap="round" stroke-linejoin="round" d="M0 0h95.781v73.783H0z"/><path transform="matrix(-.86603 -.5 -.86603 .5 198.994 71.55)" stroke="#000" stroke-width=".906" stroke-linecap="round" stroke-linejoin="round" d="M0 0h95.781v73.783H0z"/><path transform="matrix(-.86603 -.5 -.86603 .5 180.891 70.659)" fill="#E5E5E5" stroke="#000" stroke-width=".906" stroke-linecap="round" stroke-linejoin="round" d="M0 0h79.128v5.028H0z"/><path transform="matrix(-.86603 -.5 -.86603 .5 163.52 80.585)" fill="#E5E5E5" stroke="#000" stroke-width=".906" stroke-linecap="round" stroke-linejoin="round" d="M0 0h79.128v5.028H0z"/><path transform="matrix(-.86603 -.5 -.86603 .5 146.207 90.512)" fill="#E5E5E5" stroke="#000" stroke-width=".906" stroke-linecap="round" stroke-linejoin="round" d="M0 0h79.128v5.028H0z"/><path transform="matrix(-.86603 -.5 -.86603 .5 172.266 75.622)" fill="#E5E5E5" stroke="#000" stroke-width=".906" stroke-linecap="round" stroke-linejoin="round" d="M0 0h79.128v5.028H0z"/><path transform="matrix(-.86603 -.5 -.86603 .5 154.893 85.548)" fill="#E5E5E5" stroke="#000" stroke-width=".906" stroke-linecap="round" stroke-linejoin="round" d="M0 0h79.128v5.028H0z"/><path transform="matrix(-.86603 -.5 -.86603 .5 137.521 95.475)" fill="#E5E5E5" stroke="#000" stroke-width=".906" stroke-linecap="round" stroke-linejoin="round" d="M0 0h79.128v5.028H0z"/><path d="M118.95 92.987L57.459 57.485V47.403l114.766 4.815V62.23L118.95 92.987z" fill="#C4C4C4"/><path d="M118.95 92.987L57.459 57.485V47.403l114.766 4.815V62.23L118.95 92.987zm0 0V82.973" stroke="#000" stroke-width=".906" stroke-linecap="round" stroke-linejoin="round"/><path transform="matrix(-.86603 -.5 -.86603 .5 172.225 52.18)" fill="#E5E5E5" stroke="#000" stroke-width=".906" stroke-linecap="round" stroke-linejoin="round" d="M0 0h71.004v61.516H0z"/><path transform="matrix(-.86603 -.5 -.86603 .5 267.043 132.592)" fill="#E5E5E5" stroke="#000" stroke-width=".906" stroke-linecap="round" stroke-linejoin="round" d="M0 0h32.855v32.2H0z"/><path d="M238.873 145.605l-23.027-13.295v-2.836h46.053v2.836l-23.026 13.295z" fill="#464646"/><path d="M238.873 145.605l-23.027-13.295v-2.836h46.053v2.836l-23.026 13.295zm0 0v-2.807" stroke="#000" stroke-width=".906" stroke-linecap="round" stroke-linejoin="round"/><path transform="matrix(-.86603 -.5 -.86603 .5 261.898 129.474)" fill="#464646" stroke="#000" stroke-width=".906" stroke-linecap="round" stroke-linejoin="round" d="M0 0h26.589v26.589H0z"/><rect width="19.73" height="23.608" rx="9.059" transform="matrix(-.86603 .5 .86603 .5 34.147 85.615)" fill="#55A398" stroke="#000" stroke-width=".906" stroke-linecap="round" stroke-linejoin="round"/><rect width="19.73" height="22.16" rx="9.059" transform="matrix(-.86603 .5 .86603 .5 74.258 108.773)" fill="#55A398" stroke="#000" stroke-width=".906" stroke-linecap="round" stroke-linejoin="round"/><rect width="19.73" height="22.363" rx="9.059" transform="matrix(-.86603 .5 .86603 .5 113.473 131.415)" fill="#55A398" stroke="#000" stroke-width=".906" stroke-linecap="round" stroke-linejoin="round"/><rect width="19.73" height="22.365" rx="9.059" transform="matrix(-.86603 .5 .86603 .5 153.373 154.45)" fill="#55A398" stroke="#000" stroke-width=".906" stroke-linecap="round" stroke-linejoin="round"/><rect width="19.73" height="22.793" rx="9.059" transform="matrix(-.86603 .5 .86603 .5 193.568 177.658)" fill="#55A398" stroke="#000" stroke-width=".906" stroke-linecap="round" stroke-linejoin="round"/><rect width="19.73" height="21.665" rx="9.059" transform="matrix(-.86603 .5 .86603 .5 234.086 201.05)" fill="#55A398" stroke="#000" stroke-width=".906" stroke-linecap="round" stroke-linejoin="round"/><path d="M239.185 213.733c-2.657 1.534-6.965 1.534-9.622 0-1.656-.956-2.28-2.283-1.872-3.518l4.606-10.015h4.136l4.624 10.015c.408 1.235-.216 2.562-1.872 3.518z" fill="#D9D9D9" stroke="#000" stroke-width=".906" stroke-linecap="round" stroke-linejoin="round"/><circle r="1.728" transform="matrix(-.86603 -.5 -.86603 .5 234.374 200.215)" fill="#D9D9D9" stroke="#000" stroke-width=".906" stroke-linecap="round" stroke-linejoin="round"/><path d="M199.46 190.453c-2.657 1.534-6.965 1.534-9.622 0-1.656-.956-2.28-2.283-1.872-3.518l4.606-10.015h4.136l4.624 10.015c.408 1.235-.216 2.562-1.872 3.518z" fill="#D9D9D9" stroke="#000" stroke-width=".906" stroke-linecap="round" stroke-linejoin="round"/><circle r="1.728" transform="matrix(-.86603 -.5 -.86603 .5 194.65 176.935)" fill="#D9D9D9" stroke="#000" stroke-width=".906" stroke-linecap="round" stroke-linejoin="round"/><path d="M159.755 167.173c-2.657 1.534-6.965 1.534-9.622 0-1.656-.956-2.28-2.283-1.872-3.518l4.606-10.015h4.136l4.624 10.015c.408 1.235-.216 2.562-1.872 3.518z" fill="#D9D9D9" stroke="#000" stroke-width=".906" stroke-linecap="round" stroke-linejoin="round"/><circle r="1.728" transform="matrix(-.86603 -.5 -.86603 .5 154.945 153.655)" fill="#D9D9D9" stroke="#000" stroke-width=".906" stroke-linecap="round" stroke-linejoin="round"/><path d="M119.99 144.129c-2.658 1.534-6.966 1.534-9.623 0-1.656-.956-2.28-2.283-1.871-3.518l4.606-10.015h4.136l4.623 10.015c.409 1.235-.215 2.562-1.871 3.518z" fill="#D9D9D9" stroke="#000" stroke-width=".906" stroke-linecap="round" stroke-linejoin="round"/><circle r="1.728" transform="matrix(-.86603 -.5 -.86603 .5 115.179 130.611)" fill="#D9D9D9" stroke="#000" stroke-width=".906" stroke-linecap="round" stroke-linejoin="round"/><path d="M80.283 121.085c-2.657 1.534-6.966 1.534-9.623 0-1.656-.956-2.28-2.282-1.871-3.518l4.605-10.015h4.137l4.623 10.015c.409 1.236-.215 2.562-1.871 3.518z" fill="#D9D9D9" stroke="#000" stroke-width=".906" stroke-linecap="round" stroke-linejoin="round"/><circle r="1.728" transform="matrix(-.86603 -.5 -.86603 .5 75.472 107.567)" fill="#D9D9D9" stroke="#000" stroke-width=".906" stroke-linecap="round" stroke-linejoin="round"/><path d="M40.578 98.75c-2.658 1.535-6.966 1.535-9.623 0-1.656-.956-2.28-2.282-1.871-3.517l4.605-10.015h4.136l4.624 10.015c.408 1.235-.215 2.561-1.871 3.517z" fill="#D9D9D9" stroke="#000" stroke-width=".906" stroke-linecap="round" stroke-linejoin="round"/><circle r="1.728" transform="matrix(-.86603 -.5 -.86603 .5 35.767 85.232)" fill="#D9D9D9" stroke="#000" stroke-width=".906" stroke-linecap="round" stroke-linejoin="round"/><rect width="19.73" height="23.608" rx="9.059" transform="matrix(-.86603 .5 .86603 .5 165.271 9.452)" fill="#55A398" stroke="#000" stroke-width=".906" stroke-linecap="round" stroke-linejoin="round"/><rect width="19.73" height="22.16" rx="9.059" transform="matrix(-.86603 .5 .86603 .5 205.383 32.61)" fill="#55A398" stroke="#000" stroke-width=".906" stroke-linecap="round" stroke-linejoin="round"/><rect width="19.73" height="22.363" rx="9.059" transform="matrix(-.86603 .5 .86603 .5 244.598 55.252)" fill="#55A398" stroke="#000" stroke-width=".906" stroke-linecap="round" stroke-linejoin="round"/><rect width="19.73" height="22.365" rx="9.059" transform="matrix(-.86603 .5 .86603 .5 284.498 78.288)" fill="#55A398" stroke="#000" stroke-width=".906" stroke-linecap="round" stroke-linejoin="round"/><rect width="19.73" height="22.793" rx="9.059" transform="matrix(-.86603 .5 .86603 .5 324.693 101.495)" fill="#55A398" stroke="#000" stroke-width=".906" stroke-linecap="round" stroke-linejoin="round"/><rect width="19.73" height="21.665" rx="9.059" transform="matrix(-.86603 .5 .86603 .5 365.211 124.887)" fill="#55A398" stroke="#000" stroke-width=".906" stroke-linecap="round" stroke-linejoin="round"/><path d="M370.31 137.57c-2.657 1.534-6.965 1.534-9.622 0-1.656-.956-2.28-2.282-1.872-3.517l4.606-10.015h4.136l4.624 10.015c.408 1.235-.216 2.561-1.872 3.517z" fill="#D9D9D9" stroke="#000" stroke-width=".906" stroke-linecap="round" stroke-linejoin="round"/><circle r="1.728" transform="matrix(-.86603 -.5 -.86603 .5 365.499 124.052)" fill="#D9D9D9" stroke="#000" stroke-width=".906" stroke-linecap="round" stroke-linejoin="round"/><path d="M330.585 114.29c-2.657 1.534-6.965 1.534-9.622 0-1.656-.956-2.28-2.282-1.872-3.518l4.606-10.015h4.136l4.624 10.015c.408 1.236-.216 2.562-1.872 3.518z" fill="#D9D9D9" stroke="#000" stroke-width=".906" stroke-linecap="round" stroke-linejoin="round"/><circle r="1.728" transform="matrix(-.86603 -.5 -.86603 .5 325.775 100.772)" fill="#D9D9D9" stroke="#000" stroke-width=".906" stroke-linecap="round" stroke-linejoin="round"/><path d="M290.88 91.01c-2.657 1.534-6.965 1.534-9.622 0-1.656-.956-2.28-2.282-1.872-3.517l4.606-10.015h4.136l4.624 10.015c.408 1.235-.216 2.561-1.872 3.517z" fill="#D9D9D9" stroke="#000" stroke-width=".906" stroke-linecap="round" stroke-linejoin="round"/><circle r="1.728" transform="matrix(-.86603 -.5 -.86603 .5 286.07 77.492)" fill="#D9D9D9" stroke="#000" stroke-width=".906" stroke-linecap="round" stroke-linejoin="round"/><path d="M251.115 67.966c-2.658 1.534-6.966 1.534-9.623 0-1.656-.956-2.28-2.282-1.871-3.517l4.606-10.015h4.136l4.623 10.015c.409 1.235-.215 2.561-1.871 3.517z" fill="#D9D9D9" stroke="#000" stroke-width=".906" stroke-linecap="round" stroke-linejoin="round"/><circle r="1.728" transform="matrix(-.86603 -.5 -.86603 .5 246.304 54.448)" fill="#D9D9D9" stroke="#000" stroke-width=".906" stroke-linecap="round" stroke-linejoin="round"/><path d="M211.408 44.923c-2.658 1.534-6.966 1.534-9.623 0-1.656-.956-2.28-2.283-1.871-3.518l4.606-10.015h4.136l4.623 10.015c.409 1.235-.215 2.562-1.871 3.518z" fill="#D9D9D9" stroke="#000" stroke-width=".906" stroke-linecap="round" stroke-linejoin="round"/><circle r="1.728" transform="matrix(-.86603 -.5 -.86603 .5 206.597 31.405)" fill="#D9D9D9" stroke="#000" stroke-width=".906" stroke-linecap="round" stroke-linejoin="round"/><path d="M171.702 22.588c-2.657 1.534-6.965 1.534-9.622 0-1.656-.956-2.28-2.283-1.871-3.518l4.605-10.015h4.136l4.624 10.015c.408 1.235-.215 2.562-1.872 3.518z" fill="#D9D9D9" stroke="#000" stroke-width=".906" stroke-linecap="round" stroke-linejoin="round"/><circle r="1.728" transform="matrix(-.86603 -.5 -.86603 .5 166.892 9.07)" fill="#D9D9D9" stroke="#000" stroke-width=".906" stroke-linecap="round" stroke-linejoin="round"/><path d="M328.795 147.563v-7.366l25.635 2.499v7.427l-10.657 6.148-14.978-8.708z" fill="#C4C4C4" stroke="#000" stroke-width=".906" stroke-linecap="round" stroke-linejoin="round"/><path d="M343.82 148.788v7.368" stroke="#000" stroke-width=".906"/><path transform="matrix(.86603 -.5 .86603 .5 328.834 140.167)" fill="#D9D9D9" stroke="#000" stroke-width=".906" stroke-linecap="round" stroke-linejoin="round" d="M0 0h12.286v17.251H0z"/><path d="M344.333 142.918c-.75.434-1.733.651-2.717.652-.987.001-1.976-.217-2.73-.652-.752-.434-1.128-1.003-1.128-1.572l.002-2.282h7.703l-.002 2.282c0 .569-.376 1.138-1.128 1.572z" fill="#000" stroke="#000" stroke-width=".566" stroke-linecap="round" stroke-linejoin="round"/><path d="M338.861 137.48c-1.515.875-1.515 2.293 0 3.168s3.972.875 5.487 0c1.515-.875 1.515-2.293 0-3.168-1.515-.874-3.972-.874-5.487 0z" fill="#505050" stroke="#000" stroke-width=".566" stroke-linecap="round" stroke-linejoin="round"/><path d="M249.086 194.064v-7.366l25.635 2.499v7.427l-10.657 6.148-14.978-8.708z" fill="#C4C4C4" stroke="#000" stroke-width=".906" stroke-linecap="round" stroke-linejoin="round"/><path d="M264.111 195.289v7.368" stroke="#000" stroke-width=".906"/><path transform="matrix(.86603 -.5 .86603 .5 249.125 186.667)" fill="#D9D9D9" stroke="#000" stroke-width=".906" stroke-linecap="round" stroke-linejoin="round" d="M0 0h12.286v17.251H0z"/><path d="M264.626 189.419c-.75.433-1.733.65-2.717.651-.987.001-1.976-.216-2.73-.651-.752-.434-1.128-1.003-1.128-1.573l.002-2.282h7.703l-.002 2.282c0 .57-.376 1.139-1.128 1.573z" fill="#000" stroke="#000" stroke-width=".566" stroke-linecap="round" stroke-linejoin="round"/><path d="M259.154 183.981c-1.515.875-1.515 2.293 0 3.168 1.515.874 3.972.874 5.487 0 1.515-.875 1.515-2.293 0-3.168s-3.972-.875-5.487 0z" fill="#505050" stroke="#000" stroke-width=".566" stroke-linecap="round" stroke-linejoin="round"/><path d="M311.422 199.806l-57.452-33.17v-14.818l93.57 12.29v14.846l-36.118 20.852z" fill="#C4C4C4"/><path d="M311.422 199.806l-57.452-33.17v-14.818l93.57 12.29v14.846l-36.118 20.852zm0 0v-15.077" stroke="#000" stroke-width=".906" stroke-linecap="round" stroke-linejoin="round"/><path d="M347.539 178.975l-36.118 20.852v-14.9l36.118-20.798v14.846z" fill="#505050" stroke="#000" stroke-width=".906" stroke-linecap="round" stroke-linejoin="round"/><path d="M344.498 177.646l-33.042 19.077v-13.632l33.043-17.511-.001 12.066z" fill="#000" stroke="#000" stroke-width=".906" stroke-linecap="round" stroke-linejoin="round"/><path transform="matrix(-.86603 .5 .86603 .5 290.086 130.951)" fill="#E5E5E5" stroke="#000" stroke-width=".906" stroke-linecap="round" stroke-linejoin="round" d="M0 0h41.705v66.341H0z"/><rect width="3.489" height="13.846" rx="1.745" transform="matrix(.86603 -.5 .86603 .5 314.424 157.867)" fill="#505050" stroke="#000" stroke-width=".906" stroke-linecap="round" stroke-linejoin="round"/><rect width="3.489" height="13.846" rx="1.745" transform="matrix(.86603 -.5 .86603 .5 298.648 166.827)" fill="#505050" stroke="#000" stroke-width=".906" stroke-linecap="round" stroke-linejoin="round"/><path transform="matrix(-.86603 -.5 -.86603 .5 207.707 89.811)" fill="#E5E5E5" stroke="#000" stroke-width=".906" stroke-linecap="round" stroke-linejoin="round" d="M0 0h6.653v46.848H0z"/><path transform="matrix(-.86603 -.5 -.86603 .5 220.154 96.998)" fill="#E5E5E5" stroke="#000" stroke-width=".906" stroke-linecap="round" stroke-linejoin="round" d="M0 0h7.562v46.848H0z"/><path transform="matrix(-.86603 -.5 -.86603 .5 233.404 104.648)" fill="#E5E5E5" stroke="#000" stroke-width=".906" stroke-linecap="round" stroke-linejoin="round" d="M0 0h7.671v46.848H0z"/><path transform="matrix(-.86603 -.5 -.86603 .5 240.449 104.843)" stroke="#000" stroke-width=".906" stroke-linecap="round" stroke-linejoin="round" d="M0 0h44.548v55.192H0z"/><path transform="matrix(-.86603 -.5 -.86603 .5 302.455 117.116)" stroke="#000" stroke-width=".906" stroke-linecap="round" stroke-linejoin="round" d="M0 0h92.62v102.243H0z"/><circle r="2.791" transform="matrix(-.86603 .5 .86603 .5 119.275 74.714)" fill="#7C7C7C" stroke="#000" stroke-width=".906" stroke-linecap="round" stroke-linejoin="round"/><path d="M202.559 122.344l-31.209-18.019v-8.294l52.125 5.968v8.269l-20.916 12.076z" fill="#464646"/><path d="M202.559 122.344l-31.209-18.019v-8.294l52.125 5.968v8.269l-20.916 12.076zm0 0V114.2" stroke="#000" stroke-width=".906" stroke-linecap="round" stroke-linejoin="round"/><path transform="matrix(-.86603 -.5 -.86603 .5 223.475 101.991)" fill="#464646" stroke="#000" stroke-width=".906" stroke-linecap="round" stroke-linejoin="round" d="M0 0h36.038v24.152H0z"/></svg>