<svg width="187" height="53" viewBox="0 0 187 53" fill="none" xmlns="http://www.w3.org/2000/svg"><path d="M49.272.079c-.303.082-.955.454-1.448.827-.493.372-1.088 1.049-1.322 1.503-.235.454-.538 2.034-.675 3.51-.137 1.478-.386 3.154-.553 3.726-.167.572-.952 2.003-1.744 3.18a244.546 244.546 0 01-2.515 3.66c-.591.836-1.33 1.894-1.643 2.35-.313.456-.781 1.078-1.04 1.383-.426.5-.808.552-3.974.547l-3.503-.006-.812-1.44c-.446-.792-.986-2.096-1.198-2.898-.213-.801-.389-2.39-.39-3.532-.002-1.142-.125-2.5-.274-3.02-.149-.52-.614-1.308-1.034-1.752-.42-.443-1.1-.98-1.509-1.195-.41-.215-1.402-.39-2.206-.39-1.005.001-1.763.186-2.427.591-.53.324-1.177.835-1.435 1.133-.26.3-.615.981-.791 1.516-.19.575-.244 1.495-.133 2.253.063.385.31 1.4.8 2.376.085.22.654.718 1.265 1.104.563.243 2.062.874 3.552 1.46.9.433 2.29 1.48 3.263 2.457.933.936 1.777 1.957 1.876 2.27.118.375-.054.928-.507 1.621-.377.579-.768 1.389-.868 1.8-.1.413-.35.89-.556 1.062-.264.22-2.483.284-7.488.216-6.702-.09-7.192-.133-8.478-.724-.75-.346-1.991-1.107-2.758-1.691-.766-.585-1.841-1.207-2.39-1.383-.571-.183-1.49-.24-2.152-.135-.636.102-1.54.448-2.011.77-.471.321-1.108.924-1.415 1.34-.365.494-.6 1.332-.678 2.41-.102 1.416-.015 1.83.614 2.906.475.814 1.13 1.459 1.86 1.832.9.46 1.438.545 2.677.42 1.214-.37 2.517-.938 3.1-1.192.186-.08.299-.13.31-.13.591-.232 2.165-1.22 2.877-1.684 1.25-.576 1.78-.62 8.679-.708l7.348-.094.339 1.06c.186.583.634 1.456.994 1.94s.655.994.655 1.135c0 .14-.66.88-1.468 1.647-.807.765-1.955 1.638-2.55 1.938-.596.302-1.89.75-2.876.997-.986.248-2.095.676-2.465.952-.37.277-.922.839-1.228 1.25-.383.513-.585 1.284-.649 2.47-.076 1.41.023 1.926.543 2.823.35.604 1.046 1.376 1.548 1.715.502.338 1.47.7 2.153.802.863.13 1.58.053 2.361-.255.27-.112 1.029-.505 1.903-1.174.312-.283.744-.937.959-1.453.214-.516.39-1.745.39-2.73 0-.987.19-2.531.424-3.433.233-.901.68-2.1.993-2.666.314-.565.754-1.236.98-1.49.373-.423.509-.427 1.557-.046.846.308 1.766.377 3.492.262l2.344-.157 1.874 2.616c1.03 1.438 2.238 3.396 2.683 4.35.445.954.936 2.404 1.091 3.223.155.818.282 2.222.282 3.12 0 1.083.184 1.994.547 2.708.301.592.676 1.156.832 1.252l.551.64c0 .14.536.407 1.19.59.655.184 1.904.282 2.776.217 1.498-.111 1.644-.189 2.655-1.416.74-.898 1.128-1.682 1.256-2.542.111-.741.047-1.74-.158-2.477-.223-.797-.708-1.563-1.372-2.164-.665-.602-1.55-1.054-2.515-1.283-.818-.195-1.984-.697-2.591-1.116-.607-.419-1.614-1.24-2.239-1.826-.624-.586-1.87-2.06-2.767-3.277-.898-1.216-1.845-2.55-2.105-2.962-.26-.413-.473-.893-.473-1.068 0-.174.513-.93 1.14-1.682.627-.75 1.65-1.632 2.275-1.96.934-.49 1.6-.594 3.755-.588 1.441.004 3.117.172 3.723.373.607.202 1.903 1.03 2.88 1.84 1.157.96 2.167 1.554 2.896 1.704.615.126 1.615.124 2.222-.004s1.406-.454 1.775-.725c.37-.27.92-.824 1.223-1.231.352-.473.593-1.318.667-2.342.076-1.05-.03-1.95-.306-2.613-.236-.568-.932-1.382-1.587-1.858-.95-.69-1.435-.846-2.623-.846-.802 0-1.79.127-2.198.282-.407.155-1.267.747-1.91 1.314-.643.568-1.73 1.313-2.415 1.656-1.026.514-1.733.63-3.987.653-2.304.024-2.927-.067-3.914-.571-.645-.33-1.71-1.163-2.368-1.85-.657-.689-1.257-1.488-1.332-1.778-.084-.323.173-.92.662-1.537.44-.556.801-1.088.801-1.182 0-.095.342-.54.758-.99.417-.448.893-1.07 1.057-1.379l2.047-2.776c.78-.983 1.764-2.034 2.188-2.336.74-.502 2.318-1.526 2.713-1.606 1.02-.462 2.314-.984 2.875-1.16.561-.177 1.394-.748 1.85-1.27.456-.52.959-1.429 1.117-2.018.158-.59.208-1.494.11-2.009-.097-.515-.346-1.271-.552-1.682-.205-.41-.8-1.071-1.32-1.47-.675-.515-1.366-.753-2.413-.827-.807-.057-1.715-.036-2.019.047z" fill="#000"/><path fill-rule="evenodd" clip-rule="evenodd" d="M97.528 21.044c-1.349 1.418-2.023 3.384-2.023 5.898 0 1.329.29 2.59.867 3.78a6.645 6.645 0 002.55 2.82c1.121.689 2.393 1.033 3.818 1.033a7.55 7.55 0 003.674-.93c1.135-.626 2.012-1.545 2.631-2.757.619-1.212.929-2.586.929-4.122 0-1.515-.296-2.868-.888-4.059a6.5 6.5 0 00-2.559-2.8c-1.121-.667-2.38-1.001-3.777-1.001-2.133 0-3.874.713-5.222 2.138zm1.507 10.247c-.977-1.054-1.466-2.493-1.466-4.318 0-2.28.51-3.904 1.528-4.875 1.025-.978 2.246-1.467 3.663-1.467.998 0 1.896.255 2.694.764.805.503 1.414 1.216 1.826 2.138.42.916.63 1.99.63 3.223 0 1.949-.489 3.453-1.466 4.514-.97 1.06-2.208 1.59-3.715 1.59-1.479 0-2.71-.523-3.694-1.57z" fill="#000"/><path d="M88.882 29.514l-2.002-.506c-.275 1.274-.802 2.234-1.58 2.882-.777.647-1.726.97-2.847.97a4.902 4.902 0 01-2.57-.712c-.791-.475-1.376-1.191-1.755-2.149-.371-.964-.557-2.09-.557-3.377 0-.999.158-1.966.475-2.903.316-.943.863-1.694 1.64-2.252.785-.557 1.758-.836 2.921-.836 1.012 0 1.851.251 2.518.754.668.502 1.177 1.305 1.528 2.406l1.97-.464c-.405-1.398-1.124-2.483-2.156-3.254-1.032-.771-2.305-1.157-3.818-1.157-1.335 0-2.56.307-3.674.92-1.108.605-1.965 1.497-2.57 2.675-.599 1.17-.898 2.544-.898 4.121 0 1.446.265 2.8.795 4.06.536 1.26 1.314 2.224 2.332 2.892 1.025.66 2.353.991 3.984.991 1.575 0 2.906-.43 3.993-1.29 1.094-.868 1.851-2.125 2.27-3.771zM116.639 29.452l1.888-.165c.09.757.296 1.38.619 1.87.331.481.84.874 1.528 1.177.688.296 1.462.444 2.322.444.763 0 1.438-.114 2.022-.34.585-.228 1.019-.538 1.301-.93.289-.4.433-.834.433-1.302 0-.475-.137-.888-.413-1.24-.275-.358-.729-.657-1.362-.898-.406-.159-1.304-.403-2.693-.734-1.39-.337-2.364-.654-2.921-.95-.722-.379-1.262-.847-1.62-1.405a3.508 3.508 0 01-.526-1.89c0-.764.216-1.477.65-2.138.433-.668 1.066-1.174 1.899-1.518.832-.345 1.757-.517 2.776-.517 1.121 0 2.108.183 2.962.548.86.358 1.52.888 1.981 1.59.461.703.709 1.498.743 2.386l-1.92.145c-.103-.957-.454-1.68-1.052-2.17-.592-.488-1.469-.733-2.632-.733-1.211 0-2.095.224-2.652.672-.55.44-.826.974-.826 1.6 0 .545.196.992.589 1.344.385.35 1.389.712 3.013 1.084 1.631.365 2.749.685 3.354.96.881.407 1.531.924 1.951 1.55.419.62.629 1.336.629 2.149 0 .805-.23 1.566-.691 2.283-.461.709-1.125 1.263-1.992 1.663-.86.392-1.83.588-2.91.588-1.37 0-2.518-.2-3.447-.599-.922-.4-1.648-.998-2.178-1.797-.523-.806-.798-1.715-.825-2.727zM136.214 19.174v15.143h11.29V32.53h-9.288v-5.154h8.369v-1.777h-8.369v-4.638h8.937v-1.787h-10.939zM154.344 29.452l1.888-.165c.09.757.296 1.38.62 1.87.33.481.839.874 1.527 1.177.688.296 1.462.444 2.322.444.764 0 1.438-.114 2.023-.34.585-.228 1.018-.538 1.3-.93.289-.4.434-.834.434-1.302 0-.475-.138-.888-.413-1.24-.275-.358-.73-.657-1.363-.898-.405-.159-1.303-.403-2.693-.734-1.39-.337-2.363-.654-2.921-.95-.722-.379-1.262-.847-1.62-1.405a3.508 3.508 0 01-.526-1.89c0-.764.217-1.477.65-2.138.433-.668 1.066-1.174 1.899-1.518.832-.345 1.758-.517 2.776-.517 1.121 0 2.109.183 2.962.548.86.358 1.52.888 1.981 1.59.461.703.709 1.498.743 2.386l-1.919.145c-.103-.957-.454-1.68-1.053-2.17-.592-.488-1.469-.733-2.632-.733-1.21 0-2.094.224-2.652.672-.55.44-.825.974-.825 1.6 0 .545.196.992.588 1.344.385.35 1.39.712 3.013 1.084 1.631.365 2.749.685 3.354.96.881.407 1.531.924 1.951 1.55.42.62.629 1.336.629 2.149 0 .805-.23 1.566-.691 2.283-.461.709-1.125 1.263-1.992 1.663-.86.392-1.83.588-2.91.588-1.369 0-2.518-.2-3.447-.599-.922-.4-1.648-.998-2.178-1.797-.522-.806-.798-1.715-.825-2.727zM178.14 27.903v6.414h2.002v-6.414l6.037-8.729h-2.332l-2.931 4.452a55.223 55.223 0 00-1.651 2.676 46.289 46.289 0 00-1.538-2.562l-2.982-4.566h-2.436l5.831 8.729z" fill="#000"/></svg>