<svg width="202" height="36" viewBox="0 0 202 36" fill="none" xmlns="http://www.w3.org/2000/svg"><path fill-rule="evenodd" clip-rule="evenodd" d="M36.306 16.46c0-2.169-.433-4.316-1.274-6.319a16.45 16.45 0 00-3.628-5.35 16.645 16.645 0 00-5.425-3.562A16.784 16.784 0 0019.59 0c-.589 0-1.16 0-1.73.086l-.38 1.095a28.655 28.655 0 0110.76 6.69 28.28 28.28 0 016.77 10.643l1.107-.394c0-.266.024-.531.05-.805.026-.29.054-.589.054-.906l.086.051zm-9.503-7.14a26.149 26.149 0 017.498 14.823c-.73 1.33-1.63 2.56-2.68 3.661h-2.472a20.733 20.733 0 00-6.174-14.708A21.17 21.17 0 008.108 6.998V4.552a16.82 16.82 0 013.717-2.653 26.624 26.624 0 0114.978 7.42zM11.55 28.185a2.515 2.515 0 00-.318-3.198 2.561 2.561 0 00-1.81-.741c-.506 0-1 .148-1.421.426-.42.279-.749.674-.943 1.137a2.508 2.508 0 00.555 2.76 2.583 2.583 0 002.788.549 2.553 2.553 0 001.149-.933zm-5.727 2.044a19.884 19.884 0 0013.955 5.703c2.611.047 5.205-.422 7.63-1.38a19.642 19.642 0 006.495-4.198l-1.055-1.044a18.266 18.266 0 01-5.942 3.958 18.42 18.42 0 01-14.048 0 18.268 18.268 0 01-5.942-3.958 18.058 18.058 0 01-4-5.881 17.907 17.907 0 010-13.903 18.059 18.059 0 014-5.881L5.792 2.6a19.426 19.426 0 00-4.298 6.347A19.263 19.263 0 000 16.443 19.474 19.474 0 005.823 30.23zm13.73-1.295a11.274 11.274 0 00-.931-5.635 11.398 11.398 0 00-3.58-4.477 11.32 11.32 0 00-5.793-2.328 1.057 1.057 0 01-.675-.369 1.037 1.037 0 01-.24-.726 1.001 1.001 0 01.364-.696 1.023 1.023 0 01.759-.227 13.612 13.612 0 019.112 4.868 13.337 13.337 0 012.99 9.812 11.615 11.615 0 01-.45 2.31l3.009.838c.89-.253 1.757-.58 2.593-.975.224-1.156.334-2.33.329-3.508a18.708 18.708 0 00-4.593-12.243A19.07 19.07 0 0010.91 9.24a8.453 8.453 0 00-3.025 0 6.598 6.598 0 00-3.268 2.002A6.374 6.374 0 003.2 14.025a6.335 6.335 0 00.08 3.115 6.383 6.383 0 001.558 2.709 6.476 6.476 0 002.665 1.659c.536.126 1.079.223 1.625.29a6.083 6.083 0 013.618 2.048 5.97 5.97 0 011.43 3.873 5.893 5.893 0 01-.967 3.234l2.074 1.317a15.56 15.56 0 003.112.513 11.17 11.17 0 001.141-3.935l.017.086zm160.56-23.51h3.82v25.152h-3.82V5.424zm-61.876 14.647a4.328 4.328 0 001.902-1.679c.45-.735.666-1.587.622-2.445V9.941a4.507 4.507 0 00-1.349-3.337 4.519 4.519 0 00-3.077-1.197h-11.03V30.61h3.838V20.532h3.924a3.479 3.479 0 012.299.84 3.413 3.413 0 011.159 2.138l1.504 7.135h4.184l-1.625-6.69a5.093 5.093 0 00-.738-2.165 5.157 5.157 0 00-1.613-1.634v-.085zm-9.094-11.105h6.57a1.307 1.307 0 01.93.454 1.281 1.281 0 01.297.983v5.133a1.266 1.266 0 01-.297.984 1.293 1.293 0 01-.93.454h-6.57V8.966zm-59.887-.773a4.564 4.564 0 011.037-1.571h-.052a4.625 4.625 0 013.077-1.198h10.373v3.542H54.01a1.324 1.324 0 00-.936.453 1.296 1.296 0 00-.31.984v5.236h9.475v3.525h-9.422v6.467a1.287 1.287 0 00.309.985 1.312 1.312 0 00.936.453h9.681v3.593H53.37a4.555 4.555 0 01-3.077-1.198 4.512 4.512 0 01-1.024-1.53 4.476 4.476 0 01-.325-1.806V10.044a4.525 4.525 0 01.312-1.851zm143.062.773H202V5.424h-10.373a4.627 4.627 0 00-3.078 1.198 4.64 4.64 0 00-1.031 1.573 4.584 4.584 0 00-.317 1.849v20.532h3.821V19.164h9.526v-3.525h-9.544v-5.236a1.29 1.29 0 01.309-.984 1.318 1.318 0 01.936-.453h.069zM72.215 15.639h5.93a4.502 4.502 0 011.724.336 4.465 4.465 0 011.46.969c.416.416.745.91.967 1.452.222.542.333 1.123.326 1.709v5.988c.026.59-.07 1.18-.28 1.732a4.358 4.358 0 01-.948 1.482 4.41 4.41 0 01-1.46.994c-.55.23-1.14.347-1.738.344H67.028v-3.542h10.529a1.326 1.326 0 00.936-.453 1.296 1.296 0 00.309-.984v-4.689c0-.358-.144-.702-.4-.955a1.373 1.373 0 00-.966-.396h-5.948a4.501 4.501 0 01-3.155-1.304 4.409 4.409 0 01-1.305-3.128v-5.15a4.525 4.525 0 01.311-1.851 4.564 4.564 0 011.037-1.571 4.625 4.625 0 013.078-1.198h10.148v3.542h-9.491a1.307 1.307 0 00-.93.454 1.279 1.279 0 00-.298.983v3.884c0 .353.14.692.388.944.249.253.587.4.944.408zm53.387-9.017a4.56 4.56 0 00-1.349 3.422v16.084a4.507 4.507 0 001.349 3.336 4.552 4.552 0 003.077 1.198h10.373v-3.593h-9.681a1.313 1.313 0 01-.931-.454 1.28 1.28 0 01-.297-.984v-6.467h9.526v-3.525h-9.595v-5.236a1.266 1.266 0 01.297-.983 1.292 1.292 0 01.93-.454h9.682V5.424H128.61a4.624 4.624 0 00-3.077 1.198h.069zm21.922 9.017h5.93v-.034a4.5 4.5 0 013.165 1.287 4.407 4.407 0 011.312 3.127v5.989a4.46 4.46 0 01-.313 1.855 4.496 4.496 0 01-1.052 1.567 4.522 4.522 0 01-3.061 1.215h-11.168v-3.542h10.529a1.306 1.306 0 00.93-.454 1.27 1.27 0 00.297-.983v-4.689c0-.358-.144-.702-.4-.955a1.372 1.372 0 00-.966-.396h-5.929a4.496 4.496 0 01-3.161-1.3 4.413 4.413 0 01-1.3-3.132v-5.15a4.523 4.523 0 011.349-3.422 4.59 4.59 0 013.06-1.198h10.165v3.542h-9.526a1.307 1.307 0 00-.93.454 1.265 1.265 0 00-.297.984v3.883a1.333 1.333 0 00.4.956 1.365 1.365 0 00.966.396zm24.67 0h-5.93c-.362 0-.709-.142-.965-.396a1.345 1.345 0 01-.4-.956v-3.884a1.265 1.265 0 01.297-.983 1.292 1.292 0 01.93-.454h9.526V5.424h-10.148a4.627 4.627 0 00-3.078 1.198 4.574 4.574 0 00-1.037 1.57 4.523 4.523 0 00-.311 1.852v5.15c0 1.172.469 2.297 1.305 3.128.836.83 1.971 1.3 3.155 1.304h5.948c.362 0 .709.142.965.396.257.253.4.597.4.955v4.689a1.303 1.303 0 01-.729 1.307 1.324 1.324 0 01-.515.13h-10.529v3.542h11.168a4.45 4.45 0 001.738-.344 4.408 4.408 0 001.46-.994 4.353 4.353 0 001.228-3.214v-5.988a4.375 4.375 0 00-1.294-3.161 4.472 4.472 0 00-3.184-1.305zM86.08 5.407h11.566a4.468 4.468 0 013.06 1.198 4.501 4.501 0 011.366 3.337v6.262a4.46 4.46 0 01-1.366 3.422 4.468 4.468 0 01-3.06 1.197h-7.745v9.787H86.08V5.407zm12.11 10.977a1.27 1.27 0 00.044-.523V10.37a1.27 1.27 0 00-.297-.984 1.295 1.295 0 00-.93-.453H89.9v8.367h7.105a1.308 1.308 0 00.931-.454c.115-.135.201-.292.252-.461z" fill="#000"/></svg>