<svg width="1505" height="1051" viewBox="0 0 1505 1051" fill="none" xmlns="http://www.w3.org/2000/svg"><path d="M640.878 252.988h19.975m-74.905 0h-19.974m47.439-27.463v-19.973m-33.707 13.732l14.287 14.285m38.841 0l14.286-14.285" stroke="#000" stroke-width="2" stroke-linecap="round" stroke-linejoin="round"/><path d="M518.9 1050l515.65-298.167V615.534H2.003L2 752.074 518.9 1050z" fill="#53978E" stroke="#000" stroke-width="2" stroke-linecap="round" stroke-linejoin="round"/><path d="M518.902 941.695l515.648-298.167v-63.007H2.002v63.247l516.9 297.927z" fill="#BAD5D2" stroke="#000" stroke-width="2" stroke-linecap="round" stroke-linejoin="round"/><path d="M2.003 580.521l516.46-298.208L1034.51 580.28 518.88 878.488 2.003 580.521z" fill="#BAD5D2" stroke="#000" stroke-width="2" stroke-linecap="round" stroke-linejoin="round"/><path d="M465.938 822.689l25.485-6.797 6.025-22.755-386.871-208.503-38.512 10.502 393.873 227.553z" fill="#000"/><path d="M523.833 350.12l389.328 224.738M478.653 374.967l389.319 224.755M433.47 402.073l389.319 224.754M388.292 429.178l389.301 224.785" stroke="#000" stroke-width="2" stroke-linecap="round" stroke-linejoin="round"/><path d="M719.585 684.121V492.63c0-36.09-12.571-61.533-32.934-73.569l-387.37-225.245c-20.762-13-49.972-11.69-82.329 6.99-63.006 36.373-114.081 124.832-114.081 197.578v191.49l388.552 225.569 228.162-131.322z" fill="#fff"/><path d="M719.585 684.121l.499.866a1 1 0 00.501-.866h-1zM491.423 815.443l-.502.865c.31.18.691.181 1.001.002l-.499-.867zm195.228-396.382l.509-.861-.006-.003-.503.864zm-583.78 170.813h-1a1 1 0 00.498.865l.502-.865zm0-191.49h-1 1zm114.081-197.578l-.5-.866.5.866zm82.329-6.99l-.53.847.028.017.502-.864zM718.585 492.63v191.491h2V492.63h-2zM491.922 816.31l228.162-131.323-.998-1.733-228.161 131.323.997 1.733zm194.22-396.388c19.952 11.792 32.443 36.826 32.443 72.708h2c0-36.299-12.651-62.151-33.425-74.43l-1.018 1.722zM103.871 589.874v-191.49h-2v191.49h2zm0-191.49c0-36.157 12.699-76.286 33.279-111.929 20.58-35.643 48.987-66.705 80.302-84.783l-1-1.732c-31.691 18.295-60.325 49.649-81.034 85.515-20.709 35.866-33.547 76.339-33.547 112.929h2zm113.581-196.712c32.17-18.572 60.962-19.741 81.299-7.009l1.061-1.695c-21.188-13.266-50.816-11.816-83.36 6.972l1 1.732zm81.327-6.992l387.369 225.245 1.006-1.728-387.37-225.246-1.005 1.729zm-196.41 396.059l388.552 225.569 1.005-1.729-388.553-225.57-1.004 1.73z" fill="#000"/><path fill="#EEE" d="M105.326 460.625L489.708 682.53v130.163L105.326 590.788z"/><path d="M491.424 815.443V624.861c0-72.75 51.076-161.213 114.081-197.586v0c63.005-36.373 114.081-6.883 114.081 65.868v191.482" stroke="#000" stroke-width="2" stroke-linejoin="round"/><path d="M491.424 814.858v-190.59c0-72.746 51.076-161.205 114.081-197.578 30.696-17.721 58.56-19.809 79.066-8.879" stroke="#000" stroke-width="2" stroke-linejoin="round"/><path d="M491.424 814.858v-190.59c0-72.746 51.076-161.205 114.081-197.578 30.696-17.721 58.56-19.809 79.066-8.879M328.773 720.569V529.394c0-72.746 51.076-161.205 114.081-197.578 30.696-17.721 58.56-19.809 79.066-8.879" stroke="#000" stroke-width="2" stroke-linejoin="round"/><path d="M410.099 768.006V576.831c0-72.746 51.075-161.205 114.081-197.578 30.695-17.721 58.56-19.809 79.066-8.879M247.448 674.262V481.957c0-72.747 51.076-161.205 114.081-197.578 30.696-17.721 59.689-18.604 80.195-7.674" stroke="#000" stroke-width="2" stroke-linejoin="round"/><path d="M166.123 626.83V434.525c0-72.746 51.075-161.204 114.081-197.577 30.695-17.721 57.43-19.734 77.936-8.803" stroke="#000" stroke-width="2" stroke-linejoin="round"/><path d="M643.042 512.742l-74.813 43.19v116.071l16.198 10.798 74.238-159.262-15.623-10.797z" fill="#C4C4C4"/><path d="M568.229 555.932l74.813-43.19 15.623 10.797-74.238 159.262-16.198-10.798V555.932zm0 0l16.198 10.797" stroke="#000" stroke-width="2" stroke-linecap="round" stroke-linejoin="round"/><path transform="matrix(.86604 -.49997 0 1 584.429 566.728)" fill="#C4C4C4" stroke="#000" stroke-width="2" stroke-linecap="round" stroke-linejoin="round" d="M0 0h86.384v116.072H0z"/><path transform="matrix(.86604 -.49997 0 1 594.45 576.492)" fill="#000" stroke="#C4C4C4" stroke-width="2" stroke-linecap="round" stroke-linejoin="round" d="M0 0h63.238v84.97H0z"/><path d="M516.273 767.223c0-11.012 7.731-24.404 17.268-29.91 9.536-5.507 17.267-1.043 17.267 9.969v33.644l-34.535 19.942v-33.645z" fill="#C4C4C4" stroke="#000" stroke-width="2" stroke-linecap="round" stroke-linejoin="round"/><ellipse rx="11.295" ry="11.294" transform="matrix(.86604 -.49997 0 1 535.091 760.1)" fill="#7C7C7C" stroke="#000" stroke-width="2" stroke-linecap="round" stroke-linejoin="round"/><path d="M669.889 679.128c0-11.012 7.731-24.403 17.267-29.91 9.537-5.507 17.268-1.043 17.268 9.969v33.645l-34.535 19.941v-33.645z" fill="#C4C4C4" stroke="#000" stroke-width="2" stroke-linecap="round" stroke-linejoin="round"/><ellipse rx="11.295" ry="11.294" transform="matrix(.86604 -.49997 0 1 688.707 672.005)" fill="#7C7C7C" stroke="#000" stroke-width="2" stroke-linecap="round" stroke-linejoin="round"/><path d="M604.375 618.585l8.341-4.963v12.504l-8.341 4.963v-12.504zM617.849 597.898l8.342-4.962v25.537l-8.342 4.962v-25.537zM631.323 576.443l8.342-4.962v38.821l-8.342 4.962z" fill="#53978E"/><rect x="604.375" y="323.016" width="18.072" height="221.367" rx="9.036" fill="#C4C4C4" stroke="#000" stroke-width="2" stroke-linecap="round" stroke-linejoin="round"/><rect x="604.375" y="250.732" width="18.072" height="221.367" rx="9.036" fill="#E0E0E0" stroke="#000" stroke-width="2" stroke-linecap="round" stroke-linejoin="round"/><ellipse cx="613.41" cy="250.734" rx="18.072" ry="18.071" fill="#FF8484" stroke="#000" stroke-width="2" stroke-linecap="round" stroke-linejoin="round"/><path d="M859.645 424.663L667.627 579.394l275.602-16.941" stroke="#000" stroke-width="2" stroke-dasharray="22.59 22.59"/><path d="M1498.27 327.532c0 180.339-146.2 326.533-326.56 326.533-180.352 0-326.557-146.194-326.557-326.533C845.153 147.194 991.358 1 1171.71 1c180.36 0 326.56 146.194 326.56 326.532z" fill="#FFB5B5" stroke="#000" stroke-width="2"/><path d="M1226.75 590.4c1.68.97 3.88 1.456 6.09 1.458 2.21.003 4.42-.484 6.11-1.458 1.69-.973 2.53-2.247 2.53-3.521V484.967h-17.25v101.912c0 1.274.84 2.548 2.52 3.521z" fill="#FAC864" stroke="#000" stroke-width="2" stroke-linecap="round" stroke-linejoin="round"/><path d="M1239.01 481.419c3.39 1.959 3.39 5.135 0 7.094-3.39 1.958-8.89 1.958-12.29 0-3.39-1.959-3.39-5.135 0-7.094 3.4-1.959 8.9-1.959 12.29 0z" fill="#FFE598" stroke="#000" stroke-width="2" stroke-linecap="round" stroke-linejoin="round"/><path d="M1492.67 335.32c-3.39-1.959-8.89-1.959-12.28 0l-2.5 3.547V441.5l6.61-19.5 4-14.5 6.64-35v-33.633l-2.47-3.547z" fill="#FAC864"/><path d="M1477.89 441.5V338.867l2.5-3.547c3.39-1.959 8.89-1.959 12.28 0l2.47 3.547V372.5" stroke="#000" stroke-width="2" stroke-linecap="round" stroke-linejoin="round"/><path d="M1395.79 492.834c3.37 1.944 8.83 1.944 12.2 0 1.69-.973 2.53-2.247 2.53-3.522V387.4h-17.25v101.912c0 1.275.84 2.549 2.52 3.522z" fill="#FAC864" stroke="#000" stroke-width="2" stroke-linecap="round" stroke-linejoin="round"/><path d="M1408.05 383.853c3.39 1.959 3.39 5.135 0 7.094-3.39 1.959-8.89 1.959-12.29 0-3.39-1.959-3.39-5.135 0-7.094 3.4-1.959 8.9-1.959 12.29 0z" fill="#FFE598" stroke="#000" stroke-width="2" stroke-linecap="round" stroke-linejoin="round"/><path d="M1311.3 541.865c3.37 1.944 8.83 1.944 12.2 0 1.68-.973 2.52-2.247 2.52-3.521V436.432h-17.25v101.912c0 1.274.84 2.548 2.53 3.521z" fill="#FAC864" stroke="#000" stroke-width="2" stroke-linecap="round" stroke-linejoin="round"/><path d="M1323.56 432.886c3.39 1.959 3.39 5.135 0 7.093-3.4 1.959-8.9 1.959-12.29 0-3.4-1.958-3.4-5.134 0-7.093 3.39-1.959 8.89-1.959 12.29 0z" fill="#FFE598" stroke="#000" stroke-width="2" stroke-linecap="round" stroke-linejoin="round"/><path d="M1260 502.32v-24.622l-85.69 8.355v24.826l35.62 20.547L1260 502.32z" fill="#505050" stroke="#000" stroke-width="2" stroke-linecap="round" stroke-linejoin="round"/><path d="M1209.77 506.414v24.629" stroke="#000" stroke-width="2"/><path transform="scale(-1.22477 .70706) rotate(-45 301.03 1579.434)" fill="#B3B3B3" stroke="#000" stroke-width="2" stroke-linecap="round" stroke-linejoin="round" d="M0 0h41.07v57.666H0z"/><path d="M939.942 423.053c3.369 1.945 8.83 1.945 12.199 0 1.684-.972 2.526-2.247 2.526-3.521V317.62h-17.252l.001 101.912c0 1.274.842 2.549 2.526 3.521z" fill="#FAC864" stroke="#000" stroke-width="2" stroke-linecap="round" stroke-linejoin="round"/><path d="M952.201 314.072c3.393 1.959 3.393 5.135 0 7.093-3.394 1.959-8.895 1.959-12.289 0-3.393-1.958-3.393-5.134 0-7.093 3.394-1.959 8.895-1.959 12.289 0z" fill="#FFE598" stroke="#000" stroke-width="2" stroke-linecap="round" stroke-linejoin="round"/><path d="M1345.75 452.658v-24.622l-85.69 8.355v24.826l35.62 20.547 50.07-29.106z" fill="#505050" stroke="#000" stroke-width="2" stroke-linecap="round" stroke-linejoin="round"/><path d="M1295.53 456.753v24.628" stroke="#000" stroke-width="2"/><path transform="scale(-1.22477 .70706) rotate(-45 181.24 1628.829)" fill="#B3B3B3" stroke="#000" stroke-width="2" stroke-linecap="round" stroke-linejoin="round" d="M0 0h41.07v57.666H0z"/><path d="M1431.45 402.996v-24.622l-85.69 8.355v24.825l35.62 20.548 50.07-29.106z" fill="#505050" stroke="#000" stroke-width="2" stroke-linecap="round" stroke-linejoin="round"/><path d="M1381.22 407.09v24.629" stroke="#000" stroke-width="2"/><path transform="scale(-1.22477 .70706) rotate(-45 61.47 1678.174)" fill="#B3B3B3" stroke="#000" stroke-width="2" stroke-linecap="round" stroke-linejoin="round" d="M0 0h41.07v57.666H0z"/><path d="M1467.07 378.415l-35.63-20.547v-24.826l65.83-6.418-2 35.396-28.2 16.395z" fill="#505050" stroke="#000" stroke-width="2" stroke-linecap="round" stroke-linejoin="round"/><path d="M1466.91 353.403v24.629" stroke="#000" stroke-width="2"/><path d="M889.854 348.221l282.426 163.043c9.22 5.323 24.17 5.323 33.39 0L1497.5 342.5v-17l-.73-17.969-20.5-93.642-593.325 92.05v32.941c.127 3.389 2.43 6.755 6.909 9.341z" fill="#55A398"/><path d="M1476.27 213.889l-593.325 92.05v32.941c.127 3.389 2.43 6.755 6.909 9.341l282.426 163.043c9.22 5.323 24.17 5.323 33.39 0l291.1-168.055" stroke="#000" stroke-width="2" stroke-linecap="round" stroke-linejoin="round"/><path d="M889.852 314.902l282.418 163.043c9.22 5.323 24.17 5.323 33.39 0l291.11-168.057c-.83-10.953-3.3-36.261-6.5-49.862-4-17.002-14.5-67.507-58.51-128.513-32.47-45.004-83.64-79.674-103.45-89.009L889.852 295.626c-9.22 5.323-9.22 13.953 0 19.276z" fill="#BDDCD8"/><path d="M1496.77 309.888l-291.11 168.057c-9.22 5.323-24.17 5.323-33.39 0L889.852 314.902c-9.22-5.323-9.22-13.953 0-19.276L1328.31 42.504" stroke="#000" stroke-width="2" stroke-linecap="round" stroke-linejoin="round"/><path d="M1308.17 144.338l135.98 78.5 29.12-16.809c-4.53-14.058-20.15-47.086-50.11-84.529-7.54-9.424-29.75-11.749-39.16-21.5l-75.83 44.338z" stroke="#000" stroke-width="2" stroke-linecap="round" stroke-linejoin="round"/><path transform="scale(1.22477 .70706) rotate(-45 792.946 -1226.543)" fill="#E5E5E5" stroke="#000" stroke-width="2" stroke-linecap="round" stroke-linejoin="round" d="M0 0h37.627v10.699H0z"/><path transform="scale(1.22477 .70706) rotate(-45 844.104 -1248.041)" fill="#E5E5E5" stroke="#000" stroke-width="2" stroke-linecap="round" stroke-linejoin="round" d="M0 0h34.535v10.699H0z"/><path transform="scale(1.22477 .70706) rotate(-45 895.201 -1269.414)" fill="#E5E5E5" stroke="#000" stroke-width="2" stroke-linecap="round" stroke-linejoin="round" d="M0 0h30.89v10.699H0z"/><path transform="scale(1.22477 .70706) rotate(-45 818.473 -1237.17)" fill="#E5E5E5" stroke="#000" stroke-width="2" stroke-linecap="round" stroke-linejoin="round" d="M0 0h33.069v10.699H0z"/><path transform="scale(1.22477 .70706) rotate(-45 869.624 -1258.67)" fill="#E5E5E5" stroke="#000" stroke-width="2" stroke-linecap="round" stroke-linejoin="round" d="M0 0h34.983v10.699H0z"/><path d="M1438.99 195.245l9.26 5.349 18.52-10.687-4.01-8.388-23.77 13.726z" fill="#E5E5E5" stroke="#000" stroke-width="2" stroke-linecap="round" stroke-linejoin="round"/><path d="M1365.14 103.2v21.302L1463 181.5c-9-21.5-30-53.5-56.5-80l-41.36 1.7z" fill="#C4C4C4"/><path d="M1463 181.5l-97.86-56.998V103.2l41.36-1.7" stroke="#000" stroke-width="2" stroke-linecap="round" stroke-linejoin="round"/><path d="M1391.75 87.753l-26.61 15.365 78.12 45.102c-25.26-39.22-39.34-48.91-51.51-60.467z" fill="#E5E5E5"/><path d="M1391.75 87.753l-26.61 15.365L1444.5 149" stroke="#000" stroke-width="2" stroke-linecap="round" stroke-linejoin="round"/><path transform="scale(1.22477 .70706) rotate(-45 943.092 -952.664)" fill="#E5E5E5" stroke="#000" stroke-width="2" stroke-linecap="round" stroke-linejoin="round" d="M0 0h69.917v68.522H0z"/><path d="M1223.31 301.915l49-28.289v-6.035h-98v6.035l49 28.289z" fill="#464646"/><path d="M1223.31 301.915l49-28.289v-6.035h-98v6.035l49 28.289zm0 0v-5.972" stroke="#000" stroke-width="2" stroke-linecap="round" stroke-linejoin="round"/><path transform="scale(1.22477 .70706) rotate(-45 936.231 -968.138)" fill="#464646" stroke="#000" stroke-width="2" stroke-linecap="round" stroke-linejoin="round" d="M0 0h56.582v56.582H0z"/><path d="M1465.64 305.151l2.98 1.716c7.73 4.462 19.85 5.153 28.88 2.133l-1-16-3.23-15.515c-7.03-.536-14.4.755-19.8 3.874l-7.83 4.517c-9.22 5.323-9.22 13.953 0 19.275z" fill="#55A398" stroke="#000" stroke-width="1.5" stroke-linecap="round" stroke-linejoin="round"/><rect width="41.985" height="47.593" rx="19.274" transform="scale(1.22477 .70706) rotate(45 26.114 1611.805)" fill="#55A398" stroke="#000" stroke-width="2" stroke-linecap="round" stroke-linejoin="round"/><rect width="41.985" height="48.503" rx="19.274" transform="scale(1.22477 .70706) rotate(45 -93.113 1562.419)" fill="#55A398" stroke="#000" stroke-width="2" stroke-linecap="round" stroke-linejoin="round"/><rect width="41.985" height="46.103" rx="19.274" transform="scale(1.22477 .70706) rotate(45 -213.29 1512.642)" fill="#55A398" stroke="#000" stroke-width="2" stroke-linecap="round" stroke-linejoin="round"/><path d="M1222.64 446.885c5.66 3.264 14.82 3.264 20.48 0 3.52-2.035 4.85-4.857 3.98-7.485l-9.8-21.311h-8.8l-9.84 21.311c-.87 2.628.46 5.45 3.98 7.485z" fill="#D9D9D9" stroke="#000" stroke-width="2" stroke-linecap="round" stroke-linejoin="round"/><circle r="3.677" transform="scale(1.22477 .70706) rotate(-45 1217.13 -919.426)" fill="#D9D9D9" stroke="#000" stroke-width="2" stroke-linecap="round" stroke-linejoin="round"/><path d="M1307.18 397.348c5.65 3.265 14.82 3.265 20.48 0 3.52-2.034 4.85-4.857 3.98-7.485l-9.8-21.311h-8.8l-9.84 21.311c-.87 2.628.46 5.451 3.98 7.485z" fill="#D9D9D9" stroke="#000" stroke-width="2" stroke-linecap="round" stroke-linejoin="round"/><circle r="3.677" transform="scale(1.22477 .70706) rotate(-45 1167.073 -1037.777)" fill="#D9D9D9" stroke="#000" stroke-width="2" stroke-linecap="round" stroke-linejoin="round"/><path d="M1391.67 347.81c5.66 3.265 14.83 3.265 20.48 0 3.52-2.034 4.85-4.857 3.98-7.485l-9.8-21.311h-8.8l-9.84 21.311c-.87 2.628.46 5.451 3.98 7.485z" fill="#D9D9D9" stroke="#000" stroke-width="2" stroke-linecap="round" stroke-linejoin="round"/><circle r="3.677" transform="scale(1.22477 .70706) rotate(-45 1116.995 -1156.079)" fill="#D9D9D9" stroke="#000" stroke-width="2" stroke-linecap="round" stroke-linejoin="round"/><path d="M1476.3 298.777c5.65 3.264 14.82 3.264 20.47 0l-3.26-23.249-2.56-5.547h-8.8l-9.84 21.311c-.87 2.628.46 5.45 3.99 7.485z" fill="#D9D9D9"/><path d="M1494.43 277.528l-.92-2m0 0l-2.56-5.547h-8.8l-9.84 21.311c-.87 2.628.46 5.45 3.99 7.485 5.65 3.264 14.82 3.264 20.47 0l-3.26-23.249z" stroke="#000" stroke-width="2" stroke-linecap="round" stroke-linejoin="round"/><circle r="3.677" transform="scale(1.22477 .70706) rotate(-45 1067.833 -1274.163)" fill="#D9D9D9" stroke="#000" stroke-width="2" stroke-linecap="round" stroke-linejoin="round"/><rect width="41.985" height="47.157" rx="19.274" transform="scale(1.22477 .70706) rotate(45 423.54 1319.386)" fill="#55A398" stroke="#000" stroke-width="2" stroke-linecap="round" stroke-linejoin="round"/><rect width="41.985" height="47.588" rx="19.274" transform="scale(1.22477 .70706) rotate(45 307.224 1271.208)" fill="#55A398" stroke="#000" stroke-width="2" stroke-linecap="round" stroke-linejoin="round"/><rect width="41.985" height="47.593" rx="19.274" transform="scale(1.22477 .70706) rotate(45 188.88 1222.184)" fill="#55A398" stroke="#000" stroke-width="2" stroke-linecap="round" stroke-linejoin="round"/><rect width="41.985" height="48.503" rx="19.274" transform="scale(1.22477 .70706) rotate(45 69.65 1172.8)" fill="#55A398" stroke="#000" stroke-width="2" stroke-linecap="round" stroke-linejoin="round"/><rect width="41.985" height="46.103" rx="19.274" transform="scale(1.22477 .70706) rotate(45 -50.524 1123.019)" fill="#55A398" stroke="#000" stroke-width="2" stroke-linecap="round" stroke-linejoin="round"/><path d="M943.603 284.819c5.655 3.264 14.822 3.264 20.477 0 3.524-2.035 4.852-4.857 3.983-7.485l-9.802-21.311h-8.801l-9.84 21.311c-.869 2.628.459 5.45 3.983 7.485z" fill="#D9D9D9" stroke="#000" stroke-width="2" stroke-linecap="round" stroke-linejoin="round"/><circle r="3.677" transform="scale(1.22477 .70706) rotate(-45 826.535 -759.017)" fill="#D9D9D9" stroke="#000" stroke-width="2" stroke-linecap="round" stroke-linejoin="round"/><path d="M1028.14 235.283c5.65 3.264 14.82 3.264 20.48 0 3.52-2.035 4.85-4.857 3.98-7.485l-9.8-21.311h-8.8l-9.84 21.311c-.87 2.628.46 5.45 3.98 7.485z" fill="#D9D9D9" stroke="#000" stroke-width="2" stroke-linecap="round" stroke-linejoin="round"/><circle r="3.677" transform="scale(1.22477 .70706) rotate(-45 776.478 -877.366)" fill="#D9D9D9" stroke="#000" stroke-width="2" stroke-linecap="round" stroke-linejoin="round"/><path d="M1112.64 185.746c5.65 3.265 14.82 3.265 20.47 0 3.53-2.034 4.86-4.856 3.99-7.485l-9.81-21.311h-8.8l-9.84 21.311c-.87 2.629.46 5.451 3.99 7.485z" fill="#D9D9D9" stroke="#000" stroke-width="2" stroke-linecap="round" stroke-linejoin="round"/><circle r="3.677" transform="scale(1.22477 .70706) rotate(-45 726.406 -995.677)" fill="#D9D9D9" stroke="#000" stroke-width="2" stroke-linecap="round" stroke-linejoin="round"/><path d="M1197.26 136.713c5.65 3.264 14.82 3.264 20.48 0 3.52-2.035 4.85-4.857 3.98-7.485l-9.8-21.312h-8.8l-9.84 21.312c-.87 2.628.46 5.45 3.98 7.485z" fill="#D9D9D9" stroke="#000" stroke-width="2" stroke-linecap="round" stroke-linejoin="round"/><circle r="3.677" transform="scale(1.22477 .70706) rotate(-45 677.24 -1113.75)" fill="#D9D9D9" stroke="#000" stroke-width="2" stroke-linecap="round" stroke-linejoin="round"/><path d="M1281.76 87.68c5.65 3.264 14.82 3.264 20.47 0 3.53-2.035 4.85-4.858 3.99-7.486l-9.81-21.31h-8.8l-9.84 21.31c-.87 2.629.46 5.45 3.99 7.485z" fill="#D9D9D9" stroke="#000" stroke-width="2" stroke-linecap="round" stroke-linejoin="round"/><circle r="3.677" transform="scale(1.22477 .70706) rotate(-45 628.022 -1231.696)" fill="#D9D9D9" stroke="#000" stroke-width="2" stroke-linecap="round" stroke-linejoin="round"/><path d="M1031.95 306.088v-15.674l-54.55 5.318v15.804l22.68 13.081 31.87-18.529z" fill="#C4C4C4" stroke="#000" stroke-width="2" stroke-linecap="round" stroke-linejoin="round"/><path d="M999.979 308.692v15.679" stroke="#000" stroke-width="2"/><path transform="scale(-1.22477 .70706) rotate(-45 74.432 1222.307)" fill="#D9D9D9" stroke="#000" stroke-width="2" stroke-linecap="round" stroke-linejoin="round" d="M0 0h26.144v36.709H0z"/><path d="M998.882 296.201c1.598.922 3.688 1.384 5.778 1.386 2.11.002 4.21-.46 5.81-1.386 1.6-.924 2.4-2.135 2.4-3.345V288h-16.391l.003 4.856c0 1.21.8 2.421 2.4 3.345z" fill="#000" stroke="#000" stroke-width="2" stroke-linecap="round" stroke-linejoin="round"/><path d="M1010.53 284.63c3.22 1.861 3.22 4.878 0 6.74-3.23 1.861-8.46 1.861-11.68 0-3.224-1.862-3.224-4.879 0-6.74 3.22-1.862 8.45-1.862 11.68 0z" fill="#505050" stroke="#000" stroke-width="2" stroke-linecap="round" stroke-linejoin="round"/><path d="M1201.57 405.033v-15.675l-54.55 5.319v15.804l22.68 13.08 31.87-18.528z" fill="#C4C4C4" stroke="#000" stroke-width="2" stroke-linecap="round" stroke-linejoin="round"/><path d="M1169.6 407.637v15.679" stroke="#000" stroke-width="2"/><path transform="scale(-1.22477 .70706) rotate(-45 174.106 1459.45)" fill="#D9D9D9" stroke="#000" stroke-width="2" stroke-linecap="round" stroke-linejoin="round" d="M0 0h26.144v36.709H0z"/><path d="M1168.5 395.148c1.6.922 3.69 1.384 5.79 1.386 2.1.002 4.2-.46 5.81-1.386 1.6-.924 2.4-2.135 2.4-3.345l-.01-4.856h-16.39v4.856c0 1.21.8 2.421 2.4 3.345z" fill="#000" stroke="#000" stroke-width="2" stroke-linecap="round" stroke-linejoin="round"/><path d="M1180.15 383.576c3.22 1.861 3.22 4.879 0 6.74-3.23 1.862-8.45 1.862-11.68 0-3.22-1.861-3.22-4.879 0-6.74 3.23-1.861 8.45-1.861 11.68 0z" fill="#505050" stroke="#000" stroke-width="2" stroke-linecap="round" stroke-linejoin="round"/><path d="M1068.92 417.25l122.26-70.582v-31.532l-199.122 26.152v31.591l76.862 44.371z" fill="#C4C4C4"/><path d="M1068.92 417.25l122.26-70.582v-31.532l-199.122 26.152v31.591l76.862 44.371zm0 0v-32.083" stroke="#000" stroke-width="2" stroke-linecap="round" stroke-linejoin="round"/><path d="M992.059 372.923l76.861 44.372v-31.706l-76.861-44.257v31.591z" fill="#505050" stroke="#000" stroke-width="2" stroke-linecap="round" stroke-linejoin="round"/><path d="M998.529 370.096l70.321 40.594v-29.007l-70.321-37.262v25.675z" fill="#000" stroke="#000" stroke-width="2" stroke-linecap="round" stroke-linejoin="round"/><path transform="scale(1.22477 .70706) rotate(45 -7.292 1289.7)" fill="#E5E5E5" stroke="#000" stroke-width="2" stroke-linecap="round" stroke-linejoin="round" d="M0 0h88.749v141.174H0z"/><rect width="7.425" height="29.464" rx="3.713" transform="scale(-1.22477 .70706) rotate(-45 126.21 1279.157)" fill="#505050" stroke="#000" stroke-width="2" stroke-linecap="round" stroke-linejoin="round"/><rect width="7.425" height="29.464" rx="3.713" transform="scale(-1.22477 .70706) rotate(-45 145.059 1325.727)" fill="#505050" stroke="#000" stroke-width="2" stroke-linecap="round" stroke-linejoin="round"/><path transform="scale(1.22477 .70706) rotate(-45 839.23 -1141.486)" fill="#E5E5E5" stroke="#000" stroke-width="2" stroke-linecap="round" stroke-linejoin="round" d="M0 0h14.157v99.692H0z"/><path transform="scale(1.22477 .70706) rotate(-45 854.522 -1104.564)" fill="#E5E5E5" stroke="#000" stroke-width="2" stroke-linecap="round" stroke-linejoin="round" d="M0 0h16.092v99.692H0z"/><path transform="scale(1.22477 .70706) rotate(-45 870.801 -1065.26)" fill="#E5E5E5" stroke="#000" stroke-width="2" stroke-linecap="round" stroke-linejoin="round" d="M0 0h16.323v99.692H0z"/><path transform="scale(1.22477 .70706) rotate(-45 865.39 -1050.192)" stroke="#000" stroke-width="2" stroke-linecap="round" stroke-linejoin="round" d="M0 0h94.798v117.449H0z"/><path transform="matrix(.86604 -.49997 .86604 .49997 1088 241.296)" stroke="#000" stroke-width="2" stroke-linecap="round" stroke-linejoin="round" d="M0 0h197.097v217.573H0z"/><path d="M1300.58 252.421l66.42-38.342v-17.65l-110.93 12.699v17.597l44.51 25.696z" fill="#464646"/><path d="M1300.58 252.421l66.42-38.342v-17.65l-110.93 12.699v17.597l44.51 25.696zm0 0v-17.33" stroke="#000" stroke-width="2" stroke-linecap="round" stroke-linejoin="round"/><path transform="scale(1.22477 .70706) rotate(-45 869.777 -1090.082)" fill="#464646" stroke="#000" stroke-width="2" stroke-linecap="round" stroke-linejoin="round" d="M0 0h76.689v51.395H0z"/><path d="M1498.27 327.532c0 180.339-146.2 326.533-326.56 326.533-180.352 0-326.557-146.194-326.557-326.533C845.153 147.194 991.358 1 1171.71 1c180.36 0 326.56 146.194 326.56 326.532z" stroke="#000" stroke-width="2"/></svg>