<svg width="160" height="161" viewBox="0 0 160 161" fill="none" xmlns="http://www.w3.org/2000/svg"><circle cx="80.5" cy="80.408" r="70" stroke="#fff" stroke-width="11"/><path d="M125.098 88.554c-.36.32-1.551.572-2.496.835-5.745 1.572-24.298 6.644-30.054 8.213-.948.26-1.718-.323-1.718-1.311v-7.758a1.776 1.776 0 00-1.778-1.781H56.064a1.774 1.774 0 01-1.776-1.775V75.95a1.782 1.782 0 00-1.78-1.782H36.672a1.126 1.126 0 01-1.132-1.122c0-.36.154-.611.343-.789.358-.328 1.554-.584 2.504-.843l29.93-8.18c.948-.26 1.713.325 1.713 1.309v7.848a1.781 1.781 0 001.78 1.777h32.962a1.782 1.782 0 011.783 1.782v8.936c0 .985.794 1.783 1.773 1.783h15.991a1.126 1.126 0 011.127 1.126c0 .349-.16.59-.349.759zm-18.542 14.386c0 .985-.769 1.984-1.72 2.247l-12.288 3.354c-.948.261-1.714-.327-1.714-1.306v-4.584c0-.982.795-1.785 1.778-1.785h12.161a1.788 1.788 0 011.783 1.785v.289zm-36.548 9.982c0 .98-.77 1.993-1.716 2.246l-12.288 3.364c-.947.258-1.716-.33-1.716-1.315V93.571a1.776 1.776 0 011.783-1.777h12.156a1.78 1.78 0 011.781 1.777v19.351zM54.288 58.14c0-.98.77-1.986 1.721-2.248l12.28-3.355c.95-.265 1.72.327 1.72 1.306v4.582a1.782 1.782 0 01-1.779 1.783H56.07a1.781 1.781 0 01-1.782-1.783v-.285zm36.542-9.984c0-.985.77-1.988 1.718-2.251l12.288-3.357c.951-.26 1.72.331 1.72 1.309v23.647a1.785 1.785 0 01-1.783 1.783h-12.16a1.782 1.782 0 01-1.783-1.783V48.156z" fill="#fff"/></svg>