<svg width="160" height="161" viewBox="0 0 160 161" fill="none" xmlns="http://www.w3.org/2000/svg"><path fill-rule="evenodd" clip-rule="evenodd" d="M22.003 14.91c-.824.127-1.608.294-1.742.37-.18.1 1.308 1.522 5.553 5.308 3.188 2.844 5.797 5.244 5.797 5.332 0 .19-12.988 14.61-13.16 14.61-.064 0-2.794-2.372-6.066-5.271-6.727-5.96-6.071-5.647-6.292-2.996-.262 3.151.47 6.669 2.041 9.804 2.608 5.206 7.326 8.816 13.074 10.004 2.295.474 6.15.402 8.183-.154l1.28-.35.427.393c.83.762 14.268 12.665 14.552 12.89.257.203.362.077 1.001-1.197.985-1.963 2.703-4.685 4.242-6.72 1.304-1.726 4.787-5.36 6.484-6.768l.92-.763-7.3-6.487-7.3-6.486-.037-2.99c-.031-2.613-.092-3.2-.481-4.65-2.521-9.392-11.635-15.366-21.177-13.88zm111.55-.156c-4.644.697-7.899 2.23-10.974 5.165-2.846 2.719-4.568 5.77-5.46 9.675-.268 1.171-.356 2.173-.369 4.204l-.017 2.667-7.283 6.451-7.283 6.451 1.477 1.24c3.814 3.2 6.971 7.117 9.642 11.964.622 1.128 1.19 2.14 1.264 2.248.088.129 2.746-2.117 7.73-6.535 5.794-5.133 7.672-6.707 7.914-6.63 2.529.803 6.406.971 9.21.4 7.32-1.493 13.007-7.147 14.674-14.59.371-1.655.473-5.265.191-6.742l-.144-.752-6.027 5.34c-3.316 2.938-6.054 5.313-6.086 5.28-.032-.033-3.023-3.366-6.647-7.405-6.177-6.885-6.571-7.362-6.293-7.621.164-.152 2.781-2.488 5.818-5.192 3.142-2.799 5.456-4.98 5.371-5.065-.405-.405-5.111-.794-6.708-.553zm-57.46 30.733c-3.519.454-6.733 1.435-10.074 3.076-10.287 5.05-17.705 15.023-20.209 27.165-.634 3.076-.788 4.84-.778 8.886.014 5.19.556 8.64 2.096 13.342 2.242 6.845 6.78 13.574 12.014 17.818l1.13.916-.342.659c-.19.362-.43 1.161-.535 1.774-.504 2.948 1.055 5.967 3.773 7.306 1.054.52 1.259.56 2.847.56 1.5 0 1.832-.057 2.688-.458 2.41-1.131 4.06-3.76 4.06-6.471 0-.596.048-.675.406-.675.388 0 .409.061.48 1.41.132 2.518 1.37 4.408 3.608 5.508 2.675 1.315 5.501.858 7.596-1.227 1.24-1.236 1.786-2.476 1.881-4.281l.074-1.41h.598c.569 0 .593.024.498.498-.158.791.197 2.527.735 3.594.29.573.888 1.339 1.445 1.849 3.282 3.001 8.473 1.929 10.395-2.147.481-1.02.541-1.313.541-2.683.001-1.301-.071-1.709-.472-2.649l-.473-1.11.816-.683c1.635-1.369 4.549-4.31 5.775-5.83 3.376-4.185 6.128-9.713 7.502-15.065 2.572-10.018 1.458-20.778-3.086-29.816-6.979-13.881-20.746-21.694-34.989-19.856zM67.46 74.722c2.543.624 4.363 1.918 5.97 4.242.728 1.055.915 1.472.992 2.218.268 2.6-2.117 5.206-6.126 6.697-1.865.694-4.557 1.954-5.29 2.476-.647.462-1.334 1.947-1.358 2.935-.026 1.101-.208 1.554-.727 1.804-.427.206-.568.181-1.442-.246-1.276-.625-3.214-2.578-3.837-3.867-.26-.539-.547-1.371-.638-1.85-.87-4.588-.471-7.056 1.61-9.975.955-1.338 2.678-2.95 3.808-3.56 1.941-1.049 4.854-1.41 7.038-.874zm30.256-.03c2.25.478 4.227 1.86 5.988 4.188 1.731 2.288 2.318 4.27 2.127 7.178-.272 4.156-1.278 6.22-3.963 8.138-1.98 1.413-2.837 1.183-3.052-.818-.145-1.359-.743-2.698-1.418-3.18-.648-.461-3.484-1.78-5.02-2.335-1.493-.539-1.99-.797-3.51-1.82-1.918-1.294-2.846-2.81-2.83-4.62.012-1.263.593-2.341 2.18-4.044 1.298-1.393 2.686-2.189 4.648-2.664 1.29-.313 3.433-.323 4.85-.023zM81.263 95.107c1.723 2.147 3.03 9.18 2.092 11.25-.535 1.179-.83.949-1.38-1.074-1-3.688-2.163-3.71-3.573-.067-.66 1.705-.997 2.019-1.345 1.254-.374-.821-.407-1.851-.123-3.791.441-3.013 1.567-6.385 2.527-7.57.57-.703 1.239-.704 1.802-.002zm-43.834 11.625c-6.909 6.143-7.086 6.286-7.599 6.136-2.223-.651-5.396-.809-7.938-.397-9.668 1.569-16.72 10.587-15.743 20.133.095.927.196 1.709.224 1.738.028.028 2.776-2.364 6.105-5.317 3.33-2.952 6.068-5.368 6.087-5.368.035 0 11.67 12.882 12.684 14.044l.552.632-6.15 5.467c-4.469 3.974-6.07 5.493-5.858 5.557 1.783.54 4.719.8 6.807.603 8.609-.815 15.485-7.274 16.903-15.879.196-1.19.24-2.223.167-3.864l-.101-2.24 5.589-4.937 6.095-5.386.507-.451-1.344-1.429c-2.115-2.25-3.647-4.155-5.13-6.379-1.413-2.122-3.493-6.033-4.205-7.908-.223-.588-.444-1.063-.492-1.057-.047.007-3.27 2.843-7.16 6.302zm77.976-5.253c-1.966 4.907-5.088 9.73-8.9 13.747l-1.809 1.907 1.408 1.266c.775.697 3.445 3.061 5.933 5.253 2.489 2.193 4.616 4.071 4.725 4.174.149.14.157.605.033 1.811a15.659 15.659 0 00.022 3.384c1.168 10.885 11.231 18.558 21.898 16.697 2.58-.451 2.974.148-3.942-5.985l-6.148-5.452.543-.608c6.17-6.91 12.661-14.017 12.766-13.979.076.027 2.803 2.417 6.062 5.313 4.34 3.856 5.976 5.213 6.114 5.074.125-.125.184-1.16.174-3.043-.014-2.487-.072-3.063-.452-4.489-1.506-5.646-5.02-9.984-10.099-12.467-2.531-1.237-4.569-1.725-7.619-1.824-2.077-.068-2.759-.023-4.234.281-.968.2-1.851.306-1.964.236-.113-.07-3.202-2.776-6.865-6.014a2455.708 2455.708 0 00-6.937-6.122c-.248-.21-.324-.119-.709.84z" fill="#fff"/></svg>