<svg width="517" height="651" viewBox="0 0 517 651" fill="none" xmlns="http://www.w3.org/2000/svg"><style>@keyframes float{0%{transform:translateY(0)}to{transform:translateY(10px)}}@keyframes grow{0%{transform:scale(1)}to{transform:scale(1.05)}}@keyframes key-rotate{0%{transform:rotate(-15deg)}to{transform:rotate(-25deg)}}@keyframes key-tag-rotate{0%{transform:rotate(0deg)}to{transform:rotate(3deg)}}</style><g id="keep-your-keys"><rect id="backdrop" x="21.502" y=".045" width="473.184" height="650.628" rx="17.744" fill="#F99"/><g id="illustration"><g style="animation:1s ease-in-out 0ms infinite alternate float"><g style="animation:1s ease-in-out 500ms infinite alternate key-tag-rotate;transform-origin:186px 343px"><g id="Subtract"><path fill-rule="evenodd" clip-rule="evenodd" d="M175.852 379.278a11.604 11.604 0 003.383 7.561l59.901 59.886c4.534 4.533 11.886 4.533 16.421 0l38.102-38.093c4.535-4.533 4.535-11.883 0-16.416l-59.901-59.886a11.61 11.61 0 00-7.563-3.382l-40.356-2.253c-6.914-.386-12.626 5.325-12.24 12.237l2.253 40.346zm22.525-27.81c4.534-4.532 5.452-10.961 2.052-14.36-3.399-3.399-9.83-2.481-14.363 2.051-4.533 4.532-5.452 10.961-2.052 14.36 3.4 3.399 9.83 2.481 14.363-2.051z" fill="#B0B8ED"/><path d="M179.235 386.839l-.251.251.251-.251zm-3.383-7.561l-.354.019.354-.019zm63.284 67.447l.251-.251-.251.251zm16.421 0l-.251-.251.251.251zm38.102-38.093l.251.251-.251-.251zm0-16.416l-.251.251.251-.251zm-59.901-59.886l.251-.251-.251.251zm-7.563-3.382l-.02.354.02-.354zm-40.356-2.253l.02-.354-.02.354zm-12.24 12.237l-.355.02.355-.02zm5.887 47.656a11.254 11.254 0 01-3.28-7.33l-.708.039a11.963 11.963 0 003.486 7.793l.502-.502zm59.901 59.886l-59.901-59.886-.502.502 59.901 59.886.502-.502zm15.919 0c-4.396 4.395-11.523 4.395-15.919 0l-.502.502c4.673 4.672 12.25 4.672 16.923 0l-.502-.502zm38.102-38.093l-38.102 38.093.502.502 38.102-38.093-.502-.502zm0-15.914c4.396 4.394 4.396 11.52 0 15.914l.502.502c4.673-4.672 4.673-12.246 0-16.918l-.502.502zm-59.901-59.887l59.901 59.887.502-.502-59.901-59.886-.502.501zm-7.332-3.278a11.257 11.257 0 017.332 3.278l.502-.501a11.966 11.966 0 00-7.794-3.486l-.04.709zm-40.356-2.253l40.356 2.253.04-.709-40.356-2.252-.04.708zm-11.866 11.863c-.374-6.7 5.164-12.237 11.866-11.863l.04-.708c-7.125-.398-13.013 5.488-12.615 12.611l.709-.04zm2.253 40.346l-2.253-40.346-.709.04 2.254 40.345.708-.039zm23.972-41.899c1.604 1.603 2.208 3.938 1.849 6.454-.36 2.515-1.683 5.187-3.9 7.404l.501.502c2.316-2.315 3.718-5.124 4.102-7.806.383-2.682-.253-5.26-2.05-7.056l-.502.502zm-13.861 2.051c2.217-2.217 4.89-3.54 7.406-3.899s4.852.245 6.455 1.848l.502-.502c-1.796-1.796-4.375-2.432-7.058-2.049-2.682.383-5.492 1.785-7.807 4.1l.502.502zm-2.052 13.858c-1.603-1.602-2.208-3.938-1.849-6.454.36-2.515 1.683-5.187 3.901-7.404l-.502-.502c-2.316 2.315-3.718 5.124-4.101 7.806-.384 2.682.252 5.26 2.049 7.056l.502-.502zm13.862-2.051c-2.218 2.217-4.89 3.54-7.406 3.899-2.517.36-4.853-.245-6.456-1.848l-.502.502c1.796 1.796 4.375 2.432 7.058 2.049 2.682-.383 5.492-1.785 7.807-4.1l-.501-.502z" fill="#000"/></g><rect id="Rectangle 1014" width="59.688" height="88.704" rx="4.146" transform="rotate(-44.993 549.363 -32.552)" fill="#fff" stroke="#000" stroke-width=".71" stroke-linecap="round" stroke-linejoin="round"/><g id="Vector 73"><path d="M237.288 406.972l-8.725 3.811-7.182-7.18 1.969-9.397 8.746-3.791 7.113 7.111-1.921 9.446z" fill="#B0B8ED"/><path d="M237.288 406.972l-8.725 3.811-7.182-7.18 1.969-9.397 8.746-3.791 7.113 7.111-1.921 9.446zm0 0l-7.107-7.106" stroke="#000" stroke-width=".71" stroke-linecap="round" stroke-linejoin="round"/></g><path id="Vector 75" d="M239.209 397.526l-1.922 9.445-7.107-7.106 1.916-9.451 7.113 7.112z" fill="#B0B8ED" stroke="#000" stroke-width=".71" stroke-linecap="round" stroke-linejoin="round"/><path id="Vector 74" d="M230.181 399.866l-8.725 3.812 1.894-9.472 8.752-3.785-1.921 9.445z" fill="#B0B8ED" stroke="#000" stroke-width=".71" stroke-linecap="round" stroke-linejoin="round"/><g id="Vector 73_2"><path d="M249.343 402.263l-8.725 3.812-12.884-12.881 1.969-9.398 8.746-3.791 12.815 12.813-1.921 9.445z" fill="#B0B8ED"/><path d="M249.343 402.263l-8.725 3.812-12.884-12.881 1.969-9.398 8.746-3.791 12.815 12.813-1.921 9.445zm0 0l-12.81-12.807" stroke="#000" stroke-width=".71" stroke-linecap="round" stroke-linejoin="round"/></g><path id="Vector 75_2" d="M251.265 392.817l-1.921 9.445-12.81-12.807 1.915-9.451 12.816 12.813z" fill="#B0B8ED" stroke="#000" stroke-width=".71" stroke-linecap="round" stroke-linejoin="round"/><path id="Vector 74_2" d="M236.491 389.414l-8.725 3.812 1.895-9.472 8.751-3.785-1.921 9.445z" fill="#B0B8ED" stroke="#000" stroke-width=".71" stroke-linecap="round" stroke-linejoin="round"/><g id="Vector 73_3"><path d="M261.425 396.296l-8.725 3.812-20.525-20.52 1.969-9.397 8.746-3.791 20.456 20.451-1.921 9.445z" fill="#B0B8ED"/><path d="M261.425 396.296l-8.725 3.812-20.525-20.52 1.969-9.397 8.746-3.791 20.456 20.451-1.921 9.445zm0 0l-20.45-20.445" stroke="#000" stroke-width=".71" stroke-linecap="round" stroke-linejoin="round"/></g><path id="Vector 75_3" d="M263.348 386.851l-1.921 9.446-20.451-20.446 1.915-9.451 20.457 20.451z" fill="#B0B8ED" stroke="#000" stroke-width=".71" stroke-linecap="round" stroke-linejoin="round"/><path id="Vector 74_3" d="M240.968 375.844l-8.725 3.812 1.894-9.472 8.752-3.785-1.921 9.445z" fill="#B0B8ED" stroke="#000" stroke-width=".71" stroke-linecap="round" stroke-linejoin="round"/></g><g style="animation:1s ease-in-out 500ms infinite alternate key-rotate;transform-origin:190px 345px"><g id="Union"><path fill-rule="evenodd" clip-rule="evenodd" d="M185.807 393.704c13.533 1.881 27.488-4.344 34.845-16.854 9.757-16.59 4.217-37.952-12.373-47.713-16.59-9.761-37.949-4.225-47.706 12.365-7.274 12.368-6.047 27.388 1.923 38.277l-7.189 12.218 1.727 6.656-3.699 6.286 1.726 6.657-2.261 3.841-6.658 1.726-2.671 4.54 1.726 6.657-2.26 3.841-6.658 1.726-3.905 6.636 3.309 12.758 3.144 1.849 7.767-2.013 27.126-46.102 4.993-1.294 7.094-12.057zm-2.102-53.171a6.89 6.89 0 019.431-2.445l14.674 8.63a6.886 6.886 0 012.445 9.429 6.891 6.891 0 01-9.432 2.445l-14.673-8.629a6.888 6.888 0 01-2.445-9.43z" fill="#FFE598"/><path d="M185.807 393.704l.049-.351a.356.356 0 00-.355.171l.306.18zm-23.311-13.925l.306.18a.357.357 0 00-.019-.39l-.287.21zm-7.189 12.218l-.305-.18a.351.351 0 00-.038.269l.343-.089zm1.727 6.656l.305.18a.352.352 0 00.038-.269l-.343.089zm-3.699 6.286l-.306-.18a.357.357 0 00-.038.269l.344-.089zm1.726 6.657l.306.18a.356.356 0 00.037-.269l-.343.089zm-2.261 3.841l.089.344a.35.35 0 00.217-.164l-.306-.18zm-6.658 1.726l-.089-.343a.349.349 0 00-.216.163l.305.18zm-2.671 4.54l-.306-.18a.357.357 0 00-.038.269l.344-.089zm1.726 6.657l.306.18a.357.357 0 00.038-.269l-.344.089zm-2.26 3.841l.089.344a.35.35 0 00.216-.164l-.305-.18zm-6.658 1.726l-.089-.343a.35.35 0 00-.217.163l.306.18zm-3.905 6.636l-.306-.18a.356.356 0 00-.037.269l.343-.089zm3.309 12.758l-.344.089a.359.359 0 00.164.217l.18-.306zm3.144 1.849l-.18.306a.356.356 0 00.269.037l-.089-.343zm7.767-2.013l.089.343a.355.355 0 00.217-.163l-.306-.18zm27.126-46.102l-.089-.343a.354.354 0 00-.217.163l.306.18zm4.993-1.294l.089.344a.359.359 0 00.217-.164l-.306-.18zm14.423-67.673l.18-.306-.18.306zm-9.431 2.445l.306.18-.306-.18zm24.105 6.185l-.18.306.18-.306zm2.445 9.429l.306.18-.306-.18zm-9.432 2.445l.18-.306-.18.306zm-14.673-8.629l.179-.306-.179.306zm-.391 44.093c13.669 1.899 27.766-4.388 35.199-17.026l-.612-.36c-7.282 12.382-21.094 18.544-34.49 16.683l-.097.703zm35.199-17.026c9.856-16.759 4.26-38.338-12.499-48.199l-.36.612c16.422 9.662 21.905 30.806 12.247 47.227l.612.36zm-12.499-48.199c-16.759-9.86-38.336-4.268-48.192 12.491l.611.36c9.658-16.421 30.799-21.901 47.221-12.239l.36-.612zm-48.192 12.491c-7.349 12.495-6.108 27.668 1.943 38.666l.573-.419c-7.89-10.778-9.104-25.645-1.905-37.887l-.611-.36zm-4.654 50.855l7.189-12.218-.612-.36-7.188 12.218.611.36zm1.764 6.387l-1.726-6.657-.687.179 1.726 6.656.687-.178zm-3.736 6.555l3.698-6.286-.611-.36-3.699 6.286.612.36zm1.763 6.388l-1.726-6.657-.687.178 1.726 6.657.687-.178zm-2.298 4.11l2.261-3.841-.612-.36-2.26 3.841.611.36zm-6.875 1.89l6.658-1.726-.178-.687-6.658 1.726.178.687zm-2.454 4.376l2.671-4.54-.611-.36-2.672 4.54.612.36zm1.764 6.388l-1.727-6.657-.687.178 1.727 6.657.687-.178zm-2.299 4.11l2.261-3.841-.612-.36-2.26 3.841.611.36zm-6.874 1.89l6.658-1.726-.178-.687-6.658 1.726.178.687zm-3.688 6.472l3.904-6.636-.611-.36-3.905 6.636.612.36zm3.346 12.489l-3.308-12.758-.687.178 3.308 12.758.687-.178zm2.981 1.632l-3.145-1.849-.359.612 3.144 1.849.36-.612zm7.498-2.051l-7.767 2.013.178.687 7.767-2.013-.178-.687zm26.909-45.938l-27.125 46.102.611.36 27.126-46.102-.612-.36zm5.21-1.457l-4.993 1.294.178.687 4.993-1.294-.178-.687zm6.877-11.894l-7.094 12.057.612.36 7.094-12.057-.612-.36zm7.815-55.742a7.245 7.245 0 00-9.917 2.571l.612.36a6.536 6.536 0 018.946-2.319l.359-.612zm14.674 8.63l-14.674-8.63-.359.612 14.673 8.63.36-.612zm2.571 9.915a7.242 7.242 0 00-2.571-9.915l-.36.612a6.531 6.531 0 012.319 8.943l.612.36zm-9.917 2.571a7.245 7.245 0 009.917-2.571l-.612-.36a6.536 6.536 0 01-8.946 2.319l-.359.612zm-14.674-8.629l14.674 8.629.359-.612-14.674-8.629-.359.612zm-2.571-9.916a7.242 7.242 0 002.571 9.916l.359-.612a6.533 6.533 0 01-2.318-8.944l-.612-.36z" fill="#000"/></g><path id="Vector 283" d="M138.938 451.666l34.881-65.817" stroke="#000" stroke-width=".71" stroke-linecap="round" stroke-linejoin="round"/></g><g id="hand"><g id="Group 1140"><path id="Vector 267" d="M67.652 231.156c.166-7.626 8.498-30.808 12.644-41.445l22.386-9.947v31.084c0 .994-1.797 24.314-2.695 35.85 2.073 12.64 4.975 41.072 0 53.671-6.218 15.749-25.08 18.443-25.08 16.578-5.39-15.128-7.462-76.259-7.255-85.791z" fill="#956D65" stroke="#000" stroke-width=".71" stroke-linecap="round"/><path id="Vector 268" d="M114.082 238.201c11.608 35.436-4.767 48.905-6.218 50.356-16.416-16.91-17.895-55.26-16.582-72.322l16.582-29.633c6.564-4.351 19.857-13.096 20.521-13.262.663-.166 7.876 6.976 11.4 10.568-1.589 5.043-5.348 17.324-7.669 26.111-2.322 8.786-12.99 22.449-18.034 28.182z" fill="#644842" stroke="#000" stroke-width=".71" stroke-linecap="round"/><path id="Vector" d="M239.278 244.418c-3.317 2.818-6.025 10.223-5.611 11.605-9.617 0-22.443 14.206-27.653 21.31-14.803 19.898-12.511 41.144-7.983 52.892.787 2.044 3.238 2.709 5.052 1.479 14.307-9.698 38.053-28.691 47.996-32.82 13.473-5.595 32.556-33.536 44.371-42.861 11.815-9.325 28.604-27.147 56.794-46.419 15.117-11.639 20.178-12.593 26.725-18.477 11.193-4.352 12.561 2.936 19.484-4.974 14.51-16.578 19.899-7.46 29.848-13.469 9.95-6.01.829-46.799 0-54.673-.829-7.875-4.532-52.635-61.755-40.823-51.591 3.417-152.792 10.775-161.884 10.775-13.058 0-26.324 2.487-32.543 6.631-6.218 4.145-26.324 30.877-42.077 40.824-15.753 9.947-44.772 38.129-48.918 43.103-4.145 4.973-1.45 22.173-2.487 43.931-1.036 21.759-.414 45.59 1.866 62.375 1.824 13.428 10.847 32.673 15.131 40.616 23.215-10.941 18.24-50.286 12.851-68.591 7.794-10.61 9.742-34.814 9.742-45.59l3.096-3.73 53.063-40.823h30.276l9.535 8.496c2.653 3.316 19.069 4.283 26.946 4.352 0 7.667 17.619 30.669 18.24 34.399.622 3.73-2.28 8.704-3.109 11.397-.829 2.694-12.851 15.542-16.996 19.065z" fill="#BA8A80" stroke="#000" stroke-width=".71" stroke-linecap="round"/><path id="Vector 366" d="M118.002 182.17c11.354-4.73 29.568-23.451 37.256-31.925l-11.236 16.554c-1.774 2.561-12.537 17.263-15.376 20.101-2.838 2.838-7.885 12.612-10.053 17.145l-.591 6.503-.592 10.051c-.591-8.277-13.601-32.517.592-38.429z" fill="#956D65"/><path id="Vector_2" d="M343.828 216.053c-28.19 19.272-38.474 32.468-50.289 41.793 6.46-12.794 15.239-35.764 24.701-43.805 11.827-10.051 20.106-34.29 21.289-44.932 1.183-10.642 1.183-50.253 8.279-59.713 7.097-9.46 15.913-18.411 10.322-25.76 57.223-11.811 60.926 32.949 61.755 40.824.829 7.874 9.95 48.663 0 54.673-9.949 6.009-15.338-3.109-29.848 13.469-6.922 7.91-8.291.622-19.484 4.974-6.547 5.884-11.607 6.838-26.725 18.477z" fill="#956D65"/><path id="Vector_3" d="M295.45 256.023c11.815-9.325 28.605-27.147 56.794-46.419 15.118-11.639 20.178-12.593 26.725-18.477 11.193-4.352 12.562 2.936 19.484-4.973 14.51-16.578 19.899-7.461 29.848-13.47 9.95-6.01.83-46.799 0-54.673" stroke="#000" stroke-width=".71" stroke-linecap="round"/><path id="Vector_4" d="M241.735 179.557c0 7.667 17.619 30.669 18.24 34.399 3.11-3.687 1.04-30.012.448-32.377-.591-2.365-8.87-10.642-21.88-11.824-10.408-.946-20.501-6.307-24.246-8.869.473 3.311.525 10.926.492 14.319 2.653 3.316 19.069 4.283 26.946 4.352z" fill="#956D65"/><path id="Vector 269" d="M260.006 215.199c.898-4.697 2.156-18.028 0-33.777" stroke="#000" stroke-width=".71" stroke-linecap="round"/><path id="Vector_5" d="M212.124 150.96c1.327 6.133 2.211 18.581 2.28 24.038-4.477 5.968-17.895 9.118-24.044 9.947-2.833 6.493-11.525 21.385-23.63 29.011-.76 2.832-1.575 10.278 1.244 17.407 3.524 8.911 5.804 20.308 2.28 28.804 9.04 7.092 21.735 20.477 26.793 34.987-3.428 8.62-2.441 20.999-1.519 26.11-16.444-6.7-50.023-26.449-60.304-55.294-6.356-16.509-18.655-51.351-16.997-58.645 2.073-9.118 12.023-21.966 14.51-24.453 2.487-2.486 19.277-25.488 25.288-36.471l54.099 4.559z" fill="#BA8A80"/><path id="Vector 273" d="M85.463 292.253c3.455-1.244 11.442 0 15.753 14.92" stroke="#000" stroke-width=".71" stroke-linecap="round"/><path id="Vector 274" d="M72.198 286.243c1.935.069 6.219 1.161 7.877 4.974" stroke="#000" stroke-width=".71" stroke-linecap="round"/><path id="Vector 275" d="M171.069 303.65c3.11-.552 11.691-.041 21.143 6.424" stroke="#000" stroke-width=".71" stroke-linecap="round"/><path id="Vector_6" d="M212.124 150.96c1.327 6.133 2.211 18.581 2.28 24.038-4.477 5.968-17.895 9.118-24.044 9.947-2.833 6.493-11.525 21.385-23.63 29.011-.76 2.832-1.575 10.278 1.244 17.407 3.524 8.911 5.804 20.308 2.28 28.804 9.04 7.092 21.735 20.477 26.793 34.987-3.428 8.62-2.441 20.999-1.519 26.11-16.444-6.7-50.023-26.449-60.304-55.294-6.356-16.509-18.655-51.351-16.997-58.645 2.073-9.118 12.023-21.966 14.51-24.453 2.487-2.486 19.277-25.488 25.288-36.471" stroke="#000" stroke-width=".71" stroke-linecap="round"/><path id="Vector 365" d="M179.998 172.711c-4.258 10.878-12.024 33.108-13.01 40.794 11.355-6.622 20.501-22.072 23.655-28.97 2.365.473 8.87-1.379 11.827-2.365 6.624-1.892 10.645-5.518 11.828-7.094l-.592-13.007-.591-1.774c-1.893 7.095-21.289 9.854-33.117 12.416z" fill="#956D65"/><path id="Vector_7" d="M212.124 150.96c1.327 6.133 2.211 18.581 2.28 24.038-4.477 5.968-17.895 9.118-24.044 9.947-2.833 6.493-11.525 21.385-23.63 29.011-.76 2.832-1.575 10.278 1.244 17.407 3.524 8.911 5.804 20.308 2.28 28.804 9.04 7.092 21.735 20.477 26.793 34.987-3.428 8.62-2.441 20.999-1.519 26.11-16.444-6.7-50.023-26.449-60.304-55.294-6.356-16.509-18.655-51.351-16.997-58.645 2.073-9.118 12.023-21.966 14.51-24.453 2.487-2.486 19.277-25.488 25.288-36.471" stroke="#000" stroke-width=".71" stroke-linecap="round"/></g><path id="Vector 276" d="M361.766 217.859l-12.23-149.202 159.811 5.18 6.633 172.619-154.214-28.597z" fill="#D6DBFF"/><path id="Vector 279" d="M515.98 246.456l-154.214-28.597-12.23-149.202 159.811 5.18" stroke="#000" stroke-width=".71"/><rect id="Rectangle 1008" width="10.778" height="69.87" rx="5.389" transform="rotate(8.519 -1777.474 1440.465) skewX(-.004)" fill="#E6EAEB" stroke="#000" stroke-width=".71" stroke-linecap="round" stroke-linejoin="round"/><g id="Group 1144"><g id="Group 1143"><path id="Vector_8" d="M239.572 244.176c-3.316 2.819-6.025 10.224-5.61 11.605-9.618 0-22.443 14.207-27.653 21.31-14.803 19.898-12.512 41.144-7.984 52.892.788 2.044 3.239 2.709 5.052 1.48 14.308-9.699 38.054-28.692 47.996-32.821 13.473-5.595 32.557-33.536 44.372-42.861l-36.067-42.067c.622 3.73-2.28 8.704-3.109 11.398-.829 2.694-12.851 15.542-16.997 19.064z" fill="#BA8A80"/><path id="Vector_9" d="M259.678 213.714c.622 3.73-2.28 8.704-3.109 11.398-.829 2.694-12.851 15.542-16.997 19.064-3.316 2.819-6.025 10.224-5.61 11.605-9.618 0-22.443 14.207-27.653 21.31-14.803 19.898-12.512 41.144-7.984 52.892.788 2.044 3.239 2.709 5.052 1.48 14.308-9.699 38.054-28.692 47.996-32.821 13.473-5.595 32.557-33.536 44.372-42.861" stroke="#000" stroke-width=".71" stroke-linecap="round"/></g><path id="Vector 270" d="M249.625 277.125c2.487 3.178 7.462 10.569 7.462 14.713" stroke="#000" stroke-width=".71" stroke-linecap="round"/><path id="Vector 272" d="M200.294 309.961c5.596-5.25 18.406-14.174 24.873-7.874l3.524 4.559" stroke="#000" stroke-width=".71" stroke-linecap="round"/></g></g></g><ellipse cx="200.885" cy="546.838" rx="95.399" ry="22.211" fill="#000" fill-opacity=".4" style="animation:1s ease-in-out 0ms infinite alternate grow;transform-origin:201px 547px"/></g></g></svg>