<svg width="185" height="36" viewBox="0 0 185 36" fill="none" xmlns="http://www.w3.org/2000/svg"><path fill-rule="evenodd" clip-rule="evenodd" d="M157.559 9.673c0 2.57-.017 4.674-.037 4.674-.02 0-.13-.096-.244-.213a9.335 9.335 0 00-.565-.51 11.828 11.828 0 00-.86-.632 11.001 11.001 0 00-1.038-.596 13.09 13.09 0 00-.987-.428c-.249-.092-.707-.229-1.019-.304a13.2 13.2 0 00-1.071-.208 12.556 12.556 0 00-2.602-.003c-.272.036-.68.109-.906.162-.227.053-.643.171-.924.263-.281.091-.788.297-1.126.458-.338.16-.798.41-1.021.555-.223.145-.567.385-.764.534-.197.15-.539.442-.76.65-.222.209-.562.568-.757.8-.195.23-.5.639-.678.906-.178.267-.466.777-.64 1.133-.174.357-.389.867-.477 1.134-.089.267-.215.725-.28 1.018-.065.292-.142.719-.172.948-.029.229-.054.75-.054 1.157-.001.407.024.938.054 1.18.031.241.108.675.172.964.064.289.2.767.303 1.062.102.295.285.746.406 1.002.122.255.341.66.488.899.146.239.424.64.618.891.193.251.553.66.8.907.247.248.616.584.82.748.204.163.57.427.813.585a11.241 11.241 0 001.767.913c.166.065.543.19.837.279.294.088.796.205 1.116.26.321.056.903.112 1.302.127.437.016.94.005 1.278-.03.307-.03.807-.108 1.112-.171.304-.064.766-.185 1.026-.27.26-.084.701-.255.981-.38.279-.124.712-.345.962-.492.249-.146.657-.419.906-.606.25-.188.626-.501.837-.697l.384-.355v2.183l1.453-.012 1.453-.012V5.024l-1.453-.012L157.559 5v4.673zM33.977 11.388c-.264.024-.683.075-.93.114-.246.04-.657.124-.913.188s-.653.18-.884.258c-.23.078-.68.265-.998.416-.32.151-.81.428-1.093.616-.282.188-.7.507-.93.71-.231.202-.566.538-.745.747a5.35 5.35 0 00-.34.422.068.068 0 01-.059.043c-.025 0-.043-.56-.043-1.342V12.22H24.114v17.95h2.926l.016-5.216c.015-4.788.023-5.245.098-5.563.045-.191.144-.533.22-.76.076-.226.235-.599.354-.828.119-.23.34-.585.493-.791.152-.206.448-.54.657-.744.21-.204.55-.492.759-.64.207-.147.593-.38.857-.515.263-.136.688-.324.943-.419.256-.094.685-.221.953-.282.269-.061.75-.143 1.07-.18a11.4 11.4 0 011.106-.07c.289 0 .726.023.972.05.246.027.641.099.878.159s.597.18.8.268c.204.087.517.253.696.369.179.115.472.347.651.515.18.168.43.457.558.641.128.184.316.502.418.705.103.204.241.535.309.736.067.2.163.565.213.81.05.243.113.756.139 1.137.027.402.047 2.782.048 5.656v4.962h2.887l-.015-6.003c-.015-5.934-.017-6.009-.117-6.558a13.687 13.687 0 00-.241-1.05 8.781 8.781 0 00-.318-.903 9.486 9.486 0 00-.35-.716 7.606 7.606 0 00-.442-.67 7.87 7.87 0 00-.63-.72 8.65 8.65 0 00-.76-.655 7.607 7.607 0 00-.892-.552c-.271-.139-.692-.326-.935-.415a10.39 10.39 0 00-.93-.28c-.268-.066-.712-.152-.987-.191a14.156 14.156 0 00-2.54-.068zm95.335-.02a13.063 13.063 0 00-1.72.233c-.307.063-.839.207-1.183.32a11.16 11.16 0 00-1.139.457 10.38 10.38 0 00-.933.523c-.23.15-.576.4-.767.554a9.781 9.781 0 00-.723.667c-.205.213-.451.48-.545.595l-.172.208-.001-1.353-.001-1.353H119.199V30.17l1.453-.012 1.453-.012.026-5.274c.023-4.74.034-5.306.105-5.59.043-.174.131-.47.194-.66.064-.19.203-.516.309-.725.106-.21.297-.537.425-.728.128-.19.465-.577.749-.858.294-.291.689-.625.916-.775.22-.144.582-.355.805-.469a9.34 9.34 0 01.763-.34 9.9 9.9 0 01.823-.257c.255-.066.674-.156.93-.2.339-.059.735-.08 1.464-.082.782-.002 1.09.016 1.412.08.227.046.583.137.791.201.208.065.56.213.783.329.223.116.565.337.76.491.195.154.49.447.655.652.181.226.408.59.575.927.151.305.328.743.392.972.064.229.152.593.196.81.071.353.08.95.096 5.956l.017 5.563h2.879v-5.85c0-4.98-.011-5.931-.072-6.396-.039-.3-.122-.759-.184-1.02a9.748 9.748 0 00-.284-.924 9.036 9.036 0 00-.323-.756 8.295 8.295 0 00-.431-.717 7.679 7.679 0 00-.638-.798 7.554 7.554 0 00-.74-.68 8.625 8.625 0 00-.749-.513 8.306 8.306 0 00-.764-.39 11.095 11.095 0 00-.767-.292 11.5 11.5 0 00-.773-.215 12.36 12.36 0 00-.883-.163 13.482 13.482 0 00-1.25-.087c-.422-.01-.872-.01-1 0zm-118.813.088c-.238.036-.653.118-.924.183-.27.065-.682.182-.915.261a11.625 11.625 0 00-2.215 1.09 12.3 12.3 0 00-.915.678c-.234.195-.608.548-.83.783-.223.235-.546.615-.72.844-.172.23-.403.562-.513.74a11.674 11.674 0 00-.852 1.741c-.092.246-.219.645-.282.888a13.09 13.09 0 00-.187.85c-.04.224-.094.694-.12 1.044-.035.446-.034.832 0 1.295.028.363.103.92.168 1.238.064.318.213.867.33 1.22.119.352.346.904.506 1.226.16.321.43.792.602 1.047.17.254.43.607.574.784a11.118 11.118 0 001.472 1.458c.204.162.587.435.85.606.263.172.719.43 1.012.574.294.144.842.363 1.219.486.376.124.915.268 1.196.32.281.053.7.117.93.143.23.025.68.046 1 .045.32 0 .821-.03 1.116-.065.294-.036.744-.11 1-.166.255-.055.675-.17.932-.253.258-.084.697-.254.977-.379.28-.124.712-.345.962-.492.249-.146.667-.425.93-.62.262-.196.727-.607 1.035-.913.307-.306.708-.755.891-.996.183-.242.453-.638.6-.88.148-.241.361-.637.475-.878a11.744 11.744 0 00.747-2.29c.054-.28.12-.725.145-.989.026-.263.047-.672.047-.908 0-.237-.022-.646-.049-.91-.026-.263-.1-.735-.164-1.049a11.37 11.37 0 00-.304-1.134c-.104-.309-.303-.801-.442-1.093-.14-.293-.35-.688-.47-.88a14.364 14.364 0 00-.54-.785 10.825 10.825 0 00-.77-.898 13.68 13.68 0 00-.865-.808c-.23-.192-.638-.492-.906-.666a11.198 11.198 0 00-1-.566c-.281-.136-.71-.321-.953-.41a11.179 11.179 0 00-1.767-.473c-.269-.051-.745-.08-1.488-.092-.782-.012-1.215.002-1.525.049zm43.605.003c-.243.035-.704.129-1.023.208-.32.08-.794.224-1.053.32-.26.098-.682.282-.94.41-.257.13-.652.349-.877.487-.224.14-.628.428-.897.643-.268.215-.694.604-.946.866-.252.261-.614.683-.804.938-.19.254-.464.66-.607.903-.144.243-.36.662-.48.93-.121.27-.295.723-.387 1.006-.092.284-.22.774-.284 1.088-.063.314-.14.878-.17 1.253-.042.521-.042.844 0 1.365.03.375.106.937.17 1.248.062.31.198.82.301 1.133.103.313.322.845.487 1.184.165.338.418.796.563 1.018.145.221.401.58.57.795a11.17 11.17 0 001.54 1.556c.193.155.538.405.768.558.23.153.596.374.814.49.217.117.63.307.916.421.287.115.747.272 1.023.35.276.077.753.184 1.06.237.313.054.884.107 1.302.122.443.015.95.004 1.255-.029.282-.03.763-.104 1.07-.166.306-.061.788-.187 1.069-.28.281-.092.731-.266 1-.385.268-.119.692-.337.94-.485.25-.148.64-.407.869-.577.229-.17.605-.48.837-.692.23-.21.59-.586.798-.833.207-.247.53-.678.718-.957.187-.28.454-.738.594-1.018.14-.28.33-.712.424-.96.093-.249.23-.688.305-.977.074-.288.172-.762.217-1.052.057-.367.082-.794.082-1.406 0-.614-.026-1.033-.083-1.388-.045-.28-.132-.709-.194-.952-.061-.244-.187-.66-.279-.926-.092-.265-.29-.732-.439-1.037-.15-.305-.416-.774-.592-1.04a11.743 11.743 0 00-.67-.903 12.471 12.471 0 00-.797-.84c-.246-.234-.61-.548-.81-.7-.2-.15-.52-.374-.711-.496a11.53 11.53 0 00-.837-.467c-.269-.135-.687-.321-.93-.413a12.03 12.03 0 00-1.047-.323 12.44 12.44 0 00-1.13-.227c-.34-.048-.829-.072-1.393-.068-.48.002-1.07.033-1.312.068zm51.611-.023c-.166.021-.522.083-.791.137-.268.055-.76.188-1.092.297-.333.109-.812.294-1.064.412-.253.117-.64.32-.861.452-.22.131-.631.41-.914.62-.283.211-.722.588-.977.839-.254.25-.594.62-.755.82-.162.2-.394.512-.516.693-.123.181-.321.501-.44.712-.12.21-.294.553-.387.763-.093.21-.249.616-.346.903-.098.288-.229.767-.292 1.064-.063.299-.136.744-.164.992-.027.247-.05.73-.05 1.073 0 .343.033.868.072 1.166.04.3.114.732.165.963.052.23.179.674.282.984.104.311.32.832.48 1.157.16.325.436.81.614 1.077.178.268.482.674.675.903.194.229.517.574.718.768.201.193.501.463.668.598.166.135.522.39.79.567.269.177.76.452 1.093.613.332.16.79.356 1.016.434.227.079.615.194.862.257.248.062.659.15.914.194.34.059.733.08 1.486.082.774.002 1.142-.018 1.515-.08.271-.046.722-.143 1.003-.216.281-.073.719-.21.973-.305.253-.094.668-.275.922-.401.254-.127.626-.332.828-.456.201-.125.527-.346.724-.493.197-.147.606-.506.909-.798.303-.292.692-.709.866-.925.173-.217.436-.58.583-.805.148-.226.369-.607.492-.847s.308-.653.413-.92c.104-.265.262-.763.35-1.106.089-.343.193-.864.231-1.16.039-.294.071-.877.071-1.294 0-.432-.031-.985-.072-1.282-.04-.287-.126-.739-.19-1.004a12.834 12.834 0 00-.281-.948c-.09-.257-.272-.695-.406-.975s-.362-.7-.507-.933a12.923 12.923 0 00-.599-.856 11.848 11.848 0 00-.826-.92 11.686 11.686 0 00-.925-.821 12.457 12.457 0 00-.86-.596 12.124 12.124 0 00-.937-.507 11.728 11.728 0 00-1.139-.452c-.345-.114-.837-.25-1.093-.3a14.165 14.165 0 00-.859-.142 12.926 12.926 0 00-1.232-.042c-.461.003-.974.023-1.14.044zm65.839 0a14.16 14.16 0 00-.79.137c-.269.054-.771.192-1.116.306-.345.114-.879.33-1.186.48-.307.149-.778.414-1.046.59a12.48 12.48 0 00-.837.598c-.192.155-.59.528-.885.83-.294.301-.656.708-.802.904-.147.196-.37.52-.495.72-.125.201-.331.572-.458.825a11.36 11.36 0 00-.404.918c-.095.254-.233.69-.306.972-.074.281-.167.71-.208.951a11.6 11.6 0 00-.073 2.429c.03.28.087.683.126.896.04.213.133.604.207.868.075.264.212.672.305.908.093.235.242.573.331.752.089.178.267.497.395.71.128.212.383.587.567.832.184.246.517.638.741.872.223.234.579.571.79.75.212.178.616.478.899.666.283.188.721.447.973.575.253.128.653.308.889.4.237.093.655.232.93.309.275.077.741.182 1.035.233.304.053.866.105 1.302.12.469.017.965.005 1.278-.028.282-.03.731-.098.998-.149.268-.051.772-.186 1.12-.3.349-.113.907-.339 1.242-.5.334-.163.782-.406.995-.542.213-.136.587-.405.83-.598.243-.193.627-.537.853-.764.227-.226.539-.568.694-.76.155-.19.427-.565.605-.832.177-.267.446-.738.597-1.046.15-.308.366-.839.478-1.18.112-.34.247-.827.299-1.082.053-.254.118-.639.144-.854.027-.216.049-.757.048-1.203 0-.46-.03-1.018-.068-1.288a12.822 12.822 0 00-.169-.902 12.427 12.427 0 00-.281-.957 11.9 11.9 0 00-.477-1.134c-.163-.33-.42-.789-.572-1.018-.152-.229-.405-.577-.562-.773a12.813 12.813 0 00-.601-.689 10.695 10.695 0 00-.756-.7 13.18 13.18 0 00-.925-.69 11.237 11.237 0 00-1.093-.618c-.335-.163-.829-.371-1.097-.463a13.35 13.35 0 00-.953-.28 11.37 11.37 0 00-.991-.182 11.313 11.313 0 00-1.371-.063 14.44 14.44 0 00-1.149.044zm-95.9.306a9.37 9.37 0 00-1.78.378 8.794 8.794 0 00-.987.4 8.283 8.283 0 00-.72.406 9.478 9.478 0 00-.656.502c-.207.174-.49.451-.627.616l-.25.3-.024-1.075-.023-1.074H67.75l-.011 8.988-.012 8.987 1.43-.012 1.43-.012.023-6.014.024-6.015.104-.37c.057-.203.197-.56.312-.792.115-.232.323-.567.462-.743.138-.177.395-.436.57-.577a6.42 6.42 0 01.605-.426c.158-.094.44-.234.628-.31.187-.078.53-.19.761-.25.232-.06.64-.135.907-.166a8.29 8.29 0 011.16-.03c.444.018.81.06 1.07.124.217.053.573.184.79.29.3.148.48.278.747.542.257.255.404.452.549.732.109.21.254.585.322.832l.125.45.013 6.373.014 6.373h2.878l.012-6.026.014-6.026.104-.37c.058-.203.177-.52.264-.703a5.57 5.57 0 01.353-.618c.108-.157.32-.41.472-.561.152-.151.456-.391.675-.533.219-.143.568-.33.775-.417.208-.087.577-.208.82-.268.243-.06.648-.134.901-.165.284-.034.72-.045 1.14-.029.448.018.813.06 1.074.124.217.053.567.18.776.284.228.112.5.296.682.461.166.152.384.405.484.564.1.158.238.427.306.596.068.17.159.451.202.625.072.288.08.885.094 6.69l.016 6.372h2.88v-6.396c0-4.188-.017-6.579-.05-6.925a8.266 8.266 0 00-.18-1.042 7.595 7.595 0 00-.276-.862 6.315 6.315 0 00-.378-.724 5.674 5.674 0 00-.585-.748 6.494 6.494 0 00-.663-.606 6.103 6.103 0 00-.709-.438 6.865 6.865 0 00-.813-.344 10.434 10.434 0 00-.903-.242c-.425-.092-.622-.105-1.534-.106-.813 0-1.15.019-1.511.084-.256.047-.64.135-.853.196a11.05 11.05 0 00-.744.249 7.074 7.074 0 00-.774.374c-.23.13-.565.346-.744.48a10.11 10.11 0 00-.639.53 8.992 8.992 0 00-.65.69c-.186.22-.383.463-.438.538l-.1.136-.173-.345a7.69 7.69 0 00-.382-.659 5.46 5.46 0 00-.576-.68 6.065 6.065 0 00-.766-.629 6.286 6.286 0 00-.82-.445c-.232-.099-.654-.24-.938-.312a8.97 8.97 0 00-.935-.183c-.23-.027-.711-.047-1.07-.043-.357.005-.734.016-.836.025zM13.26 14.25c.258.053.634.15.837.214a8.341 8.341 0 011.718.835c.179.12.489.354.69.52.2.165.51.47.69.676.179.206.45.56.603.785.152.227.368.602.48.833.112.232.259.587.327.788.068.201.163.548.212.77.049.222.11.65.137.95.033.377.033.719 0 1.096-.027.302-.08.709-.12.904-.04.195-.144.566-.23.824-.086.258-.25.655-.364.881-.115.227-.34.61-.5.85a6.969 6.969 0 01-.853.994c-.328.325-.735.674-.98.838-.23.155-.627.386-.883.514a8.379 8.379 0 01-.891.374 9.416 9.416 0 01-.954.245c-.417.082-.685.103-1.293.103-.525 0-.915-.027-1.232-.083a8.99 8.99 0 01-.974-.244c-.28-.09-.75-.285-1.046-.434a8.46 8.46 0 01-1.031-.641 8.507 8.507 0 01-.9-.798 8.475 8.475 0 01-.727-.907 8.76 8.76 0 01-.524-.902 8.239 8.239 0 01-.345-.866c-.077-.241-.179-.616-.226-.833-.07-.315-.086-.586-.084-1.364.002-.821.018-1.041.102-1.42.056-.246.155-.61.222-.81.067-.198.215-.558.33-.799.114-.24.346-.646.516-.902.21-.317.495-.65.894-1.046.38-.377.738-.683 1.023-.871.241-.16.65-.39.907-.513s.667-.286.911-.363a8.26 8.26 0 011.393-.3c.09-.01.508-.012.93-.006.559.008.895.038 1.235.108zm43.616 0c.258.053.635.15.837.216.202.065.618.242.925.393.307.151.755.415.995.587s.618.49.838.706c.22.216.54.58.712.81.171.229.437.657.59.951.154.295.352.753.44 1.018.09.265.2.66.246.876.067.31.085.603.085 1.388 0 .873-.014 1.054-.109 1.48a8.49 8.49 0 01-.273.925c-.09.242-.244.597-.34.79a9.243 9.243 0 01-.468.786 7.06 7.06 0 01-.853.995c-.359.357-.72.663-1 .849-.242.16-.627.384-.856.498a8.648 8.648 0 01-.955.385 8.657 8.657 0 01-1.005.259c-.312.054-.709.08-1.209.08-.5 0-.896-.026-1.209-.08a8.66 8.66 0 01-1.004-.259 8.648 8.648 0 01-.956-.385 9.572 9.572 0 01-.846-.494 7.778 7.778 0 01-.852-.686 8.775 8.775 0 01-.719-.778 9.123 9.123 0 01-.549-.803 8.169 8.169 0 01-.419-.82 8.734 8.734 0 01-.279-.782 8.691 8.691 0 01-.19-.884c-.062-.39-.074-.678-.054-1.33.02-.664.05-.933.141-1.32.064-.266.173-.641.242-.832.07-.19.221-.534.336-.763a8.82 8.82 0 01.458-.787c.137-.203.39-.532.564-.73.173-.197.461-.485.64-.64.18-.154.526-.414.77-.576a8.1 8.1 0 01.884-.5c.241-.111.638-.267.882-.344a8.146 8.146 0 011.393-.3c.09-.01.508-.013.93-.007.56.008.894.038 1.237.108zm51.048-.061c.256.034.632.105.835.157a7.838 7.838 0 011.738.72c.21.124.555.355.767.513.212.159.573.483.801.721.229.239.547.624.708.857.16.234.396.633.524.887s.303.677.389.939c.085.262.195.685.243.94.066.352.086.667.083 1.318-.002.703-.022.943-.107 1.342a9.746 9.746 0 01-.22.832 8.575 8.575 0 01-.955 1.873 8.226 8.226 0 01-.737.858 8.493 8.493 0 01-.76.677c-.175.129-.48.332-.679.451-.199.12-.554.3-.79.401-.236.102-.61.237-.832.3-.222.065-.591.151-.822.193-.278.05-.674.075-1.185.075-.519 0-.906-.026-1.197-.079a10.224 10.224 0 01-.814-.19 8.32 8.32 0 01-.779-.278 8.324 8.324 0 01-.765-.384 9.838 9.838 0 01-.731-.482 8.148 8.148 0 01-.736-.639 8.25 8.25 0 01-.653-.747 9.61 9.61 0 01-.474-.704 8.777 8.777 0 01-.397-.808 8.04 8.04 0 01-.335-.994 9.077 9.077 0 01-.188-1.05 7.01 7.01 0 01-.025-1.063c.017-.292.073-.745.124-1.007.05-.261.166-.688.257-.949.09-.26.279-.692.418-.96.139-.267.387-.666.551-.887.165-.221.452-.562.638-.758.187-.195.557-.518.823-.716a8.786 8.786 0 011.03-.642 8.418 8.418 0 011.028-.438c.265-.085.68-.189.923-.23.243-.04.494-.081.558-.09.064-.008.378-.017.697-.019.32-.002.791.025 1.046.06zm43.921.06c.246.05.641.156.878.235.237.079.66.26.939.402.279.142.669.373.866.513.197.14.492.372.657.515.164.143.433.416.599.607.165.192.425.535.578.764.152.23.368.604.479.833.112.23.265.604.341.833.076.229.17.573.21.763.039.191.095.593.124.893.04.41.041.692.001 1.133a9.595 9.595 0 01-.14.982 8.571 8.571 0 01-.188.694 8.898 8.898 0 01-.856 1.72c-.143.214-.397.54-.563.723-.166.184-.452.469-.636.634a7.746 7.746 0 01-.71.55 9.126 9.126 0 01-.84.48 8.477 8.477 0 01-.887.371 8.534 8.534 0 01-.767.213c-.19.04-.601.097-.914.127-.433.04-.712.04-1.166-.001a8.995 8.995 0 01-1.059-.166 9.795 9.795 0 01-.81-.236 7.185 7.185 0 01-.627-.263 11.009 11.009 0 01-.651-.361 8.293 8.293 0 01-.752-.527 8.282 8.282 0 01-.733-.682 8.188 8.188 0 01-.627-.776 8.927 8.927 0 01-.506-.859 9.044 9.044 0 01-.376-.87 8.787 8.787 0 01-.247-.879c-.088-.4-.103-.613-.103-1.42 0-.804.015-1.019.102-1.415.056-.257.157-.632.224-.833.067-.2.222-.575.345-.83.123-.257.355-.663.515-.903.19-.284.496-.64.876-1.018s.738-.682 1.023-.871c.241-.16.649-.39.907-.513.257-.123.667-.286.911-.363a8.237 8.237 0 011.393-.302c.09-.012.519-.014.953-.005.549.012.928.044 1.237.108zm21.802-.078c.243.026.635.095.87.155s.622.184.86.277c.238.094.635.283.882.42.246.138.634.393.86.566.226.174.603.518.837.764.234.247.555.64.713.875.158.235.388.636.511.89a8.5 8.5 0 01.365.904c.077.243.178.628.225.856.066.323.084.619.082 1.34-.003.77-.02 1.001-.103 1.377-.055.248-.165.643-.244.878a8.256 8.256 0 01-.421.96c-.152.292-.409.71-.57.927a9.86 9.86 0 01-.59.71 7.87 7.87 0 01-.67.614 8.687 8.687 0 01-.796.552 9.16 9.16 0 01-.837.434 8.12 8.12 0 01-.834.302c-.23.066-.585.148-.79.184a9.862 9.862 0 01-.884.095 7.115 7.115 0 01-.987-.02 10.603 10.603 0 01-.83-.122 8.781 8.781 0 01-.774-.21 7.949 7.949 0 01-.879-.362 8.941 8.941 0 01-.843-.483 8.714 8.714 0 01-.726-.554 8.058 8.058 0 01-.642-.639 8.885 8.885 0 01-.549-.71 9.035 9.035 0 01-.48-.833 8.44 8.44 0 01-.356-.827 8.448 8.448 0 01-.213-.769 10.043 10.043 0 01-.143-.97 5.44 5.44 0 010-1.156c.03-.323.106-.8.169-1.058a8.24 8.24 0 01.272-.878c.087-.224.222-.534.301-.688.078-.155.294-.507.479-.782.217-.323.511-.674.828-.99.27-.268.661-.608.869-.754.207-.147.574-.369.813-.494.24-.125.602-.293.805-.373a7.635 7.635 0 011.63-.409 9.093 9.093 0 011.79 0z" fill="#000"/></svg>