<svg width="394" height="666" viewBox="0 0 394 666" fill="none" xmlns="http://www.w3.org/2000/svg"><style>@keyframes float{0%{transform:translateY(0)}to{transform:translateY(10px)}}</style><g id="over-the-air-updates"><g id="chip" stroke="#000" stroke-width=".888" stroke-linecap="round" stroke-linejoin="round"><g id="Group 1608"><path id="Rectangle 1437" d="M203.326 663.998l187.163-108.059c1.713-.989 2.563-2.288 2.55-3.584l-.054-24.664H1.3l-.001 24.664c-.013 1.296.837 2.595 2.55 3.584l187.163 108.059c3.401 1.963 8.913 1.963 12.314 0z" fill="#55A398"/><path id="Rectangle 1421" d="M191.01 415.997c3.401-1.963 8.913-1.963 12.314 0l187.163 108.059c3.4 1.963 3.4 5.146 0 7.109L203.324 639.224c-3.401 1.963-8.913 1.963-12.314 0L3.847 531.165c-3.4-1.963-3.4-5.146 0-7.109L191.01 415.997z" fill="#BDDCD8"/></g><g id="Group 1611" fill="#FFE496"><path id="Rectangle 1832" transform="matrix(.86603 .5 -.86603 .5 138.496 446.303)" d="M0 0h230.242v10.109H0z"/><path id="Rectangle 1833" transform="matrix(.86603 .5 -.86603 .5 114.52 460.112)" d="M0 0h230.351v10.109H0z"/><path id="Rectangle 1834" transform="matrix(.86603 .5 -.86603 .5 90.703 473.857)" d="M0 0h230.224v10.109H0z"/><path id="Rectangle 1835" transform="matrix(.86603 .5 -.86603 .5 66.73 487.715)" d="M0 0h230.33v10.109H0z"/></g><g id="Group 1612" fill="#FFE496"><path id="Rectangle 1832_2" transform="matrix(-.86603 .5 .86603 .5 256.582 446.722)" d="M0 0h230.242v10.109H0z"/><path id="Rectangle 1833_2" transform="matrix(-.86603 .5 .86603 .5 280.559 460.531)" d="M0 0h230.351v10.109H0z"/><path id="Rectangle 1834_2" transform="matrix(-.86603 .5 .86603 .5 304.375 474.276)" d="M0 0h230.224v10.109H0z"/><path id="Rectangle 1835_2" transform="matrix(-.86603 .5 .86603 .5 328.348 488.133)" d="M0 0h230.33v10.109H0z"/></g><g id="Group 1610"><path id="Rectangle 1437_2" d="M201.464 609.472l130.551-75.374c1.195-.69 1.788-1.596 1.779-2.5l-.038-17.204H60.546l-.001 17.204c-.01.904.584 1.81 1.779 2.5l130.551 75.374c2.372 1.369 6.217 1.369 8.589 0z" fill="#000"/><path id="Rectangle 1421_2" d="M192.873 436.485c2.372-1.369 6.217-1.369 8.589 0l130.551 75.374c2.372 1.37 2.372 3.59 0 4.959l-130.551 75.374c-2.372 1.369-6.217 1.369-8.589 0L62.322 516.818c-2.372-1.369-2.372-3.589 0-4.959l130.551-75.374z" fill="#B3B3B3"/></g><circle id="Ellipse 214" r="3.864" transform="matrix(.86603 .5 -.86603 .5 197.181 580.359)" fill="#505050"/><g id="Group 1617"><g id="Group 1613"><path id="Rectangle 1839" d="M239.834 577.607l9.121 5.611-8.579 14.862-9.297-5.356v-10.063l8.755-5.054z" fill="#B3B3B3"/><path id="Rectangle 1840" d="M248.979 583.221v9.796l-8.533 4.926v-9.962l8.533-4.76z" fill="#B3B3B3"/><path id="Rectangle 1836" d="M239.687 577.537l9.339 5.449-8.582 5.098-9.248-5.469 8.491-5.078z" fill="#D9D9D9"/></g><g id="Group 1614"><path id="Rectangle 1839_2" d="M263.77 563.744l9.122 5.611-8.579 14.861-9.297-5.356v-10.062l8.754-5.054z" fill="#B3B3B3"/><path id="Rectangle 1840_2" d="M272.915 569.358v9.796l-8.532 4.926v-9.962l8.532-4.76z" fill="#B3B3B3"/><path id="Rectangle 1836_2" d="M263.623 563.674l9.34 5.449-8.582 5.097-9.248-5.468 8.49-5.078z" fill="#D9D9D9"/></g><g id="Group 1615"><path id="Rectangle 1839_3" d="M287.836 549.969l9.121 5.611-8.579 14.862-9.297-5.356v-10.062l8.755-5.055z" fill="#B3B3B3"/><path id="Rectangle 1840_3" d="M296.979 555.583v9.797l-8.532 4.926v-9.962l8.532-4.761z" fill="#B3B3B3"/><path id="Rectangle 1836_3" d="M287.688 549.9l9.339 5.448-8.582 5.098-9.248-5.469 8.491-5.077z" fill="#D9D9D9"/></g><g id="Group 1616"><path id="Rectangle 1839_4" d="M311.485 535.92l9.121 5.611-8.578 14.862-9.298-5.356v-10.062l8.755-5.055z" fill="#B3B3B3"/><path id="Rectangle 1840_4" d="M320.629 541.534v9.796l-8.532 4.926v-9.961l8.532-4.761z" fill="#B3B3B3"/><path id="Rectangle 1836_4" d="M311.337 535.851l9.339 5.448-8.581 5.098-9.248-5.469 8.49-5.077z" fill="#D9D9D9"/></g></g><g id="Group 1618"><g id="Group 1613_2"><path id="Rectangle 1839_5" d="M155.871 577.607l-9.122 5.611 8.579 14.861 9.297-5.355v-10.063l-8.754-5.054z" fill="#B3B3B3"/><path id="Rectangle 1840_5" d="M146.727 583.221v9.796l8.532 4.926v-9.962l-8.532-4.76z" fill="#B3B3B3"/><path id="Rectangle 1836_5" d="M156.019 577.537l-9.34 5.449 8.582 5.098 9.248-5.469-8.49-5.078z" fill="#D9D9D9"/></g><g id="Group 1614_2"><path id="Rectangle 1839_6" d="M131.934 563.744l-9.121 5.611 8.578 14.861 9.297-5.356v-10.062l-8.754-5.054z" fill="#B3B3B3"/><path id="Rectangle 1840_6" d="M122.79 569.358v9.796l8.532 4.926v-9.962l-8.532-4.76z" fill="#B3B3B3"/><path id="Rectangle 1836_6" d="M132.082 563.674l-9.339 5.449 8.581 5.097 9.248-5.468-8.49-5.078z" fill="#D9D9D9"/></g><g id="Group 1615_2"><path id="Rectangle 1839_7" d="M107.87 549.969l-9.122 5.611 8.579 14.862 9.297-5.356v-10.062l-8.754-5.055z" fill="#B3B3B3"/><path id="Rectangle 1840_7" d="M98.726 555.583v9.797l8.532 4.926v-9.962l-8.532-4.761z" fill="#B3B3B3"/><path id="Rectangle 1836_7" d="M108.018 549.9l-9.34 5.448 8.582 5.098 9.248-5.469-8.49-5.077z" fill="#D9D9D9"/></g><g id="Group 1616_2"><path id="Rectangle 1839_8" d="M84.22 535.92l-9.122 5.611 8.578 14.862 9.298-5.356v-10.062l-8.755-5.055z" fill="#B3B3B3"/><path id="Rectangle 1840_8" d="M75.075 541.534v9.796l8.532 4.926v-9.961l-8.532-4.761z" fill="#B3B3B3"/><path id="Rectangle 1836_8" d="M84.367 535.851l-9.34 5.448 8.582 5.098 9.248-5.469-8.49-5.077z" fill="#D9D9D9"/></g></g></g><g id="cloud"><g id="Group 1533"><path id="Ellipse 68" d="M197.997 539.988c32.806 0 59.401-13.665 59.401-30.521l17.79-287.737H119.567l19.028 287.737c0 16.856 26.595 30.521 59.402 30.521z" fill="url(#paint0_linear)"/><path id="Ellipse 70" d="M197.672 523.066c15.577 0 28.204-6.504 28.204-14.528l8.446-274.009h-73.888l9.034 274.009c0 8.024 12.627 14.528 28.204 14.528z" fill="url(#paint1_linear)"/><path id="Ellipse 69" d="M122.044 162.702l16.669 346.336c0 16.865 26.636 30.538 59.492 30.538 32.857 0 59.492-13.673 59.492-30.538l15.427-346.336" stroke="#000" stroke-width=".814" stroke-linecap="round" stroke-linejoin="round" stroke-dasharray="8.26 8.26"/></g><g style="animation:1200ms ease-in-out 0ms infinite alternate float"><g id="Group 1482"><g id="Group 1192"><g id="Group 1186" fill-rule="evenodd" clip-rule="evenodd"><path id="Vector (Stroke)" d="M218.706 482.586a.942.942 0 00-.236.024l-8.448 1.944-.038.01c-.872.243-1.833.254-2.796.035a4.275 4.275 0 00-.495-.15l-8.51-3.23a1.099 1.099 0 00-.237-.03c-.444-.007-1.109 1.407-1.14 1.849-.037.518.379 1.045.929 1.178l8.721 2.104.353.093.092.023c.647.279 1.15.879 1.267 1.547l.137.783c.083.469.026.926-.163 1.316l-2.428 5.018c-.247.51-.975.564-1.476.11l-3.561-5.128c-.438-.396-1.498-.526-1.952.707-.426.881-.438 1.422 0 1.819l4.303 3.899c1.536 1.392 3.765 1.226 4.521-.336l2.228-4.604 3.857 4.683c1.308 1.59 3.606 1.815 4.66.457l2.952-3.805c.3-.387 1.448-1.497.48-2.553-.462-.369-1.851.832-2.151 1.218l-2.953 3.805c-.344.444-1.094.37-1.522-.149l-4.203-5.105a2.889 2.889 0 01-.627-1.326l-.185-1.052c-.109-.623.23-1.159.82-1.296l9.147-2.171c.506-.118.746-1.417.529-1.938-.188-.449-1.427.252-1.875.251z" fill="#5E6FDB"/><path id="Vector (Stroke) (Stroke)" d="M198.183 481.219l8.51 3.23c.168.04.333.09.495.15.963.219 1.925.208 2.796-.035l.039-.01 8.448-1.945a.976.976 0 01.235-.023c.158 0 .414-.087.688-.18.503-.171 1.066-.362 1.187-.071.217.521-.023 1.82-.529 1.938l-9.147 2.171c-.59.137-.929.673-.819 1.296l.184 1.052c.082.468.3.929.627 1.326l4.204 5.105c.427.519 1.178.592 1.522.149l2.952-3.805c.3-.387 1.689-1.587 2.151-1.219.868.947.036 1.937-.362 2.411a4.07 4.07 0 00-.118.143l-2.952 3.805c-1.054 1.358-3.351 1.133-4.66-.457l-3.857-4.684-2.228 4.605c-.756 1.562-2.984 1.728-4.521.336l-4.303-3.9c-.438-.396-.426-.938 0-1.818.455-1.233 1.514-1.104 1.952-.707l3.561 5.128c.502.454 1.23.4 1.477-.11l2.427-5.018c.189-.39.246-.847.164-1.316l-.138-.783c-.117-.668-.62-1.268-1.266-1.547l-.093-.023-.353-.093-8.721-2.105c-.55-.132-.965-.659-.929-1.177.031-.443.696-1.856 1.141-1.849.076.001.155.011.236.03zm-.226-.843a1.132 1.132 0 00-.624.187 1.754 1.754 0 00-.351.304 3.673 3.673 0 00-.472.684 5.59 5.59 0 00-.336.722c-.079.21-.163.473-.179.708-.068.964.664 1.812 1.549 2.025l8.713 2.103.346.091.028.007c.392.189.673.558.736.917l.137.783c.056.317.013.599-.094.821l-2.409 4.978a.309.309 0 01-.161-.056l-3.548-5.108-.069-.063a1.976 1.976 0 00-1.669-.454c-.688.132-1.264.626-1.578 1.444-.222.466-.386.941-.389 1.407a1.74 1.74 0 00.592 1.334l4.303 3.9c.923.836 2.08 1.228 3.16 1.148 1.087-.081 2.116-.652 2.64-1.733l1.674-3.461 3.05 3.703c.789.959 1.886 1.52 2.974 1.626 1.09.107 2.225-.245 2.957-1.188l2.952-3.804.059-.071c.155-.182.539-.632.757-1.123.139-.313.247-.706.207-1.143-.042-.451-.235-.882-.587-1.265l-.042-.047-.049-.039c-.459-.367-1-.241-1.255-.156a3.6 3.6 0 00-.848.446c-.489.334-.982.786-1.199 1.066l-2.934 3.78a.11.11 0 01-.026 0 .383.383 0 01-.243-.143l-4.204-5.105a2.087 2.087 0 01-.454-.95l-.184-1.051c-.023-.129.006-.211.034-.256a.256.256 0 01.168-.108l9.148-2.171.002-.001c.434-.101.695-.42.833-.644.149-.242.246-.52.307-.777.063-.261.096-.54.096-.803 0-.249-.031-.549-.143-.818-.244-.585-.816-.655-1.074-.651a2.88 2.88 0 00-.755.143c-.118.036-.272.088-.402.132a8.26 8.26 0 01-.189.063c-.159.052-.218.061-.218.063a1.719 1.719 0 00-.406.045l-8.448 1.944-.074.019m-11.809-3.404c.139.001.278.019.416.052l.05.012 8.512 3.23c.163.041.324.09.481.146.828.181 1.634.164 2.35-.036" fill="#000"/><path id="Vector (Stroke)_2" d="M219.41 481.352a.99.99 0 00-.236.023l-8.447 1.945a.558.558 0 00-.039.01c-.872.243-1.833.254-2.796.035a4.275 4.275 0 00-.495-.15l-8.823-2.109a1.099 1.099 0 00-.237-.03c-.444-.007-.796.285-.827.728-.036.518.379 1.045.929 1.177l8.721 2.105.353.093.093.023c.646.279 1.149.879 1.266 1.547l.138.783c.082.469.025.926-.164 1.316l-2.428 5.018c-.246.51-.975.564-1.476.11l-4.304-3.9c-.438-.396-1.063-.428-1.397-.069-.334.358-.25.97.188 1.366l4.303 3.9c1.536 1.392 3.765 1.226 4.521-.336l2.228-4.605 3.857 4.684c1.309 1.59 3.606 1.815 4.66.457l2.952-3.805c.3-.387.169-.999-.292-1.368-.462-.368-1.079-.354-1.379.033l-2.952 3.805c-.345.443-1.095.37-1.523-.149l-4.203-5.105a2.894 2.894 0 01-.627-1.326l-.184-1.052c-.11-.623.229-1.159.819-1.296l8.376-1.946c.506-.117.74-.635.522-1.157-.187-.449-.649-.755-1.097-.755z" fill="#B0B8ED"/><path id="Vector (Stroke) (Stroke)_2" d="M207.513 485.179l-.353-.093-8.721-2.104c-.549-.133-.965-.66-.929-1.178.031-.443.383-.735.828-.728.076.001.155.011.236.03l8.823 2.109c.168.04.333.09.495.15.963.219 1.925.208 2.796-.035a.558.558 0 01.039-.01l8.448-1.945a.976.976 0 01.235-.023c.448 0 .91.306 1.097.755.218.522-.016 1.04-.522 1.157l-8.376 1.946c-.59.137-.929.673-.819 1.296l.184 1.052c.082.468.3.929.627 1.326l4.204 5.105c.427.519 1.178.592 1.522.149l2.952-3.805c.3-.387.918-.401 1.379-.033.461.369.592.981.292 1.368l-2.952 3.805c-1.054 1.358-3.351 1.133-4.66-.457l-3.857-4.684-2.228 4.605c-.756 1.562-2.984 1.728-4.52.336l-4.304-3.9c-.438-.396-.522-1.008-.188-1.366.334-.358.96-.327 1.397.069l4.304 3.9c.502.454 1.23.4 1.477-.11l2.427-5.018c.189-.39.246-.847.164-1.316l-.138-.783c-.117-.668-.62-1.268-1.266-1.547a3.152 3.152 0 01-.093-.023zm-.178.794l-.028-.007-.346-.091-8.713-2.103c-.885-.213-1.617-1.061-1.549-2.025.064-.915.817-1.497 1.649-1.484.139.002.278.019.415.052l8.823 2.108c.182.044.36.097.535.159.827.181 1.633.164 2.349-.036l.074-.019 8.448-1.944c.144-.033.288-.047.429-.044.784.004 1.529.517 1.837 1.255.186.446.198.942.001 1.378-.2.443-.593.769-1.09.885l-8.376 1.945a.256.256 0 00-.168.108c-.028.045-.057.127-.034.256l.185 1.051c.056.319.208.652.453.95l4.204 5.105a.383.383 0 00.243.143.11.11 0 00.026 0l2.934-3.78c.664-.856 1.833-.727 2.53-.17.695.555 1.081 1.658.427 2.502l-2.952 3.805c-.732.942-1.867 1.294-2.957 1.187-1.087-.106-2.185-.667-2.974-1.625l-3.05-3.704-1.674 3.461c-.523 1.081-1.553 1.652-2.64 1.733-1.08.08-2.237-.312-3.16-1.148l-4.303-3.9c-.661-.599-.975-1.732-.237-2.524.728-.781 1.88-.576 2.539.021l4.303 3.9c.089.08.174.099.218.099l2.408-4.978c.107-.222.15-.504.094-.821l-.137-.783c-.063-.359-.344-.728-.736-.917z" fill="#000"/></g><path id="Vector 285" d="M214.916 484.208l-3.253-.868 3.362-.759 3.037.868-3.146.759z" fill="#fff" fill-opacity=".3"/></g><circle id="Ellipse 177" r="18.169" transform="matrix(-1 0 0 1 209.579 488.276)" fill="#fff" fill-opacity=".3" stroke="#000" stroke-width=".814"/><path id="Ellipse 184" d="M219.201 477.109c.165 1.955 1.171 2.404 1.906 1.955.734-.449.693-1.855-.092-3.14-.785-1.286-2.017-1.965-2.752-1.516-.734.448-.667 1.516.938 2.701z" fill="#fff"/></g></g><g style="animation:1900ms ease-in-out 0ms infinite alternate float"><g id="Group 1482_2"><g id="Group 1192_2"><g id="Group 1186_2" fill-rule="evenodd" clip-rule="evenodd"><path id="Vector (Stroke)_3" d="M154.527 418.02c.124-.003.248.008.369.036l13.214 3.042.06.015c1.364.38 2.868.398 4.374.055.254-.094.512-.172.775-.235l13.311-5.052c.127-.03.251-.045.371-.047.695-.011 1.735 2.2 1.784 2.893.057.809-.594 1.634-1.453 1.841l-13.642 3.292-.553.145-.144.037c-1.011.436-1.798 1.374-1.982 2.42l-.215 1.225c-.128.733-.04 1.448.256 2.058l3.797 7.849c.387.799 1.526.883 2.311.172l5.57-8.021c.684-.62 2.342-.823 3.053 1.106.667 1.377.685 2.224 0 2.845l-6.732 6.099c-2.403 2.178-5.889 1.918-7.072-.525l-3.484-7.203-6.034 7.327c-2.047 2.486-5.641 2.838-7.289.714l-4.618-5.951c-.469-.605-2.266-2.342-.75-3.995.721-.577 2.895 1.301 3.364 1.907l4.618 5.951c.539.694 1.712.579 2.381-.233l6.576-7.985a4.53 4.53 0 00.98-2.075l.289-1.645c.171-.975-.359-1.814-1.282-2.028l-14.309-3.396c-.791-.184-1.167-2.216-.827-3.031.294-.704 2.233.393 2.933.393z" fill="#5E6FDB"/><path id="Vector (Stroke) (Stroke)_3" d="M186.63 415.881l-13.311 5.052a6.779 6.779 0 00-.775.235c-1.506.343-3.01.325-4.374-.055l-.06-.015-13.215-3.042a1.42 1.42 0 00-.368-.036c-.247 0-.648-.137-1.077-.282-.787-.268-1.666-.567-1.856-.111-.34.815.036 2.847.827 3.03l14.309 3.397c.922.214 1.453 1.053 1.282 2.028l-.289 1.645a4.532 4.532 0 01-.981 2.075l-6.575 7.984c-.669.813-1.843.928-2.381.234l-4.618-5.952c-.47-.605-2.643-2.483-3.365-1.906-1.358 1.481-.056 3.029.567 3.771.072.086.135.161.184.224l4.618 5.951c1.648 2.124 5.242 1.772 7.289-.714l6.034-7.327 3.484 7.202c1.183 2.444 4.669 2.704 7.072.526l6.732-6.1c.685-.62.666-1.467 0-2.844-.711-1.929-2.369-1.726-3.053-1.106l-5.571 8.021c-.785.711-1.923.627-2.31-.172l-3.797-7.849c-.296-.611-.385-1.325-.256-2.058l.215-1.225c.183-1.046.97-1.984 1.981-2.42l.145-.037.553-.145 13.642-3.292c.859-.207 1.509-1.032 1.452-1.842-.048-.692-1.088-2.903-1.784-2.892a1.617 1.617 0 00-.37.047zm.36-.86a2.522 2.522 0 00-.549.068l-.051.013-13.313 5.052a7.692 7.692 0 00-.762.231c-1.371.305-2.719.281-3.926-.056l-.096-.024-13.215-3.042a2.312 2.312 0 00-.552-.057c-.007-.001-.045-.004-.126-.024a4.66 4.66 0 01-.336-.097 13.748 13.748 0 01-.322-.108c-.195-.066-.414-.14-.596-.195-.311-.096-.697-.198-1.055-.204-.342-.006-.977.087-1.248.735-.143.344-.188.744-.188 1.105 0 .374.048.773.137 1.149.088.371.225.756.426 1.081.188.306.511.683 1.016.801l.003.001 14.309 3.396c.472.11.766.515.664 1.095l-.288 1.645a3.718 3.718 0 01-.808 1.698l-6.575 7.985a1.05 1.05 0 01-.691.389c-.224.022-.355-.054-.419-.137l-4.618-5.951c-.302-.389-1.033-1.065-1.772-1.57-.372-.254-.798-.501-1.214-.64-.367-.123-1.005-.252-1.529.166l-.05.04-.042.046c-.489.533-.744 1.115-.799 1.712-.054.583.089 1.116.286 1.559.308.692.833 1.312 1.095 1.622.055.064.098.115.125.15l4.618 5.952c1.029 1.325 2.637 1.837 4.217 1.682 1.579-.154 3.185-.971 4.343-2.378l5.226-6.347 2.932 6.06c.736 1.522 2.187 2.336 3.75 2.453 1.556.115 3.244-.45 4.6-1.679l6.732-6.1c.509-.46.778-1.046.774-1.745-.003-.633-.229-1.309-.571-2.022-.441-1.165-1.231-1.815-2.133-1.988-.85-.163-1.692.124-2.216.599l-.069.063-5.563 8.011a.944.944 0 01-.636.219c-.187-.014-.285-.096-.333-.195l-3.798-7.849c-.214-.442-.289-.982-.187-1.564l.215-1.225c.129-.733.692-1.441 1.447-1.788l.084-.022.545-.143 13.635-3.29c1.194-.288 2.161-1.434 2.073-2.69-.021-.297-.131-.657-.252-.976a8.547 8.547 0 00-.497-1.071 5.444 5.444 0 00-.678-.984 2.328 2.328 0 00-.456-.397 1.305 1.305 0 00-.723-.22z" fill="#000"/><path id="Vector (Stroke)_4" d="M153.425 416.088a1.47 1.47 0 01.368.037l13.215 3.042.06.015c1.364.38 2.868.398 4.374.054a6.97 6.97 0 01.774-.235l13.801-3.298c.127-.03.251-.045.371-.046.695-.012 1.245.446 1.294 1.138.057.81-.593 1.634-1.453 1.842l-13.642 3.292-.552.145-.145.037c-1.011.436-1.798 1.374-1.981 2.419l-.215 1.225c-.129.733-.04 1.448.255 2.059l3.798 7.849c.386.798 1.525.883 2.31.172l6.732-6.1c.685-.62 1.663-.669 2.185-.109.523.561.391 1.518-.293 2.138l-6.732 6.1c-2.403 2.177-5.89 1.918-7.072-.526l-3.485-7.202-6.033 7.327c-2.047 2.486-5.641 2.838-7.289.714l-4.618-5.952c-.47-.605-.265-1.563.456-2.14.722-.576 1.688-.553 2.158.052l4.618 5.951c.538.694 1.712.579 2.381-.233l6.575-7.985a4.523 4.523 0 00.981-2.075l.288-1.645c.171-.974-.359-1.813-1.282-2.028l-13.102-3.043c-.791-.184-1.157-.994-.817-1.809.294-.704 1.016-1.181 1.717-1.182z" fill="#B0B8ED"/><path id="Vector (Stroke) (Stroke)_4" d="M188.493 416.738c-.082-1.165-1.033-1.911-2.116-1.895a2.464 2.464 0 00-.549.069l-13.801 3.298a7.57 7.57 0 00-.815.244c-1.371.305-2.719.281-3.926-.056a1.683 1.683 0 00-.096-.024l-13.215-3.042a2.285 2.285 0 00-.561-.057c-1.037.005-2.043.69-2.457 1.681-.247.593-.256 1.235-.006 1.79.253.561.75.977 1.39 1.125l13.102 3.044c.472.11.767.515.665 1.095l-.289 1.645a3.706 3.706 0 01-.807 1.698l-6.576 7.985a1.049 1.049 0 01-.69.389c-.225.022-.355-.054-.42-.137l-4.618-5.952c-.833-1.073-2.35-.953-3.308-.188-.955.763-1.415 2.212-.591 3.274l4.618 5.951c1.028 1.326 2.637 1.838 4.217 1.683 1.578-.154 3.184-.972 4.343-2.378l5.226-6.347 2.931 6.059c.737 1.522 2.187 2.337 3.751 2.453 1.555.116 3.244-.449 4.6-1.678l6.732-6.1-.547-.603-6.732 6.1c-2.402 2.177-5.889 1.918-7.071-.526l-3.485-7.202-6.033 7.327c-2.048 2.486-5.641 2.838-7.29.714l-4.617-5.952c-.47-.605-.266-1.563.456-2.14.722-.576 1.688-.553 2.158.052l4.617 5.951c.539.694 1.713.579 2.382-.233l6.575-7.985a4.534 4.534 0 00.981-2.074l.288-1.645c.171-.975-.359-1.814-1.282-2.029l-13.102-3.043c-.791-.184-1.157-.994-.817-1.809.294-.704 1.016-1.181 1.717-1.182a1.47 1.47 0 01.368.037l13.215 3.042.06.015c1.363.38 2.867.398 4.374.054a6.97 6.97 0 01.774-.235l13.801-3.298c.127-.03.251-.045.371-.046.695-.012 1.245.446 1.294 1.138.057.81-.593 1.635-1.453 1.842l-13.642 3.292-.552.145-.145.037c-1.011.436-1.798 1.374-1.982 2.419l.802.141c.128-.733.691-1.441 1.447-1.788l.084-.022.545-.143 13.634-3.29c1.195-.289 2.162-1.434 2.073-2.69zm-18.799 9.017l.214-1.225.802.141-.215 1.225c-.102.582-.027 1.121.187 1.564l3.797 7.849c.048.099.146.181.334.195.195.014.46-.057.698-.272l6.731-6.1c.906-.821 2.411-1.044 3.327-.06.927.993.566 2.472-.342 3.295l-.547-.603c.685-.62.817-1.577.294-2.138-.522-.56-1.501-.511-2.185.109l-6.732 6.1c-.785.711-1.924.626-2.31-.172l-3.798-7.849c-.295-.611-.384-1.326-.255-2.059z" fill="#000"/></g><path id="Vector 285_2" d="M160.456 420.557l5.09-1.357-5.26-1.188-4.75 1.357 4.92 1.188z" fill="#fff" fill-opacity=".3"/></g><circle id="Ellipse 177_2" cx="168.803" cy="426.922" r="28.65" fill="#fff" fill-opacity=".3" stroke="#000" stroke-width=".814"/><path id="Ellipse 184_2" d="M153.748 409.457c-.258 3.058-1.831 3.76-2.981 3.058-1.149-.702-1.085-2.901.143-4.912 1.228-2.012 3.156-3.073 4.305-2.372 1.149.702 1.044 2.372-1.467 4.226z" fill="#fff"/></g></g><g style="animation:1100ms ease-in-out 0ms infinite alternate float"><g id="Group 1482_3"><g id="Group 1192_3"><g id="Group 1186_3" fill-rule="evenodd" clip-rule="evenodd"><path id="Vector (Stroke)_5" d="M229.873 362.56a.919.919 0 00-.228.022l-8.16 1.878-.037.01c-.842.235-1.771.246-2.701.033a4.389 4.389 0 00-.478-.145l-8.22-3.119a1.018 1.018 0 00-.228-.029c-.43-.007-1.072 1.358-1.102 1.786-.035.5.366 1.009.897 1.137l8.424 2.033.341.09.09.023c.624.269 1.11.848 1.223 1.494l.133.756c.079.453.024.894-.158 1.271l-2.345 4.847c-.239.493-.942.545-1.427.106l-3.439-4.953c-.423-.383-1.446-.508-1.886.683-.411.85-.422 1.373 0 1.756l4.157 3.767c1.484 1.344 3.637 1.184 4.367-.325l2.152-4.447 3.726 4.524c1.264 1.535 3.483 1.753 4.501.441l2.851-3.675c.29-.374 1.4-1.446.464-2.467-.446-.356-1.788.804-2.078 1.178l-2.851 3.675c-.333.428-1.058.357-1.471-.144l-4.06-4.931a2.806 2.806 0 01-.606-1.281l-.178-1.016c-.105-.602.222-1.12.792-1.252l8.835-2.098c.489-.113.721-1.368.511-1.871-.181-.434-1.379.243-1.811.243z" fill="#5E6FDB"/><path id="Vector (Stroke) (Stroke)_5" d="M210.05 361.239l8.219 3.119c.163.039.322.088.479.145.93.213 1.859.201 2.701-.033a.4.4 0 01.037-.01l8.16-1.878a.962.962 0 01.227-.023c.153.001.401-.084.665-.174.486-.165 1.029-.349 1.146-.068.21.503-.022 1.758-.51 1.871l-8.836 2.098c-.57.132-.897.65-.791 1.252l.178 1.016c.079.452.289.897.605 1.281l4.061 4.931c.413.501 1.138.572 1.47.144l2.852-3.675c.29-.374 1.632-1.534 2.077-1.178.839.915.035 1.871-.35 2.329-.044.053-.083.099-.113.138l-2.852 3.675c-1.018 1.312-3.237 1.094-4.501-.441l-3.726-4.524-2.151 4.447c-.731 1.509-2.883 1.669-4.367.325l-4.157-3.767c-.423-.383-.412-.906 0-1.756.439-1.191 1.463-1.066 1.885-.683l3.44 4.953c.485.439 1.188.387 1.426-.106l2.345-4.847c.183-.377.238-.819.158-1.271l-.132-.757c-.114-.645-.6-1.224-1.224-1.494l-.089-.022-.342-.09-8.424-2.033c-.53-.128-.932-.637-.897-1.137.031-.428.673-1.793 1.102-1.786.074.001.151.01.229.029zm-.223-.531c.113.001.226.015.34.042l.031.008 8.22 3.12c.16.039.317.087.472.142.846.189 1.679.174 2.424-.034a.566.566 0 01.059-.015l8.16-1.879c.114-.026.228-.037.341-.035a.544.544 0 00.078-.015c.056-.013.124-.033.207-.06.055-.017.124-.041.199-.066.121-.041.256-.087.368-.121a2.48 2.48 0 01.651-.126c.212-.003.604.054.771.454.088.212.116.46.116.682 0 .231-.029.478-.084.71a2.276 2.276 0 01-.263.667c-.117.19-.316.422-.628.495l-.001.001-8.836 2.097c-.292.068-.473.318-.411.676l.179 1.016c.063.36.233.726.498 1.048l4.06 4.931c.124.15.287.227.427.24.139.014.219-.033.259-.084l2.852-3.675c.186-.24.637-.658 1.094-.97.229-.157.492-.309.749-.395.227-.076.621-.156.945.103l.03.024.027.029c.301.329.459.688.493 1.057.033.36-.055.689-.177.962-.19.428-.514.811-.676 1.002-.034.04-.061.071-.077.093l-2.852 3.675c-.635.819-1.628 1.135-2.604 1.039-.975-.095-1.967-.6-2.682-1.469l-3.227-3.919-1.81 3.742c-.455.94-1.35 1.443-2.316 1.515-.96.071-2.003-.278-2.841-1.037l-4.156-3.766a1.392 1.392 0 01-.478-1.078c.002-.391.141-.808.352-1.249.273-.719.761-1.121 1.317-1.227a1.627 1.627 0 011.369.37l.042.038 3.436 4.947a.573.573 0 00.392.135c.116-.008.177-.059.206-.12l2.345-4.847a1.58 1.58 0 00.115-.965l-.132-.757c-.08-.452-.427-.89-.894-1.104l-.052-.014-.336-.088-8.419-2.031c-.738-.178-1.335-.886-1.281-1.661.013-.184.081-.406.156-.603.08-.211.186-.443.307-.661.119-.215.262-.435.419-.608a1.37 1.37 0 01.281-.245.808.808 0 01.446-.136z" fill="#000"/><path id="Vector (Stroke)_6" d="M230.553 361.367a.916.916 0 00-.227.022l-8.16 1.879a2.044 2.044 0 00-.037.009c-.842.235-1.771.246-2.701.034a4.178 4.178 0 00-.478-.145l-8.522-2.037a1.096 1.096 0 00-.229-.029c-.43-.007-.769.276-.799.703-.036.5.366 1.01.897 1.138l8.424 2.033.341.089.089.023c.624.269 1.11.848 1.224 1.494l.132.756c.08.453.025.894-.157 1.271l-2.345 4.847c-.239.493-.942.546-1.427.106l-4.157-3.766c-.423-.383-1.027-.413-1.349-.067-.323.346-.242.937.181 1.32l4.157 3.766c1.484 1.345 3.637 1.185 4.367-.324l2.152-4.448 3.725 4.525c1.264 1.535 3.484 1.752 4.501.441l2.852-3.675c.29-.374.164-.966-.282-1.322-.446-.356-1.042-.342-1.332.032l-2.852 3.675c-.332.429-1.057.358-1.47-.144l-4.06-4.931a2.786 2.786 0 01-.606-1.281l-.178-1.016c-.106-.602.222-1.12.791-1.252l8.091-1.879c.489-.114.714-.614.504-1.118-.181-.434-.627-.729-1.06-.729z" fill="#B0B8ED"/><path id="Vector (Stroke) (Stroke)_6" d="M208.899 361.768c.051-.719.638-1.18 1.307-1.17.112.001.226.016.339.043l8.522 2.036c.171.041.339.091.503.151.847.188 1.679.173 2.424-.035l.06-.015 8.16-1.878c.116-.027.232-.038.346-.035.641.003 1.262.426 1.518 1.038.152.366.158.763.004 1.105a1.235 1.235 0 01-.859.695l-8.09 1.879c-.292.068-.474.318-.411.677l.178 1.015c.064.361.233.727.499 1.049l4.06 4.931a.655.655 0 00.427.24c.138.013.219-.033.259-.085l2.851-3.675c.515-.663 1.452-.589 2.043-.116.59.471.874 1.366.365 2.021l-2.851 3.675c-.635.819-1.629 1.135-2.604 1.04-.975-.096-1.967-.601-2.682-1.469l-3.227-3.919-1.811 3.741c-.454.94-1.35 1.443-2.315 1.515-.961.071-2.003-.277-2.841-1.036l-4.157-3.767.337-.372 4.157 3.766c1.484 1.345 3.637 1.185 4.367-.324l2.152-4.448 3.726 4.525c1.264 1.535 3.483 1.752 4.501.44l2.851-3.675c.29-.373.164-.965-.282-1.321-.445-.356-1.042-.342-1.332.032l-2.851 3.675c-.333.428-1.058.357-1.471-.144l-4.06-4.931a2.796 2.796 0 01-.606-1.281l-.178-1.016c-.105-.602.222-1.12.792-1.252l8.091-1.879c.488-.114.714-.614.504-1.118-.181-.434-.627-.729-1.06-.729a.907.907 0 00-.227.022l-8.161 1.879a2.044 2.044 0 01-.037.009c-.842.235-1.77.246-2.701.034a4.178 4.178 0 00-.478-.145l-8.522-2.037a1.088 1.088 0 00-.229-.029c-.429-.007-.769.276-.799.703-.035.5.366 1.01.897 1.138l8.424 2.033.341.089.09.023c.624.269 1.11.848 1.223 1.494l-.495.087c-.079-.453-.427-.89-.893-1.105l-.052-.013-.337-.088-8.419-2.032c-.738-.178-1.335-.885-1.28-1.661zm11.609 5.568l-.133-.756-.495.087.133.756c.063.359.017.693-.115.966l-2.345 4.846c-.03.062-.09.112-.206.121a.596.596 0 01-.431-.168l-4.157-3.767c-.559-.506-1.488-.644-2.054-.037-.573.614-.349 1.527.211 2.035l.337-.372c-.422-.383-.503-.974-.181-1.32.323-.346.927-.316 1.35.067l4.157 3.766c.484.44 1.188.387 1.426-.106l2.345-4.847a2.08 2.08 0 00.158-1.271z" fill="#000"/></g><path id="Vector 285_3" d="M226.212 364.126l-3.143-.838 3.248-.733 2.933.838-3.038.733z" fill="#fff" fill-opacity=".3"/></g><circle id="Ellipse 177_3" r="17.536" transform="matrix(-1 0 0 1 221.057 368.057)" fill="#fff" fill-opacity=".3" stroke="#000" stroke-width=".814"/><path id="Ellipse 184_3" d="M230.354 357.272c.159 1.889 1.131 2.322 1.841 1.889.709-.434.67-1.792-.088-3.034-.759-1.242-1.949-1.898-2.659-1.464-.709.433-.644 1.464.906 2.609z" fill="#fff"/></g></g><g style="animation:900ms ease-in-out 0ms infinite alternate float"><g id="Group 1482_4"><g id="Group 1192_4"><g id="Group 1186_4" fill-rule="evenodd" clip-rule="evenodd"><path id="Vector (Stroke)_7" d="M152.127 314.445a.92.92 0 01.228.023l8.16 1.878.037.01c.842.234 1.771.245 2.701.033.156-.058.316-.106.478-.145l8.22-3.119c.078-.019.154-.028.228-.029.43-.007 1.072 1.358 1.102 1.786.035.5-.366 1.009-.897 1.137l-8.424 2.033-.341.089-.09.023c-.624.269-1.11.849-1.223 1.494l-.133.757c-.079.452-.024.894.158 1.271l2.345 4.847c.239.493.942.545 1.427.106l3.439-4.953c.423-.383 1.446-.509 1.886.682.411.851.422 1.374 0 1.757l-4.157 3.767c-1.484 1.344-3.637 1.184-4.367-.325l-2.152-4.447-3.726 4.524c-1.264 1.535-3.483 1.752-4.501.441l-2.851-3.675c-.29-.374-1.4-1.446-.464-2.467.446-.356 1.788.804 2.078 1.177l2.851 3.675c.333.429 1.058.358 1.471-.144l4.06-4.93c.316-.384.526-.829.606-1.282l.178-1.015c.105-.602-.222-1.12-.792-1.253l-8.835-2.097c-.489-.113-.721-1.368-.511-1.871.181-.435 1.379.242 1.811.242z" fill="#5E6FDB"/><path id="Vector (Stroke) (Stroke)_7" d="M171.95 313.124l-8.219 3.12a4.194 4.194 0 00-.479.145c-.93.212-1.859.201-2.701-.034a2.044 2.044 0 00-.037-.009l-8.16-1.878a.867.867 0 00-.227-.023c-.153 0-.401-.084-.665-.174-.486-.165-1.029-.35-1.146-.068-.21.503.022 1.758.51 1.871l8.836 2.097c.57.133.897.651.791 1.253l-.178 1.015a2.792 2.792 0 01-.605 1.282l-4.061 4.93c-.413.502-1.138.573-1.47.144l-2.852-3.675c-.29-.373-1.632-1.533-2.077-1.177-.839.915-.035 1.871.35 2.328.044.054.083.1.113.139l2.852 3.675c1.018 1.311 3.237 1.094 4.501-.441l3.726-4.525 2.151 4.448c.731 1.509 2.883 1.669 4.367.325l4.157-3.767c.423-.383.412-.906 0-1.757-.439-1.191-1.463-1.065-1.885-.682l-3.44 4.953c-.485.439-1.188.387-1.426-.106l-2.345-4.847a2.073 2.073 0 01-.158-1.271l.132-.757c.114-.645.6-1.225 1.224-1.494l.089-.023.342-.089 8.424-2.033c.53-.128.932-.637.897-1.137-.031-.428-.673-1.793-1.102-1.786-.074 0-.151.01-.229.028zm.223-.531a1.591 1.591 0 00-.34.043l-.031.007-8.22 3.12a4.84 4.84 0 00-.472.143c-.846.188-1.679.173-2.424-.034l-.059-.016-8.16-1.878a1.417 1.417 0 00-.341-.035c-.004-.001-.028-.003-.078-.015a2.584 2.584 0 01-.207-.06c-.055-.017-.124-.041-.199-.066-.121-.041-.256-.087-.368-.121a2.48 2.48 0 00-.651-.126c-.212-.004-.604.054-.771.454a1.817 1.817 0 00-.116.682c0 .231.029.478.084.71.054.229.139.466.263.667.117.189.316.422.628.495h.001l8.836 2.098c.292.067.473.317.411.676l-.179 1.016c-.063.36-.233.726-.498 1.048l-4.06 4.931a.653.653 0 01-.427.24c-.139.014-.219-.033-.259-.085l-2.852-3.675c-.186-.24-.637-.657-1.094-.969a3.165 3.165 0 00-.749-.395c-.227-.076-.621-.156-.945.103l-.03.024-.027.029c-.301.329-.459.688-.493 1.056-.033.361.055.69.177.963.19.428.514.811.676 1.002.034.04.061.071.077.093l2.852 3.675c.635.818 1.628 1.134 2.604 1.039.975-.096 1.967-.6 2.682-1.469l3.227-3.919 1.81 3.742c.455.94 1.35 1.443 2.316 1.514.96.072 2.003-.277 2.841-1.036l4.156-3.767a1.39 1.39 0 00.478-1.077c-.002-.391-.141-.809-.352-1.249-.273-.719-.761-1.121-1.317-1.228a1.63 1.63 0 00-1.369.37l-.042.039-3.436 4.947a.578.578 0 01-.392.135c-.116-.008-.177-.059-.206-.12l-2.345-4.847a1.582 1.582 0 01-.115-.966l.132-.756c.08-.453.427-.89.894-1.104l.052-.014.336-.088 8.419-2.032c.738-.178 1.335-.885 1.281-1.661a2.306 2.306 0 00-.156-.603 5.305 5.305 0 00-.307-.661 3.376 3.376 0 00-.419-.608 1.434 1.434 0 00-.281-.245.824.824 0 00-.446-.136z" fill="#000"/><path id="Vector (Stroke)_8" d="M151.447 313.253a.916.916 0 01.227.022l8.16 1.879c.013.002.025.006.037.009.842.235 1.771.246 2.701.034.156-.058.316-.107.478-.145l8.522-2.037c.079-.019.155-.028.229-.029.43-.007.769.276.799.703.036.5-.366 1.009-.897 1.137l-8.424 2.033-.341.09-.089.023c-.624.269-1.11.848-1.224 1.494l-.132.756c-.08.453-.025.894.157 1.271l2.345 4.847c.239.493.942.545 1.427.106l4.157-3.767c.423-.383 1.027-.413 1.349-.067.323.346.242.937-.181 1.321l-4.157 3.766c-1.484 1.345-3.637 1.185-4.367-.325l-2.152-4.447-3.725 4.524c-1.264 1.536-3.484 1.753-4.501.441l-2.852-3.675c-.29-.373-.164-.965.282-1.321.446-.356 1.042-.342 1.332.032l2.852 3.675c.332.428 1.057.357 1.47-.144l4.06-4.931a2.79 2.79 0 00.606-1.281l.178-1.016c.106-.602-.222-1.12-.791-1.252l-8.091-1.88c-.489-.113-.714-.613-.504-1.117.181-.434.627-.729 1.06-.729z" fill="#B0B8ED"/><path id="Vector (Stroke) (Stroke)_8" d="M173.101 313.654c-.051-.72-.638-1.18-1.307-1.17a1.52 1.52 0 00-.339.042l-8.522 2.037a4.553 4.553 0 00-.503.151c-.847.188-1.679.173-2.424-.035a.657.657 0 00-.06-.015l-8.16-1.879a1.463 1.463 0 00-.346-.035c-.641.003-1.262.426-1.518 1.039a1.388 1.388 0 00-.004 1.105c.157.346.464.603.859.695l8.09 1.879c.292.068.474.318.411.676l-.178 1.016c-.064.36-.233.726-.499 1.049l-4.06 4.93a.646.646 0 01-.427.24c-.138.014-.219-.033-.259-.084l-2.851-3.675c-.515-.663-1.452-.589-2.043-.117-.59.471-.874 1.366-.365 2.022l2.851 3.675c.635.819 1.629 1.135 2.604 1.039.975-.095 1.967-.6 2.682-1.468l3.227-3.919 1.811 3.741c.454.94 1.35 1.443 2.315 1.515.961.071 2.003-.278 2.841-1.037l4.157-3.766-.337-.373-4.157 3.767c-1.484 1.345-3.637 1.184-4.367-.325l-2.152-4.447-3.726 4.524c-1.264 1.535-3.483 1.753-4.501.441l-2.851-3.675c-.29-.374-.164-.965.282-1.321.445-.356 1.042-.342 1.332.032l2.851 3.675c.333.428 1.058.357 1.471-.144l4.06-4.931c.316-.384.526-.828.606-1.281l.178-1.016c.105-.602-.222-1.12-.792-1.252l-8.091-1.88c-.488-.113-.714-.613-.504-1.117.181-.434.627-.729 1.06-.729a.907.907 0 01.227.022l8.161 1.878a.695.695 0 01.037.01c.842.235 1.77.246 2.701.034.156-.058.316-.107.478-.146l8.522-2.036c.078-.019.155-.028.229-.029.429-.007.769.276.799.703.035.5-.366 1.009-.897 1.137l-8.424 2.033-.341.09-.09.023c-.624.269-1.11.848-1.223 1.494l.495.086c.079-.452.427-.89.893-1.104l.052-.013.337-.089 8.419-2.031c.738-.178 1.335-.886 1.28-1.661zm-11.609 5.568l.133-.756.495.086-.133.757a1.58 1.58 0 00.115.965l2.345 4.847c.03.061.09.112.206.121a.596.596 0 00.431-.168l4.157-3.767c.559-.507 1.488-.644 2.054-.037.573.614.349 1.527-.211 2.035l-.337-.373c.422-.383.503-.974.181-1.32-.323-.346-.927-.316-1.35.067l-4.157 3.767c-.484.439-1.188.387-1.426-.106l-2.345-4.847a2.08 2.08 0 01-.158-1.271z" fill="#000"/></g><path id="Vector 285_4" d="M155.788 316.012l3.143-.838-3.248-.733-2.933.838 3.038.733z" fill="#fff" fill-opacity=".3"/></g><circle id="Ellipse 177_4" cx="160.943" cy="319.943" r="17.536" fill="#fff" fill-opacity=".3" stroke="#000" stroke-width=".814"/><path id="Ellipse 184_4" d="M151.646 309.158c-.159 1.888-1.131 2.322-1.841 1.888-.709-.433-.67-1.791.088-3.033.759-1.242 1.949-1.898 2.659-1.464.709.433.644 1.464-.906 2.609z" fill="#fff"/></g></g><g style="animation:1800ms ease-in-out 0ms infinite alternate float"><g id="Group 1482_5"><g id="Group 1192_5"><g id="Group 1186_5" fill-rule="evenodd" clip-rule="evenodd"><path id="Vector (Stroke)_9" d="M236.955 271.731a1.47 1.47 0 00-.368.036l-13.215 3.042-.06.015c-1.364.38-2.868.398-4.374.055a6.719 6.719 0 00-.775-.235l-13.311-5.052a1.66 1.66 0 00-.37-.047c-.696-.011-1.735 2.2-1.784 2.892-.057.81.593 1.635 1.452 1.842l13.643 3.292.552.145.145.037c1.011.436 1.798 1.374 1.981 2.42l.215 1.225c.129.733.04 1.447-.255 2.058l-3.798 7.849c-.386.799-1.525.883-2.31.172l-5.57-8.021c-.685-.62-2.342-.823-3.054 1.106-.666 1.377-.684 2.224 0 2.845l6.732 6.099c2.403 2.178 5.89 1.918 7.072-.526l3.485-7.202 6.033 7.327c2.047 2.486 5.641 2.838 7.289.714l4.618-5.951c.47-.606 2.266-2.342.751-3.995-.722-.577-2.895 1.301-3.365 1.907l-4.618 5.951c-.538.694-1.712.579-2.381-.233l-6.575-7.985a4.532 4.532 0 01-.981-2.075l-.288-1.645c-.171-.975.359-1.814 1.282-2.028l14.308-3.396c.791-.184 1.167-2.216.827-3.031-.293-.704-2.232.393-2.933.393z" fill="#5E6FDB"/><path id="Vector (Stroke) (Stroke)_9" d="M204.852 269.592l13.312 5.052c.262.063.521.141.774.235 1.507.343 3.011.325 4.374-.055l.06-.015 13.215-3.042a1.47 1.47 0 01.368-.036c.247 0 .649-.136 1.077-.282.787-.268 1.666-.566 1.856-.111.34.815-.035 2.847-.826 3.031l-14.309 3.396c-.923.214-1.453 1.053-1.282 2.028l.288 1.645c.129.733.469 1.453.981 2.075l6.575 7.985c.669.812 1.843.927 2.381.233l4.618-5.951c.47-.606 2.643-2.484 3.365-1.907 1.358 1.481.057 3.029-.566 3.771a7.239 7.239 0 00-.185.224l-4.618 5.951c-1.648 2.124-5.242 1.772-7.289-.714l-6.033-7.327-3.485 7.203c-1.182 2.443-4.669 2.703-7.072.525l-6.732-6.099c-.684-.621-.666-1.468 0-2.845.712-1.929 2.369-1.726 3.054-1.106l5.57 8.021c.785.711 1.924.627 2.31-.172l3.798-7.849c.295-.61.384-1.325.255-2.058l-.215-1.225c-.183-1.046-.97-1.984-1.981-2.42a10.343 10.343 0 01-.145-.037l-.552-.145-13.642-3.292c-.86-.207-1.51-1.032-1.453-1.841.049-.693 1.089-2.904 1.784-2.893.12.002.244.017.37.047zm-.36-.86c.182.002.366.025.55.069l.05.012 13.313 5.052c.259.064.513.142.763.232 1.37.305 2.719.28 3.926-.056a3.39 3.39 0 01.096-.025l13.215-3.042c.184-.042.369-.06.551-.057.007-.001.046-.004.127-.023.09-.022.201-.054.335-.098.089-.028.201-.066.323-.107.195-.066.413-.141.596-.196.31-.095.697-.198 1.054-.204.343-.006.978.087 1.248.736.143.343.188.743.188 1.104.001.374-.047.773-.136 1.149a3.74 3.74 0 01-.426 1.081c-.189.307-.512.683-1.017.802h-.002l-14.309 3.396c-.472.11-.767.515-.665 1.095l.289 1.645c.102.584.377 1.177.807 1.699l6.575 7.985c.2.242.465.366.691.388.225.022.355-.053.42-.137l4.618-5.951c.301-.389 1.032-1.065 1.771-1.57.372-.254.798-.501 1.214-.64.367-.123 1.006-.252 1.53.166l.049.04.043.046c.488.533.743 1.115.798 1.712.054.583-.089 1.116-.285 1.559-.308.692-.834 1.313-1.096 1.622-.054.064-.098.115-.125.151l-4.618 5.951c-1.028 1.325-2.637 1.837-4.217 1.683-1.578-.155-3.185-.972-4.343-2.379l-5.226-6.346-2.932 6.059c-.736 1.522-2.186 2.336-3.75 2.453-1.555.115-3.244-.45-4.6-1.679l-6.732-6.1a2.26 2.26 0 01-.774-1.745c.003-.633.23-1.309.571-2.022.442-1.165 1.232-1.815 2.133-1.988.85-.163 1.692.125 2.216.599l.069.063 5.563 8.011a.946.946 0 00.636.219c.188-.014.286-.096.334-.195l3.797-7.849c.214-.442.289-.982.187-1.564l-.215-1.225c-.128-.733-.691-1.441-1.447-1.788l-.084-.022-.545-.143-13.634-3.29c-1.195-.288-2.162-1.434-2.074-2.69.021-.297.132-.657.253-.976.129-.341.301-.717.497-1.07.192-.348.423-.704.678-.985a2.3 2.3 0 01.456-.397c.172-.11.421-.224.722-.22z" fill="#000"/><path id="Vector (Stroke)_10" d="M238.058 269.8a1.477 1.477 0 00-.369.036l-13.214 3.042-.06.015c-1.364.38-2.868.398-4.374.055a6.779 6.779 0 00-.775-.235l-13.801-3.298a1.675 1.675 0 00-.37-.047c-.696-.011-1.246.446-1.295 1.138-.057.81.594 1.635 1.453 1.842l13.642 3.292.553.145.144.037c1.011.436 1.798 1.374 1.982 2.42l.215 1.225c.128.733.04 1.447-.256 2.058l-3.798 7.849c-.386.799-1.525.883-2.31.172l-6.732-6.1c-.684-.62-1.663-.669-2.185-.108-.522.56-.391 1.517.294 2.138l6.732 6.099c2.403 2.178 5.889 1.918 7.071-.526l3.485-7.202 6.034 7.327c2.047 2.486 5.641 2.838 7.289.714l4.618-5.951c.469-.606.265-1.564-.457-2.14-.722-.577-1.688-.554-2.157.051l-4.618 5.952c-.539.694-1.713.579-2.381-.233l-6.576-7.985a4.53 4.53 0 01-.98-2.075l-.289-1.645c-.171-.975.359-1.814 1.282-2.028l13.102-3.044c.792-.183 1.157-.993.817-1.809-.293-.703-1.016-1.181-1.716-1.181z" fill="#B0B8ED"/><path id="Vector (Stroke) (Stroke)_10" d="M202.989 270.449c.082-1.164 1.034-1.911 2.117-1.894.181.002.365.025.548.069l13.801 3.298c.277.066.549.147.815.244 1.371.305 2.719.28 3.926-.056l.096-.025 13.215-3.042c.187-.043.376-.061.561-.057 1.038.005 2.043.69 2.457 1.682.247.593.257 1.235.007 1.789a1.999 1.999 0 01-1.39 1.126l-13.103 3.043c-.472.11-.766.515-.664 1.095l.288 1.645c.103.584.378 1.177.808 1.699l6.575 7.984c.2.243.464.367.691.389.224.022.354-.053.419-.137l4.618-5.951c.833-1.074 2.351-.954 3.308-.189.955.763 1.416 2.213.592 3.274l-4.618 5.952c-1.029 1.325-2.637 1.837-4.217 1.683-1.579-.155-3.185-.972-4.343-2.379l-5.226-6.346-2.932 6.059c-.736 1.522-2.187 2.336-3.75 2.453-1.556.115-3.244-.45-4.6-1.679l-6.732-6.1.546-.602 6.732 6.099c2.403 2.178 5.889 1.918 7.072-.525l3.484-7.203 6.034 7.327c2.047 2.486 5.641 2.838 7.289.714l4.618-5.951c.469-.605.265-1.564-.457-2.14-.722-.577-1.688-.554-2.157.052l-4.618 5.951c-.538.694-1.712.579-2.381-.233l-6.575-7.985a4.522 4.522 0 01-.981-2.075l-.289-1.645c-.171-.975.359-1.814 1.282-2.028l13.103-3.044c.791-.183 1.156-.993.816-1.809-.293-.703-1.016-1.181-1.716-1.181a1.465 1.465 0 00-.368.036l-13.215 3.042-.06.015c-1.364.38-2.868.398-4.374.055a6.779 6.779 0 00-.775-.235l-13.801-3.298a1.667 1.667 0 00-.37-.047c-.696-.011-1.246.446-1.294 1.139-.057.809.593 1.634 1.452 1.841l13.642 3.292.553.145.145.037c1.011.436 1.798 1.374 1.981 2.42l-.801.14c-.129-.733-.692-1.441-1.447-1.788l-.084-.022-.545-.143-13.635-3.29c-1.194-.288-2.161-1.434-2.073-2.69zm18.8 9.018l-.215-1.225-.801.14.215 1.225c.102.582.027 1.122-.187 1.564l-3.798 7.849c-.048.099-.146.181-.333.195-.196.015-.46-.056-.698-.272l-6.732-6.1c-.906-.82-2.41-1.043-3.327-.06-.926.994-.565 2.473.343 3.295l.546-.602c-.685-.621-.816-1.578-.294-2.138.523-.561 1.501-.512 2.186.108l6.732 6.1c.785.711 1.923.627 2.31-.172l3.797-7.849c.296-.61.384-1.325.256-2.058z" fill="#000"/></g><path id="Vector 285_5" d="M231.026 274.268l-5.089-1.357 5.259-1.187 4.75 1.357-4.92 1.187z" fill="#fff" fill-opacity=".3"/></g><circle id="Ellipse 177_5" r="28.65" transform="matrix(-1 0 0 1 222.679 280.634)" fill="#fff" fill-opacity=".3" stroke="#000" stroke-width=".814"/><path id="Ellipse 184_5" d="M237.734 263.168c.257 3.059 1.831 3.761 2.98 3.059s1.086-2.901-.143-4.913c-1.228-2.011-3.155-3.072-4.304-2.371-1.15.702-1.045 2.371 1.467 4.225z" fill="#fff"/></g></g><g style="animation:1000ms ease-in-out 0ms infinite alternate float"><g id="Group 1482_6"><g id="Group 1192_6"><g id="Group 1186_6" fill-rule="evenodd" clip-rule="evenodd"><path id="Vector (Stroke)_11" d="M177.734 223.865a.855.855 0 01.214.022l7.706 1.773.035.009c.795.222 1.672.232 2.55.032a4.2 4.2 0 01.452-.137l7.762-2.946c.073-.017.146-.026.216-.027.405-.007 1.011 1.283 1.04 1.687.033.472-.346.953-.847 1.074l-7.955 1.919-.322.085-.084.021c-.59.254-1.049.801-1.156 1.411l-.125.714a1.97 1.97 0 00.149 1.201l2.214 4.576c.226.466.89.515 1.347.101l3.248-4.677c.4-.362 1.366-.48 1.781.644.388.804.399 1.297 0 1.659l-3.926 3.557c-1.401 1.269-3.434 1.118-4.123-.307l-2.032-4.2-3.518 4.273c-1.194 1.449-3.289 1.655-4.25.416l-2.693-3.47c-.274-.353-1.322-1.365-.438-2.329.421-.337 1.688.758 1.962 1.111l2.693 3.47c.314.405.998.338 1.388-.135l3.834-4.657c.299-.362.497-.782.572-1.209l.168-.959c.1-.569-.209-1.058-.747-1.183l-8.344-1.98c-.461-.108-.68-1.292-.482-1.768.171-.41 1.302.23 1.711.229z" fill="#5E6FDB"/><path id="Vector (Stroke) (Stroke)_11" d="M196.452 222.618l-7.762 2.946a4.2 4.2 0 00-.452.137c-.878.2-1.755.19-2.55-.032l-.035-.009-7.706-1.773a.855.855 0 00-.214-.022c-.144.001-.378-.079-.628-.164-.459-.156-.972-.33-1.082-.065-.199.476.02 1.66.482 1.768l8.343 1.98c.538.125.847.614.748 1.183l-.169.959a2.632 2.632 0 01-.572 1.209l-3.834 4.657c-.39.473-1.074.54-1.388.136l-2.693-3.471c-.274-.353-1.541-1.448-1.962-1.111-.792.863-.033 1.766.331 2.198.042.05.079.094.107.131l2.693 3.47c.961 1.239 3.056 1.033 4.25-.416l3.518-4.272 2.032 4.199c.689 1.425 2.722 1.576 4.124.307l3.925-3.557c.399-.362.388-.855 0-1.659-.415-1.124-1.381-1.006-1.78-.644l-3.248 4.677c-.458.414-1.122.365-1.347-.101l-2.215-4.576a1.97 1.97 0 01-.149-1.201l.125-.714c.107-.61.566-1.157 1.156-1.411l.084-.021.322-.085 7.955-1.919c.501-.121.88-.602.847-1.074-.028-.404-.635-1.694-1.04-1.687a1.03 1.03 0 00-.216.027zm.21-.501a1.402 1.402 0 00-.32.04l-.03.007-7.763 2.946c-.15.037-.299.082-.444.135-.8.178-1.586.164-2.29-.033a.916.916 0 00-.056-.014l-7.705-1.774a1.366 1.366 0 00-.322-.033.574.574 0 01-.074-.014 2.552 2.552 0 01-.195-.056l-.188-.063a10.737 10.737 0 00-.348-.114 2.29 2.29 0 00-.615-.119c-.199-.004-.57.051-.727.429-.084.2-.11.433-.11.644 0 .218.028.451.08.67.051.216.131.44.248.63.11.179.298.398.593.467l.001.001 8.344 1.98c.275.064.447.3.387.639l-.168.959c-.06.34-.22.686-.471.99l-3.834 4.656a.616.616 0 01-.403.227c-.131.013-.207-.032-.244-.08l-2.693-3.47c-.176-.227-.602-.621-1.033-.916a3.003 3.003 0 00-.708-.373c-.214-.072-.586-.147-.892.097l-.029.023-.024.027c-.285.311-.434.65-.466.998-.031.34.052.651.167.909.179.404.486.766.638.946.032.037.057.067.073.088l2.693 3.47c.6.773 1.538 1.071 2.459.981.92-.09 1.857-.566 2.532-1.387l3.048-3.7 1.709 3.533c.429.887 1.275 1.362 2.187 1.43.907.068 1.891-.262 2.682-.979l3.925-3.556c.297-.269.454-.61.452-1.018-.002-.369-.134-.763-.333-1.179-.258-.679-.718-1.059-1.244-1.159a1.535 1.535 0 00-1.292.349l-.04.036-3.244 4.672a.558.558 0 01-.371.128c-.109-.009-.167-.056-.194-.114l-2.215-4.577a1.494 1.494 0 01-.109-.912l.126-.714c.075-.428.403-.84.843-1.043l.049-.012.318-.084 7.95-1.918c.697-.168 1.261-.836 1.209-1.569a2.144 2.144 0 00-.147-.569 4.872 4.872 0 00-.29-.624 3.102 3.102 0 00-.395-.574 1.34 1.34 0 00-.266-.232.759.759 0 00-.421-.128z" fill="#000"/><path id="Vector (Stroke)_12" d="M177.09 222.74a.867.867 0 01.215.021l7.705 1.773.035.009c.795.222 1.672.233 2.551.032.147-.054.298-.1.451-.137l8.048-1.923a.967.967 0 01.216-.027c.405-.007.726.26.754.664.034.472-.346.953-.847 1.074l-7.954 1.919-.323.085-.084.021c-.589.254-1.048.801-1.155 1.411l-.126.714c-.075.428-.023.845.149 1.201l2.215 4.577c.225.465.889.514 1.347.1l3.925-3.557c.399-.362.97-.39 1.275-.063.304.326.227.884-.172 1.246l-3.925 3.557c-1.401 1.27-3.434 1.118-4.124-.307l-2.032-4.199-3.518 4.272c-1.193 1.45-3.289 1.655-4.25.416l-2.693-3.47c-.274-.353-.154-.912.267-1.248.42-.336.984-.323 1.258.03l2.692 3.471c.314.404.999.337 1.389-.136l3.834-4.656a2.65 2.65 0 00.572-1.21l.168-.959c.1-.569-.21-1.058-.748-1.183l-7.64-1.775c-.461-.107-.674-.579-.476-1.055.171-.41.592-.688 1.001-.688z" fill="#B0B8ED"/><path id="Vector (Stroke) (Stroke)_12" d="M197.539 223.118c-.048-.679-.603-1.114-1.234-1.104a1.402 1.402 0 00-.32.04l-8.048 1.923c-.161.038-.32.086-.475.142-.799.178-1.585.164-2.289-.033l-.056-.014-7.706-1.774a1.35 1.35 0 00-.327-.033c-.605.003-1.191.403-1.433.981-.144.345-.149.72-.003 1.043.147.328.437.57.81.656l7.64 1.775c.275.064.447.3.388.639l-.169.959c-.059.34-.22.686-.47.99l-3.834 4.656a.614.614 0 01-.403.227c-.131.013-.207-.032-.245-.08l-2.693-3.47c-.485-.626-1.37-.556-1.928-.11-.557.445-.826 1.29-.345 1.909l2.692 3.47c.6.773 1.538 1.072 2.459.981.921-.09 1.857-.566 2.533-1.386l3.047-3.701 1.709 3.533c.43.887 1.275 1.362 2.187 1.43.907.068 1.892-.262 2.683-.978l3.925-3.557-.319-.352-3.925 3.557c-1.401 1.27-3.434 1.118-4.124-.307l-2.031-4.199-3.519 4.272c-1.193 1.45-3.289 1.655-4.25.416l-2.693-3.47c-.273-.353-.154-.912.267-1.248.421-.336.984-.323 1.258.03l2.692 3.471c.314.404.999.337 1.389-.136l3.834-4.656a2.65 2.65 0 00.572-1.21l.168-.959c.1-.569-.209-1.058-.748-1.183l-7.64-1.775c-.461-.107-.674-.579-.476-1.055.171-.41.593-.688 1.001-.688a.867.867 0 01.215.021l7.705 1.773.035.009c.796.222 1.673.233 2.551.032.148-.054.298-.1.452-.137l8.047-1.923a.967.967 0 01.216-.027c.405-.007.726.26.755.664.033.472-.346.953-.848 1.074l-7.954 1.919-.322.085-.085.021c-.589.254-1.048.801-1.155 1.411l.467.082c.075-.427.403-.84.844-1.043l.049-.012.318-.084 7.95-1.918c.696-.168 1.26-.836 1.209-1.569zm-10.962 5.258l.125-.714.467.082-.125.714c-.06.34-.016.654.109.912l2.214 4.577c.028.058.085.106.194.114a.562.562 0 00.407-.159l3.926-3.557c.528-.478 1.405-.608 1.94-.035.54.58.329 1.442-.2 1.922l-.319-.352c.4-.362.476-.92.172-1.246-.305-.327-.875-.299-1.275.063l-3.925 3.557c-.458.414-1.122.365-1.347-.1l-2.214-4.577a1.961 1.961 0 01-.149-1.201z" fill="#000"/></g><path id="Vector 285_6" d="M181.19 225.345l2.968-.791-3.067-.693-2.77.792 2.869.692z" fill="#fff" fill-opacity=".3"/></g><circle id="Ellipse 177_6" cx="186.057" cy="229.057" r="16.536" fill="#fff" fill-opacity=".3" stroke="#000" stroke-width=".814"/><path id="Ellipse 184_6" d="M177.279 218.873c-.15 1.783-1.068 2.193-1.738 1.783-.67-.409-.633-1.691.083-2.864.716-1.173 1.84-1.792 2.51-1.383.671.409.609 1.383-.855 2.464z" fill="#fff"/></g></g><g id="Group 1607" stroke="#000" stroke-width=".814"><path id="Union" d="M244.35 107.918l-.038.013-.035.02a37.133 37.133 0 01-2.922 1.523l-.072.033-.054.058-102.005 108.927-.05.054-.029.068-11.906 28.639-.333-.195-2.082-1.212a20167.296 20167.296 0 00-30.392-17.671c-16.855-9.78-34.266-19.839-36.381-20.89-5.036-2.502-8.266-8.441-8.266-17.24 0-14.001 8.198-30.57 19.376-40.59l.277-.249-.223-.298c-2.796-3.737-4.428-9.113-4.428-15.917 0-9.958 3.498-21.019 9.173-30.848 5.676-9.83 13.506-18.39 22.13-23.369a38.413 38.413 0 013.646-1.862l.167-.073.056-.173c8.991-27.77 28.75-54.837 51.64-68.052 16.378-9.456 31.03-9.908 41.261-3.155 5.987 3.952 10.51 10.399 12.992 19.059l.194.676.489-.505c3.899-4.029 8.142-7.452 12.575-10.011 10.062-5.81 19.001-5.965 25.138-1.69l.014.01.015.009 67.285 38.777v33.44l-67.212 22.694z" fill="#B0B8ED"/><path id="Union_2" d="M241.355 109.474l-.072.033-.054.058-102.005 108.927-.05.054-.029.068-11.906 28.639-.333-.195-2.082-1.212a20167.296 20167.296 0 00-30.392-17.671c-16.855-9.78-34.266-19.839-36.381-20.89-5.036-2.502-8.266-8.441-8.266-17.24 0-14.001 8.198-30.57 19.376-40.59l.277-.249-.223-.298c-2.796-3.737-4.428-9.113-4.428-15.917 0-9.958 3.498-21.019 9.173-30.848 5.676-9.83 13.506-18.39 22.13-23.369a38.401 38.401 0 013.646-1.862l.167-.073.056-.173c8.991-27.77 28.75-54.837 51.64-68.052 16.378-9.456 31.03-9.908 41.261-3.155l.01.007.01.006 65.8 38.162 5.178 41.752-19.64 22.599a37.1 37.1 0 01-2.863 1.489z" fill="#B0B8ED"/><path id="Union_3" d="M311.249 149.971l-.017.008-.015.009-167.341 96.614v-.063l-.581.275c-6.698 3.17-12.585 2.984-16.783.131-4.205-2.856-6.834-8.468-6.834-16.403 0-14 8.199-30.569 19.376-40.59l.278-.248-.223-.298c-2.796-3.737-4.428-9.114-4.428-15.918 0-9.957 3.498-21.018 9.173-30.848 5.675-9.829 13.505-18.389 22.129-23.368a38.373 38.373 0 013.647-1.862l.166-.074.056-.173c8.992-27.77 28.751-54.836 51.64-68.051 12.975-7.491 24.871-9.33 34.334-6.417 9.449 2.91 16.556 10.587 19.919 22.32l.194.677.49-.506c3.899-4.028 8.142-7.452 12.575-10.01 9.454-5.46 17.918-5.925 23.992-2.418 6.074 3.507 9.903 11.07 9.903 21.987 0 .439-.006.88-.018 1.323l-.015.52.508-.11c5.98-1.303 11.09.02 14.709 3.52 3.63 3.511 5.82 9.271 5.82 16.953 0 9.457-3.323 19.964-8.714 29.301-5.391 9.338-12.828 17.468-21.019 22.197a36.593 36.593 0 01-2.921 1.522z" fill="#B0B8ED"/><path id="Union_4" d="M323.288 157.789l-.017.008-.015.009-167.341 96.614v-.063l-.581.274c-6.698 3.171-12.585 2.985-16.783.132-4.205-2.857-6.834-8.468-6.834-16.403 0-14.001 8.199-30.57 19.377-40.59l.277-.248-.223-.299c-2.796-3.737-4.428-9.113-4.428-15.917 0-9.958 3.498-21.019 9.173-30.848 5.675-9.83 13.505-18.39 22.129-23.369a38.61 38.61 0 013.647-1.862l.166-.073.056-.173c8.992-27.77 28.751-54.836 51.64-68.052 12.975-7.49 24.871-9.33 34.334-6.416 9.449 2.91 16.556 10.587 19.919 22.32l.194.676.49-.505c3.899-4.029 8.142-7.452 12.575-10.011 9.454-5.459 17.918-5.924 23.992-2.417 6.074 3.507 9.903 11.07 9.903 21.986 0 .44-.006.88-.018 1.324l-.015.52.508-.111c5.98-1.302 11.09.02 14.709 3.521 3.63 3.511 5.82 9.27 5.82 16.953 0 9.457-3.323 19.963-8.714 29.301-5.391 9.337-12.828 17.468-21.018 22.196a37.133 37.133 0 01-2.922 1.523z"/></g></g></g><defs><linearGradient id="paint0_linear" x1="197.997" y1="221.73" x2="197.997" y2="539.988" gradientUnits="userSpaceOnUse"><stop offset=".193" stop-color="#D6DBFF" stop-opacity="0"/><stop offset="1" stop-color="#D6DBFF"/></linearGradient><linearGradient id="paint1_linear" x1="197.672" y1="234.529" x2="197.672" y2="523.066" gradientUnits="userSpaceOnUse"><stop offset=".193" stop-color="#fff" stop-opacity="0"/><stop offset="1" stop-color="#fff" stop-opacity=".6"/></linearGradient></defs></svg>