<svg xmlns="http://www.w3.org/2000/svg" width="400" height="66.42" viewBox="0 0 400 66.42"><g fill-rule="evenodd"><path d="M151.833 4.84c-2.633.333-4.037 1.372-4.634 3.429-.412 1.421-.273 50.973.146 51.839 1.2 2.478 8.944 2.623 10.272.191.282-.517.305-1.651.383-19.195l.083-18.645 1.847 2.229c2.309 2.788 9.245 11.153 12.903 15.562a6914.982 6914.982 0 0113.322 16.08c4.177 5.072 5.51 5.854 9.594 5.628 3.168-.175 4.212-.884 7.955-5.407l4.306-5.206c.876-1.061 2.867-3.466 4.425-5.345 1.558-1.879 5.187-6.267 8.065-9.75 2.877-3.483 6.586-7.967 8.241-9.963l3.009-3.629.083 18.379.084 18.38.381.715c1.167 2.185 7.982 2.621 9.966.638.937-.938.914-.208.865-27.273l-.046-24.914-.383-.833c-.952-2.069-2.68-2.95-5.783-2.95-3.92 0-4.475.395-10.234 7.283A22390.342 22390.342 0 01207.09 35.5a5597.259 5597.259 0 00-7.286 8.708c-2.661 3.186-4.887 5.792-4.947 5.792-.119 0-.878-.899-7.112-8.417-2.281-2.75-5.954-7.175-8.163-9.833a15764.69 15764.69 0 01-10.163-12.25C158.08 5.819 158.48 6.265 156.946 5.593c-1.538-.675-3.478-.961-5.113-.753M386.25 4.561c-4.912 1.261-5.208 8.261-.417 9.859 1.992.664 6.437.343 7.939-.573 3.121-1.903 2.366-7.982-1.131-9.113-1.159-.374-5.183-.484-6.391-.173m-380 .421c-.807.372-1.315.9-1.659 1.723-.229.549-.258 3.524-.258 26.588v25.97l.375.742c.838 1.658 4.04 2.45 7.397 1.828 3.438-.637 3.378-.434 3.388-11.458.004-4.79.048-8.708.098-8.708.093 0 3.955 1.651 10.909 4.665 2.154.934 5.492 2.375 7.417 3.202 1.925.827 3.832 1.653 4.238 1.836.406.183 1.756.766 3 1.297 1.244.53 4.024 1.729 6.178 2.665a1793.6 1793.6 0 007.417 3.2c1.925.824 4.05 1.753 4.721 2.065 3.852 1.79 9.853 1.905 11.767.224 1.365-1.198 1.479-4.042.222-5.566-.654-.794-.664-.799-8.627-4l-12.25-4.924c-5.417-2.178-11.16-4.428-11.916-4.67-.606-.193-3.726-1.331-3.769-1.374-.02-.021 5.001-.037 11.158-.037 9.85 0 11.409-.035 12.984-.291 8.963-1.455 14.05-4.521 15.728-9.478.569-1.682.623-13.941.07-15.798-1.545-5.19-7.439-8.593-16.916-9.769-3.392-.421-50.748-.359-51.672.068m51.083 9.239c4.177.715 6.13 1.719 6.636 3.409.306 1.021.271 9.32-.042 10.07-.7 1.675-2.861 2.67-7 3.223-1.512.202-5.195.244-21.625.244H15.5V13.808l20.125.071c17.61.062 20.323.105 21.708.342m38.834 3.034c-9.624.961-14.78 3.949-16.529 9.578l-.388 1.25v11.084c0 12.164-.006 12.085 1.013 14.25 2.137 4.542 7.135 7.11 15.575 8 3.308.349 15.744.359 16.571.014 1.355-.567 1.966-3.379 1.353-6.234-.464-2.165-.402-2.15-9.095-2.25-8.322-.095-10.023-.359-12.451-1.928-1.986-1.284-2.383-2.09-2.383-4.844v-2.002l24.875-.045 24.875-.045.723-.385c1.395-.745 1.436-.967 1.493-8.136.056-7.057-.077-8.245-1.187-10.563-2.261-4.721-6.741-6.934-15.695-7.749-3.503-.319-25.544-.316-28.75.005m170.25-.068c-9.626.904-14.872 3.736-16.793 9.067-.734 2.034-.791 2.979-.791 13.079 0 10.046.06 11.052.77 13.022 1.897 5.264 6.909 8.113 15.948 9.067 3.447.364 24.874.353 28.386-.015 9.65-1.009 14.942-4.382 16.331-10.407.371-1.607.555-19.012.23-21.667-.909-7.411-6.053-11.033-17.165-12.085-2.898-.274-24.134-.322-26.916-.061m67.166.001c-10.209.969-15.236 3.853-17.108 9.816l-.392 1.246v31.5l.392.63c1.379 2.218 8.338 2.218 9.717-.001l.391-.629.084-14.833.083-14.834.379-.609c1.095-1.761 3.149-2.828 6.538-3.397 2.071-.348 24.262-.348 26.333 0 3.53.593 5.786 1.838 6.647 3.668.351.747.353.827.353 15.218v14.466l.375.743c1.404 2.782 9.229 2.419 10.094-.467.319-1.066.279-30.132-.044-31.666-1.375-6.536-6.471-9.77-17.008-10.792-2.818-.274-24.079-.32-26.834-.059m52.584.373c-1.229.405-1.721.836-2.113 1.85-.145.376-.199 5.565-.208 20.262l-.013 19.756.375.743c1.404 2.782 9.229 2.419 10.094-.467.379-1.265.267-39.62-.118-40.468-.668-1.47-1.878-1.912-5.173-1.886-1.243.009-2.523.104-2.844.21m-261.75 8.518c5.395.88 6.75 2.304 6.75 7.094v2.494H89.833l.004-2.625c.006-4.463 1.583-6.083 6.768-6.954 2.023-.34 25.736-.347 27.812-.009m168.534.005c3.361.545 5.762 1.884 6.571 3.662.469 1.033.468 18.144-.002 19.177-.699 1.539-3.083 2.969-6.02 3.611-2.393.523-24.7.602-27.113.096-3.692-.773-5.974-2.177-6.62-4.073-.39-1.144-.402-17.299-.014-18.4.719-2.038 2.914-3.391 6.584-4.06 1.918-.35 24.471-.361 26.614-.013"/></g></svg>