<svg width="183" height="36" viewBox="0 0 183 36" fill="none" xmlns="http://www.w3.org/2000/svg"><path fill-rule="evenodd" clip-rule="evenodd" d="M15.845.199c-.914.094-2.349.392-3.188.662s-2.064.76-2.723 1.089c-.659.329-1.777 1.014-2.485 1.522a21.61 21.61 0 00-2.432 2.11c-.63.652-1.475 1.673-1.88 2.269-.406.595-1 1.614-1.323 2.264-.323.65-.77 1.757-.995 2.461a22.724 22.724 0 00-.615 2.448C.091 15.667 0 16.996 0 17.977c0 .982.086 2.317.19 2.967.104.65.383 1.801.62 2.56.237.757.778 2.042 1.203 2.854.425.812 1.193 2.008 1.707 2.658.514.65 1.361 1.582 1.883 2.072s1.39 1.213 1.928 1.605c.538.393 1.613 1.035 2.388 1.427.776.391 1.964.883 2.641 1.092.677.209 1.803.472 2.503.585.699.113 1.975.204 2.836.203.861-.001 2.164-.09 2.896-.196a18.932 18.932 0 002.587-.603 22.564 22.564 0 002.29-.903c.567-.271 1.646-.907 2.398-1.411.752-.505 1.94-1.497 2.641-2.205.7-.709 1.724-1.96 2.273-2.783.55-.823 1.286-2.187 1.635-3.032.35-.845.81-2.384 1.02-3.42.296-1.446.365-2.382.295-4.047-.054-1.295-.255-2.786-.5-3.707-.224-.848-.647-2.088-.938-2.757-.292-.668-.922-1.835-1.4-2.593-.479-.758-1.497-2.026-2.262-2.819-.765-.792-1.831-1.732-2.37-2.09a35.866 35.866 0 00-2.273-1.348c-.712-.384-2.002-.924-2.867-1.198-.864-.275-2.47-.593-3.568-.706-1.098-.114-2.053-.195-2.122-.18-.07.014-.874.103-1.789.197zm5.045 3.437c.828.172 2.005.517 2.615.766.61.25 1.723.854 2.473 1.342.751.489 1.857 1.392 2.458 2.006.6.614 1.438 1.638 1.86 2.275.423.636 1.042 1.878 1.376 2.76.365.96.699 2.342.835 3.453.165 1.358.17 2.312.015 3.575-.116.948-.405 2.288-.642 2.976-.237.69-.77 1.844-1.183 2.567-.415.723-1.25 1.867-1.857 2.542-.607.675-1.65 1.62-2.32 2.1-.67.481-1.782 1.129-2.473 1.44-.691.311-1.873.708-2.626.881a38.6 38.6 0 01-1.908.398c-.296.046-.538.012-.538-.076s.12-.23.267-.317c.147-.087.773-.6 1.391-1.142.619-.542 1.213-1.04 1.322-1.11a.304.304 0 00.125-.336c-.04-.116-.469-.698-.953-1.293s-.926-1.086-.983-1.091c-.056-.005-.914.705-1.906 1.578l-1.804 1.588-1.862-3.79c-1.024-2.085-1.794-3.86-1.71-3.944.083-.084.767-.288 1.519-.453.751-.165 2.159-.487 3.127-.715.968-.227 2.245-.53 2.837-.672.591-.142 1.868-.445 2.836-.672a132.14 132.14 0 012.886-.644l1.125-.23v-9.169l-.734-.2a94.84 94.84 0 00-2.396-.59c-.915-.214-2.632-.617-3.815-.896a272.419 272.419 0 01-3.228-.777c-.592-.15-2.507-.608-4.257-1.02-2.537-.596-3.131-.797-2.935-.992.136-.134.863-.546 1.616-.915.754-.37 1.942-.815 2.641-.991.7-.176 1.448-.356 1.663-.4.216-.044 1.122-.09 2.014-.103.892-.012 2.3.118 3.129.29zM9.39 9.303a5719.75 5719.75 0 0010.563 2.498c1.883.444 3.537.842 3.675.886.189.059.238.584.196 2.088l-.056 2.01-2.152.52c-1.183.286-3.032.722-4.108.97-1.076.247-2.44.569-3.032.715-.592.147-1.825.44-2.74.652-.914.211-2.124.489-2.69.617-.564.127-1.026.307-1.026.4 0 .092 1.229 2.671 2.73 5.73 1.502 3.06 2.704 5.59 2.672 5.623-.032.033-.535-.135-1.116-.372-.582-.237-1.63-.806-2.33-1.263-.7-.458-1.72-1.264-2.267-1.791a15.857 15.857 0 01-1.787-2.135c-.435-.647-.965-1.53-1.178-1.963-.213-.434-.594-1.364-.846-2.068-.405-1.129-.46-1.638-.467-4.331-.008-2.7.044-3.205.448-4.383.252-.732.665-1.726.92-2.207.254-.482.615-1.123.802-1.425.186-.302.515-.75.73-.994.215-.245.529-.405.698-.355.168.05 1.23.31 2.36.578zm59.541-.46c-.446.089-1.27.395-1.83.681-.56.286-1.385.899-1.831 1.361-.447.462-1.054 1.322-1.35 1.91-.296.589-.668 1.688-.827 2.444a16.15 16.15 0 00-.289 2.751c0 .758.13 1.997.289 2.752.16.755.532 1.857.828 2.448.297.59.983 1.528 1.525 2.084.7.716 1.382 1.172 2.348 1.57 1.224.502 1.588.559 3.611.559 2 0 2.395-.06 3.552-.536a7.228 7.228 0 002.298-1.512c.548-.537 1.21-1.4 1.471-1.92.262-.52.626-1.514.809-2.21.208-.79.333-2.006.333-3.235 0-1.178-.125-2.443-.312-3.15-.172-.65-.5-1.573-.73-2.051-.231-.48-.883-1.337-1.449-1.907-.566-.57-1.415-1.216-1.886-1.436a10.4 10.4 0 00-1.738-.599c-.484-.11-1.585-.191-2.446-.182-.86.009-1.93.09-2.376.178zm61.422-.002c-.557.101-1.481.395-2.054.653-.572.259-1.387.75-1.81 1.094-.423.343-.988.948-1.255 1.344-.268.396-.686 1.301-.931 2.011-.244.71-.502 2.044-.574 2.964-.073.936-.037 2.338.081 3.18.116.828.39 1.987.609 2.575.218.588.717 1.446 1.109 1.906.391.46 1.048 1.05 1.459 1.312.411.26 1.212.659 1.781.884.707.28 1.683.444 3.088.518 1.13.06 2.662.013 3.405-.104.744-.117 1.415-.283 1.492-.369.077-.086.067-.809-.022-1.606-.088-.798-.189-1.479-.223-1.513-.033-.034-.92.085-1.969.265-1.8.308-1.983.307-3.225-.02-.724-.19-1.613-.588-1.976-.883-.363-.295-.891-.978-1.174-1.52-.476-.909-.514-1.166-.513-3.443 0-2.345.028-2.515.585-3.606.405-.794.846-1.32 1.436-1.713.469-.313 1.319-.673 1.889-.801.786-.178 1.387-.18 2.476-.012.791.122 1.626.275 1.855.34.381.106.437.005.636-1.148.12-.695.219-1.444.219-1.664 0-.31-.167-.43-.734-.526-.403-.068-1.614-.164-2.69-.213-1.076-.049-2.412-.006-2.97.095zm17.108-.028c-.401.086-1.105.32-1.565.52-.459.2-1.199.655-1.644 1.01-.445.356-1.117 1.115-1.493 1.686-.377.572-.871 1.67-1.099 2.439-.31 1.047-.414 1.933-.414 3.522 0 1.587.104 2.475.412 3.516.227.766.696 1.838 1.043 2.384.347.545.957 1.28 1.356 1.632.399.352 1.164.864 1.7 1.137.552.281 1.643.592 2.513.716 1.137.162 1.927.16 3.034-.005.823-.123 1.942-.451 2.486-.729.545-.277 1.376-.862 1.847-1.3.472-.437 1.079-1.194 1.35-1.682.271-.488.67-1.485.886-2.216.29-.982.393-1.898.393-3.502 0-1.656-.098-2.495-.413-3.523-.228-.742-.722-1.817-1.099-2.389-.377-.571-1.049-1.332-1.494-1.69-.445-.357-1.292-.853-1.883-1.102-.838-.354-1.526-.467-3.13-.516-1.131-.035-2.384.007-2.786.092zm-96.989.143c-.161.061-.655.276-1.097.476-.443.2-1.049.656-1.348 1.014-.3.358-.708 1.035-.908 1.505-.226.532-.362 1.314-.36 2.069.003.76.14 1.508.368 2.002.2.433.66 1.07 1.023 1.415.363.345 1.276.931 2.029 1.302.753.37 1.699.829 2.102 1.018.403.19.997.648 1.32 1.018.367.42.588.891.588 1.25 0 .315-.095.785-.212 1.043-.117.258-.46.616-.764.796-.303.18-.934.327-1.401.325-.468-.002-1.468-.165-2.224-.363-.755-.197-1.563-.461-1.796-.587-.233-.125-.467-.228-.52-.228-.051 0-.229.42-.394.935a15.357 15.357 0 00-.424 1.652c-.12.682-.094.727.528.915.36.109 1.094.318 1.632.464.57.155 1.918.263 3.228.258 1.869-.008 2.399-.08 3.13-.425.484-.23 1.122-.65 1.418-.934.296-.286.733-.892.97-1.347.343-.66.432-1.17.439-2.503.006-1.362-.073-1.826-.427-2.493-.239-.45-.81-1.129-1.27-1.507-.46-.378-1.741-1.15-2.847-1.717-1.105-.566-2.235-1.3-2.511-1.63-.386-.46-.475-.735-.386-1.185.064-.322.226-.718.36-.88.134-.163.527-.415.873-.56a4.02 4.02 0 011.303-.265c.37 0 1.232.175 1.914.39.682.216 1.347.393 1.479.394.131.002.427-.622.658-1.386.23-.763.363-1.444.295-1.513-.068-.068-.452-.25-.854-.403-.434-.166-1.718-.309-3.175-.353-1.345-.041-2.577-.024-2.739.038zm34.521.322c-.051.136-.07 4.189-.042 9.008l.05 8.761h3.326l.054-3.495.053-3.494h1.437c1.161 0 1.535.078 1.957.412.287.227.712.78.947 1.23.234.45.839 1.838 1.344 3.083l.919 2.264 1.878.056c1.123.034 1.878-.02 1.878-.135 0-.105-.702-1.77-1.559-3.698-1.196-2.69-1.72-3.65-2.25-4.12-.38-.335-.69-.668-.69-.737 0-.07.128-.127.286-.127.157 0 .593-.271.968-.603.41-.362.842-1.032 1.083-1.68.22-.594.401-1.459.401-1.922 0-.465-.144-1.28-.32-1.814-.176-.534-.504-1.176-.73-1.426a5.581 5.581 0 00-1-.822c-.325-.201-1.19-.506-1.924-.676-.935-.218-2.323-.31-4.652-.31-2.475 0-3.344.062-3.414.245zm24.498.492c-.175.407-1.382 3.53-2.683 6.94a4199.281 4199.281 0 01-3.124 8.171c-.418 1.083-.69 2.04-.606 2.125.084.086.93.13 1.88.098l1.727-.057.679-2.116.68-2.117H114.747l.47 1.427c.259.786.596 1.76.75 2.166l.281.738h1.707c.938 0 1.76-.054 1.827-.12.066-.067-.132-.798-.439-1.625a411.24 411.24 0 00-1.475-3.866c-.503-1.3-1.077-2.805-1.275-3.347-.198-.541-.724-1.914-1.168-3.051a225.783 225.783 0 01-1.387-3.643c-.319-.866-.68-1.774-.804-2.018-.206-.405-.363-.443-1.825-.443h-1.6l-.318.738zm54.17 1.28c-.067 1.11-.262 4.898-.435 8.417-.172 3.52-.324 6.665-.338 6.99l-.024.59h3.326l.143-.984c.079-.542.2-3.554.269-6.694l.126-5.71.768 2.264a322.12 322.12 0 011.524 4.627c.416 1.3 1.008 3.116 1.317 4.036l.562 1.674 1.479.056c1.03.04 1.54-.02 1.681-.197.112-.139 1.085-2.911 2.164-6.16 1.078-3.248 2.005-5.773 2.061-5.611.055.162.161 2.112.236 4.332.075 2.22.192 5.01.261 6.201l.125 2.166 1.644.058c.905.032 1.712-.013 1.795-.099.082-.085.071-1.618-.024-3.404a9743.58 9743.58 0 00-.377-7.088 908.692 908.692 0 00-.319-5.66l-.115-1.822h-4.822l-.309.886a107.8 107.8 0 00-.585 1.723c-.152.46-.863 2.697-1.58 4.971-.718 2.274-1.368 4.302-1.446 4.505-.099.258-.637-1.15-1.77-4.627-.896-2.748-1.816-5.55-2.044-6.227l-.416-1.23h-4.756l-.121 2.017zm-90.188 1.111c.438.2 1.063.69 1.389 1.087.326.398.738 1.25.915 1.893.186.671.323 1.892.323 2.865 0 .947-.133 2.158-.302 2.742-.166.576-.561 1.407-.878 1.847-.316.44-.95.996-1.41 1.236-.633.332-1.162.435-2.205.43-1.13-.003-1.512-.093-2.168-.51-.438-.279-1.03-.787-1.317-1.129-.286-.342-.663-1.117-.838-1.722-.242-.839-.297-1.665-.233-3.481.068-1.922.163-2.534.494-3.17.225-.433.66-1.026.965-1.318a5.133 5.133 0 011.24-.829c.377-.164 1.258-.3 1.957-.302.826-.002 1.551.125 2.068.361zm78.427.038c.477.226 1.075.69 1.329 1.034.255.342.609 1.021.789 1.509.18.487.381 1.506.447 2.264.066.758.026 1.954-.089 2.658-.115.704-.455 1.764-.755 2.356-.402.793-.79 1.229-1.478 1.657-.809.503-1.122.58-2.345.58-1.045-.002-1.618-.11-2.209-.414-.44-.227-1.02-.706-1.291-1.065-.271-.36-.658-1.14-.861-1.736-.263-.773-.369-1.646-.372-3.052-.003-1.459.097-2.268.387-3.127.232-.686.675-1.453 1.087-1.88.382-.397.999-.819 1.369-.938.371-.119 1.226-.225 1.899-.236.867-.015 1.479.1 2.093.39zm-59.583.268c.296.154.65.415.786.58.137.166.293.64.349 1.054.06.454-.02 1.042-.202 1.48-.169.408-.586.902-.95 1.125-.51.313-.987.397-2.26.398h-1.615v-5.177l1.677.13c.922.071 1.92.256 2.215.41zm19.673 3.81c.132.604.154.614 1.441.671l1.307.058-1.03.674c-.84.551-1.006.75-.905 1.083.068.225.245.707.393 1.073.149.365.27.747.27.85 0 .102-.286-.016-.636-.264-.349-.247-.752-.563-.894-.702-.142-.14-.371-.253-.51-.253-.138 0-.66.314-1.159.698-.5.384-.909.62-.909.523 0-.097.122-.433.271-.748.149-.314.319-.793.379-1.064.094-.421-.035-.59-.895-1.18l-1.004-.69 1.275-.058 1.274-.057.356-1.195.356-1.196.243.582c.134.32.304.859.377 1.196zm-87.556 6.488a8.297 8.297 0 00-.313 1.083c-.104.518-.16.542-1.306.552l-1.199.011.566.432c.31.238.735.567.944.732.374.295.373.312-.035 1.354-.227.58-.37 1.098-.319 1.15.052.052.483-.225.957-.616s.941-.71 1.038-.707c.096.002.526.312.956.689.429.377.843.685.92.685.076 0 .005-.42-.159-.935-.163-.515-.313-1.062-.333-1.217-.019-.154.361-.553.845-.886l.88-.604-1.123-.06c-.82-.042-1.171-.15-1.303-.397-.099-.186-.241-.669-.317-1.073-.075-.404-.217-.735-.315-.735-.099 0-.271.244-.384.542z" fill="#000"/></svg>