<svg id="Layer_2" xmlns="http://www.w3.org/2000/svg" viewBox="0 0 459.11 378.81"><defs><style>.cls-1,.cls-2,.cls-3{fill:#757b7c}.cls-4,.cls-5{fill:#282827}.cls-2{stroke-width:2px}.cls-2,.cls-3,.cls-5,.cls-6{stroke-miterlimit:10}.cls-2,.cls-3{stroke:#757b7c}.cls-5,.cls-6{stroke-width:.25px;stroke:#282828}.cls-6{fill:#282828;stroke-width:.5px}</style></defs><g id="Layer_1-2"><path class="cls-1" d="M149.37 91.89c21.83-17.98 49.77-28.8 80.19-28.8s58.36 10.81 80.19 28.8h7.53c-23.26-20.95-54.02-33.72-87.72-33.72s-64.45 12.77-87.72 33.72h7.53zM309.75 286.91c-21.83 17.98-49.77 28.8-80.19 28.8s-58.36-10.81-80.19-28.8h-7.53c23.26 20.95 54.02 33.72 87.72 33.72s64.46-12.77 87.72-33.72h-7.53z"/><path class="cls-2" d="M74.25 91.89C106.76 40.3 164.2 5.93 229.56 5.93S352.36 40.3 384.87 91.9h5.84C357.64 37.45 297.78 1 229.56 1S101.47 37.45 68.41 91.89h5.84zM384.87 286.91c-32.51 51.59-89.95 85.97-155.31 85.97s-122.8-34.37-155.31-85.97h-5.84c33.07 54.44 92.93 90.89 161.15 90.89s128.09-36.45 161.15-90.89h-5.84z"/><g><path class="cls-3" d="M108.34 91.89c28.56-35.43 72.27-58.16 121.22-58.16s92.66 22.73 121.22 58.16h6.26C327.66 53.57 281.46 28.8 229.56 28.8s-98.1 24.77-127.48 63.09h6.26zM350.78 286.91c-28.56 35.43-72.28 58.16-121.22 58.16s-92.66-22.73-121.22-58.16h-6.26C131.46 325.23 177.66 350 229.56 350s98.11-24.77 127.48-63.09h-6.26z"/></g><g><path class="cls-5" d="M447.36 202.42h-3.27v9.07h-1.33v-9.07h-3.26v-1.1h7.86v1.1zM450.6 201.33l3.32 8.29 3.32-8.29h1.74v10.17h-1.34v-3.96l.12-4.27-3.34 8.23h-1.03l-3.33-8.21.13 4.25v3.96h-1.34v-10.17h1.73z"/><g><path class="cls-5" d="M37.48 229.18c0 4.16-.77 7.85-2.32 11.05-1.54 3.21-3.74 5.68-6.58 7.41-2.84 1.73-6.08 2.6-9.72 2.6s-6.86-.84-9.68-2.51c-2.81-1.67-5.01-4.06-6.58-7.17-1.57-3.11-2.4-6.68-2.48-10.7v-2.41c0-4.18.76-7.87 2.3-11.07 1.53-3.2 3.73-5.67 6.6-7.41s6.12-2.61 9.78-2.61 6.84.86 9.68 2.58c2.83 1.72 5.04 4.17 6.61 7.35 1.57 3.18 2.37 6.82 2.39 10.92v1.97zm-10.47-1.79c0-4.24-.71-7.46-2.13-9.66s-3.44-3.3-6.08-3.3c-5.16 0-7.89 3.87-8.18 11.61l-.03 3.14c0 4.18.69 7.4 2.08 9.65s3.45 3.37 6.19 3.37 4.6-1.1 6.01-3.31c1.41-2.21 2.12-5.39 2.14-9.53v-1.96zM51.68 217.92l.32 3.72c2.25-2.87 5.27-4.31 9.06-4.31 4.01 0 6.72 1.59 8.12 4.78 2.15-3.19 5.26-4.78 9.32-4.78 6.43 0 9.74 3.89 9.91 11.67v20.64H78.5v-20.03c0-1.62-.27-2.8-.82-3.55-.55-.74-1.54-1.11-2.99-1.11-1.96 0-3.41.87-4.37 2.61l.03.41v21.67h-9.91v-19.97c0-1.66-.26-2.86-.79-3.61-.52-.74-1.53-1.11-3.02-1.11-1.9 0-3.34.87-4.34 2.61v22.08h-9.88v-31.73h9.27zM103.14 217.92l.33 3.72c2.19-2.87 5.21-4.31 9.06-4.31 3.31 0 5.77.99 7.41 2.96 1.63 1.98 2.48 4.95 2.54 8.91v20.44h-9.91v-20.03c0-1.6-.32-2.78-.97-3.53s-1.82-1.13-3.52-1.13c-1.94 0-3.37.76-4.31 2.29v22.4h-9.88v-31.73h9.27zM127.86 209.74c0-1.41.51-2.56 1.52-3.46s2.33-1.35 3.96-1.35 2.94.45 3.96 1.35 1.52 2.05 1.52 3.46-.51 2.56-1.52 3.46-2.33 1.35-3.96 1.35-2.94-.45-3.96-1.35-1.52-2.05-1.52-3.46zm10.5 39.91h-9.91v-31.73h9.91v31.73z"/><path class="cls-4" d="M170.76 229.91h-18.5v15.13h21.49v4.6h-27.13v-42.7h26.83v4.6h-21.2v13.75h18.5v4.6zM190.56 229.5l7.04-11.58h6.34l-10.38 15.69 10.7 16.04h-6.28l-7.33-11.88-7.33 11.88h-6.3l10.7-16.04-10.38-15.69h6.27l6.95 11.58zM236.48 234.14c0 4.83-1.1 8.72-3.31 11.67-2.21 2.95-5.2 4.43-8.97 4.43s-6.88-1.22-9.09-3.67v15.28h-5.42v-43.93h4.96l.26 3.52c2.21-2.74 5.28-4.11 9.21-4.11s6.83 1.44 9.05 4.31 3.33 6.87 3.33 11.99v.5zm-5.42-.62c0-3.58-.76-6.4-2.29-8.48s-3.62-3.11-6.27-3.11c-3.29 0-5.75 1.46-7.39 4.37v15.16c1.62 2.89 4.11 4.34 7.45 4.34 2.6 0 4.67-1.03 6.2-3.09 1.54-2.06 2.31-5.13 2.31-9.19zM256.54 250.23c-4.3 0-7.8-1.41-10.5-4.24-2.69-2.82-4.05-6.6-4.05-11.33v-1c0-3.15.6-5.96 1.81-8.43 1.2-2.47 2.88-4.41 5.04-5.8 2.16-1.4 4.5-2.1 7.02-2.1 4.13 0 7.33 1.36 9.62 4.07 2.29 2.72 3.43 6.61 3.43 11.67v2.26h-21.49c.08 3.13.99 5.66 2.74 7.58 1.75 1.93 3.98 2.89 6.67 2.89 1.91 0 3.54-.39 4.87-1.17 1.33-.78 2.49-1.82 3.49-3.11l3.31 2.58c-2.66 4.09-6.65 6.13-11.96 6.13zm-.68-28.45c-2.19 0-4.03.8-5.51 2.39-1.48 1.59-2.4 3.83-2.76 6.7h15.89v-.41c-.16-2.76-.9-4.89-2.23-6.41s-3.13-2.27-5.4-2.27zM290.53 222.79c-.82-.14-1.71-.2-2.67-.2-3.56 0-5.97 1.51-7.24 4.55v22.52h-5.42v-31.73h5.28l.09 3.67c1.78-2.84 4.3-4.25 7.57-4.25 1.05 0 1.86.14 2.41.41v5.04zM295.54 209.5c0-.88.27-1.62.81-2.23s1.33-.91 2.39-.91 1.86.3 2.41.91c.55.61.82 1.35.82 2.23s-.27 1.61-.82 2.2c-.55.59-1.35.88-2.41.88s-1.86-.29-2.39-.88-.81-1.32-.81-2.2zm5.86 40.14h-5.42v-31.73h5.42v31.73zM323.25 250.23c-4.3 0-7.8-1.41-10.5-4.24-2.69-2.82-4.05-6.6-4.05-11.33v-1c0-3.15.6-5.96 1.81-8.43 1.2-2.47 2.88-4.41 5.04-5.8 2.16-1.4 4.5-2.1 7.02-2.1 4.13 0 7.33 1.36 9.62 4.07 2.29 2.72 3.43 6.61 3.43 11.67v2.26h-21.49c.08 3.13.99 5.66 2.74 7.58 1.75 1.93 3.98 2.89 6.67 2.89 1.91 0 3.54-.39 4.87-1.17 1.33-.78 2.49-1.82 3.49-3.11l3.31 2.58c-2.66 4.09-6.65 6.13-11.96 6.13zm-.68-28.45c-2.19 0-4.03.8-5.51 2.39-1.48 1.59-2.4 3.83-2.76 6.7h15.89v-.41c-.16-2.76-.9-4.89-2.23-6.41s-3.13-2.27-5.4-2.27zM347.03 217.92l.18 3.99c2.43-3.05 5.59-4.57 9.5-4.57 6.71 0 10.09 3.78 10.15 11.35v20.97h-5.43v-21c-.02-2.29-.54-3.98-1.57-5.07s-2.62-1.64-4.79-1.64c-1.76 0-3.31.47-4.63 1.41-1.33.94-2.37 2.17-3.11 3.69v22.61h-5.42v-31.73h5.13zM387.77 245.81c1.93 0 3.62-.59 5.07-1.76 1.45-1.17 2.25-2.64 2.41-4.4h5.13c-.1 1.82-.72 3.55-1.88 5.19-1.15 1.64-2.69 2.95-4.62 3.93s-3.96 1.47-6.11 1.47c-4.32 0-7.76-1.44-10.31-4.32-2.55-2.88-3.83-6.83-3.83-11.83v-.91c0-3.09.57-5.84 1.7-8.24 1.13-2.4 2.76-4.27 4.88-5.6s4.62-1.99 7.52-1.99c3.56 0 6.51 1.07 8.87 3.2s3.61 4.9 3.77 8.3h-5.13c-.16-2.05-.93-3.74-2.33-5.06s-3.12-1.98-5.17-1.98c-2.76 0-4.89.99-6.41 2.98-1.51 1.99-2.27 4.85-2.27 8.61v1.02c0 3.66.75 6.47 2.26 8.45 1.5 1.97 3.65 2.96 6.45 2.96zM419.64 250.23c-4.3 0-7.8-1.41-10.5-4.24-2.69-2.82-4.05-6.6-4.05-11.33v-1c0-3.15.6-5.96 1.81-8.43 1.2-2.47 2.88-4.41 5.04-5.8 2.16-1.4 4.5-2.1 7.02-2.1 4.13 0 7.33 1.36 9.62 4.07 2.29 2.72 3.43 6.61 3.43 11.67v2.26h-21.49c.08 3.13.99 5.66 2.74 7.58 1.75 1.93 3.98 2.89 6.67 2.89 1.91 0 3.54-.39 4.87-1.17 1.33-.78 2.49-1.82 3.49-3.11l3.31 2.58c-2.66 4.09-6.65 6.13-11.96 6.13zm-.68-28.45c-2.19 0-4.03.8-5.51 2.39-1.48 1.59-2.4 3.83-2.76 6.7h15.89v-.41c-.16-2.76-.9-4.89-2.23-6.41s-3.13-2.27-5.4-2.27z"/></g></g><g><path class="cls-6" d="M35.29 170.79c0-2.19-.78-3.91-2.33-5.13-1.55-1.23-4.29-2.49-8.19-3.81-3.91-1.31-7.1-2.58-9.58-3.81-8.07-3.96-12.1-9.41-12.1-16.34 0-3.45 1.01-6.49 3.02-9.13s4.86-4.69 8.53-6.16c3.68-1.47 7.81-2.2 12.4-2.2s8.49.8 12.04 2.39 6.31 3.87 8.27 6.82 2.95 6.32 2.95 10.11H35.33c0-2.54-.78-4.5-2.33-5.9s-3.66-2.1-6.31-2.1-4.8.59-6.35 1.77c-1.55 1.18-2.33 2.69-2.33 4.51 0 1.6.86 3.04 2.57 4.34s4.72 2.64 9.03 4.02c4.3 1.38 7.84 2.87 10.6 4.47 6.73 3.88 10.09 9.22 10.09 16.04 0 5.44-2.05 9.72-6.16 12.83-4.1 3.11-9.74 4.66-16.89 4.66-5.05 0-9.61-.91-13.7-2.72s-7.17-4.29-9.24-7.44c-2.07-3.15-3.1-6.78-3.1-10.88h15.06c0 3.34.86 5.79 2.59 7.38 1.72 1.58 4.53 2.37 8.4 2.37 2.48 0 4.44-.54 5.88-1.6 1.44-1.07 2.16-2.57 2.16-4.51zM74.76 166.22v21.13H59.75v-62.27H84.6c4.76 0 8.97.88 12.64 2.63 3.66 1.75 6.5 4.25 8.51 7.48s3.02 6.91 3.02 11.01c0 6.07-2.17 10.93-6.52 14.56-4.35 3.63-10.32 5.45-17.9 5.45h-9.58zm0-11.59h9.84c2.91 0 5.12-.73 6.65-2.18s2.29-3.51 2.29-6.16c0-2.91-.79-5.23-2.36-6.97-1.57-1.74-3.71-2.62-6.41-2.65H74.76v17.96zM171.25 157.49c0 6.07-1.13 11.45-3.38 16.12s-5.45 8.28-9.6 10.8-8.87 3.79-14.18 3.79-10.01-1.22-14.11-3.66c-4.11-2.44-7.31-5.92-9.6-10.46-2.29-4.53-3.5-9.74-3.61-15.61v-3.51c0-6.1 1.12-11.48 3.36-16.14s5.45-8.26 9.62-10.8c4.17-2.54 8.93-3.81 14.26-3.81s9.98 1.25 14.11 3.76 7.35 6.08 9.65 10.71c2.29 4.63 3.45 9.94 3.48 15.93v2.86zm-15.27-2.61c0-6.19-1.04-10.89-3.1-14.09s-5.03-4.81-8.87-4.81c-7.53 0-11.51 5.65-11.93 16.94l-.05 4.57c0 6.1 1.01 10.79 3.04 14.07s5.03 4.92 9.03 4.92 6.71-1.61 8.77-4.83 3.1-7.85 3.12-13.9v-2.86zM225.99 136.67H207.3v50.68h-15.01v-50.68h-18.35v-11.59h52.05v11.59zM283.64 136.67h-18.69v50.68h-15.01v-50.68H231.6v-11.59h52.05v11.59zM340.56 125.08v40.76c0 4.62-.98 8.62-2.95 12s-4.79 5.95-8.47 7.72c-3.68 1.77-8.03 2.65-13.05 2.65-7.58 0-13.56-1.97-17.92-5.9-4.36-3.93-6.58-9.32-6.67-16.17v-41.06h15.1v41.36c.17 6.81 3.34 10.22 9.49 10.22 3.11 0 5.46-.86 7.06-2.57 1.6-1.71 2.39-4.49 2.39-8.34v-40.67h15.01zM403.68 187.35h-14.93l-22.07-38.75v38.75h-15.01v-62.27h15.01l22.03 38.75v-38.75h14.97v62.27zM453.55 160.92h-23.61v14.88h27.89v11.55h-42.9v-62.27h42.98v11.59h-27.97v13.13h23.61v11.12z"/></g></g></svg>