<svg width="365" height="266" viewBox="0 0 365 266" fill="none" xmlns="http://www.w3.org/2000/svg"><path fill-rule="evenodd" clip-rule="evenodd" d="M29.503 12.446a7.695 7.695 0 011.924.19l69.048 15.893c.105.025.21.051.313.08 7.125 1.987 14.984 2.08 22.855.285 1.323-.488 2.674-.9 4.047-1.227L197.241 1.27a8.72 8.72 0 011.935-.244c3.634-.06 9.067 11.495 9.322 15.113.298 4.231-3.1 8.54-7.59 9.623l-71.28 17.201-2.888.757c-.252.066-.504.13-.756.194-5.282 2.277-9.394 7.178-10.353 12.642l-1.122 6.4c-.672 3.83-.209 7.564 1.335 10.755l19.843 41.013c2.018 4.171 7.969 4.613 12.07.897l29.104-41.91c3.578-3.24 12.238-4.3 15.954 5.777 3.482 7.198 3.578 11.623 0 14.864l-35.174 31.872c-12.555 11.376-30.772 10.021-36.95-2.748l-18.207-37.632-31.525 38.283c-10.697 12.99-29.475 14.829-38.087 3.73L8.744 96.762C6.29 93.599-3.096 84.527 4.821 75.889c3.772-3.013 15.127 6.8 17.581 9.962l24.129 31.095c2.813 3.626 8.947 3.025 12.44-1.218l34.357-41.722c2.673-3.246 4.452-7.01 5.124-10.84l1.508-8.595c.894-5.094-1.877-9.477-6.698-10.597L18.498 26.229c-4.134-.96-6.096-11.576-4.319-15.837 1.533-3.675 11.663 2.055 15.324 2.054z" fill="#5E6FDB"/><path fill-rule="evenodd" clip-rule="evenodd" d="M127.204 27.787a32.5 32.5 0 01.486-.12L197.241 1.27a8.72 8.72 0 011.935-.244c3.634-.06 9.067 11.495 9.322 15.113.298 4.231-3.1 8.54-7.59 9.623l-71.28 17.201-2.888.757c-.252.066-.504.13-.756.194-5.282 2.277-9.394 7.178-10.353 12.642l-1.122 6.4c-.672 3.83-.209 7.564 1.335 10.755l19.843 41.013c2.018 4.171 7.969 4.613 12.07.897l29.104-41.91c3.578-3.24 12.238-4.3 15.954 5.777 3.482 7.198 3.578 11.623 0 14.864l-35.174 31.872c-12.555 11.376-30.772 10.021-36.95-2.748l-18.207-37.632-31.525 38.283c-10.697 12.99-29.475 14.829-38.087 3.73L8.744 96.762a41.966 41.966 0 00-.963-1.171c-3.256-3.873-10.055-11.962-2.96-19.702 3.772-3.013 15.127 6.8 17.581 9.962l24.129 31.095c2.813 3.626 8.947 3.025 12.44-1.218l34.357-41.722c2.673-3.246 4.452-7.01 5.124-10.84l1.508-8.595c.894-5.094-1.877-9.477-6.698-10.597L18.498 26.229c-4.134-.96-6.096-11.576-4.319-15.837.992-2.378 5.586-.817 9.697.58 2.24.762 4.336 1.474 5.627 1.474a7.695 7.695 0 011.924.19l69.048 15.893c.105.025.21.051.313.08 7.125 1.987 14.984 2.08 22.855.285 1.167-.43 2.355-.801 3.561-1.107zm-33.72 15.227L18.727 25.27l-.005-.001c-.66-.153-1.373-.735-2.053-1.838-.665-1.08-1.21-2.523-1.587-4.11a21.146 21.146 0 01-.573-4.79c.001-1.546.207-2.863.58-3.76.145-.346.51-.64 1.6-.623 1.074.018 2.484.352 4.067.836.934.286 1.857.6 2.772.91.653.223 1.303.444 1.95.653 1.466.472 2.932.885 4.027.884h.025a6.708 6.708 0 011.677.165l69.048 15.894c.091.02.181.044.27.068 7.297 2.035 15.323 2.125 23.338.297l.062-.015.06-.022a34.582 34.582 0 013.935-1.193l.061-.015 69.55-26.396a7.706 7.706 0 011.657-.202h.005c.193-.004.484.071.887.329.398.254.843.647 1.321 1.174.953 1.054 1.939 2.534 2.842 4.166a38.844 38.844 0 012.281 4.91c.596 1.574.939 2.863.992 3.617.26 3.69-2.755 7.61-6.838 8.596l-71.29 17.204-2.897.759c-.248.065-.497.129-.745.191l-.078.02-.073.031c-5.558 2.396-9.912 7.556-10.933 13.377l-1.123 6.4c-.704 4.013-.223 7.96 1.419 11.355l19.843 41.012c1.185 2.449 3.52 3.77 6.067 3.96 2.539.189 5.313-.734 7.551-2.762l.084-.075 29.102-41.906c1.581-1.382 4.283-2.317 6.997-1.797 2.686.515 5.532 2.49 7.29 7.256l.016.045.021.043c1.719 3.554 2.538 6.301 2.549 8.492.011 2.123-.736 3.774-2.323 5.213l-35.175 31.872c-6.09 5.518-13.521 7.919-20.131 7.428-6.601-.491-12.357-3.854-15.27-9.875L102.701 84.03 70.198 123.5c-5.185 6.297-12.316 9.873-19.16 10.544-6.842.67-13.329-1.561-17.387-6.792L9.523 96.158c-.285-.368-.64-.79-1.037-1.263-1.44-1.716-3.439-4.096-4.692-6.917-.787-1.769-1.24-3.64-1.064-5.538.172-1.862.954-3.829 2.76-5.822.538-.386 1.497-.46 3.012.046 1.508.504 3.271 1.49 5.048 2.704 3.56 2.433 6.928 5.61 8.074 7.087l24.128 31.095c1.654 2.132 4.252 2.972 6.84 2.719 2.586-.254 5.23-1.595 7.14-3.915L94.09 74.633c2.772-3.367 4.63-7.285 5.334-11.297l1.508-8.595c.977-5.572-2.078-10.479-7.444-11.727h-.002z" fill="#000"/><path fill-rule="evenodd" clip-rule="evenodd" d="M23.745 2.36a7.694 7.694 0 011.924.19l69.047 15.894c.106.025.21.051.314.08 7.125 1.987 14.984 2.08 22.854.285 1.324-.488 2.675-.9 4.047-1.227L194.042.349a8.712 8.712 0 011.935-.243c3.634-.06 6.508 2.33 6.762 5.947.298 4.232-3.1 8.54-7.59 9.624l-71.28 17.201-2.887.757c-.252.066-.504.13-.756.194-5.283 2.277-9.395 7.178-10.353 12.642l-1.123 6.4c-.672 3.83-.208 7.564 1.336 10.755l19.842 41.013c2.018 4.171 7.969 4.613 12.07.897l35.175-31.872c3.577-3.241 8.689-3.495 11.419-.567 2.729 2.928 2.042 7.929-1.535 11.17l-35.175 31.872c-12.554 11.376-30.772 10.021-36.95-2.748L96.725 75.758 65.2 114.042c-10.697 12.99-29.474 14.829-38.086 3.73L2.986 86.677C.532 83.514 1.6 78.508 5.372 75.495c3.771-3.013 8.818-2.892 11.272.27l24.128 31.096c2.813 3.626 8.947 3.025 12.441-1.218L87.57 63.921c2.674-3.246 4.453-7.01 5.125-10.84l1.507-8.595c.894-5.094-1.876-9.477-6.698-10.597l-68.46-15.902c-4.133-.96-6.044-5.193-4.267-9.454 1.533-3.675 5.308-6.17 8.969-6.172z" fill="#B0B8ED"/><path fill-rule="evenodd" clip-rule="evenodd" d="M121.445 17.701l.486-.12L194.042.35a8.712 8.712 0 011.935-.243c3.634-.06 6.508 2.33 6.762 5.947.298 4.232-3.1 8.54-7.59 9.624l-71.28 17.201-2.887.757c-.252.066-.504.13-.756.194-5.283 2.277-9.395 7.178-10.353 12.642l-1.123 6.4c-.672 3.83-.208 7.564 1.336 10.755l19.842 41.013c2.018 4.171 7.969 4.613 12.07.897l35.175-31.872c3.577-3.241 8.689-3.495 11.419-.567 2.729 2.928 2.042 7.929-1.535 11.17l-35.175 31.872c-12.554 11.376-30.772 10.021-36.95-2.748L96.725 75.758 65.2 114.042c-10.697 12.99-29.474 14.829-38.086 3.73L2.986 86.677C.532 83.514 1.6 78.508 5.372 75.495c3.771-3.013 8.818-2.892 11.272.27l24.128 31.096c2.813 3.626 8.947 3.025 12.441-1.218L87.57 63.921c2.674-3.246 4.453-7.01 5.125-10.84l1.507-8.595c.894-5.094-1.876-9.477-6.698-10.597l-68.46-15.902c-4.133-.96-6.044-5.193-4.267-9.454 1.533-3.675 5.308-6.17 8.969-6.172a7.694 7.694 0 011.924.19l69.047 15.893c.106.025.21.051.314.08 7.125 1.987 14.984 2.08 22.854.285 1.167-.43 2.356-.801 3.561-1.108zM23.758 3.346h-.013c-3.249.001-6.674 2.245-8.06 5.566-.794 1.907-.742 3.744-.094 5.18.645 1.428 1.904 2.524 3.675 2.935l68.46 15.902c5.368 1.247 8.424 6.155 7.446 11.727l-1.508 8.595c-.704 4.012-2.562 7.93-5.334 11.297l-34.356 41.721c-1.91 2.32-4.555 3.661-7.14 3.915-2.589.253-5.186-.587-6.84-2.719L15.864 76.37c-2.014-2.596-6.392-2.89-9.878-.105-3.49 2.787-4.248 7.198-2.223 9.808l24.128 31.095c4.059 5.23 10.545 7.462 17.387 6.792 6.844-.671 13.975-4.248 19.16-10.545l32.503-39.47 18.877 39.017c2.914 6.021 8.669 9.384 15.27 9.875 6.61.491 14.042-1.91 20.132-7.428l35.174-31.872c3.307-2.997 3.716-7.366 1.476-9.769-2.252-2.415-6.728-2.372-10.037.626l-35.174 31.872c-2.238 2.028-5.013 2.95-7.551 2.762-2.548-.19-4.883-1.511-6.068-3.96l-19.842-41.012c-1.643-3.396-2.124-7.342-1.42-11.356l1.123-6.4c1.021-5.82 5.376-10.98 10.933-13.376l.074-.032.077-.019c.249-.062.497-.126.746-.191l2.897-.76 71.289-17.203c4.084-.985 7.098-4.905 6.838-8.596-.214-3.044-2.6-5.084-5.763-5.032h-.006a7.725 7.725 0 00-1.716.217L122.16 18.54a34.706 34.706 0 00-3.935 1.193l-.06.022-.062.015c-8.014 1.828-16.04 1.738-23.338-.297a6.025 6.025 0 00-.27-.068L25.448 3.51a6.71 6.71 0 00-1.678-.164h-.012z" fill="#000"/><path d="M60.482 25.706l26.593-7.091-27.479-6.205-24.82 7.091 25.706 6.205z" fill="#fff" fill-opacity=".3"/><path d="M236.816 72.024l-.022.002h-.023c-.15 0-.413.043-.791.143-.368.097-.815.24-1.318.422a45.885 45.885 0 00-3.463 1.44c-2.499 1.148-5.043 2.526-6.228 3.483-.327.264-.48.708-.48 1.263v7.655c0 .885.087 1.52.335 1.932.211.35.593.617 1.453.617h94.789c.873 0 1.877-.309 2.788-.832.912-.523 1.685-1.233 2.126-1.987l6.424-10.984c.273-.468.417-1 .425-1.547.048-3.281.302-8.694.388-10.464l-.001-.006-.001-.003-.002-.001a.023.023 0 00-.005-.004h-.002a.02.02 0 00-.005 0l-96.387 8.871z" fill="#55A398" stroke="#000" stroke-width=".985"/><rect x=".741" y="-.425" width="100.899" height="19.797" rx="3.056" transform="matrix(1 0 .50483 -.86322 222.946 78.543)" fill="#BAD5D2" stroke="#000" stroke-width=".985"/><path d="M257.343 36.543l-.023.002h-.023c-.15 0-.412.042-.791.142-.368.098-.814.241-1.318.422a45.793 45.793 0 00-3.462 1.44c-2.5 1.148-5.043 2.526-6.229 3.484-.326.264-.479.708-.479 1.262v7.656c0 .885.086 1.52.334 1.931.212.35.593.617 1.454.617h94.788c.873 0 1.877-.308 2.788-.831.912-.523 1.685-1.233 2.126-1.987l6.424-10.985c.273-.467.418-1 .426-1.547.047-3.28.301-8.693.387-10.463v-.006l-.004-.005c-.001-.002-.003-.003-.005-.003h-.007l-96.386 8.871z" fill="#55A398" stroke="#000" stroke-width=".985"/><path d="M245.474 41.04c-.443.757-.424 1.325-.225 1.672.199.346.68.65 1.557.65h94.788c.874 0 1.877-.31 2.789-.833.911-.523 1.684-1.233 2.125-1.987l6.909-11.814c.443-.757.424-1.325.226-1.672-.199-.346-.68-.65-1.557-.65h-94.789c-.873 0-1.876.31-2.788.832-.912.523-1.685 1.234-2.126 1.988l-6.909 11.814z" fill="#BAD5D2" stroke="#000" stroke-width=".985"/><path d="M254.529 78.327l31.752-16.135h-23.705l-29.734 16.135h21.687zM271.28 42.854l31.752-16.136h-23.705l-29.734 16.136h21.687z" fill="#fff" fill-opacity=".5"/><path d="M199.441 120.677h0c3.173-.579 6.258.613 8.752 2.295 2.498 1.685 4.323 3.808 4.96 4.947 1.017 1.819 16.016 31.921 33.341 66.914 7.22 14.582 14.46 26.456 20.341 35.92l1.566 2.516c2.302 3.696 4.352 6.988 6.061 9.904 2.042 3.484 3.581 6.404 4.476 8.813l-.084.221a124.352 124.352 0 01-1.763 4.377 61.877 61.877 0 01-1.68 3.657c-.569 1.122-1.086 1.981-1.473 2.39-.792.835-2.068 1.336-3.9 1.658-1.728.304-3.862.437-6.394.594l-.428.027-9.3.578-32.681-65.772-2.413-4.856c-10.975-22.079-18.27-36.757-22.534-46.628-2.285-5.291-3.686-9.172-4.32-12.056-.636-2.896-.475-4.689.232-5.886.395-.668.724-1.57 1.065-2.504l.014-.037c.353-.967.73-1.998 1.226-2.979.989-1.954 2.409-3.632 4.936-4.093zm-.088-.485h0z" fill="#F99" stroke="#000" stroke-width=".985"/><path d="M250.293 187.081l.001.002c8.798 17.575 15.358 30.709 19.965 40.544 4.613 9.847 7.247 16.345 8.218 20.669.486 2.162.543 3.726.261 4.871-.275 1.117-.879 1.863-1.808 2.398-.954.55-2.264.883-3.947 1.11-1.554.209-3.378.322-5.466.451l-.502.031-9.3.579-32.681-65.772-2.418-4.865c-7.809-15.71-13.756-27.674-18.074-36.828-4.758-10.088-7.518-16.722-8.618-21.177-.55-2.226-.672-3.86-.451-5.087.217-1.202.766-2.029 1.623-2.661.879-.647 2.101-1.102 3.686-1.494 1.291-.319 2.782-.587 4.472-.891l1.172-.212h0c3.341-.609 5.694-.789 7.361-.538 1.633.246 2.571.895 3.164 1.956 1.018 1.818 16.017 31.921 33.342 66.914z" fill="#FFB5B5" stroke="#000" stroke-width=".985"/><path d="M257.944 257.394l-3.876 7.752" stroke="#000" stroke-width=".985"/><path d="M227.224 195.35l16.445-19.934 8.472 16.944-16.943 18.937-7.974-15.947z" fill="#fff" fill-opacity=".3"/><path d="M66.314 252.76c4.832 2.791 10.143 4.883 15.93 6.278 5.789 1.331 11.718 1.931 17.787 1.801 6.069-.13 12.194-1.038 18.375-2.725a74.482 74.482 0 0017.702-7.398c3.484-2.011 6.434-4.104 8.85-6.278 2.529-2.173 4.636-4.428 6.322-6.764a30.125 30.125 0 002.445-4.526c.73-1.59 1.32-3.196 1.77-4.818l14.077 1.022 23.349-13.481v-12.866l-32.374.787c-.899-5.385-6.935-1.077-11.374-5.976-4.383-4.931-13.544-20.606-21.018-24.921l-14.385 8.472v12.751c4.608 2.66 8.401 5.466 11.38 8.419 2.978 2.887 5.226 5.84 6.743 8.857l-52.767-3.893 1.264-7.641c.675-2.466 1.096-4.85 1.265-7.154.168-2.368.674-13.618 0-15.824-.562-2.141-2.416 4.793-4.046 2.879-1.63-1.979-3.906-3.812-6.828-5.499-3.653-2.109-7.783-3.748-12.39-4.915a62.862 62.862 0 00-14.246-1.898 62.021 62.021 0 00-14.667 1.557c-4.833 1.103-9.3 2.839-13.403 5.207-4.832 2.79-10.974-2.407-13.502.676-2.473 3.049-1.305 14.265-1.417 17.379-.169 3.147.927 6.278 3.287 9.393 2.36 3.05 5.929 5.953 10.705 8.711 2.641 1.525 5.507 2.855 8.598 3.991 3.09 1.07 6.434 1.995 10.03 2.774 2.98.681 6.21 1.281 9.694 1.8 3.54.487 7.278.925 11.211 1.314l-2.023-.206c0 3.183.169 7.993 0 10.621-.112 2.595.14 5.077.759 7.446.787 2.725 2.191 5.321 4.215 7.786 2.079 2.434 4.973 4.721 8.682 6.862zm54.115-11.777a31.569 31.569 0 01-8.597 3.407 36.786 36.786 0 01-9.02.924 37.643 37.643 0 01-8.935-1.265c-2.922-.843-5.62-1.979-8.092-3.407a28.076 28.076 0 01-3.456-2.384c-1.18-1.006-2.248-2.206-3.203-3.601-.955-1.396-1.686-3.05-2.192-4.964-.561-1.947-.646-4.007-.252-6.181l.252-1.411 56.223 4.428a19.238 19.238 0 01-1.348 3.407 50.693 50.693 0 01-2.023 3.212 34.006 34.006 0 01-4.046 4.185c-1.574 1.298-3.344 2.515-5.311 3.65zm-86.484-41.561c-1.966-1.135-3.54-2.336-4.72-3.601-1.18-1.33-1.883-2.709-2.107-4.137-.281-1.33 0-2.693.843-4.088s2.332-2.709 4.467-3.942c1.517-.876 3.231-1.476 5.142-1.8 1.91-.325 3.85-.406 5.816-.244 1.91.13 3.821.487 5.732 1.071 1.854.552 3.54 1.265 5.058 2.141a36.52 36.52 0 012.697 1.752c.955.682 1.77 1.477 2.444 2.385.787.973 1.293 2.109 1.518 3.407.224 1.297.056 2.79-.506 4.477l-2.023 8.857a255.46 255.46 0 01-7.334-1.022 90.708 90.708 0 01-6.322-1.314 60.043 60.043 0 01-5.816-1.703c-1.798-.649-3.428-1.395-4.889-2.239z" fill="#FFCA31"/><path fill-rule="evenodd" clip-rule="evenodd" d="M52.663 221.036c.006.772.018 1.606.03 2.459.039 2.602.08 5.388-.035 7.171-.112 2.595.14 5.077.759 7.446.787 2.725 2.191 5.321 4.215 7.786 2.079 2.434 4.973 4.721 8.682 6.862 4.832 2.791 10.143 4.883 15.93 6.278 5.789 1.331 11.718 1.931 17.787 1.801 6.069-.13 12.194-1.038 18.375-2.725a74.482 74.482 0 0017.702-7.398c3.484-2.011 6.434-4.104 8.85-6.278 2.529-2.173 4.636-4.428 6.322-6.764a30.125 30.125 0 002.445-4.526c.73-1.59 1.32-3.196 1.77-4.818l14.077 1.022 23.349-13.481v-12.866l-32.374.787c-.468-2.805-2.331-2.98-4.635-3.196-2.119-.199-4.612-.433-6.739-2.78-1.354-1.523-3.164-4.072-5.239-6.994-4.643-6.537-10.614-14.945-15.779-17.927l-14.385 8.472v12.751c4.608 2.66 8.401 5.466 11.38 8.419 2.639 2.559 4.704 5.168 6.196 7.829.192.342.374.684.547 1.028l-52.767-3.893 1.264-7.641c.675-2.466 1.096-4.85 1.265-7.154.159-2.233.618-12.365.104-15.362l-.001-.007a3.828 3.828 0 00-.103-.455c-.189-.72-.524-.414-.947.236l-.007.011c-.14.215-.29.468-.446.733-.78 1.32-1.748 2.955-2.646 1.899-1.63-1.979-3.906-3.812-6.828-5.499-3.653-2.109-7.783-3.748-12.39-4.915a62.862 62.862 0 00-14.246-1.898 62.021 62.021 0 00-14.667 1.557c-4.833 1.103-9.3 2.839-13.403 5.207-2.454 1.417-5.246.774-7.73.202-2.409-.555-4.528-1.043-5.772.474-1.91 2.354-1.648 9.577-1.482 14.18.05 1.359.09 2.489.065 3.199-.169 3.147.927 6.278 3.287 9.393 2.36 3.05 5.929 5.953 10.705 8.711 2.641 1.525 5.507 2.855 8.598 3.991 3.09 1.07 6.434 1.995 10.03 2.774 2.98.681 6.21 1.281 9.694 1.8a284.962 284.962 0 009.188 1.108c0 .316.002.647.005.991zm.986.102c.007.714.018 1.486.03 2.28.038 2.619.08 5.479-.037 7.301-.107 2.495.136 4.871.725 7.132.745 2.574 2.078 5.046 4.02 7.415 1.986 2.322 4.78 4.54 8.42 6.641 4.744 2.739 9.963 4.798 15.664 6.172 5.705 1.311 11.55 1.903 17.539 1.775 5.984-.128 12.029-1.024 18.137-2.691a73.475 73.475 0 0017.468-7.3c3.438-1.985 6.329-4.039 8.684-6.157l.009-.008.008-.007c2.472-2.125 4.52-4.318 6.152-6.575a29.194 29.194 0 002.353-4.36l.004-.01.004-.01c.71-1.543 1.281-3.1 1.716-4.669l.216-.778 14.58 1.058 22.594-13.044v-11.288l-32.219.783-.141-.843c-.186-1.118-.595-1.567-1.044-1.821-.55-.311-1.313-.424-2.437-.531l-.311-.029c-2.11-.196-4.951-.46-7.34-3.096l-.006-.007c-1.138-1.279-2.563-3.228-4.148-5.45-.378-.529-.766-1.075-1.163-1.634a316.6 316.6 0 00-4.094-5.675c-1.877-2.525-3.837-5.012-5.782-7.129-1.774-1.931-3.499-3.513-5.103-4.539l-13.391 7.886v11.621c4.44 2.607 8.14 5.365 11.083 8.282 3.039 2.946 5.358 5.984 6.934 9.118l.782 1.554-55.577-4.101 1.449-8.755.013-.049c.66-2.41 1.069-4.732 1.232-6.966.083-1.166.25-4.551.314-7.919a97.96 97.96 0 00-.008-4.731 34.546 34.546 0 00-.063-1.303 5.246 5.246 0 01-.038.063c-.355.59-.835 1.357-1.392 1.827-.286.241-.71.508-1.247.513-.583.007-1.047-.294-1.38-.684l-.005-.006-.005-.007c-1.535-1.864-3.71-3.626-6.56-5.272-3.564-2.058-7.609-3.665-12.14-4.813a61.875 61.875 0 00-14.02-1.868 61.04 61.04 0 00-14.43 1.532c-4.742 1.083-9.117 2.784-13.13 5.1-2.79 1.611-5.91.892-8.291.344l-.08-.018c-1.247-.287-2.27-.523-3.137-.532-.826-.008-1.345.192-1.724.651-.443.548-.803 1.595-1.039 3.095-.229 1.459-.317 3.189-.333 4.957-.015 1.763.042 3.533.098 5.069l.015.416c.048 1.34.09 2.508.063 3.256v.017c-.154 2.861.833 5.767 3.085 8.741 2.256 2.913 5.708 5.739 10.416 8.457 2.586 1.493 5.397 2.799 8.436 3.916 3.047 1.055 6.35 1.968 9.908 2.739l.012.002c2.948.675 6.152 1.27 9.613 1.786 2.915.401 5.965.768 9.15 1.103l2.021.206-.197 1.961-.935-.094zm58.408 24.211l-.006.001a37.751 37.751 0 01-9.26.95c-3.113-.067-6.17-.5-9.167-1.299l-.01-.002-.01-.003c-2.994-.864-5.766-2.03-8.311-3.5a29.151 29.151 0 01-3.578-2.468l-.013-.01-.012-.01c-1.252-1.067-2.377-2.334-3.377-3.795-1.027-1.499-1.799-3.257-2.328-5.258-.605-2.101-.69-4.312-.273-6.617m0-.001l.41-2.289 58.317 4.594-.335 1.161a20.245 20.245 0 01-1.417 3.58l-.012.023-.013.023a51.344 51.344 0 01-2.062 3.274l-.023.033-.025.031a34.91 34.91 0 01-4.163 4.307l-.011.01-.011.009c-1.62 1.337-3.436 2.584-5.445 3.744a32.565 32.565 0 01-8.865 3.512m-35.375-21.837c-.394 2.174-.31 4.234.252 6.181.506 1.914 1.237 3.568 2.192 4.964.955 1.395 2.023 2.595 3.203 3.601a28.076 28.076 0 003.456 2.384c2.473 1.428 5.17 2.564 8.092 3.407 2.922.779 5.9 1.201 8.935 1.265a36.786 36.786 0 009.02-.924c3.034-.714 5.9-1.85 8.597-3.407 1.967-1.135 3.737-2.352 5.311-3.65a34.006 34.006 0 004.046-4.185 50.693 50.693 0 002.023-3.212 19.448 19.448 0 001.348-3.407l-56.223-4.428-.252 1.411zm-48.186-27.028l-.008-.009c-1.27-1.431-2.075-2.969-2.34-4.612-.333-1.614.03-3.221.97-4.776.961-1.592 2.606-3.009 4.818-4.286 1.628-.94 3.455-1.577 5.469-1.919a24.203 24.203 0 016.055-.254 26.41 26.41 0 015.943 1.11c1.919.571 3.676 1.313 5.265 2.231a36.92 36.92 0 012.773 1.8l.004.003a11.883 11.883 0 012.652 2.584c.89 1.107 1.458 2.394 1.709 3.841.258 1.492.057 3.139-.527 4.911l-2.211 9.681-.885-.111a262.17 262.17 0 01-7.361-1.026l-.01-.001-.008-.002a92.096 92.096 0 01-6.388-1.328 60.885 60.885 0 01-5.91-1.731l-.006-.002c-1.846-.666-3.53-1.436-5.047-2.312-2.027-1.17-3.685-2.428-4.949-3.783l-.008-.009zm16.155 6.88c1.966.487 4.074.925 6.321 1.314 2.304.357 4.749.698 7.334 1.022l2.023-8.857c.562-1.687.73-3.18.506-4.477-.225-1.298-.73-2.434-1.518-3.407a10.926 10.926 0 00-2.444-2.385 36.52 36.52 0 00-2.697-1.752c-1.518-.876-3.204-1.589-5.058-2.141a25.476 25.476 0 00-5.732-1.071 23.194 23.194 0 00-5.816.244c-1.91.324-3.625.924-5.142 1.8-2.135 1.233-3.624 2.547-4.467 3.942-.843 1.395-1.124 2.758-.843 4.088.225 1.428.927 2.807 2.107 4.137 1.18 1.265 2.754 2.466 4.72 3.601 1.462.844 3.091 1.59 4.89 2.239a60.043 60.043 0 005.816 1.703z" fill="#000"/><path d="M66.313 239.803c4.833 2.791 10.143 4.883 15.931 6.278 5.788 1.331 11.717 1.931 17.786 1.801 6.069-.13 12.194-1.038 18.376-2.725a74.474 74.474 0 0017.701-7.398c3.484-2.011 6.434-4.104 8.851-6.278 2.529-2.173 4.636-4.428 6.322-6.764a30.118 30.118 0 002.444-4.526 31.898 31.898 0 001.77-4.818l14.077 1.022 23.349-13.481-35.74-2.628c-.899-5.385-3.568-10.528-8.008-15.427-4.383-4.931-10.311-9.555-17.785-13.87l-17.617 10.172c4.608 2.66 8.401 5.466 11.379 8.419 2.978 2.887 5.226 5.84 6.743 8.857l-52.766-3.893 1.264-7.641c.674-2.466 1.096-4.85 1.264-7.154a18.73 18.73 0 00-.758-6.862c-.562-2.141-1.658-4.169-3.288-6.083-1.63-1.979-3.905-3.812-6.828-5.499-3.652-2.109-7.782-3.748-12.39-4.916-4.608-1.168-9.357-1.8-14.246-1.898a62.074 62.074 0 00-14.667 1.558c-4.832 1.103-9.3 2.839-13.402 5.207-4.833 2.79-8.514 5.726-11.043 8.809-2.472 3.049-3.765 6.132-3.877 9.246-.169 3.147.927 6.278 3.287 9.393 2.36 3.05 5.929 5.953 10.706 8.711 2.64 1.525 5.507 2.855 8.597 3.991 3.091 1.07 6.435 1.995 10.031 2.774 2.978.681 6.21 1.281 9.694 1.8 3.54.487 7.277.925 11.21 1.314l-.505 2.142c-.843 2.887-1.349 5.645-1.517 8.273-.113 2.595.14 5.077.758 7.446.787 2.725 2.192 5.321 4.215 7.786 2.08 2.434 4.973 4.721 8.682 6.862zm54.116-11.777a31.588 31.588 0 01-8.598 3.407 36.778 36.778 0 01-9.019.924 37.645 37.645 0 01-8.935-1.265c-2.922-.843-5.62-1.979-8.092-3.407a28.076 28.076 0 01-3.456-2.384c-1.18-1.006-2.248-2.206-3.203-3.601-.956-1.396-1.686-3.05-2.192-4.964-.562-1.947-.646-4.007-.253-6.181l.253-1.411 56.223 4.428a19.242 19.242 0 01-1.349 3.407 50.245 50.245 0 01-2.023 3.212 34.006 34.006 0 01-4.046 4.185c-1.573 1.298-3.343 2.515-5.31 3.65zm-86.484-41.561c-1.967-1.135-3.54-2.336-4.72-3.601-1.18-1.33-1.883-2.709-2.108-4.137-.28-1.33 0-2.693.843-4.088s2.332-2.709 4.468-3.942c1.517-.876 3.23-1.476 5.141-1.8 1.911-.325 3.85-.406 5.816-.244 1.911.13 3.822.487 5.732 1.071 1.855.552 3.54 1.265 5.058 2.141a36.499 36.499 0 012.697 1.752c.956.682 1.77 1.477 2.445 2.385.786.973 1.292 2.109 1.517 3.407.225 1.297.056 2.79-.506 4.477l-2.023 8.857a255.56 255.56 0 01-7.333-1.022 90.705 90.705 0 01-6.322-1.314 60.054 60.054 0 01-5.816-1.703c-1.799-.649-3.428-1.395-4.89-2.239z" fill="#FFE598"/><path fill-rule="evenodd" clip-rule="evenodd" d="M54.175 209.436c-.843 2.887-1.349 5.645-1.517 8.273-.113 2.595.14 5.077.758 7.446.787 2.725 2.192 5.321 4.215 7.786 2.08 2.434 4.973 4.721 8.682 6.862 4.833 2.791 10.143 4.883 15.931 6.278 5.788 1.331 11.717 1.931 17.786 1.801 6.069-.13 12.194-1.038 18.376-2.725a74.474 74.474 0 0017.701-7.398c3.484-2.011 6.434-4.104 8.851-6.278 2.529-2.173 4.636-4.428 6.322-6.764a30.118 30.118 0 002.444-4.526 31.898 31.898 0 001.77-4.818l14.077 1.022 23.349-13.481-35.74-2.628c-.899-5.385-3.568-10.528-8.008-15.427-4.383-4.931-10.311-9.555-17.785-13.87l-17.617 10.172c.33.19.655.381.977.573 4.17 2.49 7.637 5.105 10.402 7.846 2.639 2.558 4.705 5.168 6.197 7.829.191.342.374.684.546 1.028l-52.766-3.893 1.264-7.641c.674-2.466 1.096-4.85 1.264-7.154a18.73 18.73 0 00-.758-6.862c-.562-2.141-1.658-4.169-3.288-6.083-1.63-1.979-3.905-3.812-6.828-5.499-3.652-2.109-7.782-3.748-12.39-4.916-4.608-1.168-9.357-1.8-14.246-1.898a62.074 62.074 0 00-14.667 1.558c-4.832 1.103-9.3 2.839-13.402 5.207-4.833 2.79-8.514 5.726-11.043 8.809-2.472 3.049-3.765 6.132-3.877 9.246-.169 3.147.927 6.278 3.287 9.393 2.36 3.05 5.929 5.953 10.706 8.711 2.64 1.525 5.507 2.855 8.597 3.991 3.091 1.07 6.435 1.995 10.031 2.774 2.978.681 6.21 1.281 9.694 1.8 3.242.446 6.65.851 10.222 1.215.328.033.658.067.989.099l-.506 2.142zm-10.566-4.431c3.526.484 7.248.921 11.169 1.309l1.12.111-.77 3.262-.007.025c-.825 2.824-1.315 5.506-1.48 8.05-.106 2.495.137 4.871.726 7.132.745 2.574 2.077 5.046 4.02 7.415 1.986 2.322 4.78 4.54 8.419 6.641 4.744 2.739 9.964 4.798 15.664 6.172 5.706 1.311 11.551 1.903 17.539 1.775 5.984-.128 12.029-1.024 18.137-2.691a73.516 73.516 0 0017.468-7.3c3.438-1.985 6.33-4.039 8.685-6.157l.008-.008.008-.007c2.473-2.125 4.52-4.318 6.152-6.575a29.103 29.103 0 002.353-4.36l.004-.01.005-.01a31.037 31.037 0 001.716-4.669l.215-.778 14.581 1.058 20.313-11.728-33.318-2.45-.128-.763c-.862-5.164-3.426-10.139-7.766-14.928l-.006-.007c-4.2-4.726-9.874-9.191-17.051-13.386l-15.663 9.043c4.014 2.436 7.39 5.003 10.117 7.705 3.038 2.946 5.358 5.984 6.934 9.118l.781 1.554-55.577-4.101 1.449-8.755.013-.049c.66-2.41 1.069-4.732 1.233-6.966.16-2.25-.081-4.415-.719-6.502l-.005-.019-.005-.019c-.52-1.979-1.538-3.877-3.085-5.694l-.005-.006-.005-.007c-1.536-1.864-3.71-3.626-6.56-5.272-3.565-2.058-7.61-3.665-12.14-4.813a61.875 61.875 0 00-14.02-1.868 61.041 61.041 0 00-14.431 1.532c-4.742 1.083-9.116 2.783-13.13 5.1-4.766 2.753-8.34 5.617-10.77 8.578-2.373 2.927-3.554 5.81-3.657 8.66v.008l-.001.009c-.153 2.861.834 5.767 3.086 8.741 2.256 2.913 5.708 5.739 10.415 8.457 2.587 1.493 5.398 2.799 8.437 3.916 3.046 1.055 6.348 1.968 9.908 2.739l.01.002c2.95.675 6.154 1.27 9.614 1.786zm68.448 27.387l-.006.001a37.751 37.751 0 01-9.26.95c-3.113-.067-6.17-.5-9.168-1.299l-.01-.002-.01-.003c-2.993-.864-5.765-2.03-8.311-3.5a29.144 29.144 0 01-3.578-2.468l-.012-.01-.013-.01c-1.252-1.067-2.376-2.334-3.377-3.795-1.026-1.499-1.798-3.257-2.328-5.258-.605-2.101-.69-4.312-.273-6.617m0-.001l.41-2.289 58.318 4.594-.335 1.161a20.249 20.249 0 01-1.418 3.58l-.012.023-.012.023a51.816 51.816 0 01-2.063 3.274l-.022.033-.026.031a34.974 34.974 0 01-4.162 4.307l-.011.01-.012.009c-1.62 1.336-3.436 2.584-5.445 3.743a32.517 32.517 0 01-8.864 3.513m-35.376-21.837c-.393 2.174-.31 4.234.253 6.181.506 1.914 1.236 3.568 2.192 4.964.955 1.395 2.022 2.595 3.203 3.601a28.076 28.076 0 003.456 2.384c2.472 1.428 5.17 2.564 8.092 3.407 2.922.779 5.9 1.201 8.935 1.265a36.778 36.778 0 009.019-.924c3.034-.714 5.9-1.85 8.598-3.407 1.967-1.135 3.737-2.352 5.31-3.65a34.006 34.006 0 004.046-4.185 50.245 50.245 0 002.023-3.212 19.302 19.302 0 001.349-3.407l-56.223-4.428-.253 1.411zm-48.186-27.028l-.008-.009c-1.27-1.431-2.075-2.969-2.34-4.612-.333-1.614.03-3.221.97-4.776.962-1.592 2.606-3.009 4.818-4.286 1.629-.94 3.456-1.577 5.47-1.919a24.203 24.203 0 016.054-.254 26.41 26.41 0 015.943 1.11c1.92.571 3.676 1.313 5.266 2.231.82.473 1.745 1.075 2.772 1.8l.004.003a11.898 11.898 0 012.652 2.583c.89 1.108 1.458 2.395 1.709 3.842.258 1.492.058 3.139-.527 4.911l-2.21 9.681-.886-.111a262.161 262.161 0 01-7.361-1.026l-.009-.001-.008-.002a92.093 92.093 0 01-6.389-1.328 60.868 60.868 0 01-5.91-1.731l-.006-.002c-1.846-.666-3.53-1.436-5.047-2.312-2.026-1.17-3.684-2.428-4.948-3.783l-.009-.009zm16.155 6.88l-.233.958-.002-.001h-.002l.237-.957zm-5.816-1.703a60.054 60.054 0 005.816 1.703c1.967.487 4.074.925 6.322 1.314 2.304.357 4.748.698 7.333 1.022l2.023-8.857c.562-1.687.73-3.18.506-4.477-.225-1.298-.73-2.434-1.517-3.407a10.929 10.929 0 00-2.445-2.385 36.499 36.499 0 00-2.697-1.752c-1.517-.876-3.203-1.589-5.058-2.141a25.477 25.477 0 00-5.731-1.071 23.195 23.195 0 00-5.817.244c-1.91.324-3.624.924-5.142 1.8-2.135 1.233-3.624 2.547-4.467 3.942-.843 1.395-1.124 2.758-.843 4.088.225 1.428.927 2.807 2.107 4.137 1.18 1.265 2.754 2.466 4.72 3.601 1.462.844 3.091 1.59 4.89 2.239z" fill="#000"/><path d="M169.518 215.753v12.957" stroke="#000" stroke-width=".985"/><path d="M78.22 192.36l-36.38 12.459c-6.948-1.404-10.837-2.153-17.94-4.485l21.927-8.472c1.595.398 9.635 1.495 13.456 1.993v-.498l2.491-10.964 18.937-1.495-2.491 11.462z" fill="#fff" fill-opacity=".4"/><path d="M282.118 146.176c-3.721 2.149-8.629 3.237-13.564 3.237-4.935 0-9.843-1.088-13.564-3.237-3.724-2.15-5.474-4.899-5.474-7.547 0-.144-.007-.525-.017-1.058-.018-.98-.045-2.472-.056-3.935-.008-1.14-.006-2.276.018-3.175.012-.45.029-.835.053-1.13.012-.148.025-.267.038-.357.013-.086.023-.124.025-.131l.001-.001a.83.83 0 01.05-.11c.017.008.038.02.063.035.129.078.291.215.499.413.12.114.239.233.367.36.096.096.198.197.309.305.485.474 1.084 1.016 1.762 1.325.707.323 1.52.399 2.362-.087 3.721-2.149 8.629-3.237 13.564-3.237 4.935 0 9.843 1.088 13.564 3.237.794.458 1.581.367 2.268.059.663-.297 1.27-.811 1.774-1.262l.266-.24c.156-.142.301-.274.444-.397a3.59 3.59 0 01.545-.407.595.595 0 01.161-.068.466.466 0 01.064.106h0c0 .001.005.012.012.038.008.026.017.062.026.108.018.092.035.212.05.36.03.296.049.677.06 1.123.021.889.007 2-.022 3.119-.031 1.227-.082 2.477-.12 3.434a62.524 62.524 0 00-.054 1.573c0 2.648-1.75 5.397-5.474 7.547zm-32.457-17.49l-.002.001.002-.001zm37.9.068l.005.003-.005-.003zM339.395 179.067c-3.721 2.149-8.63 3.237-13.564 3.237-4.935 0-9.843-1.088-13.564-3.237-3.724-2.15-5.475-4.899-5.475-7.547 0-.171-.013-.678-.032-1.381-.026-1.02-.064-2.452-.088-3.866-.02-1.203-.03-2.401-.015-3.347.008-.473.021-.878.042-1.186a5.92 5.92 0 01.036-.374c.011-.082.021-.12.023-.13.001-.002.001-.003.001-.001l.027-.065.069.046c.14.102.312.267.527.495.119.127.234.253.355.387.106.116.216.238.341.372.497.535 1.103 1.141 1.786 1.501.712.375 1.543.499 2.403.003 3.721-2.149 8.629-3.237 13.564-3.237 4.934 0 9.843 1.088 13.564 3.237.842.486 1.659.409 2.372.088.684-.308 1.292-.849 1.787-1.322.111-.106.213-.206.31-.3.132-.13.256-.25.38-.366.212-.197.378-.335.51-.414a.742.742 0 01.077-.04l.02.037v.007l.002.302.008 1.085c.006.903.013 2.117.018 3.362.009 2.508.009 5.093-.028 5.569-.19 2.5-1.947 5.059-5.456 7.085zM306.829 161.1l-.004.004.004-.004zm37.974.481l-.002-.003.002.003z" fill="#FFB681" stroke="#000" stroke-width=".985"/><path d="M282.119 136.21c-3.721 2.149-8.629 3.237-13.564 3.237-4.934 0-9.843-1.088-13.564-3.237-3.724-2.15-5.474-4.899-5.474-7.547 0-2.647 1.75-5.396 5.474-7.546 3.721-2.149 8.63-3.237 13.564-3.237 4.935 0 9.843 1.088 13.564 3.237 3.724 2.15 5.475 4.899 5.475 7.546 0 2.648-1.751 5.397-5.475 7.547zM339.397 169.101c-3.722 2.148-8.63 3.237-13.565 3.237-4.934 0-9.843-1.089-13.564-3.237-3.724-2.15-5.474-4.899-5.474-7.547 0-2.648 1.75-5.397 5.474-7.547 3.721-2.148 8.63-3.236 13.564-3.236 4.935 0 9.843 1.088 13.565 3.236 3.723 2.15 5.474 4.899 5.474 7.547 0 2.648-1.751 5.397-5.474 7.547z" fill="#FFDBC0" stroke="#000" stroke-width=".985"/><path d="M275.065 118.695l-24.419 11.961c.798 2.79 4.651 5.149 6.479 5.98l24.917-14.951c-1.994-1.594-5.482-2.657-6.977-2.99z" fill="#fff" fill-opacity=".3"/></svg>