<svg width="194" height="53" viewBox="0 0 194 53" fill="none" xmlns="http://www.w3.org/2000/svg"><path fill-rule="evenodd" clip-rule="evenodd" d="M36.574 7.33A3.682 3.682 0 0036.068 0a3.681 3.681 0 00-3.374 5.155L18.96 17.547a3.663 3.663 0 00-1.11-.494v-8.7a3.683 3.683 0 00-.92-7.248 3.681 3.681 0 00-.92 7.247v8.7a3.684 3.684 0 00-2.022 1.354l-6.669-2.757a3.681 3.681 0 10-.723 1.693l6.689 2.765a3.688 3.688 0 00-.036.512c0 .535.115 1.044.32 1.502l-7.102 5.664a3.681 3.681 0 10.706 4.721l12.338 3.388a3.669 3.669 0 00.932 2.642l-3.93 6.904a3.681 3.681 0 101.575.953l3.889-6.832a3.681 3.681 0 10.643-7.117l-3.518-8.853c.163-.119.315-.251.456-.395l15.538 8.958a3.681 3.681 0 103.707-2.696l-1.63-7.674a3.694 3.694 0 001.493-1.195l9.186 3.486a3.681 3.681 0 10.569-1.753l-9.07-3.442a3.693 3.693 0 00-.096-1.426l7.102-3.795a3.681 3.681 0 10-.942-1.584l-7.068 3.777a3.675 3.675 0 00-1.866-1.041l.093-7.482zM20.062 34.135c.23-.37.525-.696.868-.962l-3.538-8.902a3.663 3.663 0 01-2.675-.711L7.51 29.307a3.68 3.68 0 01.214 1.441l12.338 3.388zm13.77-27.53l-13.64 12.308a3.549 3.549 0 01.169.37l11.694-1.39a3.686 3.686 0 012.585-3.011l.096-7.767c-.326-.127-.63-.3-.904-.51zm1.521 15.47a3.684 3.684 0 01-3.093-2.353l-11.683 1.389c-.022.167-.056.33-.1.49l15.539 8.957c.285-.29.619-.535.987-.719l-1.65-7.765z" fill="#000"/><path d="M74.792 29.018c0-.928-.326-1.66-.977-2.198-.652-.544-1.844-1.058-3.577-1.542-1.733-.49-2.998-1.024-3.796-1.599-1.134-.813-1.702-1.88-1.702-3.199 0-1.28.525-2.32 1.576-3.118 1.058-.805 2.407-1.208 4.048-1.208 1.112 0 2.105.215 2.979.645.882.43 1.564 1.027 2.047 1.794.483.768.725 1.623.725 2.566h-1.426c0-1.143-.391-2.06-1.173-2.75-.783-.698-1.833-1.047-3.152-1.047-1.28 0-2.3.288-3.06.863-.758.568-1.138 1.312-1.138 2.232 0 .852.341 1.546 1.024 2.083.682.537 1.775 1.012 3.278 1.427 1.502.406 2.641.832 3.416 1.277.774.437 1.357.963 1.748 1.576.39.614.586 1.339.586 2.175 0 1.32-.529 2.378-1.587 3.175-1.05.798-2.438 1.197-4.163 1.197-1.181 0-2.266-.21-3.255-.633-.982-.422-1.73-1.012-2.243-1.772-.506-.76-.759-1.63-.759-2.611h1.415c0 1.18.44 2.113 1.322 2.795.882.683 2.055 1.024 3.52 1.024 1.303 0 2.35-.287 3.14-.863.79-.575 1.184-1.338 1.184-2.29zM84.778 25.52l5.117-9.136h1.634l-6.05 10.448v6.305h-1.415v-6.305l-6.038-10.448h1.68l5.072 9.136zM105.608 33.137h1.415V16.384h-1.403v14.348l-9.638-14.348h-1.426v16.753h1.426V18.8l9.626 14.336z" fill="#000"/><path fill-rule="evenodd" clip-rule="evenodd" d="M121.114 28.442h-7.602l-1.725 4.695h-1.484l6.337-16.753h1.346l6.337 16.753h-1.472l-1.737-4.695zm-7.165-1.208h6.717l-3.359-9.124-3.358 9.124zM128.799 33.137v-6.823h4.256c1.84 0 3.243-.426 4.209-1.277.974-.86 1.461-2.075 1.461-3.648 0-1.557-.506-2.78-1.518-3.67-1.005-.89-2.377-1.335-4.118-1.335h-5.704v16.753h1.414zm4.29-8.02h-4.29v-7.524h4.382c1.319.015 2.335.368 3.048 1.058.721.683 1.081 1.603 1.081 2.761 0 1.166-.36 2.075-1.081 2.727-.721.652-1.767.978-3.14.978z" fill="#000"/><path d="M163.163 33.137h-1.415V16.384h1.415v16.753z" fill="#000"/><path fill-rule="evenodd" clip-rule="evenodd" d="M167.915 23.495c-.46.959-.69 2.037-.69 3.233v.276c0 1.918.514 3.46 1.541 4.626 1.035 1.158 2.377 1.737 4.025 1.737 1.081 0 2.044-.26 2.887-.782.844-.522 1.495-1.262 1.955-2.221.468-.966.702-2.052.702-3.256v-.288c0-1.918-.514-3.455-1.541-4.614-1.028-1.166-2.369-1.749-4.026-1.749-1.073 0-2.035.269-2.886.806-.844.53-1.499 1.273-1.967 2.232zm1.84 7.283c-.767-.959-1.15-2.182-1.15-3.67v-.253c0-1.557.387-2.815 1.162-3.774.774-.967 1.775-1.45 3.001-1.45.821 0 1.549.219 2.186.656.636.43 1.131 1.04 1.483 1.83.353.79.529 1.66.529 2.611v.265c0 1.565-.387 2.826-1.161 3.785-.767.951-1.771 1.427-3.014 1.427-1.249 0-2.262-.476-3.036-1.427z" fill="#000"/><path d="M193.461 17.593h-5.739v15.544h-1.414V17.593h-5.728v-1.209h12.881v1.209zM151.263 27.982a3.681 3.681 0 100-7.363 3.681 3.681 0 000 7.363z" fill="#000"/></svg>