<svg width="212" height="53" viewBox="0 0 212 53" fill="none" xmlns="http://www.w3.org/2000/svg"><path fill-rule="evenodd" clip-rule="evenodd" d="M109.069 16.19c-.465.066-1.197.217-1.627.335-.429.119-1.095.367-1.48.551-.384.185-1.017.618-1.405.962-.388.345-.896.983-1.129 1.42a8.105 8.105 0 00-.622 1.685c-.147.66-.199 2.024-.199 5.267 0 3.255.052 4.605.201 5.272.11.494.371 1.239.579 1.656.208.417.679 1.043 1.047 1.391.367.349 1.08.823 1.584 1.054.504.23 1.339.52 1.856.641.518.122 1.732.28 2.699.351.966.071 4.384.131 7.594.133 3.211.002 6.641-.059 7.622-.135.982-.075 2.263-.253 2.847-.395.585-.141 1.397-.418 1.806-.614.408-.196 1.055-.634 1.437-.973a5.2 5.2 0 001.101-1.436c.223-.45.493-1.153.6-1.56.145-.556.194-1.918.194-5.453 0-4.54-.012-4.747-.326-5.696-.18-.541-.521-1.283-.757-1.648a5.915 5.915 0 00-1.019-1.14 7.424 7.424 0 00-1.302-.807c-.393-.182-1.226-.465-1.851-.63-1.113-.295-1.311-.302-9.869-.326-4.804-.014-9.115.029-9.581.095zM.922 18.806v2.63l4.828-.038 4.829-.037v15.28h7.1V21.433l4.864-.035 4.864-.036v-5.116l-13.242-.034-13.243-.034v2.63zm29.484-2.418c-.047.116-.07 4.705-.051 10.198l.034 9.988 3.515.036 3.515.036v-5.255h6c5.432 0 6.046.023 6.487.236.268.13.62.406.78.615.261.336.3.609.34 2.39l.046 2.01h7.08V34.51c0-1.172-.074-2.483-.165-2.913-.091-.431-.361-1.059-.603-1.402a3.355 3.355 0 00-1.148-.99c-.391-.203-.96-.41-1.263-.458l-.553-.089.87-.299c.478-.164 1.097-.462 1.374-.663.278-.201.658-.588.845-.86.186-.271.42-.766.522-1.1.117-.385.183-1.412.182-2.826 0-1.732-.056-2.4-.252-3.03a6.35 6.35 0 00-.748-1.501c-.273-.382-.748-.852-1.057-1.046a8.316 8.316 0 00-1.248-.608c-.379-.142-1.182-.323-1.786-.402-.702-.093-4.965-.145-11.864-.145-9.628 0-10.776.022-10.852.21zM63.265 26.41v10.232h6.959V16.178h-6.959V26.41zM75.29 16.267c-.053.05-.096 4.654-.096 10.233v10.142h7.1V29.64H98.2v-4.712H82.295v-3.77H99.058l-.038-2.457-.039-2.457-11.798-.034c-6.489-.019-11.841.006-11.894.056zm62.673 10.143v10.232h6.959V31.39h6c5.431 0 6.046.023 6.487.236.268.13.619.406.781.615.26.336.299.609.34 2.39l.045 2.01H165.656v-2.215c0-1.218-.068-2.515-.151-2.881a4.615 4.615 0 00-.561-1.28c-.226-.337-.661-.763-.968-.947a5.995 5.995 0 00-1.232-.52l-.675-.186.893-.31a4.106 4.106 0 001.572-.951c.502-.477.746-.85.936-1.433.204-.627.256-1.244.255-3.01-.001-1.908-.045-2.354-.313-3.163-.172-.519-.505-1.19-.74-1.494a4.938 4.938 0 00-.983-.915c-.304-.2-.874-.48-1.267-.62-.392-.142-1.245-.32-1.896-.398-.728-.087-5.292-.14-11.873-.14h-10.69v10.23zm32.379-.003v10.235h7.1V28.833h2.974l5.006 3.904 5.006 3.904 4.975-.004 4.974-.005-.355-.28a2218.65 2218.65 0 00-6.859-5.202l-6.504-4.922.327-.301c.179-.165 2.883-2.369 6.007-4.896 3.124-2.527 5.702-4.653 5.728-4.724.029-.08-1.706-.129-4.638-.129h-4.684l-4.425 3.77-4.425 3.77h-3.102l-.038-3.737-.038-3.736-3.514-.036-3.515-.036v10.235zm-45.515-4.642c.753.357.902.497 1.278 1.202l.426.798-.001 2.635c0 1.81-.06 2.823-.191 3.236-.108.342-.415.814-.711 1.094-.393.374-.715.532-1.316.65-.55.109-2.569.145-6.531.118l-5.735-.04-.71-.336c-.568-.27-.781-.471-1.065-1.01-.335-.635-.358-.818-.404-3.255-.038-2.072-.003-2.73.179-3.323.125-.408.386-.92.58-1.138.193-.218.577-.498.853-.622a6.031 6.031 0 011.102-.342c.331-.064 3.03-.107 5.998-.094l5.396.023.852.404zm-74.516-.13c.298.113.651.38.784.592.177.284.241.698.241 1.551 0 .756-.072 1.297-.207 1.543-.113.209-.427.478-.696.6-.43.193-1.25.22-6.752.22H37.42v-4.712h6.175c5.21 0 6.259.032 6.717.205zm107.536.012c.348.132.659.37.784.6.135.247.208.785.208 1.538 0 .787-.071 1.288-.222 1.565-.124.227-.437.493-.706.6-.393.155-1.653.19-6.736.19h-6.253V21.43h6.174c5.367 0 6.251.028 6.751.218zm47.146 12.1v2.895h6.532v-5.79h-6.532v2.895z" fill="#000"/></svg>