<svg width="96" height="36" viewBox="0 0 96 36" fill="none" xmlns="http://www.w3.org/2000/svg"><path fill-rule="evenodd" clip-rule="evenodd" d="M15.224.164c-.586.11-1.681.406-2.435.658-.753.252-1.812.68-2.354.95-.541.27-1.497.83-2.124 1.243-.627.413-1.717 1.31-2.424 1.994-.706.683-1.627 1.719-2.046 2.301-.42.582-1.06 1.624-1.424 2.315-.364.69-.873 1.89-1.132 2.664-.259.774-.564 1.943-.678 2.598-.121.697-.207 1.98-.207 3.099 0 1.119.086 2.401.207 3.1.114.654.412 1.803.663 2.552.25.749.677 1.804.947 2.346.27.54.83 1.496 1.243 2.123.413.627 1.311 1.717 1.995 2.423.683.706 1.72 1.627 2.301 2.046.583.42 1.624 1.06 2.316 1.423.69.364 1.89.874 2.664 1.133.775.259 1.981.57 2.682.692.988.171 1.8.206 3.62.154 1.93-.056 2.593-.13 3.728-.416.76-.192 1.906-.566 2.548-.831a23.446 23.446 0 002.02-.96c.47-.262 1.315-.819 1.878-1.236.563-.417 1.4-1.108 1.861-1.535.461-.428.838-.83.838-.897 0-.065-.392-.12-.871-.12h-.872v-1.642l-.613.565a6.181 6.181 0 01-1.342.899c-.4.183-1.133.39-1.627.46-.58.083-1.24.08-1.862-.007-.53-.073-1.3-.259-1.71-.412-.414-.155-1.047-.551-1.428-.893-.376-.338-.81-.863-.965-1.166a7.483 7.483 0 01-.461-1.222c-.136-.506-.18-2.004-.181-6.133l-.002-5.462h4.014l.038 4.993c.036 4.76.051 5.019.317 5.53.175.334.49.653.838.847.307.172.88.345 1.272.385.47.049.977-.002 1.475-.147.495-.144.922-.383 1.225-.685.285-.285.545-.734.672-1.16.168-.567.206-1.537.206-5.23V14.97h4.023v5.965c0 3.281.051 5.966.114 5.966s.362-.532.664-1.181c.302-.65.701-1.65.888-2.221.187-.572.444-1.564.572-2.204.161-.81.231-1.815.231-3.31 0-1.493-.07-2.497-.231-3.308a23.485 23.485 0 00-.573-2.212 23.7 23.7 0 00-.925-2.283 21.905 21.905 0 00-1.433-2.475 20.744 20.744 0 00-1.922-2.333c-.59-.6-1.563-1.453-2.163-1.894-.6-.441-1.474-1.017-1.944-1.28-.47-.262-1.38-.693-2.021-.959A22.61 22.61 0 0022.766.41C21.572.106 21.04.053 18.838.012c-1.867-.035-2.833.006-3.614.152zm1.015 8.477c.512.268.828.554 1.104 1 .212.344.417.9.455 1.234.038.335-.006.874-.096 1.198a3.46 3.46 0 01-.554 1.06c-.214.26-.65.598-.968.752-.36.175-.842.28-1.278.28-.385 0-.924-.093-1.198-.208a3.478 3.478 0 01-.88-.57 3.845 3.845 0 01-.636-.859c-.17-.328-.256-.773-.256-1.312s.086-.983.256-1.312c.14-.274.427-.66.636-.859.21-.199.593-.453.851-.564.258-.112.78-.206 1.158-.209.5-.004.884.097 1.406.37zm22.645 10.886v10.59h4.023v-1.866l.61.593c.337.327 1.014.792 1.506 1.034.867.427.947.44 2.574.44 1.275 0 1.847-.058 2.375-.242.382-.133 1.06-.477 1.505-.765a5.72 5.72 0 001.408-1.336c.329-.447.73-1.159.89-1.58.159-.423.38-1.28.492-1.907.142-.794.18-1.588.127-2.615-.04-.81-.17-1.836-.286-2.279a10.308 10.308 0 00-.636-1.653c-.234-.467-.74-1.162-1.123-1.545-.383-.384-1.02-.86-1.415-1.058a9.203 9.203 0 00-1.518-.565c-.44-.113-1.224-.205-1.743-.204-.52 0-1.246.082-1.615.18a7.687 7.687 0 00-1.254.478c-.32.164-.848.543-1.173.842l-.59.544V8.937h-4.157v10.59zm18.001-.033l.034 10.557h4.157l.035-10.557.034-10.557H56.85l.034 10.557zm12.237-4.705c-.516.109-1.38.41-1.92.668a6.411 6.411 0 00-1.744 1.232c-.453.454-.932 1.114-1.183 1.633a10.108 10.108 0 00-.637 1.835c-.119.531-.215 1.567-.215 2.304 0 .736.091 1.773.203 2.305.112.53.394 1.364.626 1.852a6.22 6.22 0 001.172 1.625c.411.407 1.121.937 1.577 1.177.456.24 1.296.555 1.865.701.715.183 1.48.265 2.468.265.977 0 1.755-.082 2.447-.26.557-.142 1.31-.409 1.672-.592.361-.183.96-.572 1.33-.865.37-.292.892-.862 1.16-1.265.268-.404.649-1.21.846-1.792.286-.84.372-1.387.42-2.666.045-1.162.003-1.887-.15-2.61a10.712 10.712 0 00-.669-1.96 6.023 6.023 0 00-1.205-1.696 7.198 7.198 0 00-1.725-1.215 10.074 10.074 0 00-2.008-.688 12.84 12.84 0 00-2.213-.198c-.648.005-1.601.1-2.117.21zm10.206.348c.054.092 1.267 1.777 2.695 3.744l2.596 3.576-2.754 3.698c-1.514 2.034-2.753 3.76-2.753 3.834 0 .087.823.122 2.312.098l2.313-.036 1.635-2.28c.9-1.253 1.664-2.278 1.699-2.278.034 0 .812 1.025 1.728 2.279l1.667 2.279 2.518.036c2.191.032 2.508.01 2.44-.164-.042-.11-1.289-1.837-2.77-3.838-2.584-3.49-2.685-3.649-2.495-3.94.11-.166 1.276-1.774 2.594-3.571a303.946 303.946 0 002.497-3.437c.08-.131-.4-.167-2.24-.167h-2.342l-1.576 2.21c-1.065 1.495-1.623 2.171-1.721 2.088-.081-.068-.81-1.062-1.622-2.209l-1.475-2.085-2.522-.002c-1.981-.002-2.501.034-2.424.165zm-31.103 3.565c.283.146.678.436.876.646.2.21.497.682.663 1.05.24.537.302.926.309 1.945.004.718-.074 1.554-.18 1.917-.113.393-.415.898-.774 1.297-.423.471-.78.718-1.272.881-.49.163-.96.21-1.658.165-.741-.048-1.123-.15-1.595-.426-.341-.2-.778-.601-.97-.892-.192-.29-.431-.875-.531-1.3a7.963 7.963 0 01-.182-1.508c0-.406.082-1.084.181-1.508.1-.423.318-.966.485-1.206.167-.24.486-.584.707-.764.221-.18.681-.405 1.021-.502.356-.1.998-.15 1.512-.117.523.034 1.107.167 1.408.322zm24.807 0c.283.146.708.467.945.714.236.246.527.719.645 1.05.119.332.25 1.003.292 1.492.043.501.004 1.276-.09 1.773-.093.496-.332 1.145-.544 1.479a3.33 3.33 0 01-1.025.975c-.588.346-.763.38-1.92.38-1.158 0-1.334-.034-1.922-.38a3.32 3.32 0 01-1.033-.989 4.915 4.915 0 01-.543-1.362c-.088-.423-.126-1.24-.088-1.862.052-.825.16-1.293.423-1.83.196-.4.573-.89.846-1.098a3.954 3.954 0 011.103-.549c.348-.099.993-.148 1.503-.115.524.034 1.106.167 1.408.323z" fill="#000"/></svg>